<?xml version="1.0" encoding="utf-8" standalone="no"?>
<!DOCTYPE svg PUBLIC "-//W3C//DTD SVG 1.1//EN"
  "http://www.w3.org/Graphics/SVG/1.1/DTD/svg11.dtd">
<svg height="216pt" version="1.1" viewBox="0 0 288 216" width="288pt" xmlns="http://www.w3.org/2000/svg" xmlns:xlink="http://www.w3.org/1999/xlink">
 <metadata>
  <rdf:RDF xmlns:cc="http://creativecommons.org/ns#" xmlns:dc="http://purl.org/dc/elements/1.1/" xmlns:rdf="http://www.w3.org/1999/02/22-rdf-syntax-ns#">
   <cc:Work>
    <dc:type rdf:resource="http://purl.org/dc/dcmitype/StillImage"/>
    <dc:date>2022-02-04T20:01:24.967846</dc:date>
    <dc:format>image/svg+xml</dc:format>
    <dc:creator>
     <cc:Agent>
      <dc:title>Matplotlib v3.4.3, https://matplotlib.org/</dc:title>
     </cc:Agent>
    </dc:creator>
   </cc:Work>
  </rdf:RDF>
 </metadata>
 <defs>
  <style type="text/css">*{stroke-linecap:butt;stroke-linejoin:round;}</style>
 </defs>
 <g id="figure_1">
  <g id="patch_1">
   <path d="M 0 216 
L 288 216 
L 288 0 
L 0 0 
z
" style="fill:none;"/>
  </g>
  <g id="axes_1">
   <g id="patch_2">
    <path d="M 36 189 
L 259.2 189 
L 259.2 25.92 
L 36 25.92 
z
" style="fill:#ffffff;"/>
   </g>
   <g id="matplotlib.axis_1">
    <g id="xtick_1">
     <g id="line2d_1">
      <defs>
       <path d="M 0 0 
L 0 3.5 
" id="m5afb44b71c" style="stroke:#000000;stroke-width:0.8;"/>
      </defs>
      <g>
       <use style="stroke:#000000;stroke-width:0.8;" x="46.145455" xlink:href="#m5afb44b71c" y="189"/>
      </g>
     </g>
     <g id="text_1">
      <!-- 0 -->
      <g transform="translate(42.964205 203.598437)scale(0.1 -0.1)">
       <defs>
        <path d="M 2034 4250 
Q 1547 4250 1301 3770 
Q 1056 3291 1056 2328 
Q 1056 1369 1301 889 
Q 1547 409 2034 409 
Q 2525 409 2770 889 
Q 3016 1369 3016 2328 
Q 3016 3291 2770 3770 
Q 2525 4250 2034 4250 
z
M 2034 4750 
Q 2819 4750 3233 4129 
Q 3647 3509 3647 2328 
Q 3647 1150 3233 529 
Q 2819 -91 2034 -91 
Q 1250 -91 836 529 
Q 422 1150 422 2328 
Q 422 3509 836 4129 
Q 1250 4750 2034 4750 
z
" id="DejaVuSans-30" transform="scale(0.015625)"/>
       </defs>
       <use xlink:href="#DejaVuSans-30"/>
      </g>
     </g>
    </g>
    <g id="xtick_2">
     <g id="line2d_2">
      <g>
       <use style="stroke:#000000;stroke-width:0.8;" x="80.076741" xlink:href="#m5afb44b71c" y="189"/>
      </g>
     </g>
     <g id="text_2">
      <!-- 50 -->
      <g transform="translate(73.714241 203.598437)scale(0.1 -0.1)">
       <defs>
        <path d="M 691 4666 
L 3169 4666 
L 3169 4134 
L 1269 4134 
L 1269 2991 
Q 1406 3038 1543 3061 
Q 1681 3084 1819 3084 
Q 2600 3084 3056 2656 
Q 3513 2228 3513 1497 
Q 3513 744 3044 326 
Q 2575 -91 1722 -91 
Q 1428 -91 1123 -41 
Q 819 9 494 109 
L 494 744 
Q 775 591 1075 516 
Q 1375 441 1709 441 
Q 2250 441 2565 725 
Q 2881 1009 2881 1497 
Q 2881 1984 2565 2268 
Q 2250 2553 1709 2553 
Q 1456 2553 1204 2497 
Q 953 2441 691 2322 
L 691 4666 
z
" id="DejaVuSans-35" transform="scale(0.015625)"/>
       </defs>
       <use xlink:href="#DejaVuSans-35"/>
       <use x="63.623047" xlink:href="#DejaVuSans-30"/>
      </g>
     </g>
    </g>
    <g id="xtick_3">
     <g id="line2d_3">
      <g>
       <use style="stroke:#000000;stroke-width:0.8;" x="114.008027" xlink:href="#m5afb44b71c" y="189"/>
      </g>
     </g>
     <g id="text_3">
      <!-- 100 -->
      <g transform="translate(104.464277 203.598437)scale(0.1 -0.1)">
       <defs>
        <path d="M 794 531 
L 1825 531 
L 1825 4091 
L 703 3866 
L 703 4441 
L 1819 4666 
L 2450 4666 
L 2450 531 
L 3481 531 
L 3481 0 
L 794 0 
L 794 531 
z
" id="DejaVuSans-31" transform="scale(0.015625)"/>
       </defs>
       <use xlink:href="#DejaVuSans-31"/>
       <use x="63.623047" xlink:href="#DejaVuSans-30"/>
       <use x="127.246094" xlink:href="#DejaVuSans-30"/>
      </g>
     </g>
    </g>
    <g id="xtick_4">
     <g id="line2d_4">
      <g>
       <use style="stroke:#000000;stroke-width:0.8;" x="147.939313" xlink:href="#m5afb44b71c" y="189"/>
      </g>
     </g>
     <g id="text_4">
      <!-- 150 -->
      <g transform="translate(138.395563 203.598437)scale(0.1 -0.1)">
       <use xlink:href="#DejaVuSans-31"/>
       <use x="63.623047" xlink:href="#DejaVuSans-35"/>
       <use x="127.246094" xlink:href="#DejaVuSans-30"/>
      </g>
     </g>
    </g>
    <g id="xtick_5">
     <g id="line2d_5">
      <g>
       <use style="stroke:#000000;stroke-width:0.8;" x="181.870599" xlink:href="#m5afb44b71c" y="189"/>
      </g>
     </g>
     <g id="text_5">
      <!-- 200 -->
      <g transform="translate(172.326849 203.598437)scale(0.1 -0.1)">
       <defs>
        <path d="M 1228 531 
L 3431 531 
L 3431 0 
L 469 0 
L 469 531 
Q 828 903 1448 1529 
Q 2069 2156 2228 2338 
Q 2531 2678 2651 2914 
Q 2772 3150 2772 3378 
Q 2772 3750 2511 3984 
Q 2250 4219 1831 4219 
Q 1534 4219 1204 4116 
Q 875 4013 500 3803 
L 500 4441 
Q 881 4594 1212 4672 
Q 1544 4750 1819 4750 
Q 2544 4750 2975 4387 
Q 3406 4025 3406 3419 
Q 3406 3131 3298 2873 
Q 3191 2616 2906 2266 
Q 2828 2175 2409 1742 
Q 1991 1309 1228 531 
z
" id="DejaVuSans-32" transform="scale(0.015625)"/>
       </defs>
       <use xlink:href="#DejaVuSans-32"/>
       <use x="63.623047" xlink:href="#DejaVuSans-30"/>
       <use x="127.246094" xlink:href="#DejaVuSans-30"/>
      </g>
     </g>
    </g>
    <g id="xtick_6">
     <g id="line2d_6">
      <g>
       <use style="stroke:#000000;stroke-width:0.8;" x="215.801885" xlink:href="#m5afb44b71c" y="189"/>
      </g>
     </g>
     <g id="text_6">
      <!-- 250 -->
      <g transform="translate(206.258135 203.598437)scale(0.1 -0.1)">
       <use xlink:href="#DejaVuSans-32"/>
       <use x="63.623047" xlink:href="#DejaVuSans-35"/>
       <use x="127.246094" xlink:href="#DejaVuSans-30"/>
      </g>
     </g>
    </g>
    <g id="xtick_7">
     <g id="line2d_7">
      <g>
       <use style="stroke:#000000;stroke-width:0.8;" x="249.733171" xlink:href="#m5afb44b71c" y="189"/>
      </g>
     </g>
     <g id="text_7">
      <!-- 300 -->
      <g transform="translate(240.189421 203.598437)scale(0.1 -0.1)">
       <defs>
        <path d="M 2597 2516 
Q 3050 2419 3304 2112 
Q 3559 1806 3559 1356 
Q 3559 666 3084 287 
Q 2609 -91 1734 -91 
Q 1441 -91 1130 -33 
Q 819 25 488 141 
L 488 750 
Q 750 597 1062 519 
Q 1375 441 1716 441 
Q 2309 441 2620 675 
Q 2931 909 2931 1356 
Q 2931 1769 2642 2001 
Q 2353 2234 1838 2234 
L 1294 2234 
L 1294 2753 
L 1863 2753 
Q 2328 2753 2575 2939 
Q 2822 3125 2822 3475 
Q 2822 3834 2567 4026 
Q 2313 4219 1838 4219 
Q 1578 4219 1281 4162 
Q 984 4106 628 3988 
L 628 4550 
Q 988 4650 1302 4700 
Q 1616 4750 1894 4750 
Q 2613 4750 3031 4423 
Q 3450 4097 3450 3541 
Q 3450 3153 3228 2886 
Q 3006 2619 2597 2516 
z
" id="DejaVuSans-33" transform="scale(0.015625)"/>
       </defs>
       <use xlink:href="#DejaVuSans-33"/>
       <use x="63.623047" xlink:href="#DejaVuSans-30"/>
       <use x="127.246094" xlink:href="#DejaVuSans-30"/>
      </g>
     </g>
    </g>
    <g id="text_8">
     <!-- epoch -->
     <g transform="translate(132.371875 217.276563)scale(0.1 -0.1)">
      <defs>
       <path d="M 3597 1894 
L 3597 1613 
L 953 1613 
Q 991 1019 1311 708 
Q 1631 397 2203 397 
Q 2534 397 2845 478 
Q 3156 559 3463 722 
L 3463 178 
Q 3153 47 2828 -22 
Q 2503 -91 2169 -91 
Q 1331 -91 842 396 
Q 353 884 353 1716 
Q 353 2575 817 3079 
Q 1281 3584 2069 3584 
Q 2775 3584 3186 3129 
Q 3597 2675 3597 1894 
z
M 3022 2063 
Q 3016 2534 2758 2815 
Q 2500 3097 2075 3097 
Q 1594 3097 1305 2825 
Q 1016 2553 972 2059 
L 3022 2063 
z
" id="DejaVuSans-65" transform="scale(0.015625)"/>
       <path d="M 1159 525 
L 1159 -1331 
L 581 -1331 
L 581 3500 
L 1159 3500 
L 1159 2969 
Q 1341 3281 1617 3432 
Q 1894 3584 2278 3584 
Q 2916 3584 3314 3078 
Q 3713 2572 3713 1747 
Q 3713 922 3314 415 
Q 2916 -91 2278 -91 
Q 1894 -91 1617 61 
Q 1341 213 1159 525 
z
M 3116 1747 
Q 3116 2381 2855 2742 
Q 2594 3103 2138 3103 
Q 1681 3103 1420 2742 
Q 1159 2381 1159 1747 
Q 1159 1113 1420 752 
Q 1681 391 2138 391 
Q 2594 391 2855 752 
Q 3116 1113 3116 1747 
z
" id="DejaVuSans-70" transform="scale(0.015625)"/>
       <path d="M 1959 3097 
Q 1497 3097 1228 2736 
Q 959 2375 959 1747 
Q 959 1119 1226 758 
Q 1494 397 1959 397 
Q 2419 397 2687 759 
Q 2956 1122 2956 1747 
Q 2956 2369 2687 2733 
Q 2419 3097 1959 3097 
z
M 1959 3584 
Q 2709 3584 3137 3096 
Q 3566 2609 3566 1747 
Q 3566 888 3137 398 
Q 2709 -91 1959 -91 
Q 1206 -91 779 398 
Q 353 888 353 1747 
Q 353 2609 779 3096 
Q 1206 3584 1959 3584 
z
" id="DejaVuSans-6f" transform="scale(0.015625)"/>
       <path d="M 3122 3366 
L 3122 2828 
Q 2878 2963 2633 3030 
Q 2388 3097 2138 3097 
Q 1578 3097 1268 2742 
Q 959 2388 959 1747 
Q 959 1106 1268 751 
Q 1578 397 2138 397 
Q 2388 397 2633 464 
Q 2878 531 3122 666 
L 3122 134 
Q 2881 22 2623 -34 
Q 2366 -91 2075 -91 
Q 1284 -91 818 406 
Q 353 903 353 1747 
Q 353 2603 823 3093 
Q 1294 3584 2113 3584 
Q 2378 3584 2631 3529 
Q 2884 3475 3122 3366 
z
" id="DejaVuSans-63" transform="scale(0.015625)"/>
       <path d="M 3513 2113 
L 3513 0 
L 2938 0 
L 2938 2094 
Q 2938 2591 2744 2837 
Q 2550 3084 2163 3084 
Q 1697 3084 1428 2787 
Q 1159 2491 1159 1978 
L 1159 0 
L 581 0 
L 581 4863 
L 1159 4863 
L 1159 2956 
Q 1366 3272 1645 3428 
Q 1925 3584 2291 3584 
Q 2894 3584 3203 3211 
Q 3513 2838 3513 2113 
z
" id="DejaVuSans-68" transform="scale(0.015625)"/>
      </defs>
      <use xlink:href="#DejaVuSans-65"/>
      <use x="61.523438" xlink:href="#DejaVuSans-70"/>
      <use x="125" xlink:href="#DejaVuSans-6f"/>
      <use x="186.181641" xlink:href="#DejaVuSans-63"/>
      <use x="241.162109" xlink:href="#DejaVuSans-68"/>
     </g>
    </g>
   </g>
   <g id="matplotlib.axis_2">
    <g id="ytick_1">
     <g id="line2d_8">
      <defs>
       <path d="M 0 0 
L -3.5 0 
" id="m764b03307f" style="stroke:#000000;stroke-width:0.8;"/>
      </defs>
      <g>
       <use style="stroke:#000000;stroke-width:0.8;" x="36" xlink:href="#m764b03307f" y="182.373287"/>
      </g>
     </g>
     <g id="text_9">
      <!-- 0 -->
      <g transform="translate(22.6375 186.172505)scale(0.1 -0.1)">
       <use xlink:href="#DejaVuSans-30"/>
      </g>
     </g>
    </g>
    <g id="ytick_2">
     <g id="line2d_9">
      <g>
       <use style="stroke:#000000;stroke-width:0.8;" x="36" xlink:href="#m764b03307f" y="147.775085"/>
      </g>
     </g>
     <g id="text_10">
      <!-- 2 -->
      <g transform="translate(22.6375 151.574304)scale(0.1 -0.1)">
       <use xlink:href="#DejaVuSans-32"/>
      </g>
     </g>
    </g>
    <g id="ytick_3">
     <g id="line2d_10">
      <g>
       <use style="stroke:#000000;stroke-width:0.8;" x="36" xlink:href="#m764b03307f" y="113.176883"/>
      </g>
     </g>
     <g id="text_11">
      <!-- 4 -->
      <g transform="translate(22.6375 116.976102)scale(0.1 -0.1)">
       <defs>
        <path d="M 2419 4116 
L 825 1625 
L 2419 1625 
L 2419 4116 
z
M 2253 4666 
L 3047 4666 
L 3047 1625 
L 3713 1625 
L 3713 1100 
L 3047 1100 
L 3047 0 
L 2419 0 
L 2419 1100 
L 313 1100 
L 313 1709 
L 2253 4666 
z
" id="DejaVuSans-34" transform="scale(0.015625)"/>
       </defs>
       <use xlink:href="#DejaVuSans-34"/>
      </g>
     </g>
    </g>
    <g id="ytick_4">
     <g id="line2d_11">
      <g>
       <use style="stroke:#000000;stroke-width:0.8;" x="36" xlink:href="#m764b03307f" y="78.578682"/>
      </g>
     </g>
     <g id="text_12">
      <!-- 6 -->
      <g transform="translate(22.6375 82.3779)scale(0.1 -0.1)">
       <defs>
        <path d="M 2113 2584 
Q 1688 2584 1439 2293 
Q 1191 2003 1191 1497 
Q 1191 994 1439 701 
Q 1688 409 2113 409 
Q 2538 409 2786 701 
Q 3034 994 3034 1497 
Q 3034 2003 2786 2293 
Q 2538 2584 2113 2584 
z
M 3366 4563 
L 3366 3988 
Q 3128 4100 2886 4159 
Q 2644 4219 2406 4219 
Q 1781 4219 1451 3797 
Q 1122 3375 1075 2522 
Q 1259 2794 1537 2939 
Q 1816 3084 2150 3084 
Q 2853 3084 3261 2657 
Q 3669 2231 3669 1497 
Q 3669 778 3244 343 
Q 2819 -91 2113 -91 
Q 1303 -91 875 529 
Q 447 1150 447 2328 
Q 447 3434 972 4092 
Q 1497 4750 2381 4750 
Q 2619 4750 2861 4703 
Q 3103 4656 3366 4563 
z
" id="DejaVuSans-36" transform="scale(0.015625)"/>
       </defs>
       <use xlink:href="#DejaVuSans-36"/>
      </g>
     </g>
    </g>
    <g id="ytick_5">
     <g id="line2d_12">
      <g>
       <use style="stroke:#000000;stroke-width:0.8;" x="36" xlink:href="#m764b03307f" y="43.98048"/>
      </g>
     </g>
     <g id="text_13">
      <!-- 8 -->
      <g transform="translate(22.6375 47.779699)scale(0.1 -0.1)">
       <defs>
        <path d="M 2034 2216 
Q 1584 2216 1326 1975 
Q 1069 1734 1069 1313 
Q 1069 891 1326 650 
Q 1584 409 2034 409 
Q 2484 409 2743 651 
Q 3003 894 3003 1313 
Q 3003 1734 2745 1975 
Q 2488 2216 2034 2216 
z
M 1403 2484 
Q 997 2584 770 2862 
Q 544 3141 544 3541 
Q 544 4100 942 4425 
Q 1341 4750 2034 4750 
Q 2731 4750 3128 4425 
Q 3525 4100 3525 3541 
Q 3525 3141 3298 2862 
Q 3072 2584 2669 2484 
Q 3125 2378 3379 2068 
Q 3634 1759 3634 1313 
Q 3634 634 3220 271 
Q 2806 -91 2034 -91 
Q 1263 -91 848 271 
Q 434 634 434 1313 
Q 434 1759 690 2068 
Q 947 2378 1403 2484 
z
M 1172 3481 
Q 1172 3119 1398 2916 
Q 1625 2713 2034 2713 
Q 2441 2713 2670 2916 
Q 2900 3119 2900 3481 
Q 2900 3844 2670 4047 
Q 2441 4250 2034 4250 
Q 1625 4250 1398 4047 
Q 1172 3844 1172 3481 
z
" id="DejaVuSans-38" transform="scale(0.015625)"/>
       </defs>
       <use xlink:href="#DejaVuSans-38"/>
      </g>
     </g>
    </g>
   </g>
   <g id="line2d_13">
    <path clip-path="url(#p460c1b954e)" d="M 46.145455 153.662711 
L 46.82408 171.590446 
L 47.502706 178.724329 
L 48.181332 180.973823 
L 48.859957 177.381484 
L 49.538583 172.604874 
L 50.217209 179.402018 
L 50.895835 179.163915 
L 51.57446 179.694925 
L 52.931712 179.943612 
L 53.610337 178.667181 
L 54.288963 175.728101 
L 54.967589 176.04657 
L 55.646215 177.971755 
L 56.32484 179.338757 
L 57.003466 179.708637 
L 57.682092 178.500209 
L 58.360718 180.121441 
L 59.039343 179.353681 
L 59.717969 176.56528 
L 60.396595 176.661909 
L 61.753846 179.858305 
L 62.432472 179.230701 
L 63.111098 179.927029 
L 63.789723 180.813867 
L 64.468349 179.28364 
L 65.146975 180.899221 
L 65.8256 180.449441 
L 66.504226 178.666292 
L 67.182852 179.81711 
L 67.861478 179.505493 
L 68.540103 177.173814 
L 69.218729 177.197697 
L 69.897355 179.539363 
L 70.575981 177.425026 
L 71.254606 179.535064 
L 71.933232 180.03379 
L 72.611858 179.792512 
L 73.290483 179.928699 
L 73.969109 179.831389 
L 74.647735 179.262788 
L 75.326361 179.223383 
L 76.004986 179.631954 
L 77.362238 180.800323 
L 78.040863 180.64548 
L 78.719489 179.835691 
L 79.398115 181.123585 
L 80.076741 180.101935 
L 80.755366 180.620678 
L 81.433992 180.96187 
L 82.112618 180.011445 
L 82.791244 180.433217 
L 83.469869 180.309034 
L 84.148495 180.710632 
L 84.827121 180.114133 
L 85.505746 179.784954 
L 86.184372 180.909565 
L 86.862998 179.798261 
L 87.541624 180.321633 
L 89.577501 180.869243 
L 90.256126 180.612735 
L 90.934752 178.739716 
L 91.613378 178.869713 
L 92.292004 180.504961 
L 92.970629 177.912468 
L 93.649255 180.353229 
L 94.327881 180.023776 
L 95.006507 180.264392 
L 95.685132 179.483277 
L 96.363758 179.181017 
L 97.042384 180.348755 
L 97.721009 179.338514 
L 98.399635 178.670685 
L 99.078261 179.989195 
L 99.756887 178.66096 
L 100.435512 180.002112 
L 101.114138 178.914627 
L 101.792764 180.530308 
L 102.471389 179.282173 
L 103.150015 180.09663 
L 103.828641 179.828814 
L 104.507267 179.24853 
L 105.185892 180.595035 
L 106.543144 179.104941 
L 107.22177 179.606361 
L 107.900395 180.537711 
L 108.579021 179.667438 
L 109.257647 178.996269 
L 109.936272 178.789621 
L 110.614898 179.680962 
L 111.293524 179.827774 
L 111.97215 179.733139 
L 112.650775 179.414533 
L 113.329401 180.693337 
L 114.008027 176.78481 
L 114.686652 179.045922 
L 115.365278 179.132539 
L 116.043904 179.09491 
L 116.72253 179.397259 
L 117.401155 177.19014 
L 118.079781 180.422379 
L 118.758407 177.8249 
L 120.115658 179.621737 
L 120.794284 180.080407 
L 122.151535 180.008662 
L 122.830161 179.261062 
L 123.508787 179.044397 
L 124.187413 176.050905 
L 124.866038 180.080554 
L 125.544664 178.918392 
L 126.22329 180.689598 
L 126.901915 180.575293 
L 127.580541 179.371826 
L 128.259167 179.91029 
L 128.937793 179.618179 
L 129.616418 178.966839 
L 130.295044 179.906023 
L 130.97367 179.81039 
L 131.652296 179.080023 
L 132.330921 180.3785 
L 133.009547 178.775721 
L 134.366798 179.989167 
L 135.045424 179.190454 
L 135.72405 180.608222 
L 136.402676 179.376292 
L 137.081301 180.931397 
L 137.759927 177.979241 
L 138.438553 180.992906 
L 139.117178 179.399299 
L 139.795804 180.991404 
L 140.47443 179.624889 
L 141.153056 179.753925 
L 141.831681 179.611757 
L 142.510307 179.195396 
L 143.188933 179.5973 
L 143.867559 179.626 
L 144.546184 179.207791 
L 145.22481 180.717603 
L 145.903436 179.67865 
L 146.582061 180.306411 
L 147.260687 179.112143 
L 147.939313 180.823846 
L 148.617939 180.423343 
L 149.97519 180.949434 
L 150.653816 180.641458 
L 151.332441 180.708986 
L 152.011067 180.400165 
L 152.689693 179.680301 
L 153.368319 177.03414 
L 154.046944 179.832147 
L 154.72557 177.703148 
L 155.404196 180.020091 
L 156.761447 179.789943 
L 157.440073 180.717112 
L 158.118699 180.106688 
L 158.797324 181.139053 
L 159.47595 180.692945 
L 160.833202 179.445349 
L 161.511827 179.677688 
L 162.190453 180.399475 
L 162.869079 178.307722 
L 163.547704 180.803173 
L 164.22633 180.277576 
L 164.904956 180.285652 
L 165.583582 180.139404 
L 166.262207 180.640363 
L 166.940833 179.894969 
L 167.619459 181.587273 
L 168.298085 180.900968 
L 168.97671 180.903592 
L 169.655336 180.576394 
L 170.333962 181.059644 
L 171.012587 180.658779 
L 171.691213 180.933373 
L 172.369839 180.607823 
L 173.048465 180.010637 
L 173.72709 179.775809 
L 174.405716 180.237274 
L 175.084342 179.588661 
L 175.762967 180.676392 
L 176.441593 180.60119 
L 177.120219 180.923221 
L 177.798845 180.940836 
L 178.47747 180.778149 
L 179.156096 180.489572 
L 179.834722 180.805346 
L 180.513348 179.278419 
L 181.191973 180.232845 
L 181.870599 179.3003 
L 182.549225 180.471788 
L 183.22785 179.720574 
L 183.906476 180.845921 
L 184.585102 179.551387 
L 185.263728 180.155885 
L 185.942353 180.389109 
L 186.620979 181.035436 
L 187.299605 180.084797 
L 187.97823 180.425144 
L 188.656856 180.920887 
L 189.335482 178.764492 
L 190.014108 180.074641 
L 190.692733 180.029744 
L 191.371359 180.141072 
L 192.049985 177.432131 
L 192.728611 180.716688 
L 193.407236 179.629427 
L 194.085862 180.073271 
L 194.764488 180.091442 
L 195.443113 179.190541 
L 196.121739 180.434119 
L 196.800365 180.286583 
L 197.478991 178.941086 
L 198.157616 179.348927 
L 198.836242 180.03441 
L 200.193493 179.253027 
L 200.872119 179.538496 
L 201.550745 179.675092 
L 202.229371 178.211179 
L 202.907996 180.062147 
L 203.586622 180.277211 
L 204.943874 178.529233 
L 205.622499 179.60926 
L 206.301125 180.235865 
L 206.979751 178.970355 
L 207.658376 180.770446 
L 208.337002 179.409717 
L 209.015628 180.964483 
L 209.694254 180.305935 
L 210.372879 180.313202 
L 211.051505 178.458089 
L 211.730131 177.306887 
L 212.408756 178.679054 
L 213.087382 179.068915 
L 213.766008 179.876664 
L 214.444634 180.331815 
L 215.123259 179.64084 
L 215.801885 180.168664 
L 216.480511 180.017741 
L 217.159137 178.575855 
L 218.516388 179.776962 
L 219.195014 179.318097 
L 219.873639 180.354008 
L 220.552265 180.550499 
L 221.230891 179.677641 
L 221.909517 180.217631 
L 222.588142 178.246593 
L 223.266768 179.820961 
L 223.945394 177.328828 
L 224.624019 179.861041 
L 225.302645 178.93058 
L 225.981271 179.721456 
L 226.659897 179.390183 
L 227.338522 179.82839 
L 228.017148 179.93613 
L 228.695774 179.778335 
L 229.3744 180.637063 
L 230.053025 178.867036 
L 230.731651 178.682388 
L 231.410277 179.967438 
L 232.088902 179.26142 
L 232.767528 180.389165 
L 233.446154 179.93272 
L 234.12478 180.166333 
L 234.803405 180.834572 
L 235.482031 179.817715 
L 236.160657 180.290423 
L 236.839282 179.03764 
L 237.517908 179.74062 
L 238.196534 180.05373 
L 240.232411 180.016033 
L 240.911037 180.771804 
L 241.589663 179.605978 
L 242.268288 180.406666 
L 242.946914 180.117259 
L 243.62554 180.03467 
L 244.304165 179.381842 
L 244.982791 180.228436 
L 245.661417 179.312921 
L 246.340043 179.887768 
L 247.018668 179.933256 
L 248.37592 180.331939 
L 249.054545 180.020656 
L 249.054545 180.020656 
" style="fill:none;stroke:#008000;stroke-linecap:square;stroke-width:1.5;"/>
   </g>
   <g id="line2d_14">
    <path clip-path="url(#p460c1b954e)" d="M 46.145455 164.633907 
L 46.82408 141.237175 
L 47.502706 111.025689 
L 48.181332 94.14408 
L 48.859957 110.755317 
L 49.538583 103.515504 
L 50.217209 71.927606 
L 50.895835 75.664692 
L 51.57446 71.742757 
L 52.253086 66.460076 
L 52.931712 54.87291 
L 54.288963 130.588272 
L 54.967589 147.769414 
L 55.646215 141.865812 
L 56.32484 126.615842 
L 57.003466 125.188357 
L 58.360718 103.483589 
L 59.039343 127.764124 
L 59.717969 122.336085 
L 60.396595 129.843577 
L 61.07522 107.973242 
L 61.753846 68.557677 
L 62.432472 82.802441 
L 63.111098 73.264935 
L 63.789723 79.641695 
L 64.468349 104.730387 
L 65.146975 97.913814 
L 65.8256 103.574079 
L 66.504226 104.089451 
L 67.182852 108.125764 
L 67.861478 106.329353 
L 68.540103 112.515004 
L 69.218729 112.51351 
L 69.897355 104.820604 
L 70.575981 105.773636 
L 71.254606 87.305243 
L 71.933232 92.527931 
L 72.611858 98.82212 
L 73.290483 93.629854 
L 73.969109 99.208563 
L 74.647735 96.144864 
L 75.326361 96.228276 
L 76.004986 103.197271 
L 76.683612 102.013173 
L 77.362238 102.609672 
L 78.040863 100.335777 
L 78.719489 110.778859 
L 79.398115 101.73418 
L 80.076741 74.892203 
L 80.755366 86.007113 
L 81.433992 80.738793 
L 82.112618 86.59161 
L 82.791244 85.35778 
L 83.469869 81.925126 
L 84.148495 88.782028 
L 84.827121 75.852048 
L 85.505746 87.856919 
L 86.184372 83.603438 
L 86.862998 82.381502 
L 87.541624 87.63316 
L 88.220249 73.238836 
L 88.898875 78.264574 
L 89.577501 68.648538 
L 90.256126 69.609571 
L 90.934752 73.060652 
L 91.613378 94.918309 
L 92.292004 88.906668 
L 92.970629 68.647862 
L 93.649255 85.74918 
L 94.327881 90.655285 
L 95.006507 94.6067 
L 95.685132 107.963921 
L 96.363758 116.944189 
L 97.042384 99.220812 
L 97.721009 95.509851 
L 98.399635 106.680663 
L 99.078261 108.788377 
L 99.756887 85.482197 
L 100.435512 94.970095 
L 101.114138 87.633523 
L 101.792764 67.167836 
L 102.471389 69.848895 
L 103.150015 92.935309 
L 103.828641 81.423522 
L 104.507267 102.24994 
L 105.185892 76.654241 
L 105.864518 62.814602 
L 106.543144 95.000187 
L 107.22177 106.747215 
L 107.900395 93.269256 
L 108.579021 77.367436 
L 109.257647 95.589279 
L 109.936272 99.385187 
L 110.614898 92.964394 
L 111.293524 68.652085 
L 111.97215 87.829244 
L 112.650775 88.691307 
L 113.329401 89.196194 
L 114.008027 33.332727 
L 114.686652 88.506532 
L 115.365278 71.001441 
L 116.043904 67.870564 
L 116.72253 82.897163 
L 117.401155 82.996331 
L 118.079781 87.844496 
L 118.758407 84.10906 
L 119.437033 67.65413 
L 120.115658 58.369171 
L 120.794284 60.481842 
L 121.47291 85.966553 
L 122.151535 99.096667 
L 122.830161 98.542657 
L 123.508787 89.980182 
L 124.187413 94.951997 
L 125.544664 98.986338 
L 126.22329 96.035789 
L 126.901915 92.053325 
L 127.580541 100.35319 
L 128.259167 94.713094 
L 128.937793 93.157946 
L 129.616418 86.608075 
L 130.295044 94.096154 
L 130.97367 95.37433 
L 131.652296 93.299422 
L 132.330921 65.068775 
L 133.009547 70.166797 
L 133.688173 98.109419 
L 134.366798 84.912606 
L 135.045424 103.265836 
L 135.72405 88.381966 
L 136.402676 107.013513 
L 137.081301 94.99212 
L 137.759927 99.710844 
L 138.438553 94.666348 
L 139.117178 103.619027 
L 139.795804 93.398969 
L 140.47443 93.438101 
L 141.153056 97.311433 
L 141.831681 97.866515 
L 142.510307 97.319402 
L 143.188933 92.159034 
L 143.867559 93.668129 
L 144.546184 92.23838 
L 145.22481 83.556519 
L 145.903436 60.069218 
L 146.582061 92.227805 
L 147.260687 94.250391 
L 147.939313 75.023706 
L 148.617939 102.949228 
L 149.296564 97.544266 
L 150.653816 82.793871 
L 151.332441 96.757589 
L 152.011067 94.496966 
L 152.689693 105.044643 
L 153.368319 106.593852 
L 154.72557 74.234876 
L 155.404196 91.72804 
L 156.082822 76.166808 
L 156.761447 82.140042 
L 157.440073 93.05792 
L 158.118699 93.747367 
L 158.797324 95.851774 
L 159.47595 104.023328 
L 160.154576 107.762187 
L 160.833202 110.08273 
L 161.511827 101.322381 
L 162.190453 102.224129 
L 162.869079 97.841595 
L 163.547704 97.262245 
L 164.22633 98.347852 
L 165.583582 71.733931 
L 166.262207 72.995181 
L 166.940833 83.596369 
L 167.619459 66.249021 
L 168.97671 83.003549 
L 169.655336 85.30521 
L 170.333962 91.533251 
L 171.012587 99.068868 
L 171.691213 76.130735 
L 172.369839 99.64218 
L 173.048465 99.310345 
L 173.72709 93.655756 
L 174.405716 97.951124 
L 175.084342 104.831881 
L 175.762967 76.929538 
L 176.441593 73.171541 
L 177.120219 75.929752 
L 177.798845 74.583193 
L 178.47747 70.125701 
L 179.156096 77.814491 
L 179.834722 92.397146 
L 180.513348 96.699946 
L 181.191973 84.255667 
L 181.870599 93.794246 
L 182.549225 93.490028 
L 183.22785 86.694474 
L 183.906476 86.834481 
L 184.585102 72.722927 
L 185.263728 83.056795 
L 185.942353 67.86427 
L 186.620979 80.095885 
L 187.299605 94.394482 
L 187.97823 86.944026 
L 188.656856 78.062394 
L 189.335482 90.792372 
L 190.014108 100.736308 
L 190.692733 94.227805 
L 191.371359 74.780266 
L 192.049985 96.832513 
L 192.728611 78.517624 
L 193.407236 85.38298 
L 194.085862 77.732984 
L 194.764488 84.545606 
L 195.443113 79.105272 
L 196.121739 71.866985 
L 196.800365 66.707178 
L 198.157616 91.639282 
L 198.836242 97.358089 
L 199.514868 104.06119 
L 200.193493 90.748637 
L 200.872119 93.372424 
L 201.550745 87.6691 
L 202.229371 94.538862 
L 202.907996 99.229028 
L 203.586622 79.490172 
L 204.265248 86.701518 
L 204.943874 74.96551 
L 205.622499 92.696241 
L 206.301125 98.433409 
L 206.979751 94.320622 
L 207.658376 87.175687 
L 208.337002 104.629338 
L 209.015628 90.099972 
L 210.372879 97.400884 
L 211.051505 105.074323 
L 211.730131 120.234459 
L 212.408756 97.161494 
L 213.087382 94.9721 
L 213.766008 88.421115 
L 214.444634 79.148092 
L 215.123259 96.642756 
L 215.801885 89.840257 
L 216.480511 87.217921 
L 217.159137 95.597222 
L 217.837762 88.575583 
L 218.516388 97.497066 
L 219.195014 111.111519 
L 219.873639 90.251883 
L 220.552265 85.188142 
L 221.230891 103.842546 
L 221.909517 103.387358 
L 222.588142 117.652179 
L 223.266768 87.720944 
L 223.945394 67.661571 
L 224.624019 102.885531 
L 225.302645 114.700702 
L 225.981271 97.236336 
L 226.659897 97.131691 
L 227.338522 91.808532 
L 228.017148 83.910543 
L 228.695774 90.448049 
L 229.3744 58.178383 
L 230.053025 100.43327 
L 230.731651 91.089735 
L 231.410277 94.500381 
L 232.088902 82.611687 
L 232.767528 66.63967 
L 233.446154 77.738321 
L 234.12478 79.709765 
L 234.803405 63.913028 
L 235.482031 87.889534 
L 236.160657 92.038906 
L 236.839282 94.865054 
L 237.517908 94.920223 
L 238.196534 102.513243 
L 238.87516 98.49012 
L 239.553785 99.593223 
L 240.232411 103.468757 
L 240.911037 97.622943 
L 241.589663 89.604438 
L 242.268288 76.308655 
L 242.946914 93.28572 
L 243.62554 82.807102 
L 244.304165 84.875857 
L 244.982791 97.604763 
L 245.661417 91.918877 
L 246.340043 72.809961 
L 247.018668 75.91219 
L 247.697294 75.311657 
L 248.37592 79.333633 
L 249.054545 85.157902 
L 249.054545 85.157902 
" style="fill:none;stroke:#9400d3;stroke-linecap:square;stroke-width:1.5;"/>
   </g>
   <g id="patch_3">
    <path d="M 36 189 
L 36 25.92 
" style="fill:none;stroke:#000000;stroke-linecap:square;stroke-linejoin:miter;stroke-width:0.8;"/>
   </g>
   <g id="patch_4">
    <path d="M 259.2 189 
L 259.2 25.92 
" style="fill:none;stroke:#000000;stroke-linecap:square;stroke-linejoin:miter;stroke-width:0.8;"/>
   </g>
   <g id="patch_5">
    <path d="M 36 189 
L 259.2 189 
" style="fill:none;stroke:#000000;stroke-linecap:square;stroke-linejoin:miter;stroke-width:0.8;"/>
   </g>
   <g id="patch_6">
    <path d="M 36 25.92 
L 259.2 25.92 
" style="fill:none;stroke:#000000;stroke-linecap:square;stroke-linejoin:miter;stroke-width:0.8;"/>
   </g>
   <g id="text_14">
    <!-- Losses -->
    <g transform="translate(127.621875 19.92)scale(0.12 -0.12)">
     <defs>
      <path d="M 628 4666 
L 1259 4666 
L 1259 531 
L 3531 531 
L 3531 0 
L 628 0 
L 628 4666 
z
" id="DejaVuSans-4c" transform="scale(0.015625)"/>
      <path d="M 2834 3397 
L 2834 2853 
Q 2591 2978 2328 3040 
Q 2066 3103 1784 3103 
Q 1356 3103 1142 2972 
Q 928 2841 928 2578 
Q 928 2378 1081 2264 
Q 1234 2150 1697 2047 
L 1894 2003 
Q 2506 1872 2764 1633 
Q 3022 1394 3022 966 
Q 3022 478 2636 193 
Q 2250 -91 1575 -91 
Q 1294 -91 989 -36 
Q 684 19 347 128 
L 347 722 
Q 666 556 975 473 
Q 1284 391 1588 391 
Q 1994 391 2212 530 
Q 2431 669 2431 922 
Q 2431 1156 2273 1281 
Q 2116 1406 1581 1522 
L 1381 1569 
Q 847 1681 609 1914 
Q 372 2147 372 2553 
Q 372 3047 722 3315 
Q 1072 3584 1716 3584 
Q 2034 3584 2315 3537 
Q 2597 3491 2834 3397 
z
" id="DejaVuSans-73" transform="scale(0.015625)"/>
     </defs>
     <use xlink:href="#DejaVuSans-4c"/>
     <use x="53.962891" xlink:href="#DejaVuSans-6f"/>
     <use x="115.144531" xlink:href="#DejaVuSans-73"/>
     <use x="167.244141" xlink:href="#DejaVuSans-73"/>
     <use x="219.34375" xlink:href="#DejaVuSans-65"/>
     <use x="280.867188" xlink:href="#DejaVuSans-73"/>
    </g>
   </g>
   <g id="legend_1">
    <g id="patch_7">
     <path d="M 152.990625 63.27625 
L 252.2 63.27625 
Q 254.2 63.27625 254.2 61.27625 
L 254.2 32.92 
Q 254.2 30.92 252.2 30.92 
L 152.990625 30.92 
Q 150.990625 30.92 150.990625 32.92 
L 150.990625 61.27625 
Q 150.990625 63.27625 152.990625 63.27625 
z
" style="fill:#ffffff;opacity:0.8;stroke:#cccccc;stroke-linejoin:miter;"/>
    </g>
    <g id="line2d_15">
     <path d="M 154.990625 39.018438 
L 174.990625 39.018438 
" style="fill:none;stroke:#008000;stroke-linecap:square;stroke-width:1.5;"/>
    </g>
    <g id="line2d_16"/>
    <g id="text_15">
     <!-- Discriminator -->
     <g transform="translate(182.990625 42.518438)scale(0.1 -0.1)">
      <defs>
       <path d="M 1259 4147 
L 1259 519 
L 2022 519 
Q 2988 519 3436 956 
Q 3884 1394 3884 2338 
Q 3884 3275 3436 3711 
Q 2988 4147 2022 4147 
L 1259 4147 
z
M 628 4666 
L 1925 4666 
Q 3281 4666 3915 4102 
Q 4550 3538 4550 2338 
Q 4550 1131 3912 565 
Q 3275 0 1925 0 
L 628 0 
L 628 4666 
z
" id="DejaVuSans-44" transform="scale(0.015625)"/>
       <path d="M 603 3500 
L 1178 3500 
L 1178 0 
L 603 0 
L 603 3500 
z
M 603 4863 
L 1178 4863 
L 1178 4134 
L 603 4134 
L 603 4863 
z
" id="DejaVuSans-69" transform="scale(0.015625)"/>
       <path d="M 2631 2963 
Q 2534 3019 2420 3045 
Q 2306 3072 2169 3072 
Q 1681 3072 1420 2755 
Q 1159 2438 1159 1844 
L 1159 0 
L 581 0 
L 581 3500 
L 1159 3500 
L 1159 2956 
Q 1341 3275 1631 3429 
Q 1922 3584 2338 3584 
Q 2397 3584 2469 3576 
Q 2541 3569 2628 3553 
L 2631 2963 
z
" id="DejaVuSans-72" transform="scale(0.015625)"/>
       <path d="M 3328 2828 
Q 3544 3216 3844 3400 
Q 4144 3584 4550 3584 
Q 5097 3584 5394 3201 
Q 5691 2819 5691 2113 
L 5691 0 
L 5113 0 
L 5113 2094 
Q 5113 2597 4934 2840 
Q 4756 3084 4391 3084 
Q 3944 3084 3684 2787 
Q 3425 2491 3425 1978 
L 3425 0 
L 2847 0 
L 2847 2094 
Q 2847 2600 2669 2842 
Q 2491 3084 2119 3084 
Q 1678 3084 1418 2786 
Q 1159 2488 1159 1978 
L 1159 0 
L 581 0 
L 581 3500 
L 1159 3500 
L 1159 2956 
Q 1356 3278 1631 3431 
Q 1906 3584 2284 3584 
Q 2666 3584 2933 3390 
Q 3200 3197 3328 2828 
z
" id="DejaVuSans-6d" transform="scale(0.015625)"/>
       <path d="M 3513 2113 
L 3513 0 
L 2938 0 
L 2938 2094 
Q 2938 2591 2744 2837 
Q 2550 3084 2163 3084 
Q 1697 3084 1428 2787 
Q 1159 2491 1159 1978 
L 1159 0 
L 581 0 
L 581 3500 
L 1159 3500 
L 1159 2956 
Q 1366 3272 1645 3428 
Q 1925 3584 2291 3584 
Q 2894 3584 3203 3211 
Q 3513 2838 3513 2113 
z
" id="DejaVuSans-6e" transform="scale(0.015625)"/>
       <path d="M 2194 1759 
Q 1497 1759 1228 1600 
Q 959 1441 959 1056 
Q 959 750 1161 570 
Q 1363 391 1709 391 
Q 2188 391 2477 730 
Q 2766 1069 2766 1631 
L 2766 1759 
L 2194 1759 
z
M 3341 1997 
L 3341 0 
L 2766 0 
L 2766 531 
Q 2569 213 2275 61 
Q 1981 -91 1556 -91 
Q 1019 -91 701 211 
Q 384 513 384 1019 
Q 384 1609 779 1909 
Q 1175 2209 1959 2209 
L 2766 2209 
L 2766 2266 
Q 2766 2663 2505 2880 
Q 2244 3097 1772 3097 
Q 1472 3097 1187 3025 
Q 903 2953 641 2809 
L 641 3341 
Q 956 3463 1253 3523 
Q 1550 3584 1831 3584 
Q 2591 3584 2966 3190 
Q 3341 2797 3341 1997 
z
" id="DejaVuSans-61" transform="scale(0.015625)"/>
       <path d="M 1172 4494 
L 1172 3500 
L 2356 3500 
L 2356 3053 
L 1172 3053 
L 1172 1153 
Q 1172 725 1289 603 
Q 1406 481 1766 481 
L 2356 481 
L 2356 0 
L 1766 0 
Q 1100 0 847 248 
Q 594 497 594 1153 
L 594 3053 
L 172 3053 
L 172 3500 
L 594 3500 
L 594 4494 
L 1172 4494 
z
" id="DejaVuSans-74" transform="scale(0.015625)"/>
      </defs>
      <use xlink:href="#DejaVuSans-44"/>
      <use x="77.001953" xlink:href="#DejaVuSans-69"/>
      <use x="104.785156" xlink:href="#DejaVuSans-73"/>
      <use x="156.884766" xlink:href="#DejaVuSans-63"/>
      <use x="211.865234" xlink:href="#DejaVuSans-72"/>
      <use x="252.978516" xlink:href="#DejaVuSans-69"/>
      <use x="280.761719" xlink:href="#DejaVuSans-6d"/>
      <use x="378.173828" xlink:href="#DejaVuSans-69"/>
      <use x="405.957031" xlink:href="#DejaVuSans-6e"/>
      <use x="469.335938" xlink:href="#DejaVuSans-61"/>
      <use x="530.615234" xlink:href="#DejaVuSans-74"/>
      <use x="569.824219" xlink:href="#DejaVuSans-6f"/>
      <use x="631.005859" xlink:href="#DejaVuSans-72"/>
     </g>
    </g>
    <g id="line2d_17">
     <path d="M 154.990625 53.696562 
L 174.990625 53.696562 
" style="fill:none;stroke:#9400d3;stroke-linecap:square;stroke-width:1.5;"/>
    </g>
    <g id="line2d_18"/>
    <g id="text_16">
     <!-- Generator -->
     <g transform="translate(182.990625 57.196562)scale(0.1 -0.1)">
      <defs>
       <path d="M 3809 666 
L 3809 1919 
L 2778 1919 
L 2778 2438 
L 4434 2438 
L 4434 434 
Q 4069 175 3628 42 
Q 3188 -91 2688 -91 
Q 1594 -91 976 548 
Q 359 1188 359 2328 
Q 359 3472 976 4111 
Q 1594 4750 2688 4750 
Q 3144 4750 3555 4637 
Q 3966 4525 4313 4306 
L 4313 3634 
Q 3963 3931 3569 4081 
Q 3175 4231 2741 4231 
Q 1884 4231 1454 3753 
Q 1025 3275 1025 2328 
Q 1025 1384 1454 906 
Q 1884 428 2741 428 
Q 3075 428 3337 486 
Q 3600 544 3809 666 
z
" id="DejaVuSans-47" transform="scale(0.015625)"/>
      </defs>
      <use xlink:href="#DejaVuSans-47"/>
      <use x="77.490234" xlink:href="#DejaVuSans-65"/>
      <use x="139.013672" xlink:href="#DejaVuSans-6e"/>
      <use x="202.392578" xlink:href="#DejaVuSans-65"/>
      <use x="263.916016" xlink:href="#DejaVuSans-72"/>
      <use x="305.029297" xlink:href="#DejaVuSans-61"/>
      <use x="366.308594" xlink:href="#DejaVuSans-74"/>
      <use x="405.517578" xlink:href="#DejaVuSans-6f"/>
      <use x="466.699219" xlink:href="#DejaVuSans-72"/>
     </g>
    </g>
   </g>
  </g>
 </g>
 <defs>
  <clipPath id="p460c1b954e">
   <rect height="163.08" width="223.2" x="36" y="25.92"/>
  </clipPath>
 </defs>
</svg>
