<?xml version="1.0" encoding="utf-8" standalone="no"?>
<!DOCTYPE svg PUBLIC "-//W3C//DTD SVG 1.1//EN"
  "http://www.w3.org/Graphics/SVG/1.1/DTD/svg11.dtd">
<!-- Created with matplotlib (https://matplotlib.org/) -->
<svg height="216pt" version="1.1" viewBox="0 0 288 216" width="288pt" xmlns="http://www.w3.org/2000/svg" xmlns:xlink="http://www.w3.org/1999/xlink">
 <metadata>
  <rdf:RDF xmlns:cc="http://creativecommons.org/ns#" xmlns:dc="http://purl.org/dc/elements/1.1/" xmlns:rdf="http://www.w3.org/1999/02/22-rdf-syntax-ns#">
   <cc:Work>
    <dc:type rdf:resource="http://purl.org/dc/dcmitype/StillImage"/>
    <dc:date>2022-02-03T16:23:20.260202</dc:date>
    <dc:format>image/svg+xml</dc:format>
    <dc:creator>
     <cc:Agent>
      <dc:title>Matplotlib v3.3.4, https://matplotlib.org/</dc:title>
     </cc:Agent>
    </dc:creator>
   </cc:Work>
  </rdf:RDF>
 </metadata>
 <defs>
  <style type="text/css">*{stroke-linecap:butt;stroke-linejoin:round;}</style>
 </defs>
 <g id="figure_1">
  <g id="patch_1">
   <path d="M 0 216 
L 288 216 
L 288 0 
L 0 0 
z
" style="fill:none;"/>
  </g>
  <g id="axes_1">
   <g id="patch_2">
    <path d="M 36 189 
L 259.2 189 
L 259.2 25.92 
L 36 25.92 
z
" style="fill:#ffffff;"/>
   </g>
   <g id="matplotlib.axis_1">
    <g id="xtick_1">
     <g id="line2d_1">
      <defs>
       <path d="M 0 0 
L 0 3.5 
" id="m252fa21c11" style="stroke:#000000;stroke-width:0.8;"/>
      </defs>
      <g>
       <use style="stroke:#000000;stroke-width:0.8;" x="46.145455" xlink:href="#m252fa21c11" y="189"/>
      </g>
     </g>
     <g id="text_1">
      <!-- 0 -->
      <g transform="translate(42.964205 203.598437)scale(0.1 -0.1)">
       <defs>
        <path d="M 31.78125 66.40625 
Q 24.171875 66.40625 20.328125 58.90625 
Q 16.5 51.421875 16.5 36.375 
Q 16.5 21.390625 20.328125 13.890625 
Q 24.171875 6.390625 31.78125 6.390625 
Q 39.453125 6.390625 43.28125 13.890625 
Q 47.125 21.390625 47.125 36.375 
Q 47.125 51.421875 43.28125 58.90625 
Q 39.453125 66.40625 31.78125 66.40625 
z
M 31.78125 74.21875 
Q 44.046875 74.21875 50.515625 64.515625 
Q 56.984375 54.828125 56.984375 36.375 
Q 56.984375 17.96875 50.515625 8.265625 
Q 44.046875 -1.421875 31.78125 -1.421875 
Q 19.53125 -1.421875 13.0625 8.265625 
Q 6.59375 17.96875 6.59375 36.375 
Q 6.59375 54.828125 13.0625 64.515625 
Q 19.53125 74.21875 31.78125 74.21875 
z
" id="DejaVuSans-48"/>
       </defs>
       <use xlink:href="#DejaVuSans-48"/>
      </g>
     </g>
    </g>
    <g id="xtick_2">
     <g id="line2d_2">
      <g>
       <use style="stroke:#000000;stroke-width:0.8;" x="86.808599" xlink:href="#m252fa21c11" y="189"/>
      </g>
     </g>
     <g id="text_2">
      <!-- 100 -->
      <g transform="translate(77.264849 203.598437)scale(0.1 -0.1)">
       <defs>
        <path d="M 12.40625 8.296875 
L 28.515625 8.296875 
L 28.515625 63.921875 
L 10.984375 60.40625 
L 10.984375 69.390625 
L 28.421875 72.90625 
L 38.28125 72.90625 
L 38.28125 8.296875 
L 54.390625 8.296875 
L 54.390625 0 
L 12.40625 0 
z
" id="DejaVuSans-49"/>
       </defs>
       <use xlink:href="#DejaVuSans-49"/>
       <use x="63.623047" xlink:href="#DejaVuSans-48"/>
       <use x="127.246094" xlink:href="#DejaVuSans-48"/>
      </g>
     </g>
    </g>
    <g id="xtick_3">
     <g id="line2d_3">
      <g>
       <use style="stroke:#000000;stroke-width:0.8;" x="127.471743" xlink:href="#m252fa21c11" y="189"/>
      </g>
     </g>
     <g id="text_3">
      <!-- 200 -->
      <g transform="translate(117.927993 203.598437)scale(0.1 -0.1)">
       <defs>
        <path d="M 19.1875 8.296875 
L 53.609375 8.296875 
L 53.609375 0 
L 7.328125 0 
L 7.328125 8.296875 
Q 12.9375 14.109375 22.625 23.890625 
Q 32.328125 33.6875 34.8125 36.53125 
Q 39.546875 41.84375 41.421875 45.53125 
Q 43.3125 49.21875 43.3125 52.78125 
Q 43.3125 58.59375 39.234375 62.25 
Q 35.15625 65.921875 28.609375 65.921875 
Q 23.96875 65.921875 18.8125 64.3125 
Q 13.671875 62.703125 7.8125 59.421875 
L 7.8125 69.390625 
Q 13.765625 71.78125 18.9375 73 
Q 24.125 74.21875 28.421875 74.21875 
Q 39.75 74.21875 46.484375 68.546875 
Q 53.21875 62.890625 53.21875 53.421875 
Q 53.21875 48.921875 51.53125 44.890625 
Q 49.859375 40.875 45.40625 35.40625 
Q 44.1875 33.984375 37.640625 27.21875 
Q 31.109375 20.453125 19.1875 8.296875 
z
" id="DejaVuSans-50"/>
       </defs>
       <use xlink:href="#DejaVuSans-50"/>
       <use x="63.623047" xlink:href="#DejaVuSans-48"/>
       <use x="127.246094" xlink:href="#DejaVuSans-48"/>
      </g>
     </g>
    </g>
    <g id="xtick_4">
     <g id="line2d_4">
      <g>
       <use style="stroke:#000000;stroke-width:0.8;" x="168.134888" xlink:href="#m252fa21c11" y="189"/>
      </g>
     </g>
     <g id="text_4">
      <!-- 300 -->
      <g transform="translate(158.591138 203.598437)scale(0.1 -0.1)">
       <defs>
        <path d="M 40.578125 39.3125 
Q 47.65625 37.796875 51.625 33 
Q 55.609375 28.21875 55.609375 21.1875 
Q 55.609375 10.40625 48.1875 4.484375 
Q 40.765625 -1.421875 27.09375 -1.421875 
Q 22.515625 -1.421875 17.65625 -0.515625 
Q 12.796875 0.390625 7.625 2.203125 
L 7.625 11.71875 
Q 11.71875 9.328125 16.59375 8.109375 
Q 21.484375 6.890625 26.8125 6.890625 
Q 36.078125 6.890625 40.9375 10.546875 
Q 45.796875 14.203125 45.796875 21.1875 
Q 45.796875 27.640625 41.28125 31.265625 
Q 36.765625 34.90625 28.71875 34.90625 
L 20.21875 34.90625 
L 20.21875 43.015625 
L 29.109375 43.015625 
Q 36.375 43.015625 40.234375 45.921875 
Q 44.09375 48.828125 44.09375 54.296875 
Q 44.09375 59.90625 40.109375 62.90625 
Q 36.140625 65.921875 28.71875 65.921875 
Q 24.65625 65.921875 20.015625 65.03125 
Q 15.375 64.15625 9.8125 62.3125 
L 9.8125 71.09375 
Q 15.4375 72.65625 20.34375 73.4375 
Q 25.25 74.21875 29.59375 74.21875 
Q 40.828125 74.21875 47.359375 69.109375 
Q 53.90625 64.015625 53.90625 55.328125 
Q 53.90625 49.265625 50.4375 45.09375 
Q 46.96875 40.921875 40.578125 39.3125 
z
" id="DejaVuSans-51"/>
       </defs>
       <use xlink:href="#DejaVuSans-51"/>
       <use x="63.623047" xlink:href="#DejaVuSans-48"/>
       <use x="127.246094" xlink:href="#DejaVuSans-48"/>
      </g>
     </g>
    </g>
    <g id="xtick_5">
     <g id="line2d_5">
      <g>
       <use style="stroke:#000000;stroke-width:0.8;" x="208.798032" xlink:href="#m252fa21c11" y="189"/>
      </g>
     </g>
     <g id="text_5">
      <!-- 400 -->
      <g transform="translate(199.254282 203.598437)scale(0.1 -0.1)">
       <defs>
        <path d="M 37.796875 64.3125 
L 12.890625 25.390625 
L 37.796875 25.390625 
z
M 35.203125 72.90625 
L 47.609375 72.90625 
L 47.609375 25.390625 
L 58.015625 25.390625 
L 58.015625 17.1875 
L 47.609375 17.1875 
L 47.609375 0 
L 37.796875 0 
L 37.796875 17.1875 
L 4.890625 17.1875 
L 4.890625 26.703125 
z
" id="DejaVuSans-52"/>
       </defs>
       <use xlink:href="#DejaVuSans-52"/>
       <use x="63.623047" xlink:href="#DejaVuSans-48"/>
       <use x="127.246094" xlink:href="#DejaVuSans-48"/>
      </g>
     </g>
    </g>
    <g id="xtick_6">
     <g id="line2d_6">
      <g>
       <use style="stroke:#000000;stroke-width:0.8;" x="249.461177" xlink:href="#m252fa21c11" y="189"/>
      </g>
     </g>
     <g id="text_6">
      <!-- 500 -->
      <g transform="translate(239.917427 203.598437)scale(0.1 -0.1)">
       <defs>
        <path d="M 10.796875 72.90625 
L 49.515625 72.90625 
L 49.515625 64.59375 
L 19.828125 64.59375 
L 19.828125 46.734375 
Q 21.96875 47.46875 24.109375 47.828125 
Q 26.265625 48.1875 28.421875 48.1875 
Q 40.625 48.1875 47.75 41.5 
Q 54.890625 34.8125 54.890625 23.390625 
Q 54.890625 11.625 47.5625 5.09375 
Q 40.234375 -1.421875 26.90625 -1.421875 
Q 22.3125 -1.421875 17.546875 -0.640625 
Q 12.796875 0.140625 7.71875 1.703125 
L 7.71875 11.625 
Q 12.109375 9.234375 16.796875 8.0625 
Q 21.484375 6.890625 26.703125 6.890625 
Q 35.15625 6.890625 40.078125 11.328125 
Q 45.015625 15.765625 45.015625 23.390625 
Q 45.015625 31 40.078125 35.4375 
Q 35.15625 39.890625 26.703125 39.890625 
Q 22.75 39.890625 18.8125 39.015625 
Q 14.890625 38.140625 10.796875 36.28125 
z
" id="DejaVuSans-53"/>
       </defs>
       <use xlink:href="#DejaVuSans-53"/>
       <use x="63.623047" xlink:href="#DejaVuSans-48"/>
       <use x="127.246094" xlink:href="#DejaVuSans-48"/>
      </g>
     </g>
    </g>
   </g>
   <g id="matplotlib.axis_2">
    <g id="ytick_1">
     <g id="line2d_7">
      <defs>
       <path d="M 0 0 
L -3.5 0 
" id="m3111187b6b" style="stroke:#000000;stroke-width:0.8;"/>
      </defs>
      <g>
       <use style="stroke:#000000;stroke-width:0.8;" x="36" xlink:href="#m3111187b6b" y="182.727692"/>
      </g>
     </g>
     <g id="text_7">
      <!-- 0 -->
      <g transform="translate(22.6375 186.526911)scale(0.1 -0.1)">
       <use xlink:href="#DejaVuSans-48"/>
      </g>
     </g>
    </g>
    <g id="ytick_2">
     <g id="line2d_8">
      <g>
       <use style="stroke:#000000;stroke-width:0.8;" x="36" xlink:href="#m3111187b6b" y="151.366154"/>
      </g>
     </g>
     <g id="text_8">
      <!-- 1 -->
      <g transform="translate(22.6375 155.165373)scale(0.1 -0.1)">
       <use xlink:href="#DejaVuSans-49"/>
      </g>
     </g>
    </g>
    <g id="ytick_3">
     <g id="line2d_9">
      <g>
       <use style="stroke:#000000;stroke-width:0.8;" x="36" xlink:href="#m3111187b6b" y="120.004615"/>
      </g>
     </g>
     <g id="text_9">
      <!-- 2 -->
      <g transform="translate(22.6375 123.803834)scale(0.1 -0.1)">
       <use xlink:href="#DejaVuSans-50"/>
      </g>
     </g>
    </g>
    <g id="ytick_4">
     <g id="line2d_10">
      <g>
       <use style="stroke:#000000;stroke-width:0.8;" x="36" xlink:href="#m3111187b6b" y="88.643077"/>
      </g>
     </g>
     <g id="text_10">
      <!-- 3 -->
      <g transform="translate(22.6375 92.442296)scale(0.1 -0.1)">
       <use xlink:href="#DejaVuSans-51"/>
      </g>
     </g>
    </g>
    <g id="ytick_5">
     <g id="line2d_11">
      <g>
       <use style="stroke:#000000;stroke-width:0.8;" x="36" xlink:href="#m3111187b6b" y="57.281538"/>
      </g>
     </g>
     <g id="text_11">
      <!-- 4 -->
      <g transform="translate(22.6375 61.080757)scale(0.1 -0.1)">
       <use xlink:href="#DejaVuSans-52"/>
      </g>
     </g>
    </g>
    <g id="ytick_6">
     <g id="line2d_12">
      <g>
       <use style="stroke:#000000;stroke-width:0.8;" x="36" xlink:href="#m3111187b6b" y="25.92"/>
      </g>
     </g>
     <g id="text_12">
      <!-- 5 -->
      <g transform="translate(22.6375 29.719219)scale(0.1 -0.1)">
       <use xlink:href="#DejaVuSans-53"/>
      </g>
     </g>
    </g>
   </g>
   <g id="line2d_13">
    <path clip-path="url(#pba4b697f4e)" d="M 46.914432 -1 
L 46.958717 15.992004 
L 47.365349 23.75307 
L 47.415097 -1 
M 48.447201 -1 
L 48.585243 56.775917 
L 48.991875 110.744495 
L 49.398506 90.935047 
L 49.805138 96.602648 
L 50.211769 113.20619 
L 50.6184 101.37034 
L 51.431663 34.643962 
L 51.838295 29.865405 
L 52.651558 59.695746 
L 53.871452 86.50622 
L 54.684715 115.155444 
L 55.091346 121.038727 
L 55.497978 120.722869 
L 55.904609 120.139309 
L 56.311241 123.938203 
L 56.717872 130.632711 
L 57.124504 133.941345 
L 57.531135 130.027426 
L 57.937766 123.503454 
L 58.344398 122.045345 
L 59.564292 134.101151 
L 59.970924 140.178351 
L 60.377555 144.434665 
L 60.784187 145.020583 
L 61.190818 148.164024 
L 61.597449 153.987036 
L 62.004081 156.550431 
L 62.410712 156.060273 
L 62.817344 154.925748 
L 63.223975 151.983856 
L 63.630607 150.581088 
L 64.44387 159.101566 
L 64.850501 160.605749 
L 65.257132 159.505994 
L 65.663764 155.401298 
L 66.070395 154.114669 
L 66.883658 159.5767 
L 67.29029 160.730138 
L 67.696921 159.584868 
L 68.103553 159.395975 
L 68.510184 160.047066 
L 68.916815 161.234408 
L 69.323447 162.072814 
L 70.13671 162.203591 
L 70.543341 162.0838 
L 70.949973 163.187819 
L 71.356604 163.687427 
L 71.763236 163.237918 
L 72.169867 162.490864 
L 72.576498 164.443502 
L 72.98313 165.102908 
L 73.389761 164.094172 
L 73.796393 164.478256 
L 74.203024 165.922981 
L 75.016287 165.104808 
L 75.422919 166.018314 
L 75.82955 165.576928 
L 76.236181 165.598581 
L 76.642813 166.862678 
L 77.049444 165.432699 
L 77.456076 165.743192 
L 77.862707 167.182453 
L 78.269339 166.436255 
L 78.67597 166.846711 
L 79.082602 167.677035 
L 79.489233 165.009253 
L 79.895864 168.148314 
L 80.302496 168.096305 
L 80.709127 167.094233 
L 81.115759 168.831481 
L 81.52239 167.470733 
L 81.929022 169.087978 
L 82.335653 169.465157 
L 82.742285 168.596696 
L 83.148916 170.140586 
L 83.555547 169.304334 
L 83.962179 170.322779 
L 84.36881 169.684614 
L 84.775442 170.556932 
L 85.182073 170.913266 
L 85.588705 168.758004 
L 85.995336 172.097776 
L 86.401968 169.020342 
L 86.808599 171.414751 
L 87.21523 169.628399 
L 87.621862 172.522629 
L 88.028493 172.038175 
L 88.435125 170.341059 
L 88.841756 172.967775 
L 89.248388 170.916024 
L 89.655019 172.377101 
L 90.061651 172.360703 
L 90.468282 171.459817 
L 90.874913 173.261371 
L 91.281545 170.188071 
L 91.688176 173.255801 
L 92.094808 171.693814 
L 92.501439 172.329751 
L 92.908071 171.765925 
L 93.314702 172.425421 
L 93.721334 172.759856 
L 94.127965 169.479483 
L 94.534596 173.490027 
L 94.941228 171.002407 
L 95.347859 170.870586 
L 95.754491 172.887605 
L 96.161122 170.758149 
L 96.567754 172.312117 
L 96.974385 169.581423 
L 97.381017 173.884624 
L 97.787648 173.985914 
L 98.194279 169.947381 
L 98.600911 174.33764 
L 99.007542 173.465692 
L 99.414174 171.742136 
L 99.820805 173.320012 
L 100.227437 172.538536 
L 100.634068 173.106492 
L 101.0407 172.784024 
L 101.447331 171.732761 
L 101.853962 173.788227 
L 102.260594 172.428107 
L 102.667225 171.937896 
L 103.073857 173.614171 
L 103.480488 171.385751 
L 103.88712 173.253341 
L 104.293751 173.757273 
L 104.700383 172.122219 
L 105.107014 173.528134 
L 105.513645 173.30989 
L 105.920277 172.835936 
L 106.326908 173.883561 
L 106.73354 172.334632 
L 107.140171 173.962455 
L 107.546803 173.689012 
L 107.953434 172.906586 
L 108.360066 173.695312 
L 108.766697 172.062781 
L 109.173328 173.822687 
L 109.986591 172.631373 
L 110.393223 173.192353 
L 110.799854 171.709552 
L 111.206486 174.054715 
L 112.019749 172.195528 
L 112.42638 173.76489 
L 112.833011 172.49877 
L 113.239643 173.134483 
L 113.646274 174.04993 
L 114.052906 172.045267 
L 114.459537 173.883199 
L 114.866169 172.803709 
L 115.2728 173.831149 
L 115.679432 174.286898 
L 116.086063 173.504583 
L 116.492694 173.807626 
L 116.899326 173.663593 
L 117.305957 174.489651 
L 117.712589 172.876953 
L 118.11922 174.139275 
L 118.525852 174.271334 
L 118.932483 172.543761 
L 119.339115 173.935412 
L 119.745746 171.212424 
L 120.152377 173.262743 
L 120.559009 172.531956 
L 120.96564 173.810035 
L 121.372272 174.16058 
L 121.778903 171.267249 
L 122.185535 173.810835 
L 122.592166 171.087588 
L 122.998798 173.383737 
L 123.405429 174.158698 
L 123.81206 173.280527 
L 124.218692 173.418732 
L 124.625323 172.129033 
L 125.031955 173.901906 
L 125.438586 174.09422 
L 125.845218 173.493108 
L 126.251849 173.940635 
L 126.658481 172.321927 
L 127.065112 174.390663 
L 127.471743 174.231069 
L 127.878375 172.88458 
L 128.285006 173.310516 
L 128.691638 172.676807 
L 129.098269 173.663456 
L 129.504901 173.782439 
L 129.911532 172.625487 
L 130.318164 173.627993 
L 130.724795 173.362547 
L 131.131426 174.37462 
L 131.538058 174.56773 
L 131.944689 172.774737 
L 132.351321 174.719124 
L 132.757952 173.692534 
L 133.571215 175.03518 
L 133.977847 173.304455 
L 134.384478 174.328338 
L 134.791109 173.875436 
L 135.604372 174.333308 
L 136.011004 172.183394 
L 136.417635 173.288851 
L 136.824267 172.965157 
L 137.230898 173.989952 
L 137.63753 174.3367 
L 138.044161 174.264125 
L 138.450792 173.992708 
L 138.857424 173.181414 
L 139.264055 174.955743 
L 139.670687 173.44354 
L 140.077318 174.038022 
L 140.48395 174.383055 
L 140.890581 173.875079 
L 141.297213 174.115525 
L 141.703844 172.311486 
L 142.110475 172.852374 
L 142.517107 172.686243 
L 142.923738 175.398396 
L 143.33037 173.657436 
L 143.737001 174.236483 
L 144.143633 175.020607 
L 144.550264 172.619386 
L 144.956896 174.997463 
L 145.363527 174.687527 
L 145.770158 172.66715 
L 146.17679 174.735889 
L 146.583421 173.844238 
L 146.990053 173.318531 
L 147.396684 174.594591 
L 147.803316 172.974822 
L 148.209947 172.996517 
L 148.616579 174.11603 
L 149.02321 174.543476 
L 149.429842 174.36047 
L 149.836473 172.999677 
L 150.243104 172.378102 
L 150.649736 172.54815 
L 151.056367 175.344099 
L 151.462999 174.392049 
L 151.86963 173.135184 
L 152.276262 173.19279 
L 152.682893 169.813549 
L 153.089525 172.85763 
L 153.496156 174.915866 
L 153.902787 172.944593 
L 154.309419 173.258503 
L 154.71605 172.638141 
L 155.122682 173.047577 
L 155.529313 174.572448 
L 155.935945 174.615062 
L 156.342576 172.383564 
L 157.155839 175.325943 
L 157.56247 173.653251 
L 157.969102 173.841496 
L 158.375733 174.205466 
L 158.782365 173.715229 
L 159.188996 175.186246 
L 159.595628 174.430265 
L 160.002259 174.074807 
L 160.408891 175.400887 
L 160.815522 173.982706 
L 161.222153 174.088203 
L 161.628785 175.526444 
L 162.035416 173.456881 
L 162.442048 174.611237 
L 162.848679 174.899671 
L 163.255311 173.53285 
L 163.661942 174.851113 
L 164.068574 174.610789 
L 164.475205 174.591109 
L 164.881836 175.22067 
L 165.288468 174.478144 
L 165.695099 174.659345 
L 166.101731 174.374191 
L 166.508362 173.139417 
L 167.321625 175.575742 
L 167.728257 173.72229 
L 168.134888 173.958003 
L 168.541519 175.047258 
L 168.948151 171.97718 
L 169.354782 175.426948 
L 169.761414 174.222396 
L 170.168045 173.666454 
L 170.574677 175.384659 
L 170.981308 174.02581 
L 171.38794 173.299251 
L 171.794571 173.142535 
L 172.201202 171.738735 
L 172.607834 174.047524 
L 173.014465 175.712079 
L 173.421097 172.023124 
L 173.827728 174.177385 
L 174.23436 175.423466 
L 174.640991 172.626763 
L 175.047623 176.289874 
L 175.860885 172.283454 
L 176.267517 175.646261 
L 176.674148 171.418523 
L 177.08078 174.701866 
L 177.487411 174.922922 
L 177.894043 171.378763 
L 178.300674 175.074616 
L 178.707306 175.01849 
L 179.113937 169.790591 
L 179.520568 174.210166 
L 179.9272 175.537397 
L 180.333831 173.221034 
L 180.740463 175.525175 
L 181.147094 175.693381 
L 181.553726 173.230818 
L 181.960357 175.792221 
L 182.366989 175.253891 
L 182.77362 173.565075 
L 183.180251 175.301704 
L 183.586883 174.390948 
L 183.993514 172.017478 
L 184.806777 175.772531 
L 185.213409 174.134262 
L 186.026672 176.009544 
L 186.433303 173.210895 
L 186.839934 174.815918 
L 187.653197 172.65417 
L 188.46646 175.045183 
L 188.873092 173.73258 
L 189.279723 175.839739 
L 189.686355 174.802325 
L 190.092986 174.937105 
L 190.499617 175.360184 
L 190.906249 174.5953 
L 191.31288 174.501677 
L 191.719512 175.095625 
L 192.126143 174.262787 
L 192.939406 175.122691 
L 193.346038 174.383502 
L 193.752669 175.389793 
L 194.1593 174.687333 
L 194.565932 174.828045 
L 194.972563 175.510635 
L 195.379195 175.562101 
L 195.785826 174.476167 
L 196.192458 176.610637 
L 196.599089 173.896063 
L 197.005721 176.101248 
L 197.412352 174.915963 
L 197.818983 172.842913 
L 198.225615 174.045129 
L 198.632246 174.718632 
L 199.038878 173.466503 
L 199.445509 175.654429 
L 199.852141 174.189124 
L 200.665404 175.818534 
L 201.072035 173.981924 
L 201.478666 175.968904 
L 202.291929 173.213326 
L 202.698561 170.595185 
L 203.105192 168.865004 
L 203.511824 167.75543 
L 203.918455 172.539408 
L 204.325087 171.381512 
L 204.731718 175.301263 
L 205.138349 177.352407 
L 205.544981 172.369164 
L 205.951612 172.360442 
L 206.358244 175.211377 
L 207.171507 171.359467 
L 207.578138 173.707569 
L 207.98477 173.632823 
L 208.798032 171.862262 
L 209.204664 172.919426 
L 209.611295 175.441324 
L 210.424558 172.00699 
L 210.83119 175.928765 
L 211.237821 174.935301 
L 211.644453 172.282837 
L 212.051084 176.106039 
L 212.457715 176.041775 
L 212.864347 174.651337 
L 213.270978 175.349589 
L 213.67761 175.200899 
L 214.084241 174.617041 
L 214.490873 176.269508 
L 214.897504 174.476366 
L 215.304136 174.947741 
L 215.710767 176.324882 
L 216.117398 173.735231 
L 216.52403 176.018939 
L 217.337293 174.498987 
L 217.743924 175.916145 
L 218.150556 174.745414 
L 218.557187 175.94734 
L 218.963819 176.309769 
L 219.37045 173.80871 
L 219.777081 176.94879 
L 220.183713 174.965327 
L 220.590344 175.103099 
L 220.996976 176.342334 
L 221.403607 175.281808 
L 221.810239 175.750765 
L 222.21687 174.957689 
L 222.623502 175.257719 
L 223.030133 175.362883 
L 223.436764 176.00252 
L 223.843396 174.635185 
L 224.250027 174.562444 
L 224.656659 175.515394 
L 225.06329 174.697094 
L 225.469922 176.133584 
L 225.876553 176.158129 
L 226.283185 174.943499 
L 226.689816 176.219248 
L 227.096447 174.383086 
L 227.503079 176.00628 
L 227.90971 175.58989 
L 228.316342 174.200701 
L 228.722973 174.762233 
L 229.129605 172.798723 
L 229.536236 172.779684 
L 229.942868 173.718543 
L 230.349499 176.026013 
L 230.75613 174.646366 
L 231.162762 176.757258 
L 231.569393 175.429467 
L 231.976025 175.034822 
L 232.382656 176.175491 
L 232.789288 172.977643 
L 233.195919 176.321284 
L 233.602551 174.74358 
L 234.009182 172.429415 
L 234.415813 175.170742 
L 234.822445 174.450413 
L 235.635708 176.354011 
L 236.042339 173.707466 
L 236.448971 176.361228 
L 236.855602 176.098155 
L 237.262234 173.756433 
L 237.668865 175.830884 
L 238.075496 172.235674 
L 238.482128 174.917298 
L 238.888759 175.712033 
L 239.295391 173.233562 
L 239.702022 176.572339 
L 240.108654 174.025455 
L 240.515285 176.096885 
L 240.921917 175.231579 
L 241.328548 174.07902 
L 241.735179 175.717245 
L 242.141811 175.42638 
L 242.548442 174.65244 
L 242.955074 174.427651 
L 243.361705 174.068916 
L 243.768337 172.554326 
L 244.174968 174.835541 
L 244.5816 172.478434 
L 244.988231 176.121377 
L 245.801494 175.312902 
L 246.208125 176.761551 
L 246.614757 175.583793 
L 247.021388 175.800739 
L 247.42802 176.258505 
L 247.834651 174.640701 
L 248.241283 176.345053 
L 248.647914 174.907799 
L 249.054545 175.781234 
L 249.054545 175.781234 
" style="fill:none;stroke:#ffd700;stroke-linecap:square;stroke-width:1.5;"/>
   </g>
   <g id="line2d_14">
    <path clip-path="url(#pba4b697f4e)" d="M 47.301624 -1 
L 47.365349 22.207509 
L 47.432752 -1 
M 48.403201 -1 
L 48.585243 54.376148 
L 48.991875 66.953158 
L 49.398506 24.745904 
L 49.805138 35.72386 
L 50.211769 77.586506 
L 50.6184 96.082767 
L 51.025032 84.306571 
L 51.431663 67.419412 
L 51.838295 64.157211 
L 52.651558 78.915828 
L 53.058189 78.967532 
L 53.464821 78.720471 
L 53.871452 84.500798 
L 54.684715 105.115268 
L 55.091346 108.966289 
L 55.904609 105.129497 
L 56.311241 107.065898 
L 56.717872 112.309639 
L 57.124504 115.716606 
L 57.531135 113.519618 
L 57.937766 109.16735 
L 58.344398 108.813889 
L 58.751029 111.713656 
L 59.564292 113.270224 
L 60.377555 124.521673 
L 60.784187 125.760543 
L 61.190818 127.982587 
L 61.597449 131.784962 
L 62.004081 131.9685 
L 62.410712 131.046423 
L 62.817344 132.857974 
L 63.223975 133.407008 
L 63.630607 133.653164 
L 64.037238 136.769066 
L 64.44387 138.461285 
L 64.850501 139.336735 
L 65.257132 141.424654 
L 66.070395 140.616865 
L 66.477027 141.335047 
L 66.883658 143.49764 
L 67.29029 147.10461 
L 67.696921 148.539285 
L 68.103553 148.698665 
L 68.510184 147.655113 
L 68.916815 149.204795 
L 69.323447 153.074965 
L 69.730078 154.54842 
L 70.543341 153.098512 
L 70.949973 156.706856 
L 71.356604 158.623872 
L 72.169867 155.671136 
L 72.576498 160.24089 
L 72.98313 161.896446 
L 73.389761 159.060775 
L 73.796393 160.4423 
L 74.203024 164.409475 
L 75.016287 162.14809 
L 75.422919 165.805684 
L 76.236181 163.95059 
L 76.642813 167.480678 
L 77.049444 164.187643 
L 77.456076 165.355358 
L 77.862707 168.528093 
L 78.269339 165.415643 
L 78.67597 166.820428 
L 79.082602 169.738696 
L 79.489233 162.894052 
L 79.895864 169.662853 
L 80.302496 168.672014 
L 80.709127 166.136788 
L 81.115759 170.879522 
L 81.52239 165.572262 
L 81.929022 169.163668 
L 82.335653 169.863687 
L 82.742285 166.715768 
L 83.148916 170.387191 
L 83.555547 167.690601 
L 83.962179 170.474335 
L 84.36881 168.70126 
L 84.775442 169.350296 
L 85.182073 170.835858 
L 85.588705 165.170386 
L 85.995336 172.784732 
L 86.401968 162.997194 
L 86.808599 172.77495 
L 87.21523 165.17603 
L 87.621862 170.852259 
L 88.028493 170.226444 
L 88.435125 166.805788 
L 88.841756 172.856943 
L 89.248388 165.513177 
L 89.655019 171.058589 
L 90.061651 171.198203 
L 90.468282 166.718417 
L 90.874913 173.015837 
L 91.281545 164.222625 
L 91.688176 172.907111 
L 92.094808 167.070812 
L 92.501439 171.091724 
L 92.908071 169.518481 
L 93.314702 169.29946 
L 93.721334 172.181118 
L 94.127965 163.637953 
L 94.534596 173.555282 
L 94.941228 164.890783 
L 95.347859 170.372112 
L 95.754491 171.704525 
L 96.161122 162.96565 
L 96.567754 173.362578 
L 96.974385 163.312759 
L 97.381017 170.859284 
L 97.787648 172.223062 
L 98.194279 164.201094 
L 98.600911 172.798009 
L 99.007542 169.543255 
L 99.414174 167.928069 
L 99.820805 172.510486 
L 100.227437 167.481756 
L 100.634068 170.862379 
L 101.0407 172.174937 
L 101.447331 166.442491 
L 101.853962 173.202608 
L 102.260594 169.224611 
L 102.667225 167.613843 
L 103.073857 173.62504 
L 103.480488 165.583061 
L 103.88712 171.785778 
L 104.293751 171.917477 
L 104.700383 167.066031 
L 105.107014 172.854259 
L 105.513645 170.011955 
L 105.920277 168.353706 
L 106.326908 173.275086 
L 106.73354 166.392955 
L 107.140171 172.404108 
L 107.953434 167.57794 
L 108.360066 173.20998 
L 108.766697 165.893352 
L 109.173328 173.082348 
L 109.986591 168.059344 
L 110.393223 173.435095 
L 110.799854 165.891447 
L 111.206486 172.411636 
L 111.613117 171.684272 
L 112.019749 166.9865 
L 112.42638 173.392642 
L 112.833011 168.007788 
L 113.239643 170.030926 
L 113.646274 173.021208 
L 114.052906 166.058431 
L 114.459537 173.652958 
L 114.866169 167.279611 
L 115.2728 171.832778 
L 115.679432 171.708062 
L 116.086063 169.517347 
L 116.492694 171.939859 
L 116.899326 169.007313 
L 117.305957 173.066534 
L 117.712589 168.48847 
L 118.11922 171.591063 
L 118.525852 172.054298 
L 118.932483 167.451859 
L 119.339115 174.226271 
L 119.745746 162.999376 
L 120.152377 173.863127 
L 120.559009 166.941538 
L 120.96564 170.772546 
L 121.372272 173.366619 
L 121.778903 162.682349 
L 122.185535 174.157112 
L 122.592166 161.742306 
L 122.998798 173.177513 
L 123.81206 168.445526 
L 124.218692 173.752878 
L 124.625323 164.09952 
L 125.031955 173.504521 
L 125.438586 170.106423 
L 125.845218 167.772649 
L 126.251849 173.927984 
L 126.658481 164.614802 
L 127.065112 172.848844 
L 127.471743 172.06941 
L 127.878375 167.09036 
L 128.285006 173.578362 
L 128.691638 166.860545 
L 129.098269 172.205479 
L 129.504901 172.574493 
L 129.911532 166.507482 
L 130.318164 173.842797 
L 130.724795 168.2004 
L 131.131426 171.583312 
L 131.538058 172.582907 
L 131.944689 165.822431 
L 132.351321 174.043647 
L 132.757952 167.501789 
L 133.164584 171.326412 
L 133.571215 172.605372 
L 133.977847 166.688938 
L 134.384478 173.79736 
L 134.791109 168.817737 
L 135.604372 173.307292 
L 136.011004 164.454501 
L 136.417635 173.812758 
L 136.824267 166.530772 
L 137.230898 172.797612 
L 138.044161 169.980743 
L 138.450792 173.100681 
L 138.857424 166.597422 
L 139.264055 173.811871 
L 139.670687 167.218664 
L 140.077318 172.904886 
L 140.48395 170.414168 
L 140.890581 170.128913 
L 141.297213 173.628757 
L 141.703844 164.582093 
L 142.110475 173.53042 
L 142.517107 164.947886 
L 142.923738 173.520052 
L 143.33037 170.388937 
L 143.737001 168.702092 
L 144.143633 174.121421 
L 144.550264 166.193858 
L 144.956896 173.07737 
L 145.363527 172.785072 
L 145.770158 166.348735 
L 146.17679 174.081713 
L 146.583421 169.150376 
L 146.990053 169.641228 
L 147.396684 173.637868 
L 147.803316 166.148215 
L 148.209947 172.714466 
L 148.616579 169.116676 
L 149.429842 173.080376 
L 149.836473 165.215389 
L 150.243104 172.68843 
L 150.649736 163.947672 
L 151.056367 174.299602 
L 151.462999 170.892263 
L 151.86963 165.44464 
L 152.276262 173.533577 
L 152.682893 156.869413 
L 153.089525 173.061054 
L 153.496156 170.947468 
L 153.902787 165.943887 
L 154.309419 173.751427 
L 154.71605 164.749457 
L 155.122682 172.056855 
L 155.529313 170.697274 
L 155.935945 169.746752 
L 156.342576 171.452662 
L 156.749208 167.922101 
L 157.155839 172.772299 
L 157.56247 171.81209 
L 157.969102 167.356203 
L 158.375733 173.448945 
L 158.782365 167.783877 
L 159.188996 172.401772 
L 159.595628 172.433174 
L 160.002259 168.785583 
L 160.408891 173.68968 
L 160.815522 169.206222 
L 161.222153 170.303437 
L 161.628785 173.348416 
L 162.035416 168.299891 
L 162.442048 172.517655 
L 162.848679 171.834975 
L 163.255311 169.974656 
L 163.661942 173.047708 
L 164.068574 170.052096 
L 164.475205 172.47757 
L 164.881836 171.380976 
L 165.288468 169.898933 
L 165.695099 172.837446 
L 166.101731 168.6645 
L 166.508362 171.938587 
L 166.914994 168.824919 
L 167.321625 173.216548 
L 167.728257 171.256252 
L 168.134888 166.98127 
L 168.541519 174.366271 
L 168.948151 162.168535 
L 169.354782 174.402633 
L 169.761414 168.334528 
L 170.168045 171.100985 
L 170.574677 172.968181 
L 170.981308 168.78909 
L 171.38794 172.559272 
L 171.794571 165.696265 
L 172.201202 171.235219 
L 172.607834 167.973054 
L 173.014465 172.970878 
L 173.421097 169.186314 
L 173.827728 167.541927 
L 174.23436 174.334778 
L 174.640991 164.290257 
L 175.047623 172.368349 
L 175.454254 171.618423 
L 175.860885 162.403699 
L 176.267517 174.203036 
L 176.674148 161.388864 
L 177.08078 173.456632 
L 177.894043 167.384962 
L 178.300674 171.872706 
L 178.707306 171.158705 
L 179.113937 167.667864 
L 179.520568 168.839983 
L 179.9272 174.188815 
L 180.333831 167.714837 
L 180.740463 172.355956 
L 181.147094 173.255196 
L 181.553726 167.056474 
L 181.960357 173.396456 
L 182.366989 170.815811 
L 182.77362 170.005141 
L 183.180251 173.504109 
L 183.586883 168.903498 
L 183.993514 171.269459 
L 184.400146 167.232053 
L 184.806777 174.198871 
L 185.213409 168.632405 
L 185.62004 170.802999 
L 186.026672 173.850151 
L 186.433303 166.555437 
L 186.839934 173.839533 
L 187.246566 167.478354 
L 187.653197 171.909319 
L 188.059829 167.593956 
L 188.46646 174.125488 
L 188.873092 166.822885 
L 189.279723 173.337729 
L 189.686355 170.601033 
L 190.092986 170.309272 
L 190.499617 173.221065 
L 190.906249 170.471756 
L 191.31288 171.922636 
L 191.719512 172.469836 
L 192.126143 171.07984 
L 192.532775 171.402296 
L 192.939406 172.622728 
L 193.346038 169.652178 
L 193.752669 173.31633 
L 194.1593 169.880754 
L 194.565932 172.223718 
L 194.972563 171.406962 
L 195.379195 172.746156 
L 195.785826 168.059833 
L 196.192458 174.172752 
L 196.599089 167.133371 
L 197.005721 173.350326 
L 197.412352 169.504522 
L 197.818983 171.65999 
L 198.225615 168.298971 
L 198.632246 174.151349 
L 199.038878 168.508098 
L 199.445509 173.944507 
L 199.852141 169.647292 
L 200.665404 172.755286 
L 201.072035 168.987042 
L 201.478666 173.428202 
L 201.885298 167.87887 
L 202.291929 172.942171 
L 202.698561 158.380602 
L 203.105192 169.40671 
L 203.511824 150.584524 
L 203.918455 172.018539 
L 204.325087 158.492433 
L 204.731718 172.244664 
L 205.138349 173.881391 
L 205.544981 160.455168 
L 205.951612 171.534128 
L 206.358244 170.269581 
L 206.764875 166.255507 
L 207.171507 172.464909 
L 207.578138 168.211795 
L 207.98477 168.492782 
L 208.391401 173.001933 
L 208.798032 162.754919 
L 209.204664 171.149054 
L 209.611295 173.345647 
L 210.017927 167.402417 
L 210.424558 170.71701 
L 210.83119 172.294648 
L 211.237821 168.46382 
L 211.644453 169.896706 
L 212.457715 171.352582 
L 212.864347 171.552586 
L 213.270978 169.555575 
L 213.67761 172.735062 
L 214.084241 169.724202 
L 214.490873 173.115038 
L 214.897504 170.893128 
L 215.304136 169.85795 
L 215.710767 173.781137 
L 216.117398 168.321033 
L 216.52403 173.402888 
L 216.930661 171.10641 
L 217.337293 170.876602 
L 217.743924 172.309651 
L 218.150556 170.627217 
L 218.557187 172.074597 
L 218.963819 172.688097 
L 219.37045 167.486443 
L 219.777081 174.060996 
L 220.183713 168.692939 
L 220.590344 171.550782 
L 220.996976 172.51058 
L 221.403607 170.230151 
L 221.810239 173.391676 
L 222.21687 168.870942 
L 222.623502 172.953007 
L 223.030133 170.845401 
L 223.436764 172.354651 
L 223.843396 172.131418 
L 224.250027 167.8053 
L 224.656659 174.195033 
L 225.06329 167.924923 
L 225.469922 173.055709 
L 225.876553 172.3526 
L 226.283185 168.302145 
L 226.689816 173.976152 
L 227.096447 167.744421 
L 227.503079 172.992818 
L 227.90971 172.545866 
L 228.316342 167.51943 
L 228.722973 174.297039 
L 229.129605 163.49312 
L 229.536236 172.598915 
L 229.942868 165.211847 
L 230.349499 174.119768 
L 230.75613 168.079905 
L 231.162762 173.681734 
L 231.569393 170.303275 
L 231.976025 171.238801 
L 232.382656 172.534667 
L 232.789288 167.35381 
L 233.195919 174.162281 
L 233.602551 168.712363 
L 234.009182 169.856924 
L 234.415813 169.837434 
L 234.822445 171.667095 
L 235.229076 170.614053 
L 235.635708 173.487818 
L 236.042339 168.774079 
L 236.448971 171.555868 
L 236.855602 173.195445 
L 237.262234 167.317489 
L 237.668865 171.896082 
L 238.075496 169.206206 
L 238.482128 169.614773 
L 238.888759 174.495469 
L 239.295391 165.255619 
L 239.702022 174.562391 
L 240.108654 165.889842 
L 240.515285 173.382248 
L 240.921917 168.562266 
L 241.328548 172.084725 
L 241.735179 171.895913 
L 242.141811 170.628027 
L 242.548442 172.286825 
L 242.955074 166.002799 
L 243.361705 172.793772 
L 243.768337 161.451253 
L 244.174968 174.465801 
L 244.5816 162.061329 
L 244.988231 174.567641 
L 245.394862 170.613501 
L 245.801494 170.51444 
L 246.208125 173.122953 
L 246.614757 170.973654 
L 247.021388 171.347726 
L 247.42802 173.511224 
L 247.834651 169.916783 
L 248.241283 173.713086 
L 248.647914 170.169437 
L 249.054545 172.73676 
L 249.054545 172.73676 
" style="fill:none;stroke:#008000;stroke-linecap:square;stroke-width:1.5;"/>
   </g>
   <g id="line2d_15">
    <path clip-path="url(#pba4b697f4e)" d="M 47.699649 -1 
L 47.77198 22.625109 
L 47.860682 -1 
M 48.747065 -1 
L 48.991875 59.664005 
L 49.398506 66.300946 
L 49.805138 27.193288 
L 50.211769 35.06714 
L 50.6184 72.965852 
L 51.025032 91.062242 
L 51.431663 85.617214 
L 51.838295 75.547944 
L 52.244926 76.208096 
L 52.651558 86.78396 
L 53.058189 92.690366 
L 53.871452 89.718414 
L 54.278083 92.471375 
L 55.091346 104.068403 
L 55.497978 104.858412 
L 55.904609 100.682313 
L 56.311241 99.810834 
L 56.717872 102.074862 
L 57.124504 106.887365 
L 57.531135 114.503808 
L 57.937766 113.963291 
L 58.344398 111.781856 
L 59.564292 118.576453 
L 59.970924 118.13767 
L 60.784187 125.322426 
L 61.190818 124.260959 
L 61.597449 125.727098 
L 62.004081 129.749645 
L 62.817344 131.280013 
L 63.223975 132.907622 
L 63.630607 135.706945 
L 64.037238 135.344751 
L 64.44387 137.252578 
L 64.850501 137.965339 
L 66.477027 143.716811 
L 67.29029 145.744665 
L 67.696921 147.757061 
L 68.103553 148.266877 
L 68.510184 150.319858 
L 69.323447 151.730881 
L 69.730078 153.863668 
L 70.13671 153.907854 
L 70.543341 155.294651 
L 70.949973 155.591405 
L 71.356604 158.189247 
L 71.763236 157.740115 
L 72.169867 160.90404 
L 72.576498 161.219143 
L 72.98313 161.720364 
L 73.389761 163.138354 
L 73.796393 163.127948 
L 74.203024 164.134368 
L 74.609656 164.42266 
L 75.016287 166.09384 
L 75.422919 165.817063 
L 75.82955 167.164625 
L 76.236181 167.892842 
L 76.642813 167.673478 
L 77.049444 168.303256 
L 77.456076 167.68544 
L 77.862707 169.480901 
L 78.269339 169.811903 
L 78.67597 169.602501 
L 79.082602 170.75338 
L 79.895864 169.88355 
L 80.302496 171.407529 
L 80.709127 170.896043 
L 81.115759 170.922482 
L 81.52239 171.156665 
L 81.929022 171.857471 
L 82.742285 172.05049 
L 83.148916 172.093368 
L 83.555547 172.530611 
L 83.962179 172.285952 
L 84.36881 172.792289 
L 84.775442 172.813938 
L 85.182073 172.52753 
L 85.588705 172.920429 
L 85.995336 172.014575 
L 86.401968 171.965255 
L 86.808599 171.486495 
L 87.21523 171.619383 
L 87.621862 172.236616 
L 88.028493 172.619596 
L 88.435125 174.014374 
L 88.841756 172.740736 
L 89.248388 172.293258 
L 89.655019 172.14899 
L 90.061651 173.27697 
L 90.468282 172.859491 
L 90.874913 172.719646 
L 91.281545 172.074661 
L 91.688176 171.970385 
L 92.094808 172.791157 
L 92.501439 172.952233 
L 92.908071 173.492825 
L 93.314702 173.118269 
L 93.721334 173.571898 
L 94.127965 173.541175 
L 94.534596 171.898196 
L 94.941228 171.683051 
L 95.347859 172.094227 
L 95.754491 173.10034 
L 96.161122 173.524064 
L 96.567754 171.46588 
L 96.974385 171.940978 
L 97.381017 171.571333 
L 97.787648 172.133503 
L 98.194279 173.74097 
L 98.600911 171.662251 
L 99.007542 173.02758 
L 99.414174 172.834764 
L 99.820805 173.038848 
L 100.227437 172.914741 
L 101.0407 173.608916 
L 101.447331 173.791481 
L 101.853962 173.433311 
L 102.260594 172.915837 
L 102.667225 173.755332 
L 103.073857 173.358248 
L 103.480488 173.162641 
L 103.88712 172.650324 
L 104.293751 173.338845 
L 105.107014 173.407205 
L 105.920277 173.774324 
L 106.326908 172.919055 
L 106.73354 172.811689 
L 107.140171 172.942602 
L 107.953434 173.694748 
L 108.360066 173.693798 
L 108.766697 173.264775 
L 109.173328 173.0198 
L 109.986591 173.897019 
L 110.799854 172.944417 
L 111.206486 173.093089 
L 111.613117 173.894938 
L 112.019749 173.460494 
L 112.42638 173.579083 
L 112.833011 173.314228 
L 113.239643 174.292917 
L 113.646274 173.495845 
L 114.052906 173.139827 
L 114.459537 172.370415 
L 114.866169 172.969318 
L 116.492694 174.104193 
L 116.899326 173.781975 
L 117.305957 173.644372 
L 117.712589 174.002666 
L 118.11922 173.467349 
L 118.525852 174.172997 
L 118.932483 173.838331 
L 119.339115 173.211526 
L 119.745746 172.166327 
L 120.152377 172.266174 
L 120.559009 171.580455 
L 120.96564 173.960391 
L 121.372272 174.053403 
L 122.185535 171.481943 
L 122.592166 170.594995 
L 123.81206 173.910597 
L 124.218692 173.425317 
L 124.625323 171.728361 
L 125.031955 171.70664 
L 125.438586 172.549521 
L 125.845218 173.817758 
L 126.251849 173.525302 
L 126.658481 171.706427 
L 127.065112 172.166096 
L 127.471743 174.052591 
L 127.878375 174.098954 
L 128.285006 173.586868 
L 128.691638 172.386495 
L 129.098269 173.793896 
L 129.504901 174.17449 
L 129.911532 173.93542 
L 130.318164 172.886667 
L 130.724795 172.239878 
L 131.538058 174.317194 
L 131.944689 174.016657 
L 132.351321 173.034845 
L 132.757952 172.714678 
L 133.571215 173.737361 
L 133.977847 173.947029 
L 134.384478 173.082542 
L 134.791109 172.723753 
L 135.197741 173.926222 
L 135.604372 174.113055 
L 136.011004 173.592622 
L 136.417635 171.834864 
L 136.824267 172.538216 
L 137.230898 172.345726 
L 137.63753 173.537283 
L 138.044161 173.816903 
L 138.857424 173.508209 
L 139.264055 172.971511 
L 139.670687 173.323133 
L 140.077318 172.811358 
L 140.48395 173.434989 
L 140.890581 173.160759 
L 141.297213 173.984095 
L 141.703844 173.111288 
L 142.110475 171.6514 
L 142.517107 171.224926 
L 142.923738 172.127663 
L 143.33037 173.412292 
L 143.737001 173.472235 
L 144.143633 173.822017 
L 144.550264 172.89561 
L 144.956896 172.638468 
L 145.363527 173.471809 
L 145.770158 173.88315 
L 146.17679 173.268591 
L 146.583421 173.415518 
L 146.990053 173.882834 
L 147.396684 173.695729 
L 148.209947 172.841202 
L 148.616579 172.933401 
L 149.429842 173.999627 
L 149.836473 173.30296 
L 150.649736 170.660537 
L 151.056367 172.245583 
L 151.462999 173.102445 
L 151.86963 174.346222 
L 152.682893 169.00234 
L 153.089525 168.41721 
L 153.902787 173.384487 
L 154.309419 173.537386 
L 154.71605 171.247905 
L 155.122682 171.709528 
L 155.529313 172.543762 
L 155.935945 174.180695 
L 156.342576 173.860219 
L 156.749208 171.920641 
L 157.56247 173.740567 
L 157.969102 173.199605 
L 158.375733 172.336539 
L 158.782365 172.729127 
L 159.188996 173.731763 
L 159.595628 174.023713 
L 160.002259 173.735796 
L 160.408891 173.616037 
L 160.815522 172.909175 
L 161.222153 173.782087 
L 161.628785 173.801405 
L 162.035416 173.277274 
L 162.442048 173.009303 
L 162.848679 174.155742 
L 163.255311 174.341034 
L 163.661942 173.765125 
L 164.475205 173.81626 
L 165.288468 174.447952 
L 165.695099 174.008257 
L 166.101731 173.280852 
L 166.914994 172.91959 
L 167.321625 173.962313 
L 167.728257 173.965222 
L 168.134888 172.974652 
L 168.541519 173.052873 
L 168.948151 171.578668 
L 169.354782 171.080318 
L 170.168045 173.22165 
L 170.574677 173.691307 
L 170.981308 173.964127 
L 171.38794 173.927655 
L 171.794571 172.354073 
L 172.607834 171.569891 
L 173.014465 173.168173 
L 173.421097 173.111662 
L 173.827728 171.745517 
L 174.23436 172.75481 
L 175.047623 171.515841 
L 175.860885 173.288656 
L 176.674148 168.889704 
L 177.08078 170.35665 
L 177.487411 172.700151 
L 177.894043 172.132934 
L 178.300674 172.180793 
L 178.707306 174.084919 
L 179.113937 172.578312 
L 179.520568 170.459269 
L 179.9272 173.467874 
L 180.333831 173.231908 
L 180.740463 173.169861 
L 181.147094 173.809163 
L 181.553726 173.763125 
L 181.960357 173.232946 
L 182.366989 173.363515 
L 182.77362 174.184364 
L 183.180251 173.130116 
L 183.586883 174.042352 
L 184.400146 171.944143 
L 184.806777 172.736803 
L 186.026672 174.149779 
L 186.433303 173.344526 
L 186.839934 172.98139 
L 187.246566 172.968728 
L 187.653197 172.647492 
L 188.059829 171.794366 
L 188.46646 172.948963 
L 188.873092 172.680536 
L 189.686355 173.104332 
L 190.092986 174.137307 
L 190.499617 174.064011 
L 191.31288 174.198419 
L 191.719512 173.784521 
L 192.126143 173.798785 
L 192.532775 174.282951 
L 192.939406 173.709519 
L 193.346038 173.665428 
L 193.752669 174.196982 
L 194.1593 174.370284 
L 194.972563 173.657472 
L 195.379195 173.799878 
L 196.192458 173.640794 
L 197.005721 172.795644 
L 197.412352 173.549056 
L 197.818983 173.637674 
L 198.225615 172.421134 
L 198.632246 173.500319 
L 199.038878 173.691093 
L 199.445509 173.237459 
L 199.852141 173.024665 
L 200.258772 173.772756 
L 200.665404 173.902488 
L 201.072035 173.829414 
L 201.478666 173.595083 
L 201.885298 173.718933 
L 202.291929 173.591222 
L 202.698561 171.597021 
L 203.105192 168.383731 
L 203.511824 163.804542 
L 203.918455 163.967111 
L 204.325087 164.433752 
L 204.731718 169.511748 
L 205.138349 173.148138 
L 205.544981 172.417244 
L 205.951612 170.584972 
L 206.358244 169.435317 
L 206.764875 173.289212 
L 207.171507 172.259909 
L 207.578138 169.728213 
L 207.98477 173.733322 
L 208.391401 173.549846 
L 208.798032 170.537602 
L 209.204664 171.006313 
L 209.611295 173.075404 
L 210.017927 173.838688 
L 210.83119 171.677707 
L 211.237821 173.873305 
L 212.051084 171.461991 
L 212.864347 174.115978 
L 213.270978 173.112771 
L 213.67761 172.891303 
L 214.084241 173.794286 
L 214.490873 173.50977 
L 214.897504 173.494814 
L 215.304136 173.974042 
L 215.710767 174.041946 
L 216.117398 173.187603 
L 216.52403 173.48019 
L 216.930661 174.111045 
L 217.743924 173.856808 
L 218.150556 173.396195 
L 218.557187 174.128814 
L 218.963819 174.381584 
L 219.37045 174.040717 
L 219.777081 173.036236 
L 220.183713 173.473221 
L 220.590344 174.320392 
L 220.996976 174.177967 
L 221.403607 174.297618 
L 221.810239 174.274623 
L 222.21687 173.741007 
L 222.623502 174.031191 
L 223.030133 173.407854 
L 223.436764 174.383844 
L 223.843396 174.087768 
L 224.250027 173.93263 
L 225.06329 173.312152 
L 225.469922 173.429684 
L 225.876553 174.48439 
L 227.096447 173.267699 
L 227.90971 174.244534 
L 228.722973 173.273019 
L 229.129605 171.727908 
L 229.536236 171.055653 
L 229.942868 170.138656 
L 230.349499 172.37469 
L 230.75613 173.115537 
L 231.569393 173.450574 
L 231.976025 174.121482 
L 232.382656 174.025274 
L 232.789288 172.315298 
L 233.195919 172.732958 
L 233.602551 173.478728 
L 234.009182 173.117779 
L 234.415813 172.082083 
L 235.635708 174.296816 
L 236.042339 173.395727 
L 236.448971 172.852675 
L 236.855602 173.805957 
L 237.262234 173.990527 
L 238.075496 172.238829 
L 238.482128 171.495908 
L 238.888759 173.299092 
L 239.295391 173.153364 
L 239.702022 172.390565 
L 240.108654 172.242894 
L 240.515285 172.246261 
L 240.921917 173.391806 
L 241.328548 173.252801 
L 241.735179 172.680666 
L 242.141811 173.662454 
L 242.548442 173.809545 
L 243.768337 170.728129 
L 244.174968 170.503168 
L 244.5816 169.107172 
L 245.801494 174.062973 
L 246.208125 173.561325 
L 246.614757 173.797795 
L 247.021388 173.668506 
L 247.42802 174.21725 
L 247.834651 173.718007 
L 248.241283 173.559807 
L 248.647914 173.698874 
L 249.054545 173.619353 
L 249.054545 173.619353 
" style="fill:none;stroke:#0000ff;stroke-linecap:square;stroke-width:1.5;"/>
   </g>
   <g id="patch_3">
    <path d="M 36 189 
L 36 25.92 
" style="fill:none;stroke:#000000;stroke-linecap:square;stroke-linejoin:miter;stroke-width:0.8;"/>
   </g>
   <g id="patch_4">
    <path d="M 259.2 189 
L 259.2 25.92 
" style="fill:none;stroke:#000000;stroke-linecap:square;stroke-linejoin:miter;stroke-width:0.8;"/>
   </g>
   <g id="patch_5">
    <path d="M 36 189 
L 259.2 189 
" style="fill:none;stroke:#000000;stroke-linecap:square;stroke-linejoin:miter;stroke-width:0.8;"/>
   </g>
   <g id="patch_6">
    <path d="M 36 25.92 
L 259.2 25.92 
" style="fill:none;stroke:#000000;stroke-linecap:square;stroke-linejoin:miter;stroke-width:0.8;"/>
   </g>
   <g id="text_13">
    <!-- Losses -->
    <g transform="translate(127.621875 19.92)scale(0.12 -0.12)">
     <defs>
      <path d="M 9.8125 72.90625 
L 19.671875 72.90625 
L 19.671875 8.296875 
L 55.171875 8.296875 
L 55.171875 0 
L 9.8125 0 
z
" id="DejaVuSans-76"/>
      <path d="M 30.609375 48.390625 
Q 23.390625 48.390625 19.1875 42.75 
Q 14.984375 37.109375 14.984375 27.296875 
Q 14.984375 17.484375 19.15625 11.84375 
Q 23.34375 6.203125 30.609375 6.203125 
Q 37.796875 6.203125 41.984375 11.859375 
Q 46.1875 17.53125 46.1875 27.296875 
Q 46.1875 37.015625 41.984375 42.703125 
Q 37.796875 48.390625 30.609375 48.390625 
z
M 30.609375 56 
Q 42.328125 56 49.015625 48.375 
Q 55.71875 40.765625 55.71875 27.296875 
Q 55.71875 13.875 49.015625 6.21875 
Q 42.328125 -1.421875 30.609375 -1.421875 
Q 18.84375 -1.421875 12.171875 6.21875 
Q 5.515625 13.875 5.515625 27.296875 
Q 5.515625 40.765625 12.171875 48.375 
Q 18.84375 56 30.609375 56 
z
" id="DejaVuSans-111"/>
      <path d="M 44.28125 53.078125 
L 44.28125 44.578125 
Q 40.484375 46.53125 36.375 47.5 
Q 32.28125 48.484375 27.875 48.484375 
Q 21.1875 48.484375 17.84375 46.4375 
Q 14.5 44.390625 14.5 40.28125 
Q 14.5 37.15625 16.890625 35.375 
Q 19.28125 33.59375 26.515625 31.984375 
L 29.59375 31.296875 
Q 39.15625 29.25 43.1875 25.515625 
Q 47.21875 21.78125 47.21875 15.09375 
Q 47.21875 7.46875 41.1875 3.015625 
Q 35.15625 -1.421875 24.609375 -1.421875 
Q 20.21875 -1.421875 15.453125 -0.5625 
Q 10.6875 0.296875 5.421875 2 
L 5.421875 11.28125 
Q 10.40625 8.6875 15.234375 7.390625 
Q 20.0625 6.109375 24.8125 6.109375 
Q 31.15625 6.109375 34.5625 8.28125 
Q 37.984375 10.453125 37.984375 14.40625 
Q 37.984375 18.0625 35.515625 20.015625 
Q 33.0625 21.96875 24.703125 23.78125 
L 21.578125 24.515625 
Q 13.234375 26.265625 9.515625 29.90625 
Q 5.8125 33.546875 5.8125 39.890625 
Q 5.8125 47.609375 11.28125 51.796875 
Q 16.75 56 26.8125 56 
Q 31.78125 56 36.171875 55.265625 
Q 40.578125 54.546875 44.28125 53.078125 
z
" id="DejaVuSans-115"/>
      <path d="M 56.203125 29.59375 
L 56.203125 25.203125 
L 14.890625 25.203125 
Q 15.484375 15.921875 20.484375 11.0625 
Q 25.484375 6.203125 34.421875 6.203125 
Q 39.59375 6.203125 44.453125 7.46875 
Q 49.3125 8.734375 54.109375 11.28125 
L 54.109375 2.78125 
Q 49.265625 0.734375 44.1875 -0.34375 
Q 39.109375 -1.421875 33.890625 -1.421875 
Q 20.796875 -1.421875 13.15625 6.1875 
Q 5.515625 13.8125 5.515625 26.8125 
Q 5.515625 40.234375 12.765625 48.109375 
Q 20.015625 56 32.328125 56 
Q 43.359375 56 49.78125 48.890625 
Q 56.203125 41.796875 56.203125 29.59375 
z
M 47.21875 32.234375 
Q 47.125 39.59375 43.09375 43.984375 
Q 39.0625 48.390625 32.421875 48.390625 
Q 24.90625 48.390625 20.390625 44.140625 
Q 15.875 39.890625 15.1875 32.171875 
z
" id="DejaVuSans-101"/>
     </defs>
     <use xlink:href="#DejaVuSans-76"/>
     <use x="53.962891" xlink:href="#DejaVuSans-111"/>
     <use x="115.144531" xlink:href="#DejaVuSans-115"/>
     <use x="167.244141" xlink:href="#DejaVuSans-115"/>
     <use x="219.34375" xlink:href="#DejaVuSans-101"/>
     <use x="280.867188" xlink:href="#DejaVuSans-115"/>
    </g>
   </g>
   <g id="legend_1">
    <g id="patch_7">
     <path d="M 143.435937 77.954375 
L 252.2 77.954375 
Q 254.2 77.954375 254.2 75.954375 
L 254.2 32.92 
Q 254.2 30.92 252.2 30.92 
L 143.435937 30.92 
Q 141.435937 30.92 141.435937 32.92 
L 141.435937 75.954375 
Q 141.435937 77.954375 143.435937 77.954375 
z
" style="fill:#ffffff;opacity:0.8;stroke:#cccccc;stroke-linejoin:miter;"/>
    </g>
    <g id="line2d_16">
     <path d="M 145.435937 39.018438 
L 165.435937 39.018438 
" style="fill:none;stroke:#ffd700;stroke-linecap:square;stroke-width:1.5;"/>
    </g>
    <g id="line2d_17"/>
    <g id="text_14">
     <!-- Test error -->
     <g transform="translate(173.435937 42.518438)scale(0.1 -0.1)">
      <defs>
       <path d="M -0.296875 72.90625 
L 61.375 72.90625 
L 61.375 64.59375 
L 35.5 64.59375 
L 35.5 0 
L 25.59375 0 
L 25.59375 64.59375 
L -0.296875 64.59375 
z
" id="DejaVuSans-84"/>
       <path d="M 18.3125 70.21875 
L 18.3125 54.6875 
L 36.8125 54.6875 
L 36.8125 47.703125 
L 18.3125 47.703125 
L 18.3125 18.015625 
Q 18.3125 11.328125 20.140625 9.421875 
Q 21.96875 7.515625 27.59375 7.515625 
L 36.8125 7.515625 
L 36.8125 0 
L 27.59375 0 
Q 17.1875 0 13.234375 3.875 
Q 9.28125 7.765625 9.28125 18.015625 
L 9.28125 47.703125 
L 2.6875 47.703125 
L 2.6875 54.6875 
L 9.28125 54.6875 
L 9.28125 70.21875 
z
" id="DejaVuSans-116"/>
       <path id="DejaVuSans-32"/>
       <path d="M 41.109375 46.296875 
Q 39.59375 47.171875 37.8125 47.578125 
Q 36.03125 48 33.890625 48 
Q 26.265625 48 22.1875 43.046875 
Q 18.109375 38.09375 18.109375 28.8125 
L 18.109375 0 
L 9.078125 0 
L 9.078125 54.6875 
L 18.109375 54.6875 
L 18.109375 46.1875 
Q 20.953125 51.171875 25.484375 53.578125 
Q 30.03125 56 36.53125 56 
Q 37.453125 56 38.578125 55.875 
Q 39.703125 55.765625 41.0625 55.515625 
z
" id="DejaVuSans-114"/>
      </defs>
      <use xlink:href="#DejaVuSans-84"/>
      <use x="44.083984" xlink:href="#DejaVuSans-101"/>
      <use x="105.607422" xlink:href="#DejaVuSans-115"/>
      <use x="157.707031" xlink:href="#DejaVuSans-116"/>
      <use x="196.916016" xlink:href="#DejaVuSans-32"/>
      <use x="228.703125" xlink:href="#DejaVuSans-101"/>
      <use x="290.226562" xlink:href="#DejaVuSans-114"/>
      <use x="329.589844" xlink:href="#DejaVuSans-114"/>
      <use x="368.453125" xlink:href="#DejaVuSans-111"/>
      <use x="429.634766" xlink:href="#DejaVuSans-114"/>
     </g>
    </g>
    <g id="line2d_18">
     <path d="M 145.435937 53.696562 
L 165.435937 53.696562 
" style="fill:none;stroke:#008000;stroke-linecap:square;stroke-width:1.5;"/>
    </g>
    <g id="line2d_19"/>
    <g id="text_15">
     <!-- Validation error -->
     <g transform="translate(173.435937 57.196562)scale(0.1 -0.1)">
      <defs>
       <path d="M 28.609375 0 
L 0.78125 72.90625 
L 11.078125 72.90625 
L 34.1875 11.53125 
L 57.328125 72.90625 
L 67.578125 72.90625 
L 39.796875 0 
z
" id="DejaVuSans-86"/>
       <path d="M 34.28125 27.484375 
Q 23.390625 27.484375 19.1875 25 
Q 14.984375 22.515625 14.984375 16.5 
Q 14.984375 11.71875 18.140625 8.90625 
Q 21.296875 6.109375 26.703125 6.109375 
Q 34.1875 6.109375 38.703125 11.40625 
Q 43.21875 16.703125 43.21875 25.484375 
L 43.21875 27.484375 
z
M 52.203125 31.203125 
L 52.203125 0 
L 43.21875 0 
L 43.21875 8.296875 
Q 40.140625 3.328125 35.546875 0.953125 
Q 30.953125 -1.421875 24.3125 -1.421875 
Q 15.921875 -1.421875 10.953125 3.296875 
Q 6 8.015625 6 15.921875 
Q 6 25.140625 12.171875 29.828125 
Q 18.359375 34.515625 30.609375 34.515625 
L 43.21875 34.515625 
L 43.21875 35.40625 
Q 43.21875 41.609375 39.140625 45 
Q 35.0625 48.390625 27.6875 48.390625 
Q 23 48.390625 18.546875 47.265625 
Q 14.109375 46.140625 10.015625 43.890625 
L 10.015625 52.203125 
Q 14.9375 54.109375 19.578125 55.046875 
Q 24.21875 56 28.609375 56 
Q 40.484375 56 46.34375 49.84375 
Q 52.203125 43.703125 52.203125 31.203125 
z
" id="DejaVuSans-97"/>
       <path d="M 9.421875 75.984375 
L 18.40625 75.984375 
L 18.40625 0 
L 9.421875 0 
z
" id="DejaVuSans-108"/>
       <path d="M 9.421875 54.6875 
L 18.40625 54.6875 
L 18.40625 0 
L 9.421875 0 
z
M 9.421875 75.984375 
L 18.40625 75.984375 
L 18.40625 64.59375 
L 9.421875 64.59375 
z
" id="DejaVuSans-105"/>
       <path d="M 45.40625 46.390625 
L 45.40625 75.984375 
L 54.390625 75.984375 
L 54.390625 0 
L 45.40625 0 
L 45.40625 8.203125 
Q 42.578125 3.328125 38.25 0.953125 
Q 33.9375 -1.421875 27.875 -1.421875 
Q 17.96875 -1.421875 11.734375 6.484375 
Q 5.515625 14.40625 5.515625 27.296875 
Q 5.515625 40.1875 11.734375 48.09375 
Q 17.96875 56 27.875 56 
Q 33.9375 56 38.25 53.625 
Q 42.578125 51.265625 45.40625 46.390625 
z
M 14.796875 27.296875 
Q 14.796875 17.390625 18.875 11.75 
Q 22.953125 6.109375 30.078125 6.109375 
Q 37.203125 6.109375 41.296875 11.75 
Q 45.40625 17.390625 45.40625 27.296875 
Q 45.40625 37.203125 41.296875 42.84375 
Q 37.203125 48.484375 30.078125 48.484375 
Q 22.953125 48.484375 18.875 42.84375 
Q 14.796875 37.203125 14.796875 27.296875 
z
" id="DejaVuSans-100"/>
       <path d="M 54.890625 33.015625 
L 54.890625 0 
L 45.90625 0 
L 45.90625 32.71875 
Q 45.90625 40.484375 42.875 44.328125 
Q 39.84375 48.1875 33.796875 48.1875 
Q 26.515625 48.1875 22.3125 43.546875 
Q 18.109375 38.921875 18.109375 30.90625 
L 18.109375 0 
L 9.078125 0 
L 9.078125 54.6875 
L 18.109375 54.6875 
L 18.109375 46.1875 
Q 21.34375 51.125 25.703125 53.5625 
Q 30.078125 56 35.796875 56 
Q 45.21875 56 50.046875 50.171875 
Q 54.890625 44.34375 54.890625 33.015625 
z
" id="DejaVuSans-110"/>
      </defs>
      <use xlink:href="#DejaVuSans-86"/>
      <use x="60.658203" xlink:href="#DejaVuSans-97"/>
      <use x="121.9375" xlink:href="#DejaVuSans-108"/>
      <use x="149.720703" xlink:href="#DejaVuSans-105"/>
      <use x="177.503906" xlink:href="#DejaVuSans-100"/>
      <use x="240.980469" xlink:href="#DejaVuSans-97"/>
      <use x="302.259766" xlink:href="#DejaVuSans-116"/>
      <use x="341.46875" xlink:href="#DejaVuSans-105"/>
      <use x="369.251953" xlink:href="#DejaVuSans-111"/>
      <use x="430.433594" xlink:href="#DejaVuSans-110"/>
      <use x="493.8125" xlink:href="#DejaVuSans-32"/>
      <use x="525.599609" xlink:href="#DejaVuSans-101"/>
      <use x="587.123047" xlink:href="#DejaVuSans-114"/>
      <use x="626.486328" xlink:href="#DejaVuSans-114"/>
      <use x="665.349609" xlink:href="#DejaVuSans-111"/>
      <use x="726.53125" xlink:href="#DejaVuSans-114"/>
     </g>
    </g>
    <g id="line2d_20">
     <path d="M 145.435937 68.374687 
L 165.435937 68.374687 
" style="fill:none;stroke:#0000ff;stroke-linecap:square;stroke-width:1.5;"/>
    </g>
    <g id="line2d_21"/>
    <g id="text_16">
     <!-- Train error -->
     <g transform="translate(173.435937 71.874687)scale(0.1 -0.1)">
      <use xlink:href="#DejaVuSans-84"/>
      <use x="46.333984" xlink:href="#DejaVuSans-114"/>
      <use x="87.447266" xlink:href="#DejaVuSans-97"/>
      <use x="148.726562" xlink:href="#DejaVuSans-105"/>
      <use x="176.509766" xlink:href="#DejaVuSans-110"/>
      <use x="239.888672" xlink:href="#DejaVuSans-32"/>
      <use x="271.675781" xlink:href="#DejaVuSans-101"/>
      <use x="333.199219" xlink:href="#DejaVuSans-114"/>
      <use x="372.5625" xlink:href="#DejaVuSans-114"/>
      <use x="411.425781" xlink:href="#DejaVuSans-111"/>
      <use x="472.607422" xlink:href="#DejaVuSans-114"/>
     </g>
    </g>
   </g>
  </g>
 </g>
 <defs>
  <clipPath id="pba4b697f4e">
   <rect height="163.08" width="223.2" x="36" y="25.92"/>
  </clipPath>
 </defs>
</svg>
