<?xml version="1.0" encoding="utf-8" standalone="no"?>
<!DOCTYPE svg PUBLIC "-//W3C//DTD SVG 1.1//EN"
  "http://www.w3.org/Graphics/SVG/1.1/DTD/svg11.dtd">
<!-- Created with matplotlib (https://matplotlib.org/) -->
<svg height="288pt" version="1.1" viewBox="0 0 432 288" width="432pt" xmlns="http://www.w3.org/2000/svg" xmlns:xlink="http://www.w3.org/1999/xlink">
 <metadata>
  <rdf:RDF xmlns:cc="http://creativecommons.org/ns#" xmlns:dc="http://purl.org/dc/elements/1.1/" xmlns:rdf="http://www.w3.org/1999/02/22-rdf-syntax-ns#">
   <cc:Work>
    <dc:type rdf:resource="http://purl.org/dc/dcmitype/StillImage"/>
    <dc:date>2022-02-03T12:42:27.901423</dc:date>
    <dc:format>image/svg+xml</dc:format>
    <dc:creator>
     <cc:Agent>
      <dc:title>Matplotlib v3.3.4, https://matplotlib.org/</dc:title>
     </cc:Agent>
    </dc:creator>
   </cc:Work>
  </rdf:RDF>
 </metadata>
 <defs>
  <style type="text/css">*{stroke-linecap:butt;stroke-linejoin:round;}</style>
 </defs>
 <g id="figure_1">
  <g id="patch_1">
   <path d="M 0 288 
L 432 288 
L 432 0 
L 0 0 
z
" style="fill:none;"/>
  </g>
  <g id="axes_1">
   <g id="patch_2">
    <path d="M 54 252 
L 388.8 252 
L 388.8 34.56 
L 54 34.56 
z
" style="fill:#ffffff;"/>
   </g>
   <g id="PathCollection_1">
    <defs>
     <path d="M 0 3 
C 0.795609 3 1.55874 2.683901 2.12132 2.12132 
C 2.683901 1.55874 3 0.795609 3 0 
C 3 -0.795609 2.683901 -1.55874 2.12132 -2.12132 
C 1.55874 -2.683901 0.795609 -3 0 -3 
C -0.795609 -3 -1.55874 -2.683901 -2.12132 -2.12132 
C -2.683901 -1.55874 -3 -0.795609 -3 0 
C -3 0.795609 -2.683901 1.55874 -2.12132 2.12132 
C -1.55874 2.683901 -0.795609 3 0 3 
z
" id="m75142d1616" style="stroke:#1f77b4;"/>
    </defs>
    <g clip-path="url(#pe0b29febeb)">
     <use style="fill:#1f77b4;stroke:#1f77b4;" x="73.155802" xlink:href="#m75142d1616" y="196.481049"/>
     <use style="fill:#1f77b4;stroke:#1f77b4;" x="112.497693" xlink:href="#m75142d1616" y="115.289764"/>
     <use style="fill:#1f77b4;stroke:#1f77b4;" x="101.8435" xlink:href="#m75142d1616" y="127.144161"/>
     <use style="fill:#1f77b4;stroke:#1f77b4;" x="94.82477" xlink:href="#m75142d1616" y="155.6018"/>
     <use style="fill:#1f77b4;stroke:#1f77b4;" x="90.300236" xlink:href="#m75142d1616" y="152.299756"/>
     <use style="fill:#1f77b4;stroke:#1f77b4;" x="83.487981" xlink:href="#m75142d1616" y="176.580007"/>
     <use style="fill:#1f77b4;stroke:#1f77b4;" x="107.728656" xlink:href="#m75142d1616" y="110.645554"/>
     <use style="fill:#1f77b4;stroke:#1f77b4;" x="90.962845" xlink:href="#m75142d1616" y="138.742612"/>
     <use style="fill:#1f77b4;stroke:#1f77b4;" x="83.95459" xlink:href="#m75142d1616" y="163.155699"/>
     <use style="fill:#1f77b4;stroke:#1f77b4;" x="114.617249" xlink:href="#m75142d1616" y="122.728924"/>
     <use style="fill:#1f77b4;stroke:#1f77b4;" x="103.491278" xlink:href="#m75142d1616" y="133.427032"/>
     <use style="fill:#1f77b4;stroke:#1f77b4;" x="74.194497" xlink:href="#m75142d1616" y="202.828938"/>
     <use style="fill:#1f77b4;stroke:#1f77b4;" x="90.599766" xlink:href="#m75142d1616" y="144.896923"/>
     <use style="fill:#1f77b4;stroke:#1f77b4;" x="126.61958" xlink:href="#m75142d1616" y="105.494018"/>
     <use style="fill:#1f77b4;stroke:#1f77b4;" x="95.400539" xlink:href="#m75142d1616" y="164.117925"/>
     <use style="fill:#1f77b4;stroke:#1f77b4;" x="75.254333" xlink:href="#m75142d1616" y="190.229139"/>
     <use style="fill:#1f77b4;stroke:#1f77b4;" x="69.218188" xlink:href="#m75142d1616" y="242.116364"/>
     <use style="fill:#1f77b4;stroke:#1f77b4;" x="111.422464" xlink:href="#m75142d1616" y="131.300659"/>
     <use style="fill:#1f77b4;stroke:#1f77b4;" x="104.507201" xlink:href="#m75142d1616" y="141.284566"/>
     <use style="fill:#1f77b4;stroke:#1f77b4;" x="122.173742" xlink:href="#m75142d1616" y="104.950754"/>
     <use style="fill:#1f77b4;stroke:#1f77b4;" x="104.939619" xlink:href="#m75142d1616" y="113.051786"/>
     <use style="fill:#1f77b4;stroke:#1f77b4;" x="82.634725" xlink:href="#m75142d1616" y="175.531339"/>
     <use style="fill:#1f77b4;stroke:#1f77b4;" x="100.810071" xlink:href="#m75142d1616" y="146.540153"/>
     <use style="fill:#1f77b4;stroke:#1f77b4;" x="91.548074" xlink:href="#m75142d1616" y="154.719575"/>
     <use style="fill:#1f77b4;stroke:#1f77b4;" x="75.351823" xlink:href="#m75142d1616" y="193.800955"/>
     <use style="fill:#1f77b4;stroke:#1f77b4;" x="102.177774" xlink:href="#m75142d1616" y="139.831114"/>
     <use style="fill:#1f77b4;stroke:#1f77b4;" x="99.025957" xlink:href="#m75142d1616" y="134.735499"/>
     <use style="fill:#1f77b4;stroke:#1f77b4;" x="124.37875" xlink:href="#m75142d1616" y="107.698235"/>
     <use style="fill:#1f77b4;stroke:#1f77b4;" x="125.628378" xlink:href="#m75142d1616" y="112.353314"/>
     <use style="fill:#1f77b4;stroke:#1f77b4;" x="127.200623" xlink:href="#m75142d1616" y="108.98341"/>
     <use style="fill:#1f77b4;stroke:#1f77b4;" x="196.792491" xlink:href="#m75142d1616" y="114.135381"/>
     <use style="fill:#1f77b4;stroke:#1f77b4;" x="192.673852" xlink:href="#m75142d1616" y="119.388051"/>
     <use style="fill:#1f77b4;stroke:#1f77b4;" x="197.247575" xlink:href="#m75142d1616" y="121.182808"/>
     <use style="fill:#1f77b4;stroke:#1f77b4;" x="210.937999" xlink:href="#m75142d1616" y="129.438955"/>
     <use style="fill:#1f77b4;stroke:#1f77b4;" x="195.761139" xlink:href="#m75142d1616" y="109.076272"/>
     <use style="fill:#1f77b4;stroke:#1f77b4;" x="215.207158" xlink:href="#m75142d1616" y="146.02822"/>
     <use style="fill:#1f77b4;stroke:#1f77b4;" x="200.33566" xlink:href="#m75142d1616" y="129.563779"/>
     <use style="fill:#1f77b4;stroke:#1f77b4;" x="205.500617" xlink:href="#m75142d1616" y="110.644077"/>
     <use style="fill:#1f77b4;stroke:#1f77b4;" x="210.027383" xlink:href="#m75142d1616" y="117.481534"/>
     <use style="fill:#1f77b4;stroke:#1f77b4;" x="218.409646" xlink:href="#m75142d1616" y="143.953152"/>
     <use style="fill:#1f77b4;stroke:#1f77b4;" x="191.745427" xlink:href="#m75142d1616" y="102.326871"/>
     <use style="fill:#1f77b4;stroke:#1f77b4;" x="212.664866" xlink:href="#m75142d1616" y="125.924555"/>
     <use style="fill:#1f77b4;stroke:#1f77b4;" x="201.694072" xlink:href="#m75142d1616" y="136.392021"/>
     <use style="fill:#1f77b4;stroke:#1f77b4;" x="206.169544" xlink:href="#m75142d1616" y="108.948429"/>
     <use style="fill:#1f77b4;stroke:#1f77b4;" x="191.546336" xlink:href="#m75142d1616" y="117.842041"/>
     <use style="fill:#1f77b4;stroke:#1f77b4;" x="217.109276" xlink:href="#m75142d1616" y="132.051845"/>
     <use style="fill:#1f77b4;stroke:#1f77b4;" x="213.618071" xlink:href="#m75142d1616" y="134.920794"/>
     <use style="fill:#1f77b4;stroke:#1f77b4;" x="210.303085" xlink:href="#m75142d1616" y="128.023058"/>
     <use style="fill:#1f77b4;stroke:#1f77b4;" x="212.300708" xlink:href="#m75142d1616" y="137.603768"/>
     <use style="fill:#1f77b4;stroke:#1f77b4;" x="210.105572" xlink:href="#m75142d1616" y="118.577019"/>
     <use style="fill:#1f77b4;stroke:#1f77b4;" x="231.635498" xlink:href="#m75142d1616" y="155.266117"/>
     <use style="fill:#1f77b4;stroke:#1f77b4;" x="273.550813" xlink:href="#m75142d1616" y="124.093486"/>
     <use style="fill:#1f77b4;stroke:#1f77b4;" x="248.227509" xlink:href="#m75142d1616" y="152.182799"/>
     <use style="fill:#1f77b4;stroke:#1f77b4;" x="260.428707" xlink:href="#m75142d1616" y="140.721502"/>
     <use style="fill:#1f77b4;stroke:#1f77b4;" x="230.257608" xlink:href="#m75142d1616" y="145.388113"/>
     <use style="fill:#1f77b4;stroke:#1f77b4;" x="245.431199" xlink:href="#m75142d1616" y="141.36716"/>
     <use style="fill:#1f77b4;stroke:#1f77b4;" x="269.60399" xlink:href="#m75142d1616" y="135.847958"/>
     <use style="fill:#1f77b4;stroke:#1f77b4;" x="265.315602" xlink:href="#m75142d1616" y="133.105916"/>
     <use style="fill:#1f77b4;stroke:#1f77b4;" x="224.814293" xlink:href="#m75142d1616" y="125.631047"/>
     <use style="fill:#1f77b4;stroke:#1f77b4;" x="267.811144" xlink:href="#m75142d1616" y="145.084884"/>
     <use style="fill:#1f77b4;stroke:#1f77b4;" x="328.04131" xlink:href="#m75142d1616" y="143.361512"/>
     <use style="fill:#1f77b4;stroke:#1f77b4;" x="336.338648" xlink:href="#m75142d1616" y="137.609436"/>
     <use style="fill:#1f77b4;stroke:#1f77b4;" x="333.657127" xlink:href="#m75142d1616" y="146.959551"/>
     <use style="fill:#1f77b4;stroke:#1f77b4;" x="316.752167" xlink:href="#m75142d1616" y="156.409714"/>
     <use style="fill:#1f77b4;stroke:#1f77b4;" x="333.010618" xlink:href="#m75142d1616" y="150.636741"/>
     <use style="fill:#1f77b4;stroke:#1f77b4;" x="320.29217" xlink:href="#m75142d1616" y="148.09944"/>
     <use style="fill:#1f77b4;stroke:#1f77b4;" x="320.295947" xlink:href="#m75142d1616" y="152.376838"/>
     <use style="fill:#1f77b4;stroke:#1f77b4;" x="338.523968" xlink:href="#m75142d1616" y="126.845628"/>
     <use style="fill:#1f77b4;stroke:#1f77b4;" x="315.99013" xlink:href="#m75142d1616" y="150.466997"/>
     <use style="fill:#1f77b4;stroke:#1f77b4;" x="335.093018" xlink:href="#m75142d1616" y="143.520805"/>
     <use style="fill:#1f77b4;stroke:#1f77b4;" x="372.602584" xlink:href="#m75142d1616" y="44.443636"/>
     <use style="fill:#1f77b4;stroke:#1f77b4;" x="365.710728" xlink:href="#m75142d1616" y="66.006821"/>
     <use style="fill:#1f77b4;stroke:#1f77b4;" x="347.936098" xlink:href="#m75142d1616" y="124.184286"/>
     <use style="fill:#1f77b4;stroke:#1f77b4;" x="367.90694" xlink:href="#m75142d1616" y="80.29576"/>
     <use style="fill:#1f77b4;stroke:#1f77b4;" x="365.319668" xlink:href="#m75142d1616" y="69.708212"/>
     <use style="fill:#1f77b4;stroke:#1f77b4;" x="373.426594" xlink:href="#m75142d1616" y="45.288329"/>
     <use style="fill:#1f77b4;stroke:#1f77b4;" x="373.581817" xlink:href="#m75142d1616" y="48.904989"/>
     <use style="fill:#1f77b4;stroke:#1f77b4;" x="358.891308" xlink:href="#m75142d1616" y="105.523414"/>
     <use style="fill:#1f77b4;stroke:#1f77b4;" x="363.681126" xlink:href="#m75142d1616" y="77.347093"/>
     <use style="fill:#1f77b4;stroke:#1f77b4;" x="351.77765" xlink:href="#m75142d1616" y="122.194585"/>
     <use style="fill:#1f77b4;stroke:#1f77b4;" x="362.967304" xlink:href="#m75142d1616" y="90.499052"/>
     <use style="fill:#1f77b4;stroke:#1f77b4;" x="369.720804" xlink:href="#m75142d1616" y="57.620138"/>
     <use style="fill:#1f77b4;stroke:#1f77b4;" x="361.012931" xlink:href="#m75142d1616" y="95.562804"/>
     <use style="fill:#1f77b4;stroke:#1f77b4;" x="344.228621" xlink:href="#m75142d1616" y="128.585057"/>
     <use style="fill:#1f77b4;stroke:#1f77b4;" x="360.572506" xlink:href="#m75142d1616" y="84.930242"/>
     <use style="fill:#1f77b4;stroke:#1f77b4;" x="354.848915" xlink:href="#m75142d1616" y="92.885134"/>
     <use style="fill:#1f77b4;stroke:#1f77b4;" x="373.052539" xlink:href="#m75142d1616" y="57.782914"/>
     <use style="fill:#1f77b4;stroke:#1f77b4;" x="355.545252" xlink:href="#m75142d1616" y="104.456985"/>
     <use style="fill:#1f77b4;stroke:#1f77b4;" x="344.680442" xlink:href="#m75142d1616" y="114.245519"/>
     <use style="fill:#1f77b4;stroke:#1f77b4;" x="370.954788" xlink:href="#m75142d1616" y="66.489641"/>
     <use style="fill:#1f77b4;stroke:#1f77b4;" x="347.935416" xlink:href="#m75142d1616" y="113.85113"/>
     <use style="fill:#1f77b4;stroke:#1f77b4;" x="363.15488" xlink:href="#m75142d1616" y="82.929039"/>
     <use style="fill:#1f77b4;stroke:#1f77b4;" x="346.586747" xlink:href="#m75142d1616" y="119.855654"/>
     <use style="fill:#1f77b4;stroke:#1f77b4;" x="370.909864" xlink:href="#m75142d1616" y="58.235501"/>
     <use style="fill:#1f77b4;stroke:#1f77b4;" x="345.564541" xlink:href="#m75142d1616" y="140.345446"/>
     <use style="fill:#1f77b4;stroke:#1f77b4;" x="366.455204" xlink:href="#m75142d1616" y="69.004998"/>
     <use style="fill:#1f77b4;stroke:#1f77b4;" x="357.492288" xlink:href="#m75142d1616" y="109.737691"/>
     <use style="fill:#1f77b4;stroke:#1f77b4;" x="360.344841" xlink:href="#m75142d1616" y="91.644375"/>
     <use style="fill:#1f77b4;stroke:#1f77b4;" x="363.495179" xlink:href="#m75142d1616" y="80.822469"/>
     <use style="fill:#1f77b4;stroke:#1f77b4;" x="367.561842" xlink:href="#m75142d1616" y="54.964587"/>
    </g>
   </g>
   <g id="matplotlib.axis_1">
    <g id="xtick_1">
     <g id="line2d_1">
      <path clip-path="url(#pe0b29febeb)" d="M 97.394138 252 
L 97.394138 34.56 
" style="fill:none;stroke:#b0b0b0;stroke-linecap:square;stroke-width:0.8;"/>
     </g>
     <g id="line2d_2">
      <defs>
       <path d="M 0 0 
L 0 3.5 
" id="m042e130c33" style="stroke:#000000;stroke-width:0.8;"/>
      </defs>
      <g>
       <use style="stroke:#000000;stroke-width:0.8;" x="97.394138" xlink:href="#m042e130c33" y="252"/>
      </g>
     </g>
     <g id="text_1">
      <!-- −4 -->
      <g transform="translate(90.023044 266.598437)scale(0.1 -0.1)">
       <defs>
        <path d="M 10.59375 35.5 
L 73.1875 35.5 
L 73.1875 27.203125 
L 10.59375 27.203125 
z
" id="DejaVuSans-8722"/>
        <path d="M 37.796875 64.3125 
L 12.890625 25.390625 
L 37.796875 25.390625 
z
M 35.203125 72.90625 
L 47.609375 72.90625 
L 47.609375 25.390625 
L 58.015625 25.390625 
L 58.015625 17.1875 
L 47.609375 17.1875 
L 47.609375 0 
L 37.796875 0 
L 37.796875 17.1875 
L 4.890625 17.1875 
L 4.890625 26.703125 
z
" id="DejaVuSans-52"/>
       </defs>
       <use xlink:href="#DejaVuSans-8722"/>
       <use x="83.789062" xlink:href="#DejaVuSans-52"/>
      </g>
     </g>
    </g>
    <g id="xtick_2">
     <g id="line2d_3">
      <path clip-path="url(#pe0b29febeb)" d="M 158.922893 252 
L 158.922893 34.56 
" style="fill:none;stroke:#b0b0b0;stroke-linecap:square;stroke-width:0.8;"/>
     </g>
     <g id="line2d_4">
      <g>
       <use style="stroke:#000000;stroke-width:0.8;" x="158.922893" xlink:href="#m042e130c33" y="252"/>
      </g>
     </g>
     <g id="text_2">
      <!-- −2 -->
      <g transform="translate(151.551799 266.598437)scale(0.1 -0.1)">
       <defs>
        <path d="M 19.1875 8.296875 
L 53.609375 8.296875 
L 53.609375 0 
L 7.328125 0 
L 7.328125 8.296875 
Q 12.9375 14.109375 22.625 23.890625 
Q 32.328125 33.6875 34.8125 36.53125 
Q 39.546875 41.84375 41.421875 45.53125 
Q 43.3125 49.21875 43.3125 52.78125 
Q 43.3125 58.59375 39.234375 62.25 
Q 35.15625 65.921875 28.609375 65.921875 
Q 23.96875 65.921875 18.8125 64.3125 
Q 13.671875 62.703125 7.8125 59.421875 
L 7.8125 69.390625 
Q 13.765625 71.78125 18.9375 73 
Q 24.125 74.21875 28.421875 74.21875 
Q 39.75 74.21875 46.484375 68.546875 
Q 53.21875 62.890625 53.21875 53.421875 
Q 53.21875 48.921875 51.53125 44.890625 
Q 49.859375 40.875 45.40625 35.40625 
Q 44.1875 33.984375 37.640625 27.21875 
Q 31.109375 20.453125 19.1875 8.296875 
z
" id="DejaVuSans-50"/>
       </defs>
       <use xlink:href="#DejaVuSans-8722"/>
       <use x="83.789062" xlink:href="#DejaVuSans-50"/>
      </g>
     </g>
    </g>
    <g id="xtick_3">
     <g id="line2d_5">
      <path clip-path="url(#pe0b29febeb)" d="M 220.451647 252 
L 220.451647 34.56 
" style="fill:none;stroke:#b0b0b0;stroke-linecap:square;stroke-width:0.8;"/>
     </g>
     <g id="line2d_6">
      <g>
       <use style="stroke:#000000;stroke-width:0.8;" x="220.451647" xlink:href="#m042e130c33" y="252"/>
      </g>
     </g>
     <g id="text_3">
      <!-- 0 -->
      <g transform="translate(217.270397 266.598437)scale(0.1 -0.1)">
       <defs>
        <path d="M 31.78125 66.40625 
Q 24.171875 66.40625 20.328125 58.90625 
Q 16.5 51.421875 16.5 36.375 
Q 16.5 21.390625 20.328125 13.890625 
Q 24.171875 6.390625 31.78125 6.390625 
Q 39.453125 6.390625 43.28125 13.890625 
Q 47.125 21.390625 47.125 36.375 
Q 47.125 51.421875 43.28125 58.90625 
Q 39.453125 66.40625 31.78125 66.40625 
z
M 31.78125 74.21875 
Q 44.046875 74.21875 50.515625 64.515625 
Q 56.984375 54.828125 56.984375 36.375 
Q 56.984375 17.96875 50.515625 8.265625 
Q 44.046875 -1.421875 31.78125 -1.421875 
Q 19.53125 -1.421875 13.0625 8.265625 
Q 6.59375 17.96875 6.59375 36.375 
Q 6.59375 54.828125 13.0625 64.515625 
Q 19.53125 74.21875 31.78125 74.21875 
z
" id="DejaVuSans-48"/>
       </defs>
       <use xlink:href="#DejaVuSans-48"/>
      </g>
     </g>
    </g>
    <g id="xtick_4">
     <g id="line2d_7">
      <path clip-path="url(#pe0b29febeb)" d="M 281.980402 252 
L 281.980402 34.56 
" style="fill:none;stroke:#b0b0b0;stroke-linecap:square;stroke-width:0.8;"/>
     </g>
     <g id="line2d_8">
      <g>
       <use style="stroke:#000000;stroke-width:0.8;" x="281.980402" xlink:href="#m042e130c33" y="252"/>
      </g>
     </g>
     <g id="text_4">
      <!-- 2 -->
      <g transform="translate(278.799152 266.598437)scale(0.1 -0.1)">
       <use xlink:href="#DejaVuSans-50"/>
      </g>
     </g>
    </g>
    <g id="xtick_5">
     <g id="line2d_9">
      <path clip-path="url(#pe0b29febeb)" d="M 343.509156 252 
L 343.509156 34.56 
" style="fill:none;stroke:#b0b0b0;stroke-linecap:square;stroke-width:0.8;"/>
     </g>
     <g id="line2d_10">
      <g>
       <use style="stroke:#000000;stroke-width:0.8;" x="343.509156" xlink:href="#m042e130c33" y="252"/>
      </g>
     </g>
     <g id="text_5">
      <!-- 4 -->
      <g transform="translate(340.327906 266.598437)scale(0.1 -0.1)">
       <use xlink:href="#DejaVuSans-52"/>
      </g>
     </g>
    </g>
    <g id="text_6">
     <!-- x -->
     <g transform="translate(218.440625 280.276563)scale(0.1 -0.1)">
      <defs>
       <path d="M 54.890625 54.6875 
L 35.109375 28.078125 
L 55.90625 0 
L 45.3125 0 
L 29.390625 21.484375 
L 13.484375 0 
L 2.875 0 
L 24.125 28.609375 
L 4.6875 54.6875 
L 15.28125 54.6875 
L 29.78125 35.203125 
L 44.28125 54.6875 
z
" id="DejaVuSans-120"/>
      </defs>
      <use xlink:href="#DejaVuSans-120"/>
     </g>
    </g>
   </g>
   <g id="matplotlib.axis_2">
    <g id="ytick_1">
     <g id="line2d_11">
      <path clip-path="url(#pe0b29febeb)" d="M 54 246.759632 
L 388.8 246.759632 
" style="fill:none;stroke:#b0b0b0;stroke-linecap:square;stroke-width:0.8;"/>
     </g>
     <g id="line2d_12">
      <defs>
       <path d="M 0 0 
L -3.5 0 
" id="mb2344caa3a" style="stroke:#000000;stroke-width:0.8;"/>
      </defs>
      <g>
       <use style="stroke:#000000;stroke-width:0.8;" x="54" xlink:href="#mb2344caa3a" y="246.759632"/>
      </g>
     </g>
     <g id="text_7">
      <!-- −4 -->
      <g transform="translate(32.257812 250.558851)scale(0.1 -0.1)">
       <use xlink:href="#DejaVuSans-8722"/>
       <use x="83.789062" xlink:href="#DejaVuSans-52"/>
      </g>
     </g>
    </g>
    <g id="ytick_2">
     <g id="line2d_13">
      <path clip-path="url(#pe0b29febeb)" d="M 54 210.629532 
L 388.8 210.629532 
" style="fill:none;stroke:#b0b0b0;stroke-linecap:square;stroke-width:0.8;"/>
     </g>
     <g id="line2d_14">
      <g>
       <use style="stroke:#000000;stroke-width:0.8;" x="54" xlink:href="#mb2344caa3a" y="210.629532"/>
      </g>
     </g>
     <g id="text_8">
      <!-- −2 -->
      <g transform="translate(32.257812 214.428751)scale(0.1 -0.1)">
       <use xlink:href="#DejaVuSans-8722"/>
       <use x="83.789062" xlink:href="#DejaVuSans-50"/>
      </g>
     </g>
    </g>
    <g id="ytick_3">
     <g id="line2d_15">
      <path clip-path="url(#pe0b29febeb)" d="M 54 174.499431 
L 388.8 174.499431 
" style="fill:none;stroke:#b0b0b0;stroke-linecap:square;stroke-width:0.8;"/>
     </g>
     <g id="line2d_16">
      <g>
       <use style="stroke:#000000;stroke-width:0.8;" x="54" xlink:href="#mb2344caa3a" y="174.499431"/>
      </g>
     </g>
     <g id="text_9">
      <!-- 0 -->
      <g transform="translate(40.6375 178.29865)scale(0.1 -0.1)">
       <use xlink:href="#DejaVuSans-48"/>
      </g>
     </g>
    </g>
    <g id="ytick_4">
     <g id="line2d_17">
      <path clip-path="url(#pe0b29febeb)" d="M 54 138.369331 
L 388.8 138.369331 
" style="fill:none;stroke:#b0b0b0;stroke-linecap:square;stroke-width:0.8;"/>
     </g>
     <g id="line2d_18">
      <g>
       <use style="stroke:#000000;stroke-width:0.8;" x="54" xlink:href="#mb2344caa3a" y="138.369331"/>
      </g>
     </g>
     <g id="text_10">
      <!-- 2 -->
      <g transform="translate(40.6375 142.16855)scale(0.1 -0.1)">
       <use xlink:href="#DejaVuSans-50"/>
      </g>
     </g>
    </g>
    <g id="ytick_5">
     <g id="line2d_19">
      <path clip-path="url(#pe0b29febeb)" d="M 54 102.23923 
L 388.8 102.23923 
" style="fill:none;stroke:#b0b0b0;stroke-linecap:square;stroke-width:0.8;"/>
     </g>
     <g id="line2d_20">
      <g>
       <use style="stroke:#000000;stroke-width:0.8;" x="54" xlink:href="#mb2344caa3a" y="102.23923"/>
      </g>
     </g>
     <g id="text_11">
      <!-- 4 -->
      <g transform="translate(40.6375 106.038449)scale(0.1 -0.1)">
       <use xlink:href="#DejaVuSans-52"/>
      </g>
     </g>
    </g>
    <g id="ytick_6">
     <g id="line2d_21">
      <path clip-path="url(#pe0b29febeb)" d="M 54 66.10913 
L 388.8 66.10913 
" style="fill:none;stroke:#b0b0b0;stroke-linecap:square;stroke-width:0.8;"/>
     </g>
     <g id="line2d_22">
      <g>
       <use style="stroke:#000000;stroke-width:0.8;" x="54" xlink:href="#mb2344caa3a" y="66.10913"/>
      </g>
     </g>
     <g id="text_12">
      <!-- 6 -->
      <g transform="translate(40.6375 69.908349)scale(0.1 -0.1)">
       <defs>
        <path d="M 33.015625 40.375 
Q 26.375 40.375 22.484375 35.828125 
Q 18.609375 31.296875 18.609375 23.390625 
Q 18.609375 15.53125 22.484375 10.953125 
Q 26.375 6.390625 33.015625 6.390625 
Q 39.65625 6.390625 43.53125 10.953125 
Q 47.40625 15.53125 47.40625 23.390625 
Q 47.40625 31.296875 43.53125 35.828125 
Q 39.65625 40.375 33.015625 40.375 
z
M 52.59375 71.296875 
L 52.59375 62.3125 
Q 48.875 64.0625 45.09375 64.984375 
Q 41.3125 65.921875 37.59375 65.921875 
Q 27.828125 65.921875 22.671875 59.328125 
Q 17.53125 52.734375 16.796875 39.40625 
Q 19.671875 43.65625 24.015625 45.921875 
Q 28.375 48.1875 33.59375 48.1875 
Q 44.578125 48.1875 50.953125 41.515625 
Q 57.328125 34.859375 57.328125 23.390625 
Q 57.328125 12.15625 50.6875 5.359375 
Q 44.046875 -1.421875 33.015625 -1.421875 
Q 20.359375 -1.421875 13.671875 8.265625 
Q 6.984375 17.96875 6.984375 36.375 
Q 6.984375 53.65625 15.1875 63.9375 
Q 23.390625 74.21875 37.203125 74.21875 
Q 40.921875 74.21875 44.703125 73.484375 
Q 48.484375 72.75 52.59375 71.296875 
z
" id="DejaVuSans-54"/>
       </defs>
       <use xlink:href="#DejaVuSans-54"/>
      </g>
     </g>
    </g>
    <g id="text_13">
     <!-- y -->
     <g transform="translate(26.178125 146.239375)rotate(-90)scale(0.1 -0.1)">
      <defs>
       <path d="M 32.171875 -5.078125 
Q 28.375 -14.84375 24.75 -17.8125 
Q 21.140625 -20.796875 15.09375 -20.796875 
L 7.90625 -20.796875 
L 7.90625 -13.28125 
L 13.1875 -13.28125 
Q 16.890625 -13.28125 18.9375 -11.515625 
Q 21 -9.765625 23.484375 -3.21875 
L 25.09375 0.875 
L 2.984375 54.6875 
L 12.5 54.6875 
L 29.59375 11.921875 
L 46.6875 54.6875 
L 56.203125 54.6875 
z
" id="DejaVuSans-121"/>
      </defs>
      <use xlink:href="#DejaVuSans-121"/>
     </g>
    </g>
   </g>
   <g id="line2d_23">
    <path clip-path="url(#pe0b29febeb)" d="M 69.218182 207.249502 
L 77.444232 185.433655 
L 82.014252 173.91717 
L 85.974941 164.498806 
L 89.630957 156.362559 
L 92.982315 149.422725 
L 96.333673 143.003421 
L 99.380343 137.626719 
L 102.427028 132.684335 
L 105.473712 128.166517 
L 108.52039 124.058377 
L 111.567082 120.341502 
L 114.613767 116.995494 
L 117.660452 113.998963 
L 120.707129 111.330607 
L 123.753814 108.969796 
L 126.800499 106.897143 
L 129.847184 105.094831 
L 132.893862 103.546802 
L 135.940546 102.238877 
L 138.987231 101.158852 
L 142.033916 100.296383 
L 145.385266 99.588908 
L 148.736617 99.125669 
L 152.087967 98.900238 
L 155.439318 98.908292 
L 158.790668 99.14735 
L 162.142022 99.616336 
L 165.493373 100.315128 
L 168.844723 101.244045 
L 172.196081 102.403152 
L 175.547431 103.791562 
L 178.898782 105.406587 
L 182.554801 107.420535 
L 186.210821 109.685984 
L 190.17151 112.402923 
L 194.436866 115.597552 
L 199.616228 119.772929 
L 207.232935 126.244155 
L 215.45898 133.163735 
L 220.333674 136.965605 
L 224.294336 139.770576 
L 227.645688 141.882612 
L 230.692371 143.548456 
L 233.434386 144.80372 
L 235.871733 145.696672 
L 238.309081 146.354417 
L 240.441758 146.719683 
L 242.574437 146.877775 
L 244.707115 146.825884 
L 247.144461 146.520605 
L 249.581807 145.987001 
L 252.93316 144.994699 
L 259.635864 142.932458 
L 262.37788 142.359126 
L 264.815226 142.065016 
L 267.252573 141.988135 
L 269.689919 142.123802 
L 272.431931 142.510482 
L 275.173947 143.115131 
L 278.220631 144.001635 
L 281.876651 145.300587 
L 286.446671 147.169547 
L 298.328738 152.154371 
L 301.984761 153.375456 
L 305.031438 154.173808 
L 308.078131 154.732173 
L 310.820142 155.003118 
L 313.562162 155.03395 
L 315.999508 154.84519 
L 318.436855 154.440166 
L 320.874201 153.806171 
L 323.311547 152.92946 
L 325.748894 151.794707 
L 328.18624 150.38468 
L 330.318914 148.909937 
L 332.451595 147.195415 
L 334.584276 145.225793 
L 336.716949 142.985007 
L 338.84963 140.456628 
L 341.286976 137.194378 
L 343.724315 133.513721 
L 346.161669 129.397139 
L 348.599008 124.834369 
L 351.036362 119.825376 
L 353.778374 113.6745 
L 356.825059 106.253662 
L 360.176417 97.499458 
L 365.051109 84.067546 
L 372.667814 63.08189 
L 373.581818 60.675941 
L 373.581818 60.675941 
" style="fill:none;stroke:#ff0000;stroke-linecap:square;stroke-width:1.5;"/>
   </g>
   <g id="patch_3">
    <path d="M 54 252 
L 54 34.56 
" style="fill:none;stroke:#000000;stroke-linecap:square;stroke-linejoin:miter;stroke-width:0.8;"/>
   </g>
   <g id="patch_4">
    <path d="M 388.8 252 
L 388.8 34.56 
" style="fill:none;stroke:#000000;stroke-linecap:square;stroke-linejoin:miter;stroke-width:0.8;"/>
   </g>
   <g id="patch_5">
    <path d="M 54 252 
L 388.8 252 
" style="fill:none;stroke:#000000;stroke-linecap:square;stroke-linejoin:miter;stroke-width:0.8;"/>
   </g>
   <g id="patch_6">
    <path d="M 54 34.56 
L 388.8 34.56 
" style="fill:none;stroke:#000000;stroke-linecap:square;stroke-linejoin:miter;stroke-width:0.8;"/>
   </g>
   <g id="legend_1">
    <g id="patch_7">
     <path d="M 61 71.91625 
L 170.914062 71.91625 
Q 172.914062 71.91625 172.914062 69.91625 
L 172.914062 41.56 
Q 172.914062 39.56 170.914062 39.56 
L 61 39.56 
Q 59 39.56 59 41.56 
L 59 69.91625 
Q 59 71.91625 61 71.91625 
z
" style="fill:#ffffff;opacity:0.8;stroke:#cccccc;stroke-linejoin:miter;"/>
    </g>
    <g id="line2d_24">
     <path d="M 63 47.658437 
L 83 47.658437 
" style="fill:none;stroke:#ff0000;stroke-linecap:square;stroke-width:1.5;"/>
    </g>
    <g id="line2d_25"/>
    <g id="text_14">
     <!-- Network output -->
     <g transform="translate(91 51.158437)scale(0.1 -0.1)">
      <defs>
       <path d="M 9.8125 72.90625 
L 23.09375 72.90625 
L 55.421875 11.921875 
L 55.421875 72.90625 
L 64.984375 72.90625 
L 64.984375 0 
L 51.703125 0 
L 19.390625 60.984375 
L 19.390625 0 
L 9.8125 0 
z
" id="DejaVuSans-78"/>
       <path d="M 56.203125 29.59375 
L 56.203125 25.203125 
L 14.890625 25.203125 
Q 15.484375 15.921875 20.484375 11.0625 
Q 25.484375 6.203125 34.421875 6.203125 
Q 39.59375 6.203125 44.453125 7.46875 
Q 49.3125 8.734375 54.109375 11.28125 
L 54.109375 2.78125 
Q 49.265625 0.734375 44.1875 -0.34375 
Q 39.109375 -1.421875 33.890625 -1.421875 
Q 20.796875 -1.421875 13.15625 6.1875 
Q 5.515625 13.8125 5.515625 26.8125 
Q 5.515625 40.234375 12.765625 48.109375 
Q 20.015625 56 32.328125 56 
Q 43.359375 56 49.78125 48.890625 
Q 56.203125 41.796875 56.203125 29.59375 
z
M 47.21875 32.234375 
Q 47.125 39.59375 43.09375 43.984375 
Q 39.0625 48.390625 32.421875 48.390625 
Q 24.90625 48.390625 20.390625 44.140625 
Q 15.875 39.890625 15.1875 32.171875 
z
" id="DejaVuSans-101"/>
       <path d="M 18.3125 70.21875 
L 18.3125 54.6875 
L 36.8125 54.6875 
L 36.8125 47.703125 
L 18.3125 47.703125 
L 18.3125 18.015625 
Q 18.3125 11.328125 20.140625 9.421875 
Q 21.96875 7.515625 27.59375 7.515625 
L 36.8125 7.515625 
L 36.8125 0 
L 27.59375 0 
Q 17.1875 0 13.234375 3.875 
Q 9.28125 7.765625 9.28125 18.015625 
L 9.28125 47.703125 
L 2.6875 47.703125 
L 2.6875 54.6875 
L 9.28125 54.6875 
L 9.28125 70.21875 
z
" id="DejaVuSans-116"/>
       <path d="M 4.203125 54.6875 
L 13.1875 54.6875 
L 24.421875 12.015625 
L 35.59375 54.6875 
L 46.1875 54.6875 
L 57.421875 12.015625 
L 68.609375 54.6875 
L 77.59375 54.6875 
L 63.28125 0 
L 52.6875 0 
L 40.921875 44.828125 
L 29.109375 0 
L 18.5 0 
z
" id="DejaVuSans-119"/>
       <path d="M 30.609375 48.390625 
Q 23.390625 48.390625 19.1875 42.75 
Q 14.984375 37.109375 14.984375 27.296875 
Q 14.984375 17.484375 19.15625 11.84375 
Q 23.34375 6.203125 30.609375 6.203125 
Q 37.796875 6.203125 41.984375 11.859375 
Q 46.1875 17.53125 46.1875 27.296875 
Q 46.1875 37.015625 41.984375 42.703125 
Q 37.796875 48.390625 30.609375 48.390625 
z
M 30.609375 56 
Q 42.328125 56 49.015625 48.375 
Q 55.71875 40.765625 55.71875 27.296875 
Q 55.71875 13.875 49.015625 6.21875 
Q 42.328125 -1.421875 30.609375 -1.421875 
Q 18.84375 -1.421875 12.171875 6.21875 
Q 5.515625 13.875 5.515625 27.296875 
Q 5.515625 40.765625 12.171875 48.375 
Q 18.84375 56 30.609375 56 
z
" id="DejaVuSans-111"/>
       <path d="M 41.109375 46.296875 
Q 39.59375 47.171875 37.8125 47.578125 
Q 36.03125 48 33.890625 48 
Q 26.265625 48 22.1875 43.046875 
Q 18.109375 38.09375 18.109375 28.8125 
L 18.109375 0 
L 9.078125 0 
L 9.078125 54.6875 
L 18.109375 54.6875 
L 18.109375 46.1875 
Q 20.953125 51.171875 25.484375 53.578125 
Q 30.03125 56 36.53125 56 
Q 37.453125 56 38.578125 55.875 
Q 39.703125 55.765625 41.0625 55.515625 
z
" id="DejaVuSans-114"/>
       <path d="M 9.078125 75.984375 
L 18.109375 75.984375 
L 18.109375 31.109375 
L 44.921875 54.6875 
L 56.390625 54.6875 
L 27.390625 29.109375 
L 57.625 0 
L 45.90625 0 
L 18.109375 26.703125 
L 18.109375 0 
L 9.078125 0 
z
" id="DejaVuSans-107"/>
       <path id="DejaVuSans-32"/>
       <path d="M 8.5 21.578125 
L 8.5 54.6875 
L 17.484375 54.6875 
L 17.484375 21.921875 
Q 17.484375 14.15625 20.5 10.265625 
Q 23.53125 6.390625 29.59375 6.390625 
Q 36.859375 6.390625 41.078125 11.03125 
Q 45.3125 15.671875 45.3125 23.6875 
L 45.3125 54.6875 
L 54.296875 54.6875 
L 54.296875 0 
L 45.3125 0 
L 45.3125 8.40625 
Q 42.046875 3.421875 37.71875 1 
Q 33.40625 -1.421875 27.6875 -1.421875 
Q 18.265625 -1.421875 13.375 4.4375 
Q 8.5 10.296875 8.5 21.578125 
z
M 31.109375 56 
z
" id="DejaVuSans-117"/>
       <path d="M 18.109375 8.203125 
L 18.109375 -20.796875 
L 9.078125 -20.796875 
L 9.078125 54.6875 
L 18.109375 54.6875 
L 18.109375 46.390625 
Q 20.953125 51.265625 25.265625 53.625 
Q 29.59375 56 35.59375 56 
Q 45.5625 56 51.78125 48.09375 
Q 58.015625 40.1875 58.015625 27.296875 
Q 58.015625 14.40625 51.78125 6.484375 
Q 45.5625 -1.421875 35.59375 -1.421875 
Q 29.59375 -1.421875 25.265625 0.953125 
Q 20.953125 3.328125 18.109375 8.203125 
z
M 48.6875 27.296875 
Q 48.6875 37.203125 44.609375 42.84375 
Q 40.53125 48.484375 33.40625 48.484375 
Q 26.265625 48.484375 22.1875 42.84375 
Q 18.109375 37.203125 18.109375 27.296875 
Q 18.109375 17.390625 22.1875 11.75 
Q 26.265625 6.109375 33.40625 6.109375 
Q 40.53125 6.109375 44.609375 11.75 
Q 48.6875 17.390625 48.6875 27.296875 
z
" id="DejaVuSans-112"/>
      </defs>
      <use xlink:href="#DejaVuSans-78"/>
      <use x="74.804688" xlink:href="#DejaVuSans-101"/>
      <use x="136.328125" xlink:href="#DejaVuSans-116"/>
      <use x="175.537109" xlink:href="#DejaVuSans-119"/>
      <use x="257.324219" xlink:href="#DejaVuSans-111"/>
      <use x="318.505859" xlink:href="#DejaVuSans-114"/>
      <use x="359.619141" xlink:href="#DejaVuSans-107"/>
      <use x="417.529297" xlink:href="#DejaVuSans-32"/>
      <use x="449.316406" xlink:href="#DejaVuSans-111"/>
      <use x="510.498047" xlink:href="#DejaVuSans-117"/>
      <use x="573.876953" xlink:href="#DejaVuSans-116"/>
      <use x="613.085938" xlink:href="#DejaVuSans-112"/>
      <use x="676.5625" xlink:href="#DejaVuSans-117"/>
      <use x="739.941406" xlink:href="#DejaVuSans-116"/>
     </g>
    </g>
    <g id="PathCollection_2">
     <g>
      <use style="fill:#1f77b4;stroke:#1f77b4;" x="73" xlink:href="#m75142d1616" y="63.211562"/>
     </g>
    </g>
    <g id="text_15">
     <!-- Training points -->
     <g transform="translate(91 65.836562)scale(0.1 -0.1)">
      <defs>
       <path d="M -0.296875 72.90625 
L 61.375 72.90625 
L 61.375 64.59375 
L 35.5 64.59375 
L 35.5 0 
L 25.59375 0 
L 25.59375 64.59375 
L -0.296875 64.59375 
z
" id="DejaVuSans-84"/>
       <path d="M 34.28125 27.484375 
Q 23.390625 27.484375 19.1875 25 
Q 14.984375 22.515625 14.984375 16.5 
Q 14.984375 11.71875 18.140625 8.90625 
Q 21.296875 6.109375 26.703125 6.109375 
Q 34.1875 6.109375 38.703125 11.40625 
Q 43.21875 16.703125 43.21875 25.484375 
L 43.21875 27.484375 
z
M 52.203125 31.203125 
L 52.203125 0 
L 43.21875 0 
L 43.21875 8.296875 
Q 40.140625 3.328125 35.546875 0.953125 
Q 30.953125 -1.421875 24.3125 -1.421875 
Q 15.921875 -1.421875 10.953125 3.296875 
Q 6 8.015625 6 15.921875 
Q 6 25.140625 12.171875 29.828125 
Q 18.359375 34.515625 30.609375 34.515625 
L 43.21875 34.515625 
L 43.21875 35.40625 
Q 43.21875 41.609375 39.140625 45 
Q 35.0625 48.390625 27.6875 48.390625 
Q 23 48.390625 18.546875 47.265625 
Q 14.109375 46.140625 10.015625 43.890625 
L 10.015625 52.203125 
Q 14.9375 54.109375 19.578125 55.046875 
Q 24.21875 56 28.609375 56 
Q 40.484375 56 46.34375 49.84375 
Q 52.203125 43.703125 52.203125 31.203125 
z
" id="DejaVuSans-97"/>
       <path d="M 9.421875 54.6875 
L 18.40625 54.6875 
L 18.40625 0 
L 9.421875 0 
z
M 9.421875 75.984375 
L 18.40625 75.984375 
L 18.40625 64.59375 
L 9.421875 64.59375 
z
" id="DejaVuSans-105"/>
       <path d="M 54.890625 33.015625 
L 54.890625 0 
L 45.90625 0 
L 45.90625 32.71875 
Q 45.90625 40.484375 42.875 44.328125 
Q 39.84375 48.1875 33.796875 48.1875 
Q 26.515625 48.1875 22.3125 43.546875 
Q 18.109375 38.921875 18.109375 30.90625 
L 18.109375 0 
L 9.078125 0 
L 9.078125 54.6875 
L 18.109375 54.6875 
L 18.109375 46.1875 
Q 21.34375 51.125 25.703125 53.5625 
Q 30.078125 56 35.796875 56 
Q 45.21875 56 50.046875 50.171875 
Q 54.890625 44.34375 54.890625 33.015625 
z
" id="DejaVuSans-110"/>
       <path d="M 45.40625 27.984375 
Q 45.40625 37.75 41.375 43.109375 
Q 37.359375 48.484375 30.078125 48.484375 
Q 22.859375 48.484375 18.828125 43.109375 
Q 14.796875 37.75 14.796875 27.984375 
Q 14.796875 18.265625 18.828125 12.890625 
Q 22.859375 7.515625 30.078125 7.515625 
Q 37.359375 7.515625 41.375 12.890625 
Q 45.40625 18.265625 45.40625 27.984375 
z
M 54.390625 6.78125 
Q 54.390625 -7.171875 48.1875 -13.984375 
Q 42 -20.796875 29.203125 -20.796875 
Q 24.46875 -20.796875 20.265625 -20.09375 
Q 16.0625 -19.390625 12.109375 -17.921875 
L 12.109375 -9.1875 
Q 16.0625 -11.328125 19.921875 -12.34375 
Q 23.78125 -13.375 27.78125 -13.375 
Q 36.625 -13.375 41.015625 -8.765625 
Q 45.40625 -4.15625 45.40625 5.171875 
L 45.40625 9.625 
Q 42.625 4.78125 38.28125 2.390625 
Q 33.9375 0 27.875 0 
Q 17.828125 0 11.671875 7.65625 
Q 5.515625 15.328125 5.515625 27.984375 
Q 5.515625 40.671875 11.671875 48.328125 
Q 17.828125 56 27.875 56 
Q 33.9375 56 38.28125 53.609375 
Q 42.625 51.21875 45.40625 46.390625 
L 45.40625 54.6875 
L 54.390625 54.6875 
z
" id="DejaVuSans-103"/>
       <path d="M 44.28125 53.078125 
L 44.28125 44.578125 
Q 40.484375 46.53125 36.375 47.5 
Q 32.28125 48.484375 27.875 48.484375 
Q 21.1875 48.484375 17.84375 46.4375 
Q 14.5 44.390625 14.5 40.28125 
Q 14.5 37.15625 16.890625 35.375 
Q 19.28125 33.59375 26.515625 31.984375 
L 29.59375 31.296875 
Q 39.15625 29.25 43.1875 25.515625 
Q 47.21875 21.78125 47.21875 15.09375 
Q 47.21875 7.46875 41.1875 3.015625 
Q 35.15625 -1.421875 24.609375 -1.421875 
Q 20.21875 -1.421875 15.453125 -0.5625 
Q 10.6875 0.296875 5.421875 2 
L 5.421875 11.28125 
Q 10.40625 8.6875 15.234375 7.390625 
Q 20.0625 6.109375 24.8125 6.109375 
Q 31.15625 6.109375 34.5625 8.28125 
Q 37.984375 10.453125 37.984375 14.40625 
Q 37.984375 18.0625 35.515625 20.015625 
Q 33.0625 21.96875 24.703125 23.78125 
L 21.578125 24.515625 
Q 13.234375 26.265625 9.515625 29.90625 
Q 5.8125 33.546875 5.8125 39.890625 
Q 5.8125 47.609375 11.28125 51.796875 
Q 16.75 56 26.8125 56 
Q 31.78125 56 36.171875 55.265625 
Q 40.578125 54.546875 44.28125 53.078125 
z
" id="DejaVuSans-115"/>
      </defs>
      <use xlink:href="#DejaVuSans-84"/>
      <use x="46.333984" xlink:href="#DejaVuSans-114"/>
      <use x="87.447266" xlink:href="#DejaVuSans-97"/>
      <use x="148.726562" xlink:href="#DejaVuSans-105"/>
      <use x="176.509766" xlink:href="#DejaVuSans-110"/>
      <use x="239.888672" xlink:href="#DejaVuSans-105"/>
      <use x="267.671875" xlink:href="#DejaVuSans-110"/>
      <use x="331.050781" xlink:href="#DejaVuSans-103"/>
      <use x="394.527344" xlink:href="#DejaVuSans-32"/>
      <use x="426.314453" xlink:href="#DejaVuSans-112"/>
      <use x="489.791016" xlink:href="#DejaVuSans-111"/>
      <use x="550.972656" xlink:href="#DejaVuSans-105"/>
      <use x="578.755859" xlink:href="#DejaVuSans-110"/>
      <use x="642.134766" xlink:href="#DejaVuSans-116"/>
      <use x="681.34375" xlink:href="#DejaVuSans-115"/>
     </g>
    </g>
   </g>
  </g>
 </g>
 <defs>
  <clipPath id="pe0b29febeb">
   <rect height="217.44" width="334.8" x="54" y="34.56"/>
  </clipPath>
 </defs>
</svg>
