<?xml version="1.0" encoding="utf-8" standalone="no"?>
<!DOCTYPE svg PUBLIC "-//W3C//DTD SVG 1.1//EN"
  "http://www.w3.org/Graphics/SVG/1.1/DTD/svg11.dtd">
<!-- Created with matplotlib (https://matplotlib.org/) -->
<svg height="216pt" version="1.1" viewBox="0 0 288 216" width="288pt" xmlns="http://www.w3.org/2000/svg" xmlns:xlink="http://www.w3.org/1999/xlink">
 <metadata>
  <rdf:RDF xmlns:cc="http://creativecommons.org/ns#" xmlns:dc="http://purl.org/dc/elements/1.1/" xmlns:rdf="http://www.w3.org/1999/02/22-rdf-syntax-ns#">
   <cc:Work>
    <dc:type rdf:resource="http://purl.org/dc/dcmitype/StillImage"/>
    <dc:date>2022-02-03T16:16:54.374993</dc:date>
    <dc:format>image/svg+xml</dc:format>
    <dc:creator>
     <cc:Agent>
      <dc:title>Matplotlib v3.3.4, https://matplotlib.org/</dc:title>
     </cc:Agent>
    </dc:creator>
   </cc:Work>
  </rdf:RDF>
 </metadata>
 <defs>
  <style type="text/css">*{stroke-linecap:butt;stroke-linejoin:round;}</style>
 </defs>
 <g id="figure_1">
  <g id="patch_1">
   <path d="M 0 216 
L 288 216 
L 288 0 
L 0 0 
z
" style="fill:none;"/>
  </g>
  <g id="axes_1">
   <g id="patch_2">
    <path d="M 36 189 
L 259.2 189 
L 259.2 25.92 
L 36 25.92 
z
" style="fill:#ffffff;"/>
   </g>
   <g id="PathCollection_1">
    <defs>
     <path d="M 0 1.581139 
C 0.419323 1.581139 0.821528 1.41454 1.118034 1.118034 
C 1.41454 0.821528 1.581139 0.419323 1.581139 0 
C 1.581139 -0.419323 1.41454 -0.821528 1.118034 -1.118034 
C 0.821528 -1.41454 0.419323 -1.581139 0 -1.581139 
C -0.419323 -1.581139 -0.821528 -1.41454 -1.118034 -1.118034 
C -1.41454 -0.821528 -1.581139 -0.419323 -1.581139 0 
C -1.581139 0.419323 -1.41454 0.821528 -1.118034 1.118034 
C -0.821528 1.41454 -0.419323 1.581139 0 1.581139 
z
" id="md66b6d5457" style="stroke:#1f77b4;"/>
    </defs>
    <g clip-path="url(#p5df9020b0b)">
     <use style="fill:#1f77b4;stroke:#1f77b4;" x="50.456827" xlink:href="#md66b6d5457" y="147.703415"/>
     <use style="fill:#1f77b4;stroke:#1f77b4;" x="76.463928" xlink:href="#md66b6d5457" y="87.419532"/>
     <use style="fill:#1f77b4;stroke:#1f77b4;" x="69.420935" xlink:href="#md66b6d5457" y="96.221327"/>
     <use style="fill:#1f77b4;stroke:#1f77b4;" x="64.781178" xlink:href="#md66b6d5457" y="117.350897"/>
     <use style="fill:#1f77b4;stroke:#1f77b4;" x="61.790218" xlink:href="#md66b6d5457" y="114.899157"/>
     <use style="fill:#1f77b4;stroke:#1f77b4;" x="57.286952" xlink:href="#md66b6d5457" y="132.927049"/>
     <use style="fill:#1f77b4;stroke:#1f77b4;" x="73.311339" xlink:href="#md66b6d5457" y="83.971243"/>
     <use style="fill:#1f77b4;stroke:#1f77b4;" x="62.228239" xlink:href="#md66b6d5457" y="104.833085"/>
     <use style="fill:#1f77b4;stroke:#1f77b4;" x="57.595406" xlink:href="#md66b6d5457" y="122.959608"/>
     <use style="fill:#1f77b4;stroke:#1f77b4;" x="77.865068" xlink:href="#md66b6d5457" y="92.943049"/>
     <use style="fill:#1f77b4;stroke:#1f77b4;" x="70.510205" xlink:href="#md66b6d5457" y="100.886309"/>
     <use style="fill:#1f77b4;stroke:#1f77b4;" x="51.14346" xlink:href="#md66b6d5457" y="152.416672"/>
     <use style="fill:#1f77b4;stroke:#1f77b4;" x="61.988223" xlink:href="#md66b6d5457" y="109.402612"/>
     <use style="fill:#1f77b4;stroke:#1f77b4;" x="85.799254" xlink:href="#md66b6d5457" y="80.146268"/>
     <use style="fill:#1f77b4;stroke:#1f77b4;" x="65.161792" xlink:href="#md66b6d5457" y="123.674052"/>
     <use style="fill:#1f77b4;stroke:#1f77b4;" x="51.844069" xlink:href="#md66b6d5457" y="143.061421"/>
     <use style="fill:#1f77b4;stroke:#1f77b4;" x="47.853853" xlink:href="#md66b6d5457" y="181.587273"/>
     <use style="fill:#1f77b4;stroke:#1f77b4;" x="75.753145" xlink:href="#md66b6d5457" y="99.307494"/>
     <use style="fill:#1f77b4;stroke:#1f77b4;" x="71.181784" xlink:href="#md66b6d5457" y="106.720466"/>
     <use style="fill:#1f77b4;stroke:#1f77b4;" x="82.860316" xlink:href="#md66b6d5457" y="79.742899"/>
     <use style="fill:#1f77b4;stroke:#1f77b4;" x="71.467636" xlink:href="#md66b6d5457" y="85.757851"/>
     <use style="fill:#1f77b4;stroke:#1f77b4;" x="56.722904" xlink:href="#md66b6d5457" y="132.148422"/>
     <use style="fill:#1f77b4;stroke:#1f77b4;" x="68.737783" xlink:href="#md66b6d5457" y="110.622696"/>
     <use style="fill:#1f77b4;stroke:#1f77b4;" x="62.615106" xlink:href="#md66b6d5457" y="116.695852"/>
     <use style="fill:#1f77b4;stroke:#1f77b4;" x="51.908515" xlink:href="#md66b6d5457" y="145.713466"/>
     <use style="fill:#1f77b4;stroke:#1f77b4;" x="69.641908" xlink:href="#md66b6d5457" y="105.641289"/>
     <use style="fill:#1f77b4;stroke:#1f77b4;" x="67.558388" xlink:href="#md66b6d5457" y="101.857835"/>
     <use style="fill:#1f77b4;stroke:#1f77b4;" x="84.317945" xlink:href="#md66b6d5457" y="81.782882"/>
     <use style="fill:#1f77b4;stroke:#1f77b4;" x="85.144016" xlink:href="#md66b6d5457" y="85.239241"/>
     <use style="fill:#1f77b4;stroke:#1f77b4;" x="86.183354" xlink:href="#md66b6d5457" y="82.737114"/>
     <use style="fill:#1f77b4;stroke:#1f77b4;" x="132.187313" xlink:href="#md66b6d5457" y="86.562411"/>
     <use style="fill:#1f77b4;stroke:#1f77b4;" x="129.464672" xlink:href="#md66b6d5457" y="90.462477"/>
     <use style="fill:#1f77b4;stroke:#1f77b4;" x="132.488148" xlink:href="#md66b6d5457" y="91.79507"/>
     <use style="fill:#1f77b4;stroke:#1f77b4;" x="141.538253" xlink:href="#md66b6d5457" y="97.925193"/>
     <use style="fill:#1f77b4;stroke:#1f77b4;" x="131.505535" xlink:href="#md66b6d5457" y="82.806063"/>
     <use style="fill:#1f77b4;stroke:#1f77b4;" x="144.360396" xlink:href="#md66b6d5457" y="110.242591"/>
     <use style="fill:#1f77b4;stroke:#1f77b4;" x="134.529538" xlink:href="#md66b6d5457" y="98.017874"/>
     <use style="fill:#1f77b4;stroke:#1f77b4;" x="137.943852" xlink:href="#md66b6d5457" y="83.970146"/>
     <use style="fill:#1f77b4;stroke:#1f77b4;" x="140.936287" xlink:href="#md66b6d5457" y="89.046903"/>
     <use style="fill:#1f77b4;stroke:#1f77b4;" x="146.477413" xlink:href="#md66b6d5457" y="108.701869"/>
     <use style="fill:#1f77b4;stroke:#1f77b4;" x="128.850933" xlink:href="#md66b6d5457" y="77.794687"/>
     <use style="fill:#1f77b4;stroke:#1f77b4;" x="142.679805" xlink:href="#md66b6d5457" y="95.31578"/>
     <use style="fill:#1f77b4;stroke:#1f77b4;" x="135.427521" xlink:href="#md66b6d5457" y="103.087789"/>
     <use style="fill:#1f77b4;stroke:#1f77b4;" x="138.386049" xlink:href="#md66b6d5457" y="82.711141"/>
     <use style="fill:#1f77b4;stroke:#1f77b4;" x="128.719324" xlink:href="#md66b6d5457" y="89.314577"/>
     <use style="fill:#1f77b4;stroke:#1f77b4;" x="145.617798" xlink:href="#md66b6d5457" y="99.865244"/>
     <use style="fill:#1f77b4;stroke:#1f77b4;" x="143.309925" xlink:href="#md66b6d5457" y="101.995415"/>
     <use style="fill:#1f77b4;stroke:#1f77b4;" x="141.118541" xlink:href="#md66b6d5457" y="96.873901"/>
     <use style="fill:#1f77b4;stroke:#1f77b4;" x="142.439077" xlink:href="#md66b6d5457" y="103.987502"/>
     <use style="fill:#1f77b4;stroke:#1f77b4;" x="140.987974" xlink:href="#md66b6d5457" y="89.860292"/>
     <use style="fill:#1f77b4;stroke:#1f77b4;" x="155.220411" xlink:href="#md66b6d5457" y="117.101656"/>
     <use style="fill:#1f77b4;stroke:#1f77b4;" x="182.928683" xlink:href="#md66b6d5457" y="93.956225"/>
     <use style="fill:#1f77b4;stroke:#1f77b4;" x="166.18862" xlink:href="#md66b6d5457" y="114.812316"/>
     <use style="fill:#1f77b4;stroke:#1f77b4;" x="174.254267" xlink:href="#md66b6d5457" y="106.302394"/>
     <use style="fill:#1f77b4;stroke:#1f77b4;" x="154.309552" xlink:href="#md66b6d5457" y="109.767316"/>
     <use style="fill:#1f77b4;stroke:#1f77b4;" x="164.340109" xlink:href="#md66b6d5457" y="106.781791"/>
     <use style="fill:#1f77b4;stroke:#1f77b4;" x="180.319622" xlink:href="#md66b6d5457" y="102.683827"/>
     <use style="fill:#1f77b4;stroke:#1f77b4;" x="177.484767" xlink:href="#md66b6d5457" y="100.647883"/>
     <use style="fill:#1f77b4;stroke:#1f77b4;" x="150.711228" xlink:href="#md66b6d5457" y="95.097852"/>
     <use style="fill:#1f77b4;stroke:#1f77b4;" x="179.134454" xlink:href="#md66b6d5457" y="109.542171"/>
     <use style="fill:#1f77b4;stroke:#1f77b4;" x="218.949826" xlink:href="#md66b6d5457" y="108.262581"/>
     <use style="fill:#1f77b4;stroke:#1f77b4;" x="224.434812" xlink:href="#md66b6d5457" y="103.99171"/>
     <use style="fill:#1f77b4;stroke:#1f77b4;" x="222.662182" xlink:href="#md66b6d5457" y="110.934097"/>
     <use style="fill:#1f77b4;stroke:#1f77b4;" x="211.487097" xlink:href="#md66b6d5457" y="117.950767"/>
     <use style="fill:#1f77b4;stroke:#1f77b4;" x="222.234805" xlink:href="#md66b6d5457" y="113.664381"/>
     <use style="fill:#1f77b4;stroke:#1f77b4;" x="213.827229" xlink:href="#md66b6d5457" y="111.780455"/>
     <use style="fill:#1f77b4;stroke:#1f77b4;" x="213.829725" xlink:href="#md66b6d5457" y="114.956389"/>
     <use style="fill:#1f77b4;stroke:#1f77b4;" x="225.879425" xlink:href="#md66b6d5457" y="95.999669"/>
     <use style="fill:#1f77b4;stroke:#1f77b4;" x="210.983349" xlink:href="#md66b6d5457" y="113.538347"/>
     <use style="fill:#1f77b4;stroke:#1f77b4;" x="223.611383" xlink:href="#md66b6d5457" y="108.380855"/>
     <use style="fill:#1f77b4;stroke:#1f77b4;" x="248.407219" xlink:href="#md66b6d5457" y="34.816845"/>
     <use style="fill:#1f77b4;stroke:#1f77b4;" x="243.851332" xlink:href="#md66b6d5457" y="50.827339"/>
     <use style="fill:#1f77b4;stroke:#1f77b4;" x="232.101348" xlink:href="#md66b6d5457" y="94.023643"/>
     <use style="fill:#1f77b4;stroke:#1f77b4;" x="245.303147" xlink:href="#md66b6d5457" y="61.436762"/>
     <use style="fill:#1f77b4;stroke:#1f77b4;" x="243.592821" xlink:href="#md66b6d5457" y="53.575592"/>
     <use style="fill:#1f77b4;stroke:#1f77b4;" x="248.951934" xlink:href="#md66b6d5457" y="35.444023"/>
     <use style="fill:#1f77b4;stroke:#1f77b4;" x="249.054545" xlink:href="#md66b6d5457" y="38.129365"/>
     <use style="fill:#1f77b4;stroke:#1f77b4;" x="239.34333" xlink:href="#md66b6d5457" y="80.168095"/>
     <use style="fill:#1f77b4;stroke:#1f77b4;" x="242.509657" xlink:href="#md66b6d5457" y="59.2474"/>
     <use style="fill:#1f77b4;stroke:#1f77b4;" x="234.64082" xlink:href="#md66b6d5457" y="92.546306"/>
     <use style="fill:#1f77b4;stroke:#1f77b4;" x="242.037782" xlink:href="#md66b6d5457" y="69.012625"/>
     <use style="fill:#1f77b4;stroke:#1f77b4;" x="246.502208" xlink:href="#md66b6d5457" y="44.600293"/>
     <use style="fill:#1f77b4;stroke:#1f77b4;" x="240.745836" xlink:href="#md66b6d5457" y="72.77242"/>
     <use style="fill:#1f77b4;stroke:#1f77b4;" x="229.650507" xlink:href="#md66b6d5457" y="97.291181"/>
     <use style="fill:#1f77b4;stroke:#1f77b4;" x="240.454692" xlink:href="#md66b6d5457" y="64.877828"/>
     <use style="fill:#1f77b4;stroke:#1f77b4;" x="236.671091" xlink:href="#md66b6d5457" y="70.784272"/>
     <use style="fill:#1f77b4;stroke:#1f77b4;" x="248.704664" xlink:href="#md66b6d5457" y="44.721153"/>
     <use style="fill:#1f77b4;stroke:#1f77b4;" x="237.131408" xlink:href="#md66b6d5457" y="79.376279"/>
     <use style="fill:#1f77b4;stroke:#1f77b4;" x="229.949185" xlink:href="#md66b6d5457" y="86.644188"/>
     <use style="fill:#1f77b4;stroke:#1f77b4;" x="247.317937" xlink:href="#md66b6d5457" y="51.185828"/>
     <use style="fill:#1f77b4;stroke:#1f77b4;" x="232.100898" xlink:href="#md66b6d5457" y="86.351357"/>
     <use style="fill:#1f77b4;stroke:#1f77b4;" x="242.16178" xlink:href="#md66b6d5457" y="63.391951"/>
     <use style="fill:#1f77b4;stroke:#1f77b4;" x="231.209355" xlink:href="#md66b6d5457" y="90.809668"/>
     <use style="fill:#1f77b4;stroke:#1f77b4;" x="247.28824" xlink:href="#md66b6d5457" y="45.057195"/>
     <use style="fill:#1f77b4;stroke:#1f77b4;" x="230.533622" xlink:href="#md66b6d5457" y="106.023176"/>
     <use style="fill:#1f77b4;stroke:#1f77b4;" x="244.343471" xlink:href="#md66b6d5457" y="53.053461"/>
     <use style="fill:#1f77b4;stroke:#1f77b4;" x="238.418503" xlink:href="#md66b6d5457" y="83.297161"/>
     <use style="fill:#1f77b4;stroke:#1f77b4;" x="240.304193" xlink:href="#md66b6d5457" y="69.863019"/>
     <use style="fill:#1f77b4;stroke:#1f77b4;" x="242.386735" xlink:href="#md66b6d5457" y="61.827839"/>
     <use style="fill:#1f77b4;stroke:#1f77b4;" x="245.075018" xlink:href="#md66b6d5457" y="42.628568"/>
    </g>
   </g>
   <g id="PathCollection_2">
    <defs>
     <path d="M 0 1.581139 
C 0.419323 1.581139 0.821528 1.41454 1.118034 1.118034 
C 1.41454 0.821528 1.581139 0.419323 1.581139 0 
C 1.581139 -0.419323 1.41454 -0.821528 1.118034 -1.118034 
C 0.821528 -1.41454 0.419323 -1.581139 0 -1.581139 
C -0.419323 -1.581139 -0.821528 -1.41454 -1.118034 -1.118034 
C -1.41454 -0.821528 -1.581139 -0.419323 -1.581139 0 
C -1.581139 0.419323 -1.41454 0.821528 -1.118034 1.118034 
C -0.821528 1.41454 -0.419323 1.581139 0 1.581139 
z
" id="mdd2ffe87e4" style="stroke:#ffd700;"/>
    </defs>
    <g clip-path="url(#p5df9020b0b)">
     <use style="fill:#ffd700;stroke:#ffd700;" x="135.153986" xlink:href="#mdd2ffe87e4" y="92.366298"/>
     <use style="fill:#ffd700;stroke:#ffd700;" x="241.650238" xlink:href="#mdd2ffe87e4" y="64.837978"/>
     <use style="fill:#ffd700;stroke:#ffd700;" x="233.919794" xlink:href="#mdd2ffe87e4" y="85.735135"/>
     <use style="fill:#ffd700;stroke:#ffd700;" x="55.173991" xlink:href="#mdd2ffe87e4" y="139.515936"/>
     <use style="fill:#ffd700;stroke:#ffd700;" x="206.696202" xlink:href="#mdd2ffe87e4" y="112.643689"/>
     <use style="fill:#ffd700;stroke:#ffd700;" x="48.255023" xlink:href="#mdd2ffe87e4" y="164.045037"/>
     <use style="fill:#ffd700;stroke:#ffd700;" x="108.685359" xlink:href="#mdd2ffe87e4" y="72.699462"/>
     <use style="fill:#ffd700;stroke:#ffd700;" x="83.792565" xlink:href="#mdd2ffe87e4" y="82.529478"/>
     <use style="fill:#ffd700;stroke:#ffd700;" x="180.249931" xlink:href="#mdd2ffe87e4" y="95.282904"/>
     <use style="fill:#ffd700;stroke:#ffd700;" x="141.563859" xlink:href="#mdd2ffe87e4" y="97.347887"/>
     <use style="fill:#ffd700;stroke:#ffd700;" x="153.675068" xlink:href="#mdd2ffe87e4" y="106.936637"/>
     <use style="fill:#ffd700;stroke:#ffd700;" x="80.42847" xlink:href="#mdd2ffe87e4" y="87.040792"/>
     <use style="fill:#ffd700;stroke:#ffd700;" x="48.149106" xlink:href="#mdd2ffe87e4" y="163.742092"/>
     <use style="fill:#ffd700;stroke:#ffd700;" x="188.160814" xlink:href="#mdd2ffe87e4" y="93.838946"/>
     <use style="fill:#ffd700;stroke:#ffd700;" x="137.911255" xlink:href="#mdd2ffe87e4" y="95.304823"/>
     <use style="fill:#ffd700;stroke:#ffd700;" x="200.036441" xlink:href="#mdd2ffe87e4" y="100.475866"/>
     <use style="fill:#ffd700;stroke:#ffd700;" x="225.94712" xlink:href="#mdd2ffe87e4" y="102.697196"/>
     <use style="fill:#ffd700;stroke:#ffd700;" x="240.534383" xlink:href="#mdd2ffe87e4" y="67.42515"/>
     <use style="fill:#ffd700;stroke:#ffd700;" x="105.050533" xlink:href="#mdd2ffe87e4" y="76.981567"/>
     <use style="fill:#ffd700;stroke:#ffd700;" x="120.730712" xlink:href="#mdd2ffe87e4" y="81.823186"/>
     <use style="fill:#ffd700;stroke:#ffd700;" x="89.414237" xlink:href="#mdd2ffe87e4" y="77.422379"/>
     <use style="fill:#ffd700;stroke:#ffd700;" x="87.937121" xlink:href="#mdd2ffe87e4" y="81.762296"/>
     <use style="fill:#ffd700;stroke:#ffd700;" x="134.010751" xlink:href="#mdd2ffe87e4" y="90.754542"/>
     <use style="fill:#ffd700;stroke:#ffd700;" x="187.295079" xlink:href="#mdd2ffe87e4" y="93.261614"/>
     <use style="fill:#ffd700;stroke:#ffd700;" x="240.516433" xlink:href="#mdd2ffe87e4" y="70.545228"/>
     <use style="fill:#ffd700;stroke:#ffd700;" x="194.20788" xlink:href="#mdd2ffe87e4" y="97.950567"/>
     <use style="fill:#ffd700;stroke:#ffd700;" x="184.68465" xlink:href="#mdd2ffe87e4" y="95.920143"/>
     <use style="fill:#ffd700;stroke:#ffd700;" x="128.032268" xlink:href="#mdd2ffe87e4" y="84.680612"/>
     <use style="fill:#ffd700;stroke:#ffd700;" x="91.005157" xlink:href="#mdd2ffe87e4" y="79.348625"/>
     <use style="fill:#ffd700;stroke:#ffd700;" x="164.997802" xlink:href="#mdd2ffe87e4" y="108.489682"/>
     <use style="fill:#ffd700;stroke:#ffd700;" x="87.244683" xlink:href="#mdd2ffe87e4" y="82.444209"/>
     <use style="fill:#ffd700;stroke:#ffd700;" x="59.046078" xlink:href="#mdd2ffe87e4" y="126.59701"/>
     <use style="fill:#ffd700;stroke:#ffd700;" x="187.725734" xlink:href="#mdd2ffe87e4" y="92.457552"/>
     <use style="fill:#ffd700;stroke:#ffd700;" x="71.611212" xlink:href="#mdd2ffe87e4" y="101.624803"/>
     <use style="fill:#ffd700;stroke:#ffd700;" x="112.51642" xlink:href="#mdd2ffe87e4" y="76.118918"/>
     <use style="fill:#ffd700;stroke:#ffd700;" x="137.30728" xlink:href="#mdd2ffe87e4" y="93.077659"/>
     <use style="fill:#ffd700;stroke:#ffd700;" x="172.639031" xlink:href="#mdd2ffe87e4" y="105.059849"/>
     <use style="fill:#ffd700;stroke:#ffd700;" x="218.030077" xlink:href="#mdd2ffe87e4" y="115.365063"/>
     <use style="fill:#ffd700;stroke:#ffd700;" x="186.068157" xlink:href="#mdd2ffe87e4" y="95.750371"/>
     <use style="fill:#ffd700;stroke:#ffd700;" x="94.259519" xlink:href="#mdd2ffe87e4" y="75.955314"/>
     <use style="fill:#ffd700;stroke:#ffd700;" x="117.746889" xlink:href="#mdd2ffe87e4" y="80.729422"/>
     <use style="fill:#ffd700;stroke:#ffd700;" x="102.293498" xlink:href="#mdd2ffe87e4" y="74.17279"/>
     <use style="fill:#ffd700;stroke:#ffd700;" x="147.678071" xlink:href="#mdd2ffe87e4" y="101.661619"/>
     <use style="fill:#ffd700;stroke:#ffd700;" x="46.917063" xlink:href="#mdd2ffe87e4" y="166.129527"/>
     <use style="fill:#ffd700;stroke:#ffd700;" x="200.125689" xlink:href="#mdd2ffe87e4" y="105.744355"/>
     <use style="fill:#ffd700;stroke:#ffd700;" x="123.750455" xlink:href="#mdd2ffe87e4" y="82.733994"/>
     <use style="fill:#ffd700;stroke:#ffd700;" x="153.206582" xlink:href="#mdd2ffe87e4" y="109.185617"/>
     <use style="fill:#ffd700;stroke:#ffd700;" x="184.042701" xlink:href="#mdd2ffe87e4" y="94.117088"/>
     <use style="fill:#ffd700;stroke:#ffd700;" x="165.969991" xlink:href="#mdd2ffe87e4" y="109.929487"/>
     <use style="fill:#ffd700;stroke:#ffd700;" x="229.175908" xlink:href="#mdd2ffe87e4" y="97.190809"/>
     <use style="fill:#ffd700;stroke:#ffd700;" x="87.670058" xlink:href="#mdd2ffe87e4" y="80.890732"/>
     <use style="fill:#ffd700;stroke:#ffd700;" x="176.020939" xlink:href="#mdd2ffe87e4" y="101.103287"/>
     <use style="fill:#ffd700;stroke:#ffd700;" x="203.55089" xlink:href="#mdd2ffe87e4" y="107.760666"/>
     <use style="fill:#ffd700;stroke:#ffd700;" x="150.982792" xlink:href="#mdd2ffe87e4" y="106.254848"/>
     <use style="fill:#ffd700;stroke:#ffd700;" x="66.621395" xlink:href="#mdd2ffe87e4" y="109.622858"/>
     <use style="fill:#ffd700;stroke:#ffd700;" x="189.461425" xlink:href="#mdd2ffe87e4" y="93.84182"/>
     <use style="fill:#ffd700;stroke:#ffd700;" x="167.952026" xlink:href="#mdd2ffe87e4" y="108.325487"/>
     <use style="fill:#ffd700;stroke:#ffd700;" x="196.328351" xlink:href="#mdd2ffe87e4" y="99.345578"/>
     <use style="fill:#ffd700;stroke:#ffd700;" x="81.528567" xlink:href="#mdd2ffe87e4" y="85.944368"/>
     <use style="fill:#ffd700;stroke:#ffd700;" x="201.598803" xlink:href="#mdd2ffe87e4" y="108.137686"/>
     <use style="fill:#ffd700;stroke:#ffd700;" x="153.257653" xlink:href="#mdd2ffe87e4" y="107.46045"/>
     <use style="fill:#ffd700;stroke:#ffd700;" x="245.8685" xlink:href="#mdd2ffe87e4" y="50.117352"/>
     <use style="fill:#ffd700;stroke:#ffd700;" x="242.501215" xlink:href="#mdd2ffe87e4" y="63.458044"/>
     <use style="fill:#ffd700;stroke:#ffd700;" x="46.145455" xlink:href="#mdd2ffe87e4" y="171.619945"/>
     <use style="fill:#ffd700;stroke:#ffd700;" x="203.142077" xlink:href="#mdd2ffe87e4" y="107.550512"/>
     <use style="fill:#ffd700;stroke:#ffd700;" x="119.165609" xlink:href="#mdd2ffe87e4" y="79.868845"/>
     <use style="fill:#ffd700;stroke:#ffd700;" x="105.230639" xlink:href="#mdd2ffe87e4" y="72.648045"/>
     <use style="fill:#ffd700;stroke:#ffd700;" x="83.002148" xlink:href="#mdd2ffe87e4" y="85.802444"/>
     <use style="fill:#ffd700;stroke:#ffd700;" x="160.124216" xlink:href="#mdd2ffe87e4" y="111.421267"/>
     <use style="fill:#ffd700;stroke:#ffd700;" x="218.500013" xlink:href="#mdd2ffe87e4" y="113.833213"/>
     <use style="fill:#ffd700;stroke:#ffd700;" x="247.373884" xlink:href="#mdd2ffe87e4" y="46.396537"/>
     <use style="fill:#ffd700;stroke:#ffd700;" x="48.134532" xlink:href="#mdd2ffe87e4" y="163.993128"/>
     <use style="fill:#ffd700;stroke:#ffd700;" x="192.246959" xlink:href="#mdd2ffe87e4" y="96.261531"/>
     <use style="fill:#ffd700;stroke:#ffd700;" x="159.231165" xlink:href="#mdd2ffe87e4" y="111.33016"/>
     <use style="fill:#ffd700;stroke:#ffd700;" x="187.534948" xlink:href="#mdd2ffe87e4" y="93.010482"/>
     <use style="fill:#ffd700;stroke:#ffd700;" x="183.062872" xlink:href="#mdd2ffe87e4" y="93.182382"/>
     <use style="fill:#ffd700;stroke:#ffd700;" x="113.394828" xlink:href="#mdd2ffe87e4" y="77.874163"/>
     <use style="fill:#ffd700;stroke:#ffd700;" x="184.248905" xlink:href="#mdd2ffe87e4" y="94.633453"/>
     <use style="fill:#ffd700;stroke:#ffd700;" x="129.785937" xlink:href="#mdd2ffe87e4" y="87.477542"/>
     <use style="fill:#ffd700;stroke:#ffd700;" x="116.49476" xlink:href="#mdd2ffe87e4" y="77.107397"/>
     <use style="fill:#ffd700;stroke:#ffd700;" x="237.91337" xlink:href="#mdd2ffe87e4" y="79.566594"/>
     <use style="fill:#ffd700;stroke:#ffd700;" x="195.58865" xlink:href="#mdd2ffe87e4" y="99.379247"/>
     <use style="fill:#ffd700;stroke:#ffd700;" x="95.924999" xlink:href="#mdd2ffe87e4" y="75.257346"/>
     <use style="fill:#ffd700;stroke:#ffd700;" x="237.359611" xlink:href="#mdd2ffe87e4" y="79.466988"/>
     <use style="fill:#ffd700;stroke:#ffd700;" x="57.136236" xlink:href="#mdd2ffe87e4" y="133.77792"/>
     <use style="fill:#ffd700;stroke:#ffd700;" x="59.29286" xlink:href="#mdd2ffe87e4" y="126.561383"/>
     <use style="fill:#ffd700;stroke:#ffd700;" x="119.852546" xlink:href="#mdd2ffe87e4" y="80.492291"/>
     <use style="fill:#ffd700;stroke:#ffd700;" x="62.296335" xlink:href="#mdd2ffe87e4" y="121.949184"/>
     <use style="fill:#ffd700;stroke:#ffd700;" x="67.739381" xlink:href="#mdd2ffe87e4" y="107.801076"/>
     <use style="fill:#ffd700;stroke:#ffd700;" x="65.28556" xlink:href="#mdd2ffe87e4" y="112.086747"/>
     <use style="fill:#ffd700;stroke:#ffd700;" x="230.265189" xlink:href="#mdd2ffe87e4" y="95.57025"/>
     <use style="fill:#ffd700;stroke:#ffd700;" x="92.654359" xlink:href="#mdd2ffe87e4" y="78.045105"/>
     <use style="fill:#ffd700;stroke:#ffd700;" x="234.004645" xlink:href="#mdd2ffe87e4" y="86.135228"/>
     <use style="fill:#ffd700;stroke:#ffd700;" x="88.822139" xlink:href="#mdd2ffe87e4" y="78.177066"/>
     <use style="fill:#ffd700;stroke:#ffd700;" x="149.195589" xlink:href="#mdd2ffe87e4" y="104.650726"/>
     <use style="fill:#ffd700;stroke:#ffd700;" x="106.563433" xlink:href="#mdd2ffe87e4" y="75.981173"/>
     <use style="fill:#ffd700;stroke:#ffd700;" x="154.210131" xlink:href="#mdd2ffe87e4" y="106.757167"/>
     <use style="fill:#ffd700;stroke:#ffd700;" x="84.600052" xlink:href="#mdd2ffe87e4" y="85.313248"/>
     <use style="fill:#ffd700;stroke:#ffd700;" x="143.484201" xlink:href="#mdd2ffe87e4" y="100.775535"/>
     <use style="fill:#ffd700;stroke:#ffd700;" x="225.965484" xlink:href="#mdd2ffe87e4" y="104.372072"/>
    </g>
   </g>
   <g id="matplotlib.axis_1">
    <g id="xtick_1">
     <g id="line2d_1">
      <path clip-path="url(#p5df9020b0b)" d="M 66.479668 189 
L 66.479668 25.92 
" style="fill:none;stroke:#b0b0b0;stroke-linecap:square;stroke-width:0.8;"/>
     </g>
     <g id="line2d_2">
      <defs>
       <path d="M 0 0 
L 0 3.5 
" id="mb54d21dbb8" style="stroke:#000000;stroke-width:0.8;"/>
      </defs>
      <g>
       <use style="stroke:#000000;stroke-width:0.8;" x="66.479668" xlink:href="#mb54d21dbb8" y="189"/>
      </g>
     </g>
     <g id="text_1">
      <!-- −4 -->
      <g transform="translate(59.108574 203.598437)scale(0.1 -0.1)">
       <defs>
        <path d="M 10.59375 35.5 
L 73.1875 35.5 
L 73.1875 27.203125 
L 10.59375 27.203125 
z
" id="DejaVuSans-8722"/>
        <path d="M 37.796875 64.3125 
L 12.890625 25.390625 
L 37.796875 25.390625 
z
M 35.203125 72.90625 
L 47.609375 72.90625 
L 47.609375 25.390625 
L 58.015625 25.390625 
L 58.015625 17.1875 
L 47.609375 17.1875 
L 47.609375 0 
L 37.796875 0 
L 37.796875 17.1875 
L 4.890625 17.1875 
L 4.890625 26.703125 
z
" id="DejaVuSans-52"/>
       </defs>
       <use xlink:href="#DejaVuSans-8722"/>
       <use x="83.789062" xlink:href="#DejaVuSans-52"/>
      </g>
     </g>
    </g>
    <g id="xtick_2">
     <g id="line2d_3">
      <path clip-path="url(#p5df9020b0b)" d="M 107.153477 189 
L 107.153477 25.92 
" style="fill:none;stroke:#b0b0b0;stroke-linecap:square;stroke-width:0.8;"/>
     </g>
     <g id="line2d_4">
      <g>
       <use style="stroke:#000000;stroke-width:0.8;" x="107.153477" xlink:href="#mb54d21dbb8" y="189"/>
      </g>
     </g>
     <g id="text_2">
      <!-- −2 -->
      <g transform="translate(99.782383 203.598437)scale(0.1 -0.1)">
       <defs>
        <path d="M 19.1875 8.296875 
L 53.609375 8.296875 
L 53.609375 0 
L 7.328125 0 
L 7.328125 8.296875 
Q 12.9375 14.109375 22.625 23.890625 
Q 32.328125 33.6875 34.8125 36.53125 
Q 39.546875 41.84375 41.421875 45.53125 
Q 43.3125 49.21875 43.3125 52.78125 
Q 43.3125 58.59375 39.234375 62.25 
Q 35.15625 65.921875 28.609375 65.921875 
Q 23.96875 65.921875 18.8125 64.3125 
Q 13.671875 62.703125 7.8125 59.421875 
L 7.8125 69.390625 
Q 13.765625 71.78125 18.9375 73 
Q 24.125 74.21875 28.421875 74.21875 
Q 39.75 74.21875 46.484375 68.546875 
Q 53.21875 62.890625 53.21875 53.421875 
Q 53.21875 48.921875 51.53125 44.890625 
Q 49.859375 40.875 45.40625 35.40625 
Q 44.1875 33.984375 37.640625 27.21875 
Q 31.109375 20.453125 19.1875 8.296875 
z
" id="DejaVuSans-50"/>
       </defs>
       <use xlink:href="#DejaVuSans-8722"/>
       <use x="83.789062" xlink:href="#DejaVuSans-50"/>
      </g>
     </g>
    </g>
    <g id="xtick_3">
     <g id="line2d_5">
      <path clip-path="url(#p5df9020b0b)" d="M 147.827285 189 
L 147.827285 25.92 
" style="fill:none;stroke:#b0b0b0;stroke-linecap:square;stroke-width:0.8;"/>
     </g>
     <g id="line2d_6">
      <g>
       <use style="stroke:#000000;stroke-width:0.8;" x="147.827285" xlink:href="#mb54d21dbb8" y="189"/>
      </g>
     </g>
     <g id="text_3">
      <!-- 0 -->
      <g transform="translate(144.646035 203.598437)scale(0.1 -0.1)">
       <defs>
        <path d="M 31.78125 66.40625 
Q 24.171875 66.40625 20.328125 58.90625 
Q 16.5 51.421875 16.5 36.375 
Q 16.5 21.390625 20.328125 13.890625 
Q 24.171875 6.390625 31.78125 6.390625 
Q 39.453125 6.390625 43.28125 13.890625 
Q 47.125 21.390625 47.125 36.375 
Q 47.125 51.421875 43.28125 58.90625 
Q 39.453125 66.40625 31.78125 66.40625 
z
M 31.78125 74.21875 
Q 44.046875 74.21875 50.515625 64.515625 
Q 56.984375 54.828125 56.984375 36.375 
Q 56.984375 17.96875 50.515625 8.265625 
Q 44.046875 -1.421875 31.78125 -1.421875 
Q 19.53125 -1.421875 13.0625 8.265625 
Q 6.59375 17.96875 6.59375 36.375 
Q 6.59375 54.828125 13.0625 64.515625 
Q 19.53125 74.21875 31.78125 74.21875 
z
" id="DejaVuSans-48"/>
       </defs>
       <use xlink:href="#DejaVuSans-48"/>
      </g>
     </g>
    </g>
    <g id="xtick_4">
     <g id="line2d_7">
      <path clip-path="url(#p5df9020b0b)" d="M 188.501094 189 
L 188.501094 25.92 
" style="fill:none;stroke:#b0b0b0;stroke-linecap:square;stroke-width:0.8;"/>
     </g>
     <g id="line2d_8">
      <g>
       <use style="stroke:#000000;stroke-width:0.8;" x="188.501094" xlink:href="#mb54d21dbb8" y="189"/>
      </g>
     </g>
     <g id="text_4">
      <!-- 2 -->
      <g transform="translate(185.319844 203.598437)scale(0.1 -0.1)">
       <use xlink:href="#DejaVuSans-50"/>
      </g>
     </g>
    </g>
    <g id="xtick_5">
     <g id="line2d_9">
      <path clip-path="url(#p5df9020b0b)" d="M 229.174902 189 
L 229.174902 25.92 
" style="fill:none;stroke:#b0b0b0;stroke-linecap:square;stroke-width:0.8;"/>
     </g>
     <g id="line2d_10">
      <g>
       <use style="stroke:#000000;stroke-width:0.8;" x="229.174902" xlink:href="#mb54d21dbb8" y="189"/>
      </g>
     </g>
     <g id="text_5">
      <!-- 4 -->
      <g transform="translate(225.993652 203.598437)scale(0.1 -0.1)">
       <use xlink:href="#DejaVuSans-52"/>
      </g>
     </g>
    </g>
    <g id="text_6">
     <!-- x -->
     <g transform="translate(144.640625 217.276563)scale(0.1 -0.1)">
      <defs>
       <path d="M 54.890625 54.6875 
L 35.109375 28.078125 
L 55.90625 0 
L 45.3125 0 
L 29.390625 21.484375 
L 13.484375 0 
L 2.875 0 
L 24.125 28.609375 
L 4.6875 54.6875 
L 15.28125 54.6875 
L 29.78125 35.203125 
L 44.28125 54.6875 
z
" id="DejaVuSans-120"/>
      </defs>
      <use xlink:href="#DejaVuSans-120"/>
     </g>
    </g>
   </g>
   <g id="matplotlib.axis_2">
    <g id="ytick_1">
     <g id="line2d_11">
      <path clip-path="url(#p5df9020b0b)" d="M 36 185.034863 
L 259.2 185.034863 
" style="fill:none;stroke:#b0b0b0;stroke-linecap:square;stroke-width:0.8;"/>
     </g>
     <g id="line2d_12">
      <defs>
       <path d="M 0 0 
L -3.5 0 
" id="mc8fd1f790c" style="stroke:#000000;stroke-width:0.8;"/>
      </defs>
      <g>
       <use style="stroke:#000000;stroke-width:0.8;" x="36" xlink:href="#mc8fd1f790c" y="185.034863"/>
      </g>
     </g>
     <g id="text_7">
      <!-- −4 -->
      <g transform="translate(14.257812 188.834081)scale(0.1 -0.1)">
       <use xlink:href="#DejaVuSans-8722"/>
       <use x="83.789062" xlink:href="#DejaVuSans-52"/>
      </g>
     </g>
    </g>
    <g id="ytick_2">
     <g id="line2d_13">
      <path clip-path="url(#p5df9020b0b)" d="M 36 158.208551 
L 259.2 158.208551 
" style="fill:none;stroke:#b0b0b0;stroke-linecap:square;stroke-width:0.8;"/>
     </g>
     <g id="line2d_14">
      <g>
       <use style="stroke:#000000;stroke-width:0.8;" x="36" xlink:href="#mc8fd1f790c" y="158.208551"/>
      </g>
     </g>
     <g id="text_8">
      <!-- −2 -->
      <g transform="translate(14.257812 162.007769)scale(0.1 -0.1)">
       <use xlink:href="#DejaVuSans-8722"/>
       <use x="83.789062" xlink:href="#DejaVuSans-50"/>
      </g>
     </g>
    </g>
    <g id="ytick_3">
     <g id="line2d_15">
      <path clip-path="url(#p5df9020b0b)" d="M 36 131.382238 
L 259.2 131.382238 
" style="fill:none;stroke:#b0b0b0;stroke-linecap:square;stroke-width:0.8;"/>
     </g>
     <g id="line2d_16">
      <g>
       <use style="stroke:#000000;stroke-width:0.8;" x="36" xlink:href="#mc8fd1f790c" y="131.382238"/>
      </g>
     </g>
     <g id="text_9">
      <!-- 0 -->
      <g transform="translate(22.6375 135.181457)scale(0.1 -0.1)">
       <use xlink:href="#DejaVuSans-48"/>
      </g>
     </g>
    </g>
    <g id="ytick_4">
     <g id="line2d_17">
      <path clip-path="url(#p5df9020b0b)" d="M 36 104.555926 
L 259.2 104.555926 
" style="fill:none;stroke:#b0b0b0;stroke-linecap:square;stroke-width:0.8;"/>
     </g>
     <g id="line2d_18">
      <g>
       <use style="stroke:#000000;stroke-width:0.8;" x="36" xlink:href="#mc8fd1f790c" y="104.555926"/>
      </g>
     </g>
     <g id="text_10">
      <!-- 2 -->
      <g transform="translate(22.6375 108.355145)scale(0.1 -0.1)">
       <use xlink:href="#DejaVuSans-50"/>
      </g>
     </g>
    </g>
    <g id="ytick_5">
     <g id="line2d_19">
      <path clip-path="url(#p5df9020b0b)" d="M 36 77.729614 
L 259.2 77.729614 
" style="fill:none;stroke:#b0b0b0;stroke-linecap:square;stroke-width:0.8;"/>
     </g>
     <g id="line2d_20">
      <g>
       <use style="stroke:#000000;stroke-width:0.8;" x="36" xlink:href="#mc8fd1f790c" y="77.729614"/>
      </g>
     </g>
     <g id="text_11">
      <!-- 4 -->
      <g transform="translate(22.6375 81.528833)scale(0.1 -0.1)">
       <use xlink:href="#DejaVuSans-52"/>
      </g>
     </g>
    </g>
    <g id="ytick_6">
     <g id="line2d_21">
      <path clip-path="url(#p5df9020b0b)" d="M 36 50.903302 
L 259.2 50.903302 
" style="fill:none;stroke:#b0b0b0;stroke-linecap:square;stroke-width:0.8;"/>
     </g>
     <g id="line2d_22">
      <g>
       <use style="stroke:#000000;stroke-width:0.8;" x="36" xlink:href="#mc8fd1f790c" y="50.903302"/>
      </g>
     </g>
     <g id="text_12">
      <!-- 6 -->
      <g transform="translate(22.6375 54.702521)scale(0.1 -0.1)">
       <defs>
        <path d="M 33.015625 40.375 
Q 26.375 40.375 22.484375 35.828125 
Q 18.609375 31.296875 18.609375 23.390625 
Q 18.609375 15.53125 22.484375 10.953125 
Q 26.375 6.390625 33.015625 6.390625 
Q 39.65625 6.390625 43.53125 10.953125 
Q 47.40625 15.53125 47.40625 23.390625 
Q 47.40625 31.296875 43.53125 35.828125 
Q 39.65625 40.375 33.015625 40.375 
z
M 52.59375 71.296875 
L 52.59375 62.3125 
Q 48.875 64.0625 45.09375 64.984375 
Q 41.3125 65.921875 37.59375 65.921875 
Q 27.828125 65.921875 22.671875 59.328125 
Q 17.53125 52.734375 16.796875 39.40625 
Q 19.671875 43.65625 24.015625 45.921875 
Q 28.375 48.1875 33.59375 48.1875 
Q 44.578125 48.1875 50.953125 41.515625 
Q 57.328125 34.859375 57.328125 23.390625 
Q 57.328125 12.15625 50.6875 5.359375 
Q 44.046875 -1.421875 33.015625 -1.421875 
Q 20.359375 -1.421875 13.671875 8.265625 
Q 6.984375 17.96875 6.984375 36.375 
Q 6.984375 53.65625 15.1875 63.9375 
Q 23.390625 74.21875 37.203125 74.21875 
Q 40.921875 74.21875 44.703125 73.484375 
Q 48.484375 72.75 52.59375 71.296875 
z
" id="DejaVuSans-54"/>
       </defs>
       <use xlink:href="#DejaVuSans-54"/>
      </g>
     </g>
    </g>
    <g id="text_13">
     <!-- y -->
     <g transform="translate(8.178125 110.419375)rotate(-90)scale(0.1 -0.1)">
      <defs>
       <path d="M 32.171875 -5.078125 
Q 28.375 -14.84375 24.75 -17.8125 
Q 21.140625 -20.796875 15.09375 -20.796875 
L 7.90625 -20.796875 
L 7.90625 -13.28125 
L 13.1875 -13.28125 
Q 16.890625 -13.28125 18.9375 -11.515625 
Q 21 -9.765625 23.484375 -3.21875 
L 25.09375 0.875 
L 2.984375 54.6875 
L 12.5 54.6875 
L 29.59375 11.921875 
L 46.6875 54.6875 
L 56.203125 54.6875 
z
" id="DejaVuSans-121"/>
      </defs>
      <use xlink:href="#DejaVuSans-121"/>
     </g>
    </g>
   </g>
   <g id="line2d_23">
    <path clip-path="url(#p5df9020b0b)" d="M 47.853849 168.616201 
L 53.895916 150.280213 
L 59.333776 134.012887 
L 62.757605 124.420099 
L 65.778644 116.595168 
L 68.396862 110.384916 
L 71.01509 104.746626 
L 73.431917 100.061937 
L 75.848745 95.871755 
L 78.064167 92.451648 
L 80.27959 89.415499 
L 82.495017 86.741764 
L 84.710439 84.407254 
L 86.925862 82.388516 
L 89.141284 80.662901 
L 91.356707 79.209294 
L 93.572129 78.008555 
L 95.787552 77.04384 
L 98.204379 76.24365 
L 100.621202 75.691557 
L 103.03803 75.375114 
L 105.454852 75.284766 
L 107.87168 75.413425 
L 110.288505 75.755887 
L 112.906731 76.363669 
L 115.524961 77.213472 
L 118.143189 78.300221 
L 120.962817 79.727073 
L 123.782447 81.405765 
L 126.803478 83.458628 
L 130.227314 86.054129 
L 134.658162 89.711993 
L 144.728267 98.142801 
L 147.950701 100.509902 
L 150.770313 102.315663 
L 153.187138 103.614442 
L 155.402561 104.567839 
L 157.617985 105.268651 
L 159.632007 105.674422 
L 161.646028 105.862118 
L 163.861451 105.841197 
L 166.479679 105.58382 
L 174.737166 104.584113 
L 177.355392 104.583405 
L 180.175022 104.813089 
L 183.397456 105.319116 
L 187.626901 106.239319 
L 198.30121 108.674212 
L 201.725048 109.167241 
L 204.544681 109.359004 
L 207.162909 109.310458 
L 209.378332 109.059046 
L 211.593754 108.575741 
L 213.607776 107.89911 
L 215.420393 107.065324 
L 217.233011 105.986793 
L 219.045632 104.629358 
L 220.656849 103.158558 
L 222.268066 101.410389 
L 223.879283 99.356882 
L 225.4905 96.971189 
L 227.303117 93.861078 
L 229.115738 90.276674 
L 230.928356 86.209373 
L 232.942378 81.140642 
L 235.157795 74.965623 
L 237.977428 66.418916 
L 246.234922 40.90332 
L 248.651745 34.357963 
L 249.054545 33.332727 
L 249.054545 33.332727 
" style="fill:none;stroke:#ff0000;stroke-linecap:square;stroke-width:1.5;"/>
   </g>
   <g id="patch_3">
    <path d="M 36 189 
L 36 25.92 
" style="fill:none;stroke:#000000;stroke-linecap:square;stroke-linejoin:miter;stroke-width:0.8;"/>
   </g>
   <g id="patch_4">
    <path d="M 259.2 189 
L 259.2 25.92 
" style="fill:none;stroke:#000000;stroke-linecap:square;stroke-linejoin:miter;stroke-width:0.8;"/>
   </g>
   <g id="patch_5">
    <path d="M 36 189 
L 259.2 189 
" style="fill:none;stroke:#000000;stroke-linecap:square;stroke-linejoin:miter;stroke-width:0.8;"/>
   </g>
   <g id="patch_6">
    <path d="M 36 25.92 
L 259.2 25.92 
" style="fill:none;stroke:#000000;stroke-linecap:square;stroke-linejoin:miter;stroke-width:0.8;"/>
   </g>
   <g id="legend_1">
    <g id="patch_7">
     <path d="M 142.285937 184 
L 252.2 184 
Q 254.2 184 254.2 182 
L 254.2 138.965625 
Q 254.2 136.965625 252.2 136.965625 
L 142.285937 136.965625 
Q 140.285937 136.965625 140.285937 138.965625 
L 140.285937 182 
Q 140.285937 184 142.285937 184 
z
" style="fill:#ffffff;opacity:0.8;stroke:#cccccc;stroke-linejoin:miter;"/>
    </g>
    <g id="line2d_24">
     <path d="M 144.285937 145.064063 
L 164.285937 145.064063 
" style="fill:none;stroke:#ff0000;stroke-linecap:square;stroke-width:1.5;"/>
    </g>
    <g id="line2d_25"/>
    <g id="text_14">
     <!-- Network output -->
     <g transform="translate(172.285937 148.564063)scale(0.1 -0.1)">
      <defs>
       <path d="M 9.8125 72.90625 
L 23.09375 72.90625 
L 55.421875 11.921875 
L 55.421875 72.90625 
L 64.984375 72.90625 
L 64.984375 0 
L 51.703125 0 
L 19.390625 60.984375 
L 19.390625 0 
L 9.8125 0 
z
" id="DejaVuSans-78"/>
       <path d="M 56.203125 29.59375 
L 56.203125 25.203125 
L 14.890625 25.203125 
Q 15.484375 15.921875 20.484375 11.0625 
Q 25.484375 6.203125 34.421875 6.203125 
Q 39.59375 6.203125 44.453125 7.46875 
Q 49.3125 8.734375 54.109375 11.28125 
L 54.109375 2.78125 
Q 49.265625 0.734375 44.1875 -0.34375 
Q 39.109375 -1.421875 33.890625 -1.421875 
Q 20.796875 -1.421875 13.15625 6.1875 
Q 5.515625 13.8125 5.515625 26.8125 
Q 5.515625 40.234375 12.765625 48.109375 
Q 20.015625 56 32.328125 56 
Q 43.359375 56 49.78125 48.890625 
Q 56.203125 41.796875 56.203125 29.59375 
z
M 47.21875 32.234375 
Q 47.125 39.59375 43.09375 43.984375 
Q 39.0625 48.390625 32.421875 48.390625 
Q 24.90625 48.390625 20.390625 44.140625 
Q 15.875 39.890625 15.1875 32.171875 
z
" id="DejaVuSans-101"/>
       <path d="M 18.3125 70.21875 
L 18.3125 54.6875 
L 36.8125 54.6875 
L 36.8125 47.703125 
L 18.3125 47.703125 
L 18.3125 18.015625 
Q 18.3125 11.328125 20.140625 9.421875 
Q 21.96875 7.515625 27.59375 7.515625 
L 36.8125 7.515625 
L 36.8125 0 
L 27.59375 0 
Q 17.1875 0 13.234375 3.875 
Q 9.28125 7.765625 9.28125 18.015625 
L 9.28125 47.703125 
L 2.6875 47.703125 
L 2.6875 54.6875 
L 9.28125 54.6875 
L 9.28125 70.21875 
z
" id="DejaVuSans-116"/>
       <path d="M 4.203125 54.6875 
L 13.1875 54.6875 
L 24.421875 12.015625 
L 35.59375 54.6875 
L 46.1875 54.6875 
L 57.421875 12.015625 
L 68.609375 54.6875 
L 77.59375 54.6875 
L 63.28125 0 
L 52.6875 0 
L 40.921875 44.828125 
L 29.109375 0 
L 18.5 0 
z
" id="DejaVuSans-119"/>
       <path d="M 30.609375 48.390625 
Q 23.390625 48.390625 19.1875 42.75 
Q 14.984375 37.109375 14.984375 27.296875 
Q 14.984375 17.484375 19.15625 11.84375 
Q 23.34375 6.203125 30.609375 6.203125 
Q 37.796875 6.203125 41.984375 11.859375 
Q 46.1875 17.53125 46.1875 27.296875 
Q 46.1875 37.015625 41.984375 42.703125 
Q 37.796875 48.390625 30.609375 48.390625 
z
M 30.609375 56 
Q 42.328125 56 49.015625 48.375 
Q 55.71875 40.765625 55.71875 27.296875 
Q 55.71875 13.875 49.015625 6.21875 
Q 42.328125 -1.421875 30.609375 -1.421875 
Q 18.84375 -1.421875 12.171875 6.21875 
Q 5.515625 13.875 5.515625 27.296875 
Q 5.515625 40.765625 12.171875 48.375 
Q 18.84375 56 30.609375 56 
z
" id="DejaVuSans-111"/>
       <path d="M 41.109375 46.296875 
Q 39.59375 47.171875 37.8125 47.578125 
Q 36.03125 48 33.890625 48 
Q 26.265625 48 22.1875 43.046875 
Q 18.109375 38.09375 18.109375 28.8125 
L 18.109375 0 
L 9.078125 0 
L 9.078125 54.6875 
L 18.109375 54.6875 
L 18.109375 46.1875 
Q 20.953125 51.171875 25.484375 53.578125 
Q 30.03125 56 36.53125 56 
Q 37.453125 56 38.578125 55.875 
Q 39.703125 55.765625 41.0625 55.515625 
z
" id="DejaVuSans-114"/>
       <path d="M 9.078125 75.984375 
L 18.109375 75.984375 
L 18.109375 31.109375 
L 44.921875 54.6875 
L 56.390625 54.6875 
L 27.390625 29.109375 
L 57.625 0 
L 45.90625 0 
L 18.109375 26.703125 
L 18.109375 0 
L 9.078125 0 
z
" id="DejaVuSans-107"/>
       <path id="DejaVuSans-32"/>
       <path d="M 8.5 21.578125 
L 8.5 54.6875 
L 17.484375 54.6875 
L 17.484375 21.921875 
Q 17.484375 14.15625 20.5 10.265625 
Q 23.53125 6.390625 29.59375 6.390625 
Q 36.859375 6.390625 41.078125 11.03125 
Q 45.3125 15.671875 45.3125 23.6875 
L 45.3125 54.6875 
L 54.296875 54.6875 
L 54.296875 0 
L 45.3125 0 
L 45.3125 8.40625 
Q 42.046875 3.421875 37.71875 1 
Q 33.40625 -1.421875 27.6875 -1.421875 
Q 18.265625 -1.421875 13.375 4.4375 
Q 8.5 10.296875 8.5 21.578125 
z
M 31.109375 56 
z
" id="DejaVuSans-117"/>
       <path d="M 18.109375 8.203125 
L 18.109375 -20.796875 
L 9.078125 -20.796875 
L 9.078125 54.6875 
L 18.109375 54.6875 
L 18.109375 46.390625 
Q 20.953125 51.265625 25.265625 53.625 
Q 29.59375 56 35.59375 56 
Q 45.5625 56 51.78125 48.09375 
Q 58.015625 40.1875 58.015625 27.296875 
Q 58.015625 14.40625 51.78125 6.484375 
Q 45.5625 -1.421875 35.59375 -1.421875 
Q 29.59375 -1.421875 25.265625 0.953125 
Q 20.953125 3.328125 18.109375 8.203125 
z
M 48.6875 27.296875 
Q 48.6875 37.203125 44.609375 42.84375 
Q 40.53125 48.484375 33.40625 48.484375 
Q 26.265625 48.484375 22.1875 42.84375 
Q 18.109375 37.203125 18.109375 27.296875 
Q 18.109375 17.390625 22.1875 11.75 
Q 26.265625 6.109375 33.40625 6.109375 
Q 40.53125 6.109375 44.609375 11.75 
Q 48.6875 17.390625 48.6875 27.296875 
z
" id="DejaVuSans-112"/>
      </defs>
      <use xlink:href="#DejaVuSans-78"/>
      <use x="74.804688" xlink:href="#DejaVuSans-101"/>
      <use x="136.328125" xlink:href="#DejaVuSans-116"/>
      <use x="175.537109" xlink:href="#DejaVuSans-119"/>
      <use x="257.324219" xlink:href="#DejaVuSans-111"/>
      <use x="318.505859" xlink:href="#DejaVuSans-114"/>
      <use x="359.619141" xlink:href="#DejaVuSans-107"/>
      <use x="417.529297" xlink:href="#DejaVuSans-32"/>
      <use x="449.316406" xlink:href="#DejaVuSans-111"/>
      <use x="510.498047" xlink:href="#DejaVuSans-117"/>
      <use x="573.876953" xlink:href="#DejaVuSans-116"/>
      <use x="613.085938" xlink:href="#DejaVuSans-112"/>
      <use x="676.5625" xlink:href="#DejaVuSans-117"/>
      <use x="739.941406" xlink:href="#DejaVuSans-116"/>
     </g>
    </g>
    <g id="PathCollection_3">
     <g>
      <use style="fill:#1f77b4;stroke:#1f77b4;" x="154.285937" xlink:href="#md66b6d5457" y="160.617188"/>
     </g>
    </g>
    <g id="text_15">
     <!-- Training points -->
     <g transform="translate(172.285937 163.242188)scale(0.1 -0.1)">
      <defs>
       <path d="M -0.296875 72.90625 
L 61.375 72.90625 
L 61.375 64.59375 
L 35.5 64.59375 
L 35.5 0 
L 25.59375 0 
L 25.59375 64.59375 
L -0.296875 64.59375 
z
" id="DejaVuSans-84"/>
       <path d="M 34.28125 27.484375 
Q 23.390625 27.484375 19.1875 25 
Q 14.984375 22.515625 14.984375 16.5 
Q 14.984375 11.71875 18.140625 8.90625 
Q 21.296875 6.109375 26.703125 6.109375 
Q 34.1875 6.109375 38.703125 11.40625 
Q 43.21875 16.703125 43.21875 25.484375 
L 43.21875 27.484375 
z
M 52.203125 31.203125 
L 52.203125 0 
L 43.21875 0 
L 43.21875 8.296875 
Q 40.140625 3.328125 35.546875 0.953125 
Q 30.953125 -1.421875 24.3125 -1.421875 
Q 15.921875 -1.421875 10.953125 3.296875 
Q 6 8.015625 6 15.921875 
Q 6 25.140625 12.171875 29.828125 
Q 18.359375 34.515625 30.609375 34.515625 
L 43.21875 34.515625 
L 43.21875 35.40625 
Q 43.21875 41.609375 39.140625 45 
Q 35.0625 48.390625 27.6875 48.390625 
Q 23 48.390625 18.546875 47.265625 
Q 14.109375 46.140625 10.015625 43.890625 
L 10.015625 52.203125 
Q 14.9375 54.109375 19.578125 55.046875 
Q 24.21875 56 28.609375 56 
Q 40.484375 56 46.34375 49.84375 
Q 52.203125 43.703125 52.203125 31.203125 
z
" id="DejaVuSans-97"/>
       <path d="M 9.421875 54.6875 
L 18.40625 54.6875 
L 18.40625 0 
L 9.421875 0 
z
M 9.421875 75.984375 
L 18.40625 75.984375 
L 18.40625 64.59375 
L 9.421875 64.59375 
z
" id="DejaVuSans-105"/>
       <path d="M 54.890625 33.015625 
L 54.890625 0 
L 45.90625 0 
L 45.90625 32.71875 
Q 45.90625 40.484375 42.875 44.328125 
Q 39.84375 48.1875 33.796875 48.1875 
Q 26.515625 48.1875 22.3125 43.546875 
Q 18.109375 38.921875 18.109375 30.90625 
L 18.109375 0 
L 9.078125 0 
L 9.078125 54.6875 
L 18.109375 54.6875 
L 18.109375 46.1875 
Q 21.34375 51.125 25.703125 53.5625 
Q 30.078125 56 35.796875 56 
Q 45.21875 56 50.046875 50.171875 
Q 54.890625 44.34375 54.890625 33.015625 
z
" id="DejaVuSans-110"/>
       <path d="M 45.40625 27.984375 
Q 45.40625 37.75 41.375 43.109375 
Q 37.359375 48.484375 30.078125 48.484375 
Q 22.859375 48.484375 18.828125 43.109375 
Q 14.796875 37.75 14.796875 27.984375 
Q 14.796875 18.265625 18.828125 12.890625 
Q 22.859375 7.515625 30.078125 7.515625 
Q 37.359375 7.515625 41.375 12.890625 
Q 45.40625 18.265625 45.40625 27.984375 
z
M 54.390625 6.78125 
Q 54.390625 -7.171875 48.1875 -13.984375 
Q 42 -20.796875 29.203125 -20.796875 
Q 24.46875 -20.796875 20.265625 -20.09375 
Q 16.0625 -19.390625 12.109375 -17.921875 
L 12.109375 -9.1875 
Q 16.0625 -11.328125 19.921875 -12.34375 
Q 23.78125 -13.375 27.78125 -13.375 
Q 36.625 -13.375 41.015625 -8.765625 
Q 45.40625 -4.15625 45.40625 5.171875 
L 45.40625 9.625 
Q 42.625 4.78125 38.28125 2.390625 
Q 33.9375 0 27.875 0 
Q 17.828125 0 11.671875 7.65625 
Q 5.515625 15.328125 5.515625 27.984375 
Q 5.515625 40.671875 11.671875 48.328125 
Q 17.828125 56 27.875 56 
Q 33.9375 56 38.28125 53.609375 
Q 42.625 51.21875 45.40625 46.390625 
L 45.40625 54.6875 
L 54.390625 54.6875 
z
" id="DejaVuSans-103"/>
       <path d="M 44.28125 53.078125 
L 44.28125 44.578125 
Q 40.484375 46.53125 36.375 47.5 
Q 32.28125 48.484375 27.875 48.484375 
Q 21.1875 48.484375 17.84375 46.4375 
Q 14.5 44.390625 14.5 40.28125 
Q 14.5 37.15625 16.890625 35.375 
Q 19.28125 33.59375 26.515625 31.984375 
L 29.59375 31.296875 
Q 39.15625 29.25 43.1875 25.515625 
Q 47.21875 21.78125 47.21875 15.09375 
Q 47.21875 7.46875 41.1875 3.015625 
Q 35.15625 -1.421875 24.609375 -1.421875 
Q 20.21875 -1.421875 15.453125 -0.5625 
Q 10.6875 0.296875 5.421875 2 
L 5.421875 11.28125 
Q 10.40625 8.6875 15.234375 7.390625 
Q 20.0625 6.109375 24.8125 6.109375 
Q 31.15625 6.109375 34.5625 8.28125 
Q 37.984375 10.453125 37.984375 14.40625 
Q 37.984375 18.0625 35.515625 20.015625 
Q 33.0625 21.96875 24.703125 23.78125 
L 21.578125 24.515625 
Q 13.234375 26.265625 9.515625 29.90625 
Q 5.8125 33.546875 5.8125 39.890625 
Q 5.8125 47.609375 11.28125 51.796875 
Q 16.75 56 26.8125 56 
Q 31.78125 56 36.171875 55.265625 
Q 40.578125 54.546875 44.28125 53.078125 
z
" id="DejaVuSans-115"/>
      </defs>
      <use xlink:href="#DejaVuSans-84"/>
      <use x="46.333984" xlink:href="#DejaVuSans-114"/>
      <use x="87.447266" xlink:href="#DejaVuSans-97"/>
      <use x="148.726562" xlink:href="#DejaVuSans-105"/>
      <use x="176.509766" xlink:href="#DejaVuSans-110"/>
      <use x="239.888672" xlink:href="#DejaVuSans-105"/>
      <use x="267.671875" xlink:href="#DejaVuSans-110"/>
      <use x="331.050781" xlink:href="#DejaVuSans-103"/>
      <use x="394.527344" xlink:href="#DejaVuSans-32"/>
      <use x="426.314453" xlink:href="#DejaVuSans-112"/>
      <use x="489.791016" xlink:href="#DejaVuSans-111"/>
      <use x="550.972656" xlink:href="#DejaVuSans-105"/>
      <use x="578.755859" xlink:href="#DejaVuSans-110"/>
      <use x="642.134766" xlink:href="#DejaVuSans-116"/>
      <use x="681.34375" xlink:href="#DejaVuSans-115"/>
     </g>
    </g>
    <g id="PathCollection_4">
     <g>
      <use style="fill:#ffd700;stroke:#ffd700;" x="154.285937" xlink:href="#mdd2ffe87e4" y="175.295313"/>
     </g>
    </g>
    <g id="text_16">
     <!-- Testing points -->
     <g transform="translate(172.285937 177.920313)scale(0.1 -0.1)">
      <use xlink:href="#DejaVuSans-84"/>
      <use x="44.083984" xlink:href="#DejaVuSans-101"/>
      <use x="105.607422" xlink:href="#DejaVuSans-115"/>
      <use x="157.707031" xlink:href="#DejaVuSans-116"/>
      <use x="196.916016" xlink:href="#DejaVuSans-105"/>
      <use x="224.699219" xlink:href="#DejaVuSans-110"/>
      <use x="288.078125" xlink:href="#DejaVuSans-103"/>
      <use x="351.554688" xlink:href="#DejaVuSans-32"/>
      <use x="383.341797" xlink:href="#DejaVuSans-112"/>
      <use x="446.818359" xlink:href="#DejaVuSans-111"/>
      <use x="508" xlink:href="#DejaVuSans-105"/>
      <use x="535.783203" xlink:href="#DejaVuSans-110"/>
      <use x="599.162109" xlink:href="#DejaVuSans-116"/>
      <use x="638.371094" xlink:href="#DejaVuSans-115"/>
     </g>
    </g>
   </g>
  </g>
 </g>
 <defs>
  <clipPath id="p5df9020b0b">
   <rect height="163.08" width="223.2" x="36" y="25.92"/>
  </clipPath>
 </defs>
</svg>
