<?xml version="1.0" encoding="utf-8" standalone="no"?>
<!DOCTYPE svg PUBLIC "-//W3C//DTD SVG 1.1//EN"
  "http://www.w3.org/Graphics/SVG/1.1/DTD/svg11.dtd">
<svg height="288pt" version="1.1" viewBox="0 0 432 288" width="432pt" xmlns="http://www.w3.org/2000/svg" xmlns:xlink="http://www.w3.org/1999/xlink">
 <metadata>
  <rdf:RDF xmlns:cc="http://creativecommons.org/ns#" xmlns:dc="http://purl.org/dc/elements/1.1/" xmlns:rdf="http://www.w3.org/1999/02/22-rdf-syntax-ns#">
   <cc:Work>
    <dc:type rdf:resource="http://purl.org/dc/dcmitype/StillImage"/>
    <dc:date>2022-02-01T16:42:07.721795</dc:date>
    <dc:format>image/svg+xml</dc:format>
    <dc:creator>
     <cc:Agent>
      <dc:title>Matplotlib v3.4.3, https://matplotlib.org/</dc:title>
     </cc:Agent>
    </dc:creator>
   </cc:Work>
  </rdf:RDF>
 </metadata>
 <defs>
  <style type="text/css">*{stroke-linecap:butt;stroke-linejoin:round;}</style>
 </defs>
 <g id="figure_1">
  <g id="patch_1">
   <path d="M 0 288 
L 432 288 
L 432 0 
L 0 0 
z
" style="fill:none;"/>
  </g>
  <g id="axes_1">
   <g id="patch_2">
    <path d="M 54 252 
L 388.8 252 
L 388.8 34.56 
L 54 34.56 
z
" style="fill:#ffffff;"/>
   </g>
   <g id="PathCollection_1">
    <defs>
     <path d="M 0 3 
C 0.795609 3 1.55874 2.683901 2.12132 2.12132 
C 2.683901 1.55874 3 0.795609 3 0 
C 3 -0.795609 2.683901 -1.55874 2.12132 -2.12132 
C 1.55874 -2.683901 0.795609 -3 0 -3 
C -0.795609 -3 -1.55874 -2.683901 -2.12132 -2.12132 
C -2.683901 -1.55874 -3 -0.795609 -3 0 
C -3 0.795609 -2.683901 1.55874 -2.12132 2.12132 
C -1.55874 2.683901 -0.795609 3 0 3 
z
" id="m21b9b57c46" style="stroke:#1f77b4;"/>
    </defs>
    <g clip-path="url(#p217de0508b)">
     <use style="fill:#1f77b4;stroke:#1f77b4;" x="73.155802" xlink:href="#m21b9b57c46" y="196.481049"/>
     <use style="fill:#1f77b4;stroke:#1f77b4;" x="112.497693" xlink:href="#m21b9b57c46" y="115.289764"/>
     <use style="fill:#1f77b4;stroke:#1f77b4;" x="101.8435" xlink:href="#m21b9b57c46" y="127.144161"/>
     <use style="fill:#1f77b4;stroke:#1f77b4;" x="94.82477" xlink:href="#m21b9b57c46" y="155.6018"/>
     <use style="fill:#1f77b4;stroke:#1f77b4;" x="90.300236" xlink:href="#m21b9b57c46" y="152.299756"/>
     <use style="fill:#1f77b4;stroke:#1f77b4;" x="83.487981" xlink:href="#m21b9b57c46" y="176.580007"/>
     <use style="fill:#1f77b4;stroke:#1f77b4;" x="107.728656" xlink:href="#m21b9b57c46" y="110.645554"/>
     <use style="fill:#1f77b4;stroke:#1f77b4;" x="90.962845" xlink:href="#m21b9b57c46" y="138.742612"/>
     <use style="fill:#1f77b4;stroke:#1f77b4;" x="83.95459" xlink:href="#m21b9b57c46" y="163.155699"/>
     <use style="fill:#1f77b4;stroke:#1f77b4;" x="114.617249" xlink:href="#m21b9b57c46" y="122.728924"/>
     <use style="fill:#1f77b4;stroke:#1f77b4;" x="103.491278" xlink:href="#m21b9b57c46" y="133.427032"/>
     <use style="fill:#1f77b4;stroke:#1f77b4;" x="74.194497" xlink:href="#m21b9b57c46" y="202.828938"/>
     <use style="fill:#1f77b4;stroke:#1f77b4;" x="90.599766" xlink:href="#m21b9b57c46" y="144.896923"/>
     <use style="fill:#1f77b4;stroke:#1f77b4;" x="126.61958" xlink:href="#m21b9b57c46" y="105.494018"/>
     <use style="fill:#1f77b4;stroke:#1f77b4;" x="95.400539" xlink:href="#m21b9b57c46" y="164.117925"/>
     <use style="fill:#1f77b4;stroke:#1f77b4;" x="75.254333" xlink:href="#m21b9b57c46" y="190.229139"/>
     <use style="fill:#1f77b4;stroke:#1f77b4;" x="69.218188" xlink:href="#m21b9b57c46" y="242.116364"/>
     <use style="fill:#1f77b4;stroke:#1f77b4;" x="111.422464" xlink:href="#m21b9b57c46" y="131.300659"/>
     <use style="fill:#1f77b4;stroke:#1f77b4;" x="104.507201" xlink:href="#m21b9b57c46" y="141.284566"/>
     <use style="fill:#1f77b4;stroke:#1f77b4;" x="122.173742" xlink:href="#m21b9b57c46" y="104.950754"/>
     <use style="fill:#1f77b4;stroke:#1f77b4;" x="104.939619" xlink:href="#m21b9b57c46" y="113.051786"/>
     <use style="fill:#1f77b4;stroke:#1f77b4;" x="82.634725" xlink:href="#m21b9b57c46" y="175.531339"/>
     <use style="fill:#1f77b4;stroke:#1f77b4;" x="100.810071" xlink:href="#m21b9b57c46" y="146.540153"/>
     <use style="fill:#1f77b4;stroke:#1f77b4;" x="91.548074" xlink:href="#m21b9b57c46" y="154.719575"/>
     <use style="fill:#1f77b4;stroke:#1f77b4;" x="75.351823" xlink:href="#m21b9b57c46" y="193.800955"/>
     <use style="fill:#1f77b4;stroke:#1f77b4;" x="102.177774" xlink:href="#m21b9b57c46" y="139.831114"/>
     <use style="fill:#1f77b4;stroke:#1f77b4;" x="99.025957" xlink:href="#m21b9b57c46" y="134.735499"/>
     <use style="fill:#1f77b4;stroke:#1f77b4;" x="124.37875" xlink:href="#m21b9b57c46" y="107.698235"/>
     <use style="fill:#1f77b4;stroke:#1f77b4;" x="125.628378" xlink:href="#m21b9b57c46" y="112.353314"/>
     <use style="fill:#1f77b4;stroke:#1f77b4;" x="127.200623" xlink:href="#m21b9b57c46" y="108.98341"/>
     <use style="fill:#1f77b4;stroke:#1f77b4;" x="196.792491" xlink:href="#m21b9b57c46" y="114.135381"/>
     <use style="fill:#1f77b4;stroke:#1f77b4;" x="192.673852" xlink:href="#m21b9b57c46" y="119.388051"/>
     <use style="fill:#1f77b4;stroke:#1f77b4;" x="197.247575" xlink:href="#m21b9b57c46" y="121.182808"/>
     <use style="fill:#1f77b4;stroke:#1f77b4;" x="210.937999" xlink:href="#m21b9b57c46" y="129.438955"/>
     <use style="fill:#1f77b4;stroke:#1f77b4;" x="195.761139" xlink:href="#m21b9b57c46" y="109.076272"/>
     <use style="fill:#1f77b4;stroke:#1f77b4;" x="215.207158" xlink:href="#m21b9b57c46" y="146.02822"/>
     <use style="fill:#1f77b4;stroke:#1f77b4;" x="200.33566" xlink:href="#m21b9b57c46" y="129.563779"/>
     <use style="fill:#1f77b4;stroke:#1f77b4;" x="205.500617" xlink:href="#m21b9b57c46" y="110.644077"/>
     <use style="fill:#1f77b4;stroke:#1f77b4;" x="210.027383" xlink:href="#m21b9b57c46" y="117.481534"/>
     <use style="fill:#1f77b4;stroke:#1f77b4;" x="218.409646" xlink:href="#m21b9b57c46" y="143.953152"/>
     <use style="fill:#1f77b4;stroke:#1f77b4;" x="191.745427" xlink:href="#m21b9b57c46" y="102.326871"/>
     <use style="fill:#1f77b4;stroke:#1f77b4;" x="212.664866" xlink:href="#m21b9b57c46" y="125.924555"/>
     <use style="fill:#1f77b4;stroke:#1f77b4;" x="201.694072" xlink:href="#m21b9b57c46" y="136.392021"/>
     <use style="fill:#1f77b4;stroke:#1f77b4;" x="206.169544" xlink:href="#m21b9b57c46" y="108.948429"/>
     <use style="fill:#1f77b4;stroke:#1f77b4;" x="191.546336" xlink:href="#m21b9b57c46" y="117.842041"/>
     <use style="fill:#1f77b4;stroke:#1f77b4;" x="217.109276" xlink:href="#m21b9b57c46" y="132.051845"/>
     <use style="fill:#1f77b4;stroke:#1f77b4;" x="213.618071" xlink:href="#m21b9b57c46" y="134.920794"/>
     <use style="fill:#1f77b4;stroke:#1f77b4;" x="210.303085" xlink:href="#m21b9b57c46" y="128.023058"/>
     <use style="fill:#1f77b4;stroke:#1f77b4;" x="212.300708" xlink:href="#m21b9b57c46" y="137.603768"/>
     <use style="fill:#1f77b4;stroke:#1f77b4;" x="210.105572" xlink:href="#m21b9b57c46" y="118.577019"/>
     <use style="fill:#1f77b4;stroke:#1f77b4;" x="231.635498" xlink:href="#m21b9b57c46" y="155.266117"/>
     <use style="fill:#1f77b4;stroke:#1f77b4;" x="273.550813" xlink:href="#m21b9b57c46" y="124.093486"/>
     <use style="fill:#1f77b4;stroke:#1f77b4;" x="248.227509" xlink:href="#m21b9b57c46" y="152.182799"/>
     <use style="fill:#1f77b4;stroke:#1f77b4;" x="260.428707" xlink:href="#m21b9b57c46" y="140.721502"/>
     <use style="fill:#1f77b4;stroke:#1f77b4;" x="230.257608" xlink:href="#m21b9b57c46" y="145.388113"/>
     <use style="fill:#1f77b4;stroke:#1f77b4;" x="245.431199" xlink:href="#m21b9b57c46" y="141.36716"/>
     <use style="fill:#1f77b4;stroke:#1f77b4;" x="269.60399" xlink:href="#m21b9b57c46" y="135.847958"/>
     <use style="fill:#1f77b4;stroke:#1f77b4;" x="265.315602" xlink:href="#m21b9b57c46" y="133.105916"/>
     <use style="fill:#1f77b4;stroke:#1f77b4;" x="224.814293" xlink:href="#m21b9b57c46" y="125.631047"/>
     <use style="fill:#1f77b4;stroke:#1f77b4;" x="267.811144" xlink:href="#m21b9b57c46" y="145.084884"/>
     <use style="fill:#1f77b4;stroke:#1f77b4;" x="328.04131" xlink:href="#m21b9b57c46" y="143.361512"/>
     <use style="fill:#1f77b4;stroke:#1f77b4;" x="336.338648" xlink:href="#m21b9b57c46" y="137.609436"/>
     <use style="fill:#1f77b4;stroke:#1f77b4;" x="333.657127" xlink:href="#m21b9b57c46" y="146.959551"/>
     <use style="fill:#1f77b4;stroke:#1f77b4;" x="316.752167" xlink:href="#m21b9b57c46" y="156.409714"/>
     <use style="fill:#1f77b4;stroke:#1f77b4;" x="333.010618" xlink:href="#m21b9b57c46" y="150.636741"/>
     <use style="fill:#1f77b4;stroke:#1f77b4;" x="320.29217" xlink:href="#m21b9b57c46" y="148.09944"/>
     <use style="fill:#1f77b4;stroke:#1f77b4;" x="320.295947" xlink:href="#m21b9b57c46" y="152.376838"/>
     <use style="fill:#1f77b4;stroke:#1f77b4;" x="338.523968" xlink:href="#m21b9b57c46" y="126.845628"/>
     <use style="fill:#1f77b4;stroke:#1f77b4;" x="315.99013" xlink:href="#m21b9b57c46" y="150.466997"/>
     <use style="fill:#1f77b4;stroke:#1f77b4;" x="335.093018" xlink:href="#m21b9b57c46" y="143.520805"/>
     <use style="fill:#1f77b4;stroke:#1f77b4;" x="372.602584" xlink:href="#m21b9b57c46" y="44.443636"/>
     <use style="fill:#1f77b4;stroke:#1f77b4;" x="365.710728" xlink:href="#m21b9b57c46" y="66.006821"/>
     <use style="fill:#1f77b4;stroke:#1f77b4;" x="347.936098" xlink:href="#m21b9b57c46" y="124.184286"/>
     <use style="fill:#1f77b4;stroke:#1f77b4;" x="367.90694" xlink:href="#m21b9b57c46" y="80.29576"/>
     <use style="fill:#1f77b4;stroke:#1f77b4;" x="365.319668" xlink:href="#m21b9b57c46" y="69.708212"/>
     <use style="fill:#1f77b4;stroke:#1f77b4;" x="373.426594" xlink:href="#m21b9b57c46" y="45.288329"/>
     <use style="fill:#1f77b4;stroke:#1f77b4;" x="373.581817" xlink:href="#m21b9b57c46" y="48.904989"/>
     <use style="fill:#1f77b4;stroke:#1f77b4;" x="358.891308" xlink:href="#m21b9b57c46" y="105.523414"/>
     <use style="fill:#1f77b4;stroke:#1f77b4;" x="363.681126" xlink:href="#m21b9b57c46" y="77.347093"/>
     <use style="fill:#1f77b4;stroke:#1f77b4;" x="351.77765" xlink:href="#m21b9b57c46" y="122.194585"/>
     <use style="fill:#1f77b4;stroke:#1f77b4;" x="362.967304" xlink:href="#m21b9b57c46" y="90.499052"/>
     <use style="fill:#1f77b4;stroke:#1f77b4;" x="369.720804" xlink:href="#m21b9b57c46" y="57.620138"/>
     <use style="fill:#1f77b4;stroke:#1f77b4;" x="361.012931" xlink:href="#m21b9b57c46" y="95.562804"/>
     <use style="fill:#1f77b4;stroke:#1f77b4;" x="344.228621" xlink:href="#m21b9b57c46" y="128.585057"/>
     <use style="fill:#1f77b4;stroke:#1f77b4;" x="360.572506" xlink:href="#m21b9b57c46" y="84.930242"/>
     <use style="fill:#1f77b4;stroke:#1f77b4;" x="354.848915" xlink:href="#m21b9b57c46" y="92.885134"/>
     <use style="fill:#1f77b4;stroke:#1f77b4;" x="373.052539" xlink:href="#m21b9b57c46" y="57.782914"/>
     <use style="fill:#1f77b4;stroke:#1f77b4;" x="355.545252" xlink:href="#m21b9b57c46" y="104.456985"/>
     <use style="fill:#1f77b4;stroke:#1f77b4;" x="344.680442" xlink:href="#m21b9b57c46" y="114.245519"/>
     <use style="fill:#1f77b4;stroke:#1f77b4;" x="370.954788" xlink:href="#m21b9b57c46" y="66.489641"/>
     <use style="fill:#1f77b4;stroke:#1f77b4;" x="347.935416" xlink:href="#m21b9b57c46" y="113.85113"/>
     <use style="fill:#1f77b4;stroke:#1f77b4;" x="363.15488" xlink:href="#m21b9b57c46" y="82.929039"/>
     <use style="fill:#1f77b4;stroke:#1f77b4;" x="346.586747" xlink:href="#m21b9b57c46" y="119.855654"/>
     <use style="fill:#1f77b4;stroke:#1f77b4;" x="370.909864" xlink:href="#m21b9b57c46" y="58.235501"/>
     <use style="fill:#1f77b4;stroke:#1f77b4;" x="345.564541" xlink:href="#m21b9b57c46" y="140.345446"/>
     <use style="fill:#1f77b4;stroke:#1f77b4;" x="366.455204" xlink:href="#m21b9b57c46" y="69.004998"/>
     <use style="fill:#1f77b4;stroke:#1f77b4;" x="357.492288" xlink:href="#m21b9b57c46" y="109.737691"/>
     <use style="fill:#1f77b4;stroke:#1f77b4;" x="360.344841" xlink:href="#m21b9b57c46" y="91.644375"/>
     <use style="fill:#1f77b4;stroke:#1f77b4;" x="363.495179" xlink:href="#m21b9b57c46" y="80.822469"/>
     <use style="fill:#1f77b4;stroke:#1f77b4;" x="367.561842" xlink:href="#m21b9b57c46" y="54.964587"/>
    </g>
   </g>
   <g id="matplotlib.axis_1">
    <g id="xtick_1">
     <g id="line2d_1">
      <path clip-path="url(#p217de0508b)" d="M 97.394138 252 
L 97.394138 34.56 
" style="fill:none;stroke:#b0b0b0;stroke-linecap:square;stroke-width:0.8;"/>
     </g>
     <g id="line2d_2">
      <defs>
       <path d="M 0 0 
L 0 3.5 
" id="m96f02cde28" style="stroke:#000000;stroke-width:0.8;"/>
      </defs>
      <g>
       <use style="stroke:#000000;stroke-width:0.8;" x="97.394138" xlink:href="#m96f02cde28" y="252"/>
      </g>
     </g>
     <g id="text_1">
      <!-- −4 -->
      <g transform="translate(90.023044 266.598437)scale(0.1 -0.1)">
       <defs>
        <path d="M 678 2272 
L 4684 2272 
L 4684 1741 
L 678 1741 
L 678 2272 
z
" id="DejaVuSans-2212" transform="scale(0.015625)"/>
        <path d="M 2419 4116 
L 825 1625 
L 2419 1625 
L 2419 4116 
z
M 2253 4666 
L 3047 4666 
L 3047 1625 
L 3713 1625 
L 3713 1100 
L 3047 1100 
L 3047 0 
L 2419 0 
L 2419 1100 
L 313 1100 
L 313 1709 
L 2253 4666 
z
" id="DejaVuSans-34" transform="scale(0.015625)"/>
       </defs>
       <use xlink:href="#DejaVuSans-2212"/>
       <use x="83.789062" xlink:href="#DejaVuSans-34"/>
      </g>
     </g>
    </g>
    <g id="xtick_2">
     <g id="line2d_3">
      <path clip-path="url(#p217de0508b)" d="M 158.922893 252 
L 158.922893 34.56 
" style="fill:none;stroke:#b0b0b0;stroke-linecap:square;stroke-width:0.8;"/>
     </g>
     <g id="line2d_4">
      <g>
       <use style="stroke:#000000;stroke-width:0.8;" x="158.922893" xlink:href="#m96f02cde28" y="252"/>
      </g>
     </g>
     <g id="text_2">
      <!-- −2 -->
      <g transform="translate(151.551799 266.598437)scale(0.1 -0.1)">
       <defs>
        <path d="M 1228 531 
L 3431 531 
L 3431 0 
L 469 0 
L 469 531 
Q 828 903 1448 1529 
Q 2069 2156 2228 2338 
Q 2531 2678 2651 2914 
Q 2772 3150 2772 3378 
Q 2772 3750 2511 3984 
Q 2250 4219 1831 4219 
Q 1534 4219 1204 4116 
Q 875 4013 500 3803 
L 500 4441 
Q 881 4594 1212 4672 
Q 1544 4750 1819 4750 
Q 2544 4750 2975 4387 
Q 3406 4025 3406 3419 
Q 3406 3131 3298 2873 
Q 3191 2616 2906 2266 
Q 2828 2175 2409 1742 
Q 1991 1309 1228 531 
z
" id="DejaVuSans-32" transform="scale(0.015625)"/>
       </defs>
       <use xlink:href="#DejaVuSans-2212"/>
       <use x="83.789062" xlink:href="#DejaVuSans-32"/>
      </g>
     </g>
    </g>
    <g id="xtick_3">
     <g id="line2d_5">
      <path clip-path="url(#p217de0508b)" d="M 220.451647 252 
L 220.451647 34.56 
" style="fill:none;stroke:#b0b0b0;stroke-linecap:square;stroke-width:0.8;"/>
     </g>
     <g id="line2d_6">
      <g>
       <use style="stroke:#000000;stroke-width:0.8;" x="220.451647" xlink:href="#m96f02cde28" y="252"/>
      </g>
     </g>
     <g id="text_3">
      <!-- 0 -->
      <g transform="translate(217.270397 266.598437)scale(0.1 -0.1)">
       <defs>
        <path d="M 2034 4250 
Q 1547 4250 1301 3770 
Q 1056 3291 1056 2328 
Q 1056 1369 1301 889 
Q 1547 409 2034 409 
Q 2525 409 2770 889 
Q 3016 1369 3016 2328 
Q 3016 3291 2770 3770 
Q 2525 4250 2034 4250 
z
M 2034 4750 
Q 2819 4750 3233 4129 
Q 3647 3509 3647 2328 
Q 3647 1150 3233 529 
Q 2819 -91 2034 -91 
Q 1250 -91 836 529 
Q 422 1150 422 2328 
Q 422 3509 836 4129 
Q 1250 4750 2034 4750 
z
" id="DejaVuSans-30" transform="scale(0.015625)"/>
       </defs>
       <use xlink:href="#DejaVuSans-30"/>
      </g>
     </g>
    </g>
    <g id="xtick_4">
     <g id="line2d_7">
      <path clip-path="url(#p217de0508b)" d="M 281.980402 252 
L 281.980402 34.56 
" style="fill:none;stroke:#b0b0b0;stroke-linecap:square;stroke-width:0.8;"/>
     </g>
     <g id="line2d_8">
      <g>
       <use style="stroke:#000000;stroke-width:0.8;" x="281.980402" xlink:href="#m96f02cde28" y="252"/>
      </g>
     </g>
     <g id="text_4">
      <!-- 2 -->
      <g transform="translate(278.799152 266.598437)scale(0.1 -0.1)">
       <use xlink:href="#DejaVuSans-32"/>
      </g>
     </g>
    </g>
    <g id="xtick_5">
     <g id="line2d_9">
      <path clip-path="url(#p217de0508b)" d="M 343.509156 252 
L 343.509156 34.56 
" style="fill:none;stroke:#b0b0b0;stroke-linecap:square;stroke-width:0.8;"/>
     </g>
     <g id="line2d_10">
      <g>
       <use style="stroke:#000000;stroke-width:0.8;" x="343.509156" xlink:href="#m96f02cde28" y="252"/>
      </g>
     </g>
     <g id="text_5">
      <!-- 4 -->
      <g transform="translate(340.327906 266.598437)scale(0.1 -0.1)">
       <use xlink:href="#DejaVuSans-34"/>
      </g>
     </g>
    </g>
    <g id="text_6">
     <!-- x -->
     <g transform="translate(218.440625 280.276563)scale(0.1 -0.1)">
      <defs>
       <path d="M 3513 3500 
L 2247 1797 
L 3578 0 
L 2900 0 
L 1881 1375 
L 863 0 
L 184 0 
L 1544 1831 
L 300 3500 
L 978 3500 
L 1906 2253 
L 2834 3500 
L 3513 3500 
z
" id="DejaVuSans-78" transform="scale(0.015625)"/>
      </defs>
      <use xlink:href="#DejaVuSans-78"/>
     </g>
    </g>
   </g>
   <g id="matplotlib.axis_2">
    <g id="ytick_1">
     <g id="line2d_11">
      <path clip-path="url(#p217de0508b)" d="M 54 246.759632 
L 388.8 246.759632 
" style="fill:none;stroke:#b0b0b0;stroke-linecap:square;stroke-width:0.8;"/>
     </g>
     <g id="line2d_12">
      <defs>
       <path d="M 0 0 
L -3.5 0 
" id="m0bcf63ac33" style="stroke:#000000;stroke-width:0.8;"/>
      </defs>
      <g>
       <use style="stroke:#000000;stroke-width:0.8;" x="54" xlink:href="#m0bcf63ac33" y="246.759632"/>
      </g>
     </g>
     <g id="text_7">
      <!-- −4 -->
      <g transform="translate(32.257812 250.558851)scale(0.1 -0.1)">
       <use xlink:href="#DejaVuSans-2212"/>
       <use x="83.789062" xlink:href="#DejaVuSans-34"/>
      </g>
     </g>
    </g>
    <g id="ytick_2">
     <g id="line2d_13">
      <path clip-path="url(#p217de0508b)" d="M 54 210.629532 
L 388.8 210.629532 
" style="fill:none;stroke:#b0b0b0;stroke-linecap:square;stroke-width:0.8;"/>
     </g>
     <g id="line2d_14">
      <g>
       <use style="stroke:#000000;stroke-width:0.8;" x="54" xlink:href="#m0bcf63ac33" y="210.629532"/>
      </g>
     </g>
     <g id="text_8">
      <!-- −2 -->
      <g transform="translate(32.257812 214.428751)scale(0.1 -0.1)">
       <use xlink:href="#DejaVuSans-2212"/>
       <use x="83.789062" xlink:href="#DejaVuSans-32"/>
      </g>
     </g>
    </g>
    <g id="ytick_3">
     <g id="line2d_15">
      <path clip-path="url(#p217de0508b)" d="M 54 174.499431 
L 388.8 174.499431 
" style="fill:none;stroke:#b0b0b0;stroke-linecap:square;stroke-width:0.8;"/>
     </g>
     <g id="line2d_16">
      <g>
       <use style="stroke:#000000;stroke-width:0.8;" x="54" xlink:href="#m0bcf63ac33" y="174.499431"/>
      </g>
     </g>
     <g id="text_9">
      <!-- 0 -->
      <g transform="translate(40.6375 178.29865)scale(0.1 -0.1)">
       <use xlink:href="#DejaVuSans-30"/>
      </g>
     </g>
    </g>
    <g id="ytick_4">
     <g id="line2d_17">
      <path clip-path="url(#p217de0508b)" d="M 54 138.369331 
L 388.8 138.369331 
" style="fill:none;stroke:#b0b0b0;stroke-linecap:square;stroke-width:0.8;"/>
     </g>
     <g id="line2d_18">
      <g>
       <use style="stroke:#000000;stroke-width:0.8;" x="54" xlink:href="#m0bcf63ac33" y="138.369331"/>
      </g>
     </g>
     <g id="text_10">
      <!-- 2 -->
      <g transform="translate(40.6375 142.16855)scale(0.1 -0.1)">
       <use xlink:href="#DejaVuSans-32"/>
      </g>
     </g>
    </g>
    <g id="ytick_5">
     <g id="line2d_19">
      <path clip-path="url(#p217de0508b)" d="M 54 102.23923 
L 388.8 102.23923 
" style="fill:none;stroke:#b0b0b0;stroke-linecap:square;stroke-width:0.8;"/>
     </g>
     <g id="line2d_20">
      <g>
       <use style="stroke:#000000;stroke-width:0.8;" x="54" xlink:href="#m0bcf63ac33" y="102.23923"/>
      </g>
     </g>
     <g id="text_11">
      <!-- 4 -->
      <g transform="translate(40.6375 106.038449)scale(0.1 -0.1)">
       <use xlink:href="#DejaVuSans-34"/>
      </g>
     </g>
    </g>
    <g id="ytick_6">
     <g id="line2d_21">
      <path clip-path="url(#p217de0508b)" d="M 54 66.10913 
L 388.8 66.10913 
" style="fill:none;stroke:#b0b0b0;stroke-linecap:square;stroke-width:0.8;"/>
     </g>
     <g id="line2d_22">
      <g>
       <use style="stroke:#000000;stroke-width:0.8;" x="54" xlink:href="#m0bcf63ac33" y="66.10913"/>
      </g>
     </g>
     <g id="text_12">
      <!-- 6 -->
      <g transform="translate(40.6375 69.908349)scale(0.1 -0.1)">
       <defs>
        <path d="M 2113 2584 
Q 1688 2584 1439 2293 
Q 1191 2003 1191 1497 
Q 1191 994 1439 701 
Q 1688 409 2113 409 
Q 2538 409 2786 701 
Q 3034 994 3034 1497 
Q 3034 2003 2786 2293 
Q 2538 2584 2113 2584 
z
M 3366 4563 
L 3366 3988 
Q 3128 4100 2886 4159 
Q 2644 4219 2406 4219 
Q 1781 4219 1451 3797 
Q 1122 3375 1075 2522 
Q 1259 2794 1537 2939 
Q 1816 3084 2150 3084 
Q 2853 3084 3261 2657 
Q 3669 2231 3669 1497 
Q 3669 778 3244 343 
Q 2819 -91 2113 -91 
Q 1303 -91 875 529 
Q 447 1150 447 2328 
Q 447 3434 972 4092 
Q 1497 4750 2381 4750 
Q 2619 4750 2861 4703 
Q 3103 4656 3366 4563 
z
" id="DejaVuSans-36" transform="scale(0.015625)"/>
       </defs>
       <use xlink:href="#DejaVuSans-36"/>
      </g>
     </g>
    </g>
    <g id="text_13">
     <!-- y -->
     <g transform="translate(26.178125 146.239375)rotate(-90)scale(0.1 -0.1)">
      <defs>
       <path d="M 2059 -325 
Q 1816 -950 1584 -1140 
Q 1353 -1331 966 -1331 
L 506 -1331 
L 506 -850 
L 844 -850 
Q 1081 -850 1212 -737 
Q 1344 -625 1503 -206 
L 1606 56 
L 191 3500 
L 800 3500 
L 1894 763 
L 2988 3500 
L 3597 3500 
L 2059 -325 
z
" id="DejaVuSans-79" transform="scale(0.015625)"/>
      </defs>
      <use xlink:href="#DejaVuSans-79"/>
     </g>
    </g>
   </g>
   <g id="line2d_23">
    <path clip-path="url(#p217de0508b)" d="M 69.218182 193.501649 
L 69.522855 192.877438 
L 70.436859 190.41143 
L 70.741517 189.802826 
L 71.655536 187.34701 
L 71.960208 186.733594 
L 72.874212 184.302407 
L 73.178871 183.683813 
L 74.397548 180.374982 
L 74.702206 179.771384 
L 75.61621 177.383872 
L 75.920883 176.791639 
L 76.834901 174.432587 
L 77.13956 173.850897 
L 78.358236 170.650899 
L 78.662909 170.076023 
L 79.576899 167.79519 
L 79.881571 167.223922 
L 80.795575 164.980034 
L 81.100248 164.421602 
L 82.318925 161.386527 
L 82.623598 160.846694 
L 83.537602 158.692245 
L 83.84226 158.148903 
L 84.756264 156.046224 
L 85.060937 155.524187 
L 86.279614 152.680263 
L 86.584287 152.184391 
L 87.498291 150.16457 
L 87.802949 149.678669 
L 88.716953 147.710294 
L 89.021626 147.226458 
L 89.93563 145.307487 
L 90.240288 144.843293 
L 91.45898 142.29964 
L 91.763638 141.841379 
L 92.677642 140.037585 
L 92.982315 139.597844 
L 93.896319 137.855656 
L 94.200977 137.42275 
L 95.419654 135.102705 
L 95.724327 134.689044 
L 96.638331 133.061946 
L 96.943004 132.661159 
L 97.857008 131.09327 
L 100.59902 126.865084 
L 104.864374 120.853442 
L 108.825063 115.929884 
L 112.785759 111.61787 
L 116.746448 107.872624 
L 120.402464 104.878617 
L 123.753807 102.496103 
L 127.409838 100.2685 
L 130.456515 98.717981 
L 133.807873 97.250589 
L 138.073227 95.791328 
L 141.729243 94.86664 
L 144.775928 94.321006 
L 148.127278 93.961997 
L 151.478629 93.830159 
L 155.439318 93.991836 
L 158.790668 94.380547 
L 161.532684 94.874281 
L 164.884038 95.685443 
L 170.063396 97.424257 
L 173.41475 98.844591 
L 179.508116 102.036084 
L 182.250128 103.710616 
L 189.257509 108.628402 
L 192.913527 111.487431 
L 199.006886 116.610177 
L 209.670276 125.967828 
L 217.286991 132.181453 
L 220.943011 134.812385 
L 223.989672 136.814958 
L 227.036348 138.589139 
L 230.387699 140.28556 
L 233.739058 141.664036 
L 236.481066 142.541855 
L 239.223087 143.169817 
L 241.965095 143.494648 
L 244.402449 143.52388 
L 247.449132 143.22437 
L 251.714479 142.298862 
L 259.026526 140.547485 
L 262.073211 140.163895 
L 264.510557 140.05536 
L 268.166577 140.223866 
L 271.213258 140.611582 
L 274.869277 141.316477 
L 278.525297 142.230234 
L 284.313997 144.02789 
L 291.016698 146.457683 
L 297.719399 149.004673 
L 302.594092 150.646025 
L 306.554788 151.67869 
L 308.992135 152.138488 
L 312.343485 152.481969 
L 315.085504 152.49708 
L 317.522843 152.274542 
L 320.264855 151.759441 
L 323.006875 150.922429 
L 325.139555 150.049452 
L 326.967563 149.100225 
L 329.100244 147.823266 
L 331.232925 146.255099 
L 333.365599 144.477843 
L 334.888941 142.98306 
L 337.021622 140.725465 
L 338.84963 138.55069 
L 340.068299 136.894931 
L 342.20098 133.877636 
L 344.028988 131.020679 
L 344.943007 129.397664 
L 345.247665 128.97423 
L 346.466342 126.610404 
L 346.771015 126.155662 
L 347.685004 124.331806 
L 347.989677 123.866753 
L 348.903681 121.941763 
L 349.208354 121.454266 
L 350.427016 118.66679 
L 350.731689 118.152503 
L 351.645693 116.032133 
L 351.950366 115.497163 
L 352.86437 113.29595 
L 353.169043 112.735677 
L 354.38772 109.591953 
L 354.692393 109.00218 
L 355.606397 106.622091 
L 355.911055 106.040989 
L 356.825059 103.592349 
L 357.129732 102.973069 
L 358.043736 100.483378 
L 358.348394 99.856626 
L 359.567085 96.355568 
L 359.871744 95.716885 
L 360.785748 93.127025 
L 361.090421 92.482734 
L 362.004425 89.861545 
L 362.309083 89.19304 
L 363.52776 85.56999 
L 363.832433 84.913476 
L 364.746437 82.266806 
L 365.051109 81.615607 
L 365.965113 78.983426 
L 366.269786 78.323018 
L 367.183776 75.691398 
L 368.09778 73.085757 
L 368.402452 72.457471 
L 369.316471 69.866595 
L 369.621129 69.238947 
L 370.535133 66.708808 
L 370.839806 66.078748 
L 372.058483 62.671136 
L 372.363141 62.064988 
L 373.277145 59.657799 
L 373.581818 59.063927 
L 373.581818 59.063927 
" style="fill:none;stroke:#ff0000;stroke-linecap:square;stroke-width:1.5;"/>
   </g>
   <g id="patch_3">
    <path d="M 54 252 
L 54 34.56 
" style="fill:none;stroke:#000000;stroke-linecap:square;stroke-linejoin:miter;stroke-width:0.8;"/>
   </g>
   <g id="patch_4">
    <path d="M 388.8 252 
L 388.8 34.56 
" style="fill:none;stroke:#000000;stroke-linecap:square;stroke-linejoin:miter;stroke-width:0.8;"/>
   </g>
   <g id="patch_5">
    <path d="M 54 252 
L 388.8 252 
" style="fill:none;stroke:#000000;stroke-linecap:square;stroke-linejoin:miter;stroke-width:0.8;"/>
   </g>
   <g id="patch_6">
    <path d="M 54 34.56 
L 388.8 34.56 
" style="fill:none;stroke:#000000;stroke-linecap:square;stroke-linejoin:miter;stroke-width:0.8;"/>
   </g>
   <g id="legend_1">
    <g id="patch_7">
     <path d="M 61 71.91625 
L 170.914062 71.91625 
Q 172.914062 71.91625 172.914062 69.91625 
L 172.914062 41.56 
Q 172.914062 39.56 170.914062 39.56 
L 61 39.56 
Q 59 39.56 59 41.56 
L 59 69.91625 
Q 59 71.91625 61 71.91625 
z
" style="fill:#ffffff;opacity:0.8;stroke:#cccccc;stroke-linejoin:miter;"/>
    </g>
    <g id="line2d_24">
     <path d="M 63 47.658437 
L 83 47.658437 
" style="fill:none;stroke:#ff0000;stroke-linecap:square;stroke-width:1.5;"/>
    </g>
    <g id="line2d_25"/>
    <g id="text_14">
     <!-- Network output -->
     <g transform="translate(91 51.158437)scale(0.1 -0.1)">
      <defs>
       <path d="M 628 4666 
L 1478 4666 
L 3547 763 
L 3547 4666 
L 4159 4666 
L 4159 0 
L 3309 0 
L 1241 3903 
L 1241 0 
L 628 0 
L 628 4666 
z
" id="DejaVuSans-4e" transform="scale(0.015625)"/>
       <path d="M 3597 1894 
L 3597 1613 
L 953 1613 
Q 991 1019 1311 708 
Q 1631 397 2203 397 
Q 2534 397 2845 478 
Q 3156 559 3463 722 
L 3463 178 
Q 3153 47 2828 -22 
Q 2503 -91 2169 -91 
Q 1331 -91 842 396 
Q 353 884 353 1716 
Q 353 2575 817 3079 
Q 1281 3584 2069 3584 
Q 2775 3584 3186 3129 
Q 3597 2675 3597 1894 
z
M 3022 2063 
Q 3016 2534 2758 2815 
Q 2500 3097 2075 3097 
Q 1594 3097 1305 2825 
Q 1016 2553 972 2059 
L 3022 2063 
z
" id="DejaVuSans-65" transform="scale(0.015625)"/>
       <path d="M 1172 4494 
L 1172 3500 
L 2356 3500 
L 2356 3053 
L 1172 3053 
L 1172 1153 
Q 1172 725 1289 603 
Q 1406 481 1766 481 
L 2356 481 
L 2356 0 
L 1766 0 
Q 1100 0 847 248 
Q 594 497 594 1153 
L 594 3053 
L 172 3053 
L 172 3500 
L 594 3500 
L 594 4494 
L 1172 4494 
z
" id="DejaVuSans-74" transform="scale(0.015625)"/>
       <path d="M 269 3500 
L 844 3500 
L 1563 769 
L 2278 3500 
L 2956 3500 
L 3675 769 
L 4391 3500 
L 4966 3500 
L 4050 0 
L 3372 0 
L 2619 2869 
L 1863 0 
L 1184 0 
L 269 3500 
z
" id="DejaVuSans-77" transform="scale(0.015625)"/>
       <path d="M 1959 3097 
Q 1497 3097 1228 2736 
Q 959 2375 959 1747 
Q 959 1119 1226 758 
Q 1494 397 1959 397 
Q 2419 397 2687 759 
Q 2956 1122 2956 1747 
Q 2956 2369 2687 2733 
Q 2419 3097 1959 3097 
z
M 1959 3584 
Q 2709 3584 3137 3096 
Q 3566 2609 3566 1747 
Q 3566 888 3137 398 
Q 2709 -91 1959 -91 
Q 1206 -91 779 398 
Q 353 888 353 1747 
Q 353 2609 779 3096 
Q 1206 3584 1959 3584 
z
" id="DejaVuSans-6f" transform="scale(0.015625)"/>
       <path d="M 2631 2963 
Q 2534 3019 2420 3045 
Q 2306 3072 2169 3072 
Q 1681 3072 1420 2755 
Q 1159 2438 1159 1844 
L 1159 0 
L 581 0 
L 581 3500 
L 1159 3500 
L 1159 2956 
Q 1341 3275 1631 3429 
Q 1922 3584 2338 3584 
Q 2397 3584 2469 3576 
Q 2541 3569 2628 3553 
L 2631 2963 
z
" id="DejaVuSans-72" transform="scale(0.015625)"/>
       <path d="M 581 4863 
L 1159 4863 
L 1159 1991 
L 2875 3500 
L 3609 3500 
L 1753 1863 
L 3688 0 
L 2938 0 
L 1159 1709 
L 1159 0 
L 581 0 
L 581 4863 
z
" id="DejaVuSans-6b" transform="scale(0.015625)"/>
       <path id="DejaVuSans-20" transform="scale(0.015625)"/>
       <path d="M 544 1381 
L 544 3500 
L 1119 3500 
L 1119 1403 
Q 1119 906 1312 657 
Q 1506 409 1894 409 
Q 2359 409 2629 706 
Q 2900 1003 2900 1516 
L 2900 3500 
L 3475 3500 
L 3475 0 
L 2900 0 
L 2900 538 
Q 2691 219 2414 64 
Q 2138 -91 1772 -91 
Q 1169 -91 856 284 
Q 544 659 544 1381 
z
M 1991 3584 
L 1991 3584 
z
" id="DejaVuSans-75" transform="scale(0.015625)"/>
       <path d="M 1159 525 
L 1159 -1331 
L 581 -1331 
L 581 3500 
L 1159 3500 
L 1159 2969 
Q 1341 3281 1617 3432 
Q 1894 3584 2278 3584 
Q 2916 3584 3314 3078 
Q 3713 2572 3713 1747 
Q 3713 922 3314 415 
Q 2916 -91 2278 -91 
Q 1894 -91 1617 61 
Q 1341 213 1159 525 
z
M 3116 1747 
Q 3116 2381 2855 2742 
Q 2594 3103 2138 3103 
Q 1681 3103 1420 2742 
Q 1159 2381 1159 1747 
Q 1159 1113 1420 752 
Q 1681 391 2138 391 
Q 2594 391 2855 752 
Q 3116 1113 3116 1747 
z
" id="DejaVuSans-70" transform="scale(0.015625)"/>
      </defs>
      <use xlink:href="#DejaVuSans-4e"/>
      <use x="74.804688" xlink:href="#DejaVuSans-65"/>
      <use x="136.328125" xlink:href="#DejaVuSans-74"/>
      <use x="175.537109" xlink:href="#DejaVuSans-77"/>
      <use x="257.324219" xlink:href="#DejaVuSans-6f"/>
      <use x="318.505859" xlink:href="#DejaVuSans-72"/>
      <use x="359.619141" xlink:href="#DejaVuSans-6b"/>
      <use x="417.529297" xlink:href="#DejaVuSans-20"/>
      <use x="449.316406" xlink:href="#DejaVuSans-6f"/>
      <use x="510.498047" xlink:href="#DejaVuSans-75"/>
      <use x="573.876953" xlink:href="#DejaVuSans-74"/>
      <use x="613.085938" xlink:href="#DejaVuSans-70"/>
      <use x="676.5625" xlink:href="#DejaVuSans-75"/>
      <use x="739.941406" xlink:href="#DejaVuSans-74"/>
     </g>
    </g>
    <g id="PathCollection_2">
     <g>
      <use style="fill:#1f77b4;stroke:#1f77b4;" x="73" xlink:href="#m21b9b57c46" y="63.211562"/>
     </g>
    </g>
    <g id="text_15">
     <!-- Training points -->
     <g transform="translate(91 65.836562)scale(0.1 -0.1)">
      <defs>
       <path d="M -19 4666 
L 3928 4666 
L 3928 4134 
L 2272 4134 
L 2272 0 
L 1638 0 
L 1638 4134 
L -19 4134 
L -19 4666 
z
" id="DejaVuSans-54" transform="scale(0.015625)"/>
       <path d="M 2194 1759 
Q 1497 1759 1228 1600 
Q 959 1441 959 1056 
Q 959 750 1161 570 
Q 1363 391 1709 391 
Q 2188 391 2477 730 
Q 2766 1069 2766 1631 
L 2766 1759 
L 2194 1759 
z
M 3341 1997 
L 3341 0 
L 2766 0 
L 2766 531 
Q 2569 213 2275 61 
Q 1981 -91 1556 -91 
Q 1019 -91 701 211 
Q 384 513 384 1019 
Q 384 1609 779 1909 
Q 1175 2209 1959 2209 
L 2766 2209 
L 2766 2266 
Q 2766 2663 2505 2880 
Q 2244 3097 1772 3097 
Q 1472 3097 1187 3025 
Q 903 2953 641 2809 
L 641 3341 
Q 956 3463 1253 3523 
Q 1550 3584 1831 3584 
Q 2591 3584 2966 3190 
Q 3341 2797 3341 1997 
z
" id="DejaVuSans-61" transform="scale(0.015625)"/>
       <path d="M 603 3500 
L 1178 3500 
L 1178 0 
L 603 0 
L 603 3500 
z
M 603 4863 
L 1178 4863 
L 1178 4134 
L 603 4134 
L 603 4863 
z
" id="DejaVuSans-69" transform="scale(0.015625)"/>
       <path d="M 3513 2113 
L 3513 0 
L 2938 0 
L 2938 2094 
Q 2938 2591 2744 2837 
Q 2550 3084 2163 3084 
Q 1697 3084 1428 2787 
Q 1159 2491 1159 1978 
L 1159 0 
L 581 0 
L 581 3500 
L 1159 3500 
L 1159 2956 
Q 1366 3272 1645 3428 
Q 1925 3584 2291 3584 
Q 2894 3584 3203 3211 
Q 3513 2838 3513 2113 
z
" id="DejaVuSans-6e" transform="scale(0.015625)"/>
       <path d="M 2906 1791 
Q 2906 2416 2648 2759 
Q 2391 3103 1925 3103 
Q 1463 3103 1205 2759 
Q 947 2416 947 1791 
Q 947 1169 1205 825 
Q 1463 481 1925 481 
Q 2391 481 2648 825 
Q 2906 1169 2906 1791 
z
M 3481 434 
Q 3481 -459 3084 -895 
Q 2688 -1331 1869 -1331 
Q 1566 -1331 1297 -1286 
Q 1028 -1241 775 -1147 
L 775 -588 
Q 1028 -725 1275 -790 
Q 1522 -856 1778 -856 
Q 2344 -856 2625 -561 
Q 2906 -266 2906 331 
L 2906 616 
Q 2728 306 2450 153 
Q 2172 0 1784 0 
Q 1141 0 747 490 
Q 353 981 353 1791 
Q 353 2603 747 3093 
Q 1141 3584 1784 3584 
Q 2172 3584 2450 3431 
Q 2728 3278 2906 2969 
L 2906 3500 
L 3481 3500 
L 3481 434 
z
" id="DejaVuSans-67" transform="scale(0.015625)"/>
       <path d="M 2834 3397 
L 2834 2853 
Q 2591 2978 2328 3040 
Q 2066 3103 1784 3103 
Q 1356 3103 1142 2972 
Q 928 2841 928 2578 
Q 928 2378 1081 2264 
Q 1234 2150 1697 2047 
L 1894 2003 
Q 2506 1872 2764 1633 
Q 3022 1394 3022 966 
Q 3022 478 2636 193 
Q 2250 -91 1575 -91 
Q 1294 -91 989 -36 
Q 684 19 347 128 
L 347 722 
Q 666 556 975 473 
Q 1284 391 1588 391 
Q 1994 391 2212 530 
Q 2431 669 2431 922 
Q 2431 1156 2273 1281 
Q 2116 1406 1581 1522 
L 1381 1569 
Q 847 1681 609 1914 
Q 372 2147 372 2553 
Q 372 3047 722 3315 
Q 1072 3584 1716 3584 
Q 2034 3584 2315 3537 
Q 2597 3491 2834 3397 
z
" id="DejaVuSans-73" transform="scale(0.015625)"/>
      </defs>
      <use xlink:href="#DejaVuSans-54"/>
      <use x="46.333984" xlink:href="#DejaVuSans-72"/>
      <use x="87.447266" xlink:href="#DejaVuSans-61"/>
      <use x="148.726562" xlink:href="#DejaVuSans-69"/>
      <use x="176.509766" xlink:href="#DejaVuSans-6e"/>
      <use x="239.888672" xlink:href="#DejaVuSans-69"/>
      <use x="267.671875" xlink:href="#DejaVuSans-6e"/>
      <use x="331.050781" xlink:href="#DejaVuSans-67"/>
      <use x="394.527344" xlink:href="#DejaVuSans-20"/>
      <use x="426.314453" xlink:href="#DejaVuSans-70"/>
      <use x="489.791016" xlink:href="#DejaVuSans-6f"/>
      <use x="550.972656" xlink:href="#DejaVuSans-69"/>
      <use x="578.755859" xlink:href="#DejaVuSans-6e"/>
      <use x="642.134766" xlink:href="#DejaVuSans-74"/>
      <use x="681.34375" xlink:href="#DejaVuSans-73"/>
     </g>
    </g>
   </g>
  </g>
 </g>
 <defs>
  <clipPath id="p217de0508b">
   <rect height="217.44" width="334.8" x="54" y="34.56"/>
  </clipPath>
 </defs>
</svg>
