<?xml version="1.0" encoding="utf-8" standalone="no"?>
<!DOCTYPE svg PUBLIC "-//W3C//DTD SVG 1.1//EN"
  "http://www.w3.org/Graphics/SVG/1.1/DTD/svg11.dtd">
<!-- Created with matplotlib (https://matplotlib.org/) -->
<svg height="432pt" version="1.1" viewBox="0 0 576 432" width="576pt" xmlns="http://www.w3.org/2000/svg" xmlns:xlink="http://www.w3.org/1999/xlink">
 <metadata>
  <rdf:RDF xmlns:cc="http://creativecommons.org/ns#" xmlns:dc="http://purl.org/dc/elements/1.1/" xmlns:rdf="http://www.w3.org/1999/02/22-rdf-syntax-ns#">
   <cc:Work>
    <dc:type rdf:resource="http://purl.org/dc/dcmitype/StillImage"/>
    <dc:date>2022-02-01T12:21:24.928888</dc:date>
    <dc:format>image/svg+xml</dc:format>
    <dc:creator>
     <cc:Agent>
      <dc:title>Matplotlib v3.3.4, https://matplotlib.org/</dc:title>
     </cc:Agent>
    </dc:creator>
   </cc:Work>
  </rdf:RDF>
 </metadata>
 <defs>
  <style type="text/css">*{stroke-linecap:butt;stroke-linejoin:round;}</style>
 </defs>
 <g id="figure_1">
  <g id="patch_1">
   <path d="M 0 432 
L 576 432 
L 576 0 
L 0 0 
z
" style="fill:none;"/>
  </g>
  <g id="axes_1">
   <g id="patch_2">
    <path d="M 72 378 
L 518.4 378 
L 518.4 51.84 
L 72 51.84 
z
" style="fill:#ffffff;"/>
   </g>
   <g id="PathCollection_1">
    <defs>
     <path d="M 0 3 
C 0.795609 3 1.55874 2.683901 2.12132 2.12132 
C 2.683901 1.55874 3 0.795609 3 0 
C 3 -0.795609 2.683901 -1.55874 2.12132 -2.12132 
C 1.55874 -2.683901 0.795609 -3 0 -3 
C -0.795609 -3 -1.55874 -2.683901 -2.12132 -2.12132 
C -2.683901 -1.55874 -3 -0.795609 -3 0 
C -3 0.795609 -2.683901 1.55874 -2.12132 2.12132 
C -1.55874 2.683901 -0.795609 3 0 3 
z
" id="m9cbb4a161f" style="stroke:#1f77b4;"/>
    </defs>
    <g clip-path="url(#p029c1d620d)">
     <use style="fill:#1f77b4;stroke:#1f77b4;" x="100.913655" xlink:href="#m9cbb4a161f" y="294.721574"/>
     <use style="fill:#1f77b4;stroke:#1f77b4;" x="152.927857" xlink:href="#m9cbb4a161f" y="172.934646"/>
     <use style="fill:#1f77b4;stroke:#1f77b4;" x="138.84187" xlink:href="#m9cbb4a161f" y="190.716242"/>
     <use style="fill:#1f77b4;stroke:#1f77b4;" x="129.562356" xlink:href="#m9cbb4a161f" y="233.4027"/>
     <use style="fill:#1f77b4;stroke:#1f77b4;" x="123.580436" xlink:href="#m9cbb4a161f" y="228.449635"/>
     <use style="fill:#1f77b4;stroke:#1f77b4;" x="114.573905" xlink:href="#m9cbb4a161f" y="264.870011"/>
     <use style="fill:#1f77b4;stroke:#1f77b4;" x="146.622678" xlink:href="#m9cbb4a161f" y="165.968331"/>
     <use style="fill:#1f77b4;stroke:#1f77b4;" x="124.456477" xlink:href="#m9cbb4a161f" y="208.113918"/>
     <use style="fill:#1f77b4;stroke:#1f77b4;" x="115.190811" xlink:href="#m9cbb4a161f" y="244.733549"/>
     <use style="fill:#1f77b4;stroke:#1f77b4;" x="155.730137" xlink:href="#m9cbb4a161f" y="184.093386"/>
     <use style="fill:#1f77b4;stroke:#1f77b4;" x="141.02041" xlink:href="#m9cbb4a161f" y="200.140549"/>
     <use style="fill:#1f77b4;stroke:#1f77b4;" x="102.286921" xlink:href="#m9cbb4a161f" y="304.243407"/>
     <use style="fill:#1f77b4;stroke:#1f77b4;" x="123.976447" xlink:href="#m9cbb4a161f" y="217.345385"/>
     <use style="fill:#1f77b4;stroke:#1f77b4;" x="171.598507" xlink:href="#m9cbb4a161f" y="158.241027"/>
     <use style="fill:#1f77b4;stroke:#1f77b4;" x="130.323584" xlink:href="#m9cbb4a161f" y="246.176887"/>
     <use style="fill:#1f77b4;stroke:#1f77b4;" x="103.688137" xlink:href="#m9cbb4a161f" y="285.343709"/>
     <use style="fill:#1f77b4;stroke:#1f77b4;" x="95.707706" xlink:href="#m9cbb4a161f" y="363.174545"/>
     <use style="fill:#1f77b4;stroke:#1f77b4;" x="151.506289" xlink:href="#m9cbb4a161f" y="196.950988"/>
     <use style="fill:#1f77b4;stroke:#1f77b4;" x="142.363569" xlink:href="#m9cbb4a161f" y="211.92685"/>
     <use style="fill:#1f77b4;stroke:#1f77b4;" x="165.720633" xlink:href="#m9cbb4a161f" y="157.426131"/>
     <use style="fill:#1f77b4;stroke:#1f77b4;" x="142.935272" xlink:href="#m9cbb4a161f" y="169.577679"/>
     <use style="fill:#1f77b4;stroke:#1f77b4;" x="113.445808" xlink:href="#m9cbb4a161f" y="263.297009"/>
     <use style="fill:#1f77b4;stroke:#1f77b4;" x="137.475567" xlink:href="#m9cbb4a161f" y="219.810229"/>
     <use style="fill:#1f77b4;stroke:#1f77b4;" x="125.230213" xlink:href="#m9cbb4a161f" y="232.079362"/>
     <use style="fill:#1f77b4;stroke:#1f77b4;" x="103.81703" xlink:href="#m9cbb4a161f" y="290.701433"/>
     <use style="fill:#1f77b4;stroke:#1f77b4;" x="139.283817" xlink:href="#m9cbb4a161f" y="209.746671"/>
     <use style="fill:#1f77b4;stroke:#1f77b4;" x="135.116776" xlink:href="#m9cbb4a161f" y="202.103249"/>
     <use style="fill:#1f77b4;stroke:#1f77b4;" x="168.635889" xlink:href="#m9cbb4a161f" y="161.547353"/>
     <use style="fill:#1f77b4;stroke:#1f77b4;" x="170.288032" xlink:href="#m9cbb4a161f" y="168.52997"/>
     <use style="fill:#1f77b4;stroke:#1f77b4;" x="172.366709" xlink:href="#m9cbb4a161f" y="163.475115"/>
     <use style="fill:#1f77b4;stroke:#1f77b4;" x="264.374627" xlink:href="#m9cbb4a161f" y="171.203071"/>
     <use style="fill:#1f77b4;stroke:#1f77b4;" x="258.929345" xlink:href="#m9cbb4a161f" y="179.082076"/>
     <use style="fill:#1f77b4;stroke:#1f77b4;" x="264.976296" xlink:href="#m9cbb4a161f" y="181.774212"/>
     <use style="fill:#1f77b4;stroke:#1f77b4;" x="283.076507" xlink:href="#m9cbb4a161f" y="194.158432"/>
     <use style="fill:#1f77b4;stroke:#1f77b4;" x="263.01107" xlink:href="#m9cbb4a161f" y="163.614408"/>
     <use style="fill:#1f77b4;stroke:#1f77b4;" x="288.720793" xlink:href="#m9cbb4a161f" y="219.04233"/>
     <use style="fill:#1f77b4;stroke:#1f77b4;" x="269.059076" xlink:href="#m9cbb4a161f" y="194.345669"/>
     <use style="fill:#1f77b4;stroke:#1f77b4;" x="275.887704" xlink:href="#m9cbb4a161f" y="165.966116"/>
     <use style="fill:#1f77b4;stroke:#1f77b4;" x="281.872575" xlink:href="#m9cbb4a161f" y="176.2223"/>
     <use style="fill:#1f77b4;stroke:#1f77b4;" x="292.954826" xlink:href="#m9cbb4a161f" y="215.929728"/>
     <use style="fill:#1f77b4;stroke:#1f77b4;" x="257.701867" xlink:href="#m9cbb4a161f" y="153.490307"/>
     <use style="fill:#1f77b4;stroke:#1f77b4;" x="285.35961" xlink:href="#m9cbb4a161f" y="188.886833"/>
     <use style="fill:#1f77b4;stroke:#1f77b4;" x="270.855043" xlink:href="#m9cbb4a161f" y="204.588031"/>
     <use style="fill:#1f77b4;stroke:#1f77b4;" x="276.772098" xlink:href="#m9cbb4a161f" y="163.422643"/>
     <use style="fill:#1f77b4;stroke:#1f77b4;" x="257.438648" xlink:href="#m9cbb4a161f" y="176.763061"/>
     <use style="fill:#1f77b4;stroke:#1f77b4;" x="291.235597" xlink:href="#m9cbb4a161f" y="198.077768"/>
     <use style="fill:#1f77b4;stroke:#1f77b4;" x="286.61985" xlink:href="#m9cbb4a161f" y="202.381191"/>
     <use style="fill:#1f77b4;stroke:#1f77b4;" x="282.237082" xlink:href="#m9cbb4a161f" y="192.034587"/>
     <use style="fill:#1f77b4;stroke:#1f77b4;" x="284.878155" xlink:href="#m9cbb4a161f" y="206.405653"/>
     <use style="fill:#1f77b4;stroke:#1f77b4;" x="281.975949" xlink:href="#m9cbb4a161f" y="177.865529"/>
     <use style="fill:#1f77b4;stroke:#1f77b4;" x="310.440822" xlink:href="#m9cbb4a161f" y="232.899176"/>
     <use style="fill:#1f77b4;stroke:#1f77b4;" x="365.857367" xlink:href="#m9cbb4a161f" y="186.140229"/>
     <use style="fill:#1f77b4;stroke:#1f77b4;" x="332.377241" xlink:href="#m9cbb4a161f" y="228.274198"/>
     <use style="fill:#1f77b4;stroke:#1f77b4;" x="348.508534" xlink:href="#m9cbb4a161f" y="211.082252"/>
     <use style="fill:#1f77b4;stroke:#1f77b4;" x="308.619104" xlink:href="#m9cbb4a161f" y="218.082169"/>
     <use style="fill:#1f77b4;stroke:#1f77b4;" x="328.680219" xlink:href="#m9cbb4a161f" y="212.05074"/>
     <use style="fill:#1f77b4;stroke:#1f77b4;" x="360.639244" xlink:href="#m9cbb4a161f" y="203.771938"/>
     <use style="fill:#1f77b4;stroke:#1f77b4;" x="354.969534" xlink:href="#m9cbb4a161f" y="199.658875"/>
     <use style="fill:#1f77b4;stroke:#1f77b4;" x="301.422457" xlink:href="#m9cbb4a161f" y="188.44657"/>
     <use style="fill:#1f77b4;stroke:#1f77b4;" x="358.268909" xlink:href="#m9cbb4a161f" y="217.627326"/>
     <use style="fill:#1f77b4;stroke:#1f77b4;" x="437.899653" xlink:href="#m9cbb4a161f" y="215.042268"/>
     <use style="fill:#1f77b4;stroke:#1f77b4;" x="448.869624" xlink:href="#m9cbb4a161f" y="206.414154"/>
     <use style="fill:#1f77b4;stroke:#1f77b4;" x="445.324365" xlink:href="#m9cbb4a161f" y="220.439327"/>
     <use style="fill:#1f77b4;stroke:#1f77b4;" x="422.974194" xlink:href="#m9cbb4a161f" y="234.614571"/>
     <use style="fill:#1f77b4;stroke:#1f77b4;" x="444.469611" xlink:href="#m9cbb4a161f" y="225.955111"/>
     <use style="fill:#1f77b4;stroke:#1f77b4;" x="427.654458" xlink:href="#m9cbb4a161f" y="222.14916"/>
     <use style="fill:#1f77b4;stroke:#1f77b4;" x="427.659452" xlink:href="#m9cbb4a161f" y="228.565257"/>
     <use style="fill:#1f77b4;stroke:#1f77b4;" x="451.758851" xlink:href="#m9cbb4a161f" y="190.268442"/>
     <use style="fill:#1f77b4;stroke:#1f77b4;" x="421.966699" xlink:href="#m9cbb4a161f" y="225.700496"/>
     <use style="fill:#1f77b4;stroke:#1f77b4;" x="447.222767" xlink:href="#m9cbb4a161f" y="215.281208"/>
     <use style="fill:#1f77b4;stroke:#1f77b4;" x="496.81444" xlink:href="#m9cbb4a161f" y="66.665455"/>
     <use style="fill:#1f77b4;stroke:#1f77b4;" x="487.702666" xlink:href="#m9cbb4a161f" y="99.010232"/>
     <use style="fill:#1f77b4;stroke:#1f77b4;" x="464.202698" xlink:href="#m9cbb4a161f" y="186.276429"/>
     <use style="fill:#1f77b4;stroke:#1f77b4;" x="490.606294" xlink:href="#m9cbb4a161f" y="120.44364"/>
     <use style="fill:#1f77b4;stroke:#1f77b4;" x="487.185643" xlink:href="#m9cbb4a161f" y="104.562318"/>
     <use style="fill:#1f77b4;stroke:#1f77b4;" x="497.903869" xlink:href="#m9cbb4a161f" y="67.932494"/>
     <use style="fill:#1f77b4;stroke:#1f77b4;" x="498.109091" xlink:href="#m9cbb4a161f" y="73.357484"/>
     <use style="fill:#1f77b4;stroke:#1f77b4;" x="478.686661" xlink:href="#m9cbb4a161f" y="158.285122"/>
     <use style="fill:#1f77b4;stroke:#1f77b4;" x="485.019314" xlink:href="#m9cbb4a161f" y="116.02064"/>
     <use style="fill:#1f77b4;stroke:#1f77b4;" x="469.281641" xlink:href="#m9cbb4a161f" y="183.291878"/>
     <use style="fill:#1f77b4;stroke:#1f77b4;" x="484.075565" xlink:href="#m9cbb4a161f" y="135.748577"/>
     <use style="fill:#1f77b4;stroke:#1f77b4;" x="493.004416" xlink:href="#m9cbb4a161f" y="86.430207"/>
     <use style="fill:#1f77b4;stroke:#1f77b4;" x="481.491674" xlink:href="#m9cbb4a161f" y="143.344205"/>
     <use style="fill:#1f77b4;stroke:#1f77b4;" x="459.301016" xlink:href="#m9cbb4a161f" y="192.877585"/>
     <use style="fill:#1f77b4;stroke:#1f77b4;" x="480.909385" xlink:href="#m9cbb4a161f" y="127.395363"/>
     <use style="fill:#1f77b4;stroke:#1f77b4;" x="473.342183" xlink:href="#m9cbb4a161f" y="139.327701"/>
     <use style="fill:#1f77b4;stroke:#1f77b4;" x="497.409328" xlink:href="#m9cbb4a161f" y="86.674371"/>
     <use style="fill:#1f77b4;stroke:#1f77b4;" x="474.262816" xlink:href="#m9cbb4a161f" y="156.685477"/>
     <use style="fill:#1f77b4;stroke:#1f77b4;" x="459.898371" xlink:href="#m9cbb4a161f" y="171.368279"/>
     <use style="fill:#1f77b4;stroke:#1f77b4;" x="494.635876" xlink:href="#m9cbb4a161f" y="99.734461"/>
     <use style="fill:#1f77b4;stroke:#1f77b4;" x="464.201796" xlink:href="#m9cbb4a161f" y="170.776694"/>
     <use style="fill:#1f77b4;stroke:#1f77b4;" x="484.323561" xlink:href="#m9cbb4a161f" y="124.393559"/>
     <use style="fill:#1f77b4;stroke:#1f77b4;" x="462.418711" xlink:href="#m9cbb4a161f" y="179.78348"/>
     <use style="fill:#1f77b4;stroke:#1f77b4;" x="494.576482" xlink:href="#m9cbb4a161f" y="87.353252"/>
     <use style="fill:#1f77b4;stroke:#1f77b4;" x="461.067245" xlink:href="#m9cbb4a161f" y="210.518169"/>
     <use style="fill:#1f77b4;stroke:#1f77b4;" x="488.686943" xlink:href="#m9cbb4a161f" y="103.507497"/>
     <use style="fill:#1f77b4;stroke:#1f77b4;" x="476.837006" xlink:href="#m9cbb4a161f" y="164.606536"/>
     <use style="fill:#1f77b4;stroke:#1f77b4;" x="480.608387" xlink:href="#m9cbb4a161f" y="137.466563"/>
     <use style="fill:#1f77b4;stroke:#1f77b4;" x="484.773472" xlink:href="#m9cbb4a161f" y="121.233704"/>
     <use style="fill:#1f77b4;stroke:#1f77b4;" x="490.150038" xlink:href="#m9cbb4a161f" y="82.446881"/>
    </g>
   </g>
   <g id="PathCollection_2">
    <defs>
     <path d="M 0 3 
C 0.795609 3 1.55874 2.683901 2.12132 2.12132 
C 2.683901 1.55874 3 0.795609 3 0 
C 3 -0.795609 2.683901 -1.55874 2.12132 -2.12132 
C 1.55874 -2.683901 0.795609 -3 0 -3 
C -0.795609 -3 -1.55874 -2.683901 -2.12132 -2.12132 
C -2.683901 -1.55874 -3 -0.795609 -3 0 
C -3 0.795609 -2.683901 1.55874 -2.12132 2.12132 
C -1.55874 2.683901 -0.795609 3 0 3 
z
" id="m6a95581372" style="stroke:#ffd700;"/>
    </defs>
    <g clip-path="url(#p029c1d620d)">
     <use style="fill:#ffd700;stroke:#ffd700;" x="270.307974" xlink:href="#m6a95581372" y="182.928221"/>
     <use style="fill:#ffd700;stroke:#ffd700;" x="483.300477" xlink:href="#m6a95581372" y="127.314857"/>
     <use style="fill:#ffd700;stroke:#ffd700;" x="467.83959" xlink:href="#m6a95581372" y="169.531788"/>
     <use style="fill:#ffd700;stroke:#ffd700;" x="110.347983" xlink:href="#m6a95581372" y="278.181035"/>
     <use style="fill:#ffd700;stroke:#ffd700;" x="413.392405" xlink:href="#m6a95581372" y="223.893086"/>
     <use style="fill:#ffd700;stroke:#ffd700;" x="96.510046" xlink:href="#m6a95581372" y="327.735305"/>
     <use style="fill:#ffd700;stroke:#ffd700;" x="217.370718" xlink:href="#m6a95581372" y="143.196813"/>
     <use style="fill:#ffd700;stroke:#ffd700;" x="167.58513" xlink:href="#m6a95581372" y="163.055643"/>
     <use style="fill:#ffd700;stroke:#ffd700;" x="360.499864" xlink:href="#m6a95581372" y="188.820417"/>
     <use style="fill:#ffd700;stroke:#ffd700;" x="283.127718" xlink:href="#m6a95581372" y="192.992144"/>
     <use style="fill:#ffd700;stroke:#ffd700;" x="307.350137" xlink:href="#m6a95581372" y="212.363564"/>
     <use style="fill:#ffd700;stroke:#ffd700;" x="160.856941" xlink:href="#m6a95581372" y="172.169508"/>
     <use style="fill:#ffd700;stroke:#ffd700;" x="96.298213" xlink:href="#m6a95581372" y="327.123288"/>
     <use style="fill:#ffd700;stroke:#ffd700;" x="376.321628" xlink:href="#m6a95581372" y="185.903298"/>
     <use style="fill:#ffd700;stroke:#ffd700;" x="275.822511" xlink:href="#m6a95581372" y="188.864698"/>
     <use style="fill:#ffd700;stroke:#ffd700;" x="400.072883" xlink:href="#m6a95581372" y="199.311363"/>
     <use style="fill:#ffd700;stroke:#ffd700;" x="451.894241" xlink:href="#m6a95581372" y="203.798945"/>
     <use style="fill:#ffd700;stroke:#ffd700;" x="481.068768" xlink:href="#m6a95581372" y="132.541524"/>
     <use style="fill:#ffd700;stroke:#ffd700;" x="210.101066" xlink:href="#m6a95581372" y="151.847623"/>
     <use style="fill:#ffd700;stroke:#ffd700;" x="241.461425" xlink:href="#m6a95581372" y="161.628776"/>
     <use style="fill:#ffd700;stroke:#ffd700;" x="178.828474" xlink:href="#m6a95581372" y="152.738162"/>
     <use style="fill:#ffd700;stroke:#ffd700;" x="175.874241" xlink:href="#m6a95581372" y="161.505765"/>
     <use style="fill:#ffd700;stroke:#ffd700;" x="268.021502" xlink:href="#m6a95581372" y="179.672112"/>
     <use style="fill:#ffd700;stroke:#ffd700;" x="374.590159" xlink:href="#m6a95581372" y="184.736959"/>
     <use style="fill:#ffd700;stroke:#ffd700;" x="481.032868" xlink:href="#m6a95581372" y="138.844779"/>
     <use style="fill:#ffd700;stroke:#ffd700;" x="388.415761" xlink:href="#m6a95581372" y="194.209693"/>
     <use style="fill:#ffd700;stroke:#ffd700;" x="369.369301" xlink:href="#m6a95581372" y="190.107783"/>
     <use style="fill:#ffd700;stroke:#ffd700;" x="256.064536" xlink:href="#m6a95581372" y="167.401417"/>
     <use style="fill:#ffd700;stroke:#ffd700;" x="182.010315" xlink:href="#m6a95581372" y="156.62961"/>
     <use style="fill:#ffd700;stroke:#ffd700;" x="329.995605" xlink:href="#m6a95581372" y="215.501063"/>
     <use style="fill:#ffd700;stroke:#ffd700;" x="174.489365" xlink:href="#m6a95581372" y="162.883381"/>
     <use style="fill:#ffd700;stroke:#ffd700;" x="118.092155" xlink:href="#m6a95581372" y="252.081916"/>
     <use style="fill:#ffd700;stroke:#ffd700;" x="375.451468" xlink:href="#m6a95581372" y="183.112573"/>
     <use style="fill:#ffd700;stroke:#ffd700;" x="143.222424" xlink:href="#m6a95581372" y="201.632471"/>
     <use style="fill:#ffd700;stroke:#ffd700;" x="225.032841" xlink:href="#m6a95581372" y="150.10488"/>
     <use style="fill:#ffd700;stroke:#ffd700;" x="274.614561" xlink:href="#m6a95581372" y="184.365329"/>
     <use style="fill:#ffd700;stroke:#ffd700;" x="345.278062" xlink:href="#m6a95581372" y="208.572033"/>
     <use style="fill:#ffd700;stroke:#ffd700;" x="436.060156" xlink:href="#m6a95581372" y="229.390869"/>
     <use style="fill:#ffd700;stroke:#ffd700;" x="372.136314" xlink:href="#m6a95581372" y="189.764805"/>
     <use style="fill:#ffd700;stroke:#ffd700;" x="188.519038" xlink:href="#m6a95581372" y="149.774362"/>
     <use style="fill:#ffd700;stroke:#ffd700;" x="235.493778" xlink:href="#m6a95581372" y="159.419129"/>
     <use style="fill:#ffd700;stroke:#ffd700;" x="204.586996" xlink:href="#m6a95581372" y="146.173265"/>
     <use style="fill:#ffd700;stroke:#ffd700;" x="295.356142" xlink:href="#m6a95581372" y="201.706847"/>
     <use style="fill:#ffd700;stroke:#ffd700;" x="93.834125" xlink:href="#m6a95581372" y="331.946442"/>
     <use style="fill:#ffd700;stroke:#ffd700;" x="400.251378" xlink:href="#m6a95581372" y="209.954889"/>
     <use style="fill:#ffd700;stroke:#ffd700;" x="247.500911" xlink:href="#m6a95581372" y="163.468812"/>
     <use style="fill:#ffd700;stroke:#ffd700;" x="306.413164" xlink:href="#m6a95581372" y="216.907008"/>
     <use style="fill:#ffd700;stroke:#ffd700;" x="368.085403" xlink:href="#m6a95581372" y="186.465209"/>
     <use style="fill:#ffd700;stroke:#ffd700;" x="331.939983" xlink:href="#m6a95581372" y="218.40979"/>
     <use style="fill:#ffd700;stroke:#ffd700;" x="458.351817" xlink:href="#m6a95581372" y="192.674813"/>
     <use style="fill:#ffd700;stroke:#ffd700;" x="175.340115" xlink:href="#m6a95581372" y="159.745011"/>
     <use style="fill:#ffd700;stroke:#ffd700;" x="352.041878" xlink:href="#m6a95581372" y="200.578892"/>
     <use style="fill:#ffd700;stroke:#ffd700;" x="407.101781" xlink:href="#m6a95581372" y="214.028288"/>
     <use style="fill:#ffd700;stroke:#ffd700;" x="301.965584" xlink:href="#m6a95581372" y="210.986198"/>
     <use style="fill:#ffd700;stroke:#ffd700;" x="133.242791" xlink:href="#m6a95581372" y="217.790331"/>
     <use style="fill:#ffd700;stroke:#ffd700;" x="378.92285" xlink:href="#m6a95581372" y="185.909105"/>
     <use style="fill:#ffd700;stroke:#ffd700;" x="335.904052" xlink:href="#m6a95581372" y="215.169351"/>
     <use style="fill:#ffd700;stroke:#ffd700;" x="392.656704" xlink:href="#m6a95581372" y="197.027926"/>
     <use style="fill:#ffd700;stroke:#ffd700;" x="163.057135" xlink:href="#m6a95581372" y="169.954485"/>
     <use style="fill:#ffd700;stroke:#ffd700;" x="403.197608" xlink:href="#m6a95581372" y="214.789951"/>
     <use style="fill:#ffd700;stroke:#ffd700;" x="306.515306" xlink:href="#m6a95581372" y="213.421783"/>
     <use style="fill:#ffd700;stroke:#ffd700;" x="491.737" xlink:href="#m6a95581372" y="97.5759"/>
     <use style="fill:#ffd700;stroke:#ffd700;" x="485.002432" xlink:href="#m6a95581372" y="124.527081"/>
     <use style="fill:#ffd700;stroke:#ffd700;" x="92.290909" xlink:href="#m6a95581372" y="343.038315"/>
     <use style="fill:#ffd700;stroke:#ffd700;" x="406.284156" xlink:href="#m6a95581372" y="213.603728"/>
     <use style="fill:#ffd700;stroke:#ffd700;" x="238.331218" xlink:href="#m6a95581372" y="157.680571"/>
     <use style="fill:#ffd700;stroke:#ffd700;" x="210.461278" xlink:href="#m6a95581372" y="143.09294"/>
     <use style="fill:#ffd700;stroke:#ffd700;" x="166.004297" xlink:href="#m6a95581372" y="169.667768"/>
     <use style="fill:#ffd700;stroke:#ffd700;" x="320.248433" xlink:href="#m6a95581372" y="221.423521"/>
     <use style="fill:#ffd700;stroke:#ffd700;" x="437.000026" xlink:href="#m6a95581372" y="226.29619"/>
     <use style="fill:#ffd700;stroke:#ffd700;" x="494.747769" xlink:href="#m6a95581372" y="90.059021"/>
     <use style="fill:#ffd700;stroke:#ffd700;" x="96.269064" xlink:href="#m6a95581372" y="327.630437"/>
     <use style="fill:#ffd700;stroke:#ffd700;" x="384.493919" xlink:href="#m6a95581372" y="190.797463"/>
     <use style="fill:#ffd700;stroke:#ffd700;" x="318.46233" xlink:href="#m6a95581372" y="221.239464"/>
     <use style="fill:#ffd700;stroke:#ffd700;" x="375.069897" xlink:href="#m6a95581372" y="184.229617"/>
     <use style="fill:#ffd700;stroke:#ffd700;" x="366.125744" xlink:href="#m6a95581372" y="184.576893"/>
     <use style="fill:#ffd700;stroke:#ffd700;" x="226.789657" xlink:href="#m6a95581372" y="153.650867"/>
     <use style="fill:#ffd700;stroke:#ffd700;" x="368.497811" xlink:href="#m6a95581372" y="187.508381"/>
     <use style="fill:#ffd700;stroke:#ffd700;" x="259.571874" xlink:href="#m6a95581372" y="173.051839"/>
     <use style="fill:#ffd700;stroke:#ffd700;" x="232.98952" xlink:href="#m6a95581372" y="152.101827"/>
     <use style="fill:#ffd700;stroke:#ffd700;" x="475.826742" xlink:href="#m6a95581372" y="157.069955"/>
     <use style="fill:#ffd700;stroke:#ffd700;" x="391.1773" xlink:href="#m6a95581372" y="197.095946"/>
     <use style="fill:#ffd700;stroke:#ffd700;" x="191.849998" xlink:href="#m6a95581372" y="148.364311"/>
     <use style="fill:#ffd700;stroke:#ffd700;" x="474.719223" xlink:href="#m6a95581372" y="156.868729"/>
     <use style="fill:#ffd700;stroke:#ffd700;" x="114.272471" xlink:href="#m6a95581372" y="266.588959"/>
     <use style="fill:#ffd700;stroke:#ffd700;" x="118.585719" xlink:href="#m6a95581372" y="252.009941"/>
     <use style="fill:#ffd700;stroke:#ffd700;" x="239.705093" xlink:href="#m6a95581372" y="158.940071"/>
     <use style="fill:#ffd700;stroke:#ffd700;" x="124.59267" xlink:href="#m6a95581372" y="242.692267"/>
     <use style="fill:#ffd700;stroke:#ffd700;" x="135.478762" xlink:href="#m6a95581372" y="214.109924"/>
     <use style="fill:#ffd700;stroke:#ffd700;" x="130.57112" xlink:href="#m6a95581372" y="222.767937"/>
     <use style="fill:#ffd700;stroke:#ffd700;" x="460.530379" xlink:href="#m6a95581372" y="189.400921"/>
     <use style="fill:#ffd700;stroke:#ffd700;" x="185.308718" xlink:href="#m6a95581372" y="153.996208"/>
     <use style="fill:#ffd700;stroke:#ffd700;" x="468.00929" xlink:href="#m6a95581372" y="170.340066"/>
     <use style="fill:#ffd700;stroke:#ffd700;" x="177.644278" xlink:href="#m6a95581372" y="154.262797"/>
     <use style="fill:#ffd700;stroke:#ffd700;" x="298.391179" xlink:href="#m6a95581372" y="207.745513"/>
     <use style="fill:#ffd700;stroke:#ffd700;" x="213.126866" xlink:href="#m6a95581372" y="149.826603"/>
     <use style="fill:#ffd700;stroke:#ffd700;" x="308.420264" xlink:href="#m6a95581372" y="212.000995"/>
     <use style="fill:#ffd700;stroke:#ffd700;" x="169.200103" xlink:href="#m6a95581372" y="168.679482"/>
     <use style="fill:#ffd700;stroke:#ffd700;" x="286.968403" xlink:href="#m6a95581372" y="199.916759"/>
     <use style="fill:#ffd700;stroke:#ffd700;" x="451.930968" xlink:href="#m6a95581372" y="207.18257"/>
    </g>
   </g>
   <g id="matplotlib.axis_1">
    <g id="xtick_1">
     <g id="line2d_1">
      <defs>
       <path d="M 0 0 
L 0 3.5 
" id="m6c0f288538" style="stroke:#000000;stroke-width:0.8;"/>
      </defs>
      <g>
       <use style="stroke:#000000;stroke-width:0.8;" x="132.959336" xlink:href="#m6c0f288538" y="378"/>
      </g>
     </g>
     <g id="text_1">
      <!-- −4 -->
      <g transform="translate(125.588242 392.598437)scale(0.1 -0.1)">
       <defs>
        <path d="M 10.59375 35.5 
L 73.1875 35.5 
L 73.1875 27.203125 
L 10.59375 27.203125 
z
" id="DejaVuSans-8722"/>
        <path d="M 37.796875 64.3125 
L 12.890625 25.390625 
L 37.796875 25.390625 
z
M 35.203125 72.90625 
L 47.609375 72.90625 
L 47.609375 25.390625 
L 58.015625 25.390625 
L 58.015625 17.1875 
L 47.609375 17.1875 
L 47.609375 0 
L 37.796875 0 
L 37.796875 17.1875 
L 4.890625 17.1875 
L 4.890625 26.703125 
z
" id="DejaVuSans-52"/>
       </defs>
       <use xlink:href="#DejaVuSans-8722"/>
       <use x="83.789062" xlink:href="#DejaVuSans-52"/>
      </g>
     </g>
    </g>
    <g id="xtick_2">
     <g id="line2d_2">
      <g>
       <use style="stroke:#000000;stroke-width:0.8;" x="214.306953" xlink:href="#m6c0f288538" y="378"/>
      </g>
     </g>
     <g id="text_2">
      <!-- −2 -->
      <g transform="translate(206.93586 392.598437)scale(0.1 -0.1)">
       <defs>
        <path d="M 19.1875 8.296875 
L 53.609375 8.296875 
L 53.609375 0 
L 7.328125 0 
L 7.328125 8.296875 
Q 12.9375 14.109375 22.625 23.890625 
Q 32.328125 33.6875 34.8125 36.53125 
Q 39.546875 41.84375 41.421875 45.53125 
Q 43.3125 49.21875 43.3125 52.78125 
Q 43.3125 58.59375 39.234375 62.25 
Q 35.15625 65.921875 28.609375 65.921875 
Q 23.96875 65.921875 18.8125 64.3125 
Q 13.671875 62.703125 7.8125 59.421875 
L 7.8125 69.390625 
Q 13.765625 71.78125 18.9375 73 
Q 24.125 74.21875 28.421875 74.21875 
Q 39.75 74.21875 46.484375 68.546875 
Q 53.21875 62.890625 53.21875 53.421875 
Q 53.21875 48.921875 51.53125 44.890625 
Q 49.859375 40.875 45.40625 35.40625 
Q 44.1875 33.984375 37.640625 27.21875 
Q 31.109375 20.453125 19.1875 8.296875 
z
" id="DejaVuSans-50"/>
       </defs>
       <use xlink:href="#DejaVuSans-8722"/>
       <use x="83.789062" xlink:href="#DejaVuSans-50"/>
      </g>
     </g>
    </g>
    <g id="xtick_3">
     <g id="line2d_3">
      <g>
       <use style="stroke:#000000;stroke-width:0.8;" x="295.654571" xlink:href="#m6c0f288538" y="378"/>
      </g>
     </g>
     <g id="text_3">
      <!-- 0 -->
      <g transform="translate(292.473321 392.598437)scale(0.1 -0.1)">
       <defs>
        <path d="M 31.78125 66.40625 
Q 24.171875 66.40625 20.328125 58.90625 
Q 16.5 51.421875 16.5 36.375 
Q 16.5 21.390625 20.328125 13.890625 
Q 24.171875 6.390625 31.78125 6.390625 
Q 39.453125 6.390625 43.28125 13.890625 
Q 47.125 21.390625 47.125 36.375 
Q 47.125 51.421875 43.28125 58.90625 
Q 39.453125 66.40625 31.78125 66.40625 
z
M 31.78125 74.21875 
Q 44.046875 74.21875 50.515625 64.515625 
Q 56.984375 54.828125 56.984375 36.375 
Q 56.984375 17.96875 50.515625 8.265625 
Q 44.046875 -1.421875 31.78125 -1.421875 
Q 19.53125 -1.421875 13.0625 8.265625 
Q 6.59375 17.96875 6.59375 36.375 
Q 6.59375 54.828125 13.0625 64.515625 
Q 19.53125 74.21875 31.78125 74.21875 
z
" id="DejaVuSans-48"/>
       </defs>
       <use xlink:href="#DejaVuSans-48"/>
      </g>
     </g>
    </g>
    <g id="xtick_4">
     <g id="line2d_4">
      <g>
       <use style="stroke:#000000;stroke-width:0.8;" x="377.002188" xlink:href="#m6c0f288538" y="378"/>
      </g>
     </g>
     <g id="text_4">
      <!-- 2 -->
      <g transform="translate(373.820938 392.598437)scale(0.1 -0.1)">
       <use xlink:href="#DejaVuSans-50"/>
      </g>
     </g>
    </g>
    <g id="xtick_5">
     <g id="line2d_5">
      <g>
       <use style="stroke:#000000;stroke-width:0.8;" x="458.349806" xlink:href="#m6c0f288538" y="378"/>
      </g>
     </g>
     <g id="text_5">
      <!-- 4 -->
      <g transform="translate(455.168556 392.598437)scale(0.1 -0.1)">
       <use xlink:href="#DejaVuSans-52"/>
      </g>
     </g>
    </g>
    <g id="text_6">
     <!-- input -->
     <g transform="translate(282.339063 406.276563)scale(0.1 -0.1)">
      <defs>
       <path d="M 9.421875 54.6875 
L 18.40625 54.6875 
L 18.40625 0 
L 9.421875 0 
z
M 9.421875 75.984375 
L 18.40625 75.984375 
L 18.40625 64.59375 
L 9.421875 64.59375 
z
" id="DejaVuSans-105"/>
       <path d="M 54.890625 33.015625 
L 54.890625 0 
L 45.90625 0 
L 45.90625 32.71875 
Q 45.90625 40.484375 42.875 44.328125 
Q 39.84375 48.1875 33.796875 48.1875 
Q 26.515625 48.1875 22.3125 43.546875 
Q 18.109375 38.921875 18.109375 30.90625 
L 18.109375 0 
L 9.078125 0 
L 9.078125 54.6875 
L 18.109375 54.6875 
L 18.109375 46.1875 
Q 21.34375 51.125 25.703125 53.5625 
Q 30.078125 56 35.796875 56 
Q 45.21875 56 50.046875 50.171875 
Q 54.890625 44.34375 54.890625 33.015625 
z
" id="DejaVuSans-110"/>
       <path d="M 18.109375 8.203125 
L 18.109375 -20.796875 
L 9.078125 -20.796875 
L 9.078125 54.6875 
L 18.109375 54.6875 
L 18.109375 46.390625 
Q 20.953125 51.265625 25.265625 53.625 
Q 29.59375 56 35.59375 56 
Q 45.5625 56 51.78125 48.09375 
Q 58.015625 40.1875 58.015625 27.296875 
Q 58.015625 14.40625 51.78125 6.484375 
Q 45.5625 -1.421875 35.59375 -1.421875 
Q 29.59375 -1.421875 25.265625 0.953125 
Q 20.953125 3.328125 18.109375 8.203125 
z
M 48.6875 27.296875 
Q 48.6875 37.203125 44.609375 42.84375 
Q 40.53125 48.484375 33.40625 48.484375 
Q 26.265625 48.484375 22.1875 42.84375 
Q 18.109375 37.203125 18.109375 27.296875 
Q 18.109375 17.390625 22.1875 11.75 
Q 26.265625 6.109375 33.40625 6.109375 
Q 40.53125 6.109375 44.609375 11.75 
Q 48.6875 17.390625 48.6875 27.296875 
z
" id="DejaVuSans-112"/>
       <path d="M 8.5 21.578125 
L 8.5 54.6875 
L 17.484375 54.6875 
L 17.484375 21.921875 
Q 17.484375 14.15625 20.5 10.265625 
Q 23.53125 6.390625 29.59375 6.390625 
Q 36.859375 6.390625 41.078125 11.03125 
Q 45.3125 15.671875 45.3125 23.6875 
L 45.3125 54.6875 
L 54.296875 54.6875 
L 54.296875 0 
L 45.3125 0 
L 45.3125 8.40625 
Q 42.046875 3.421875 37.71875 1 
Q 33.40625 -1.421875 27.6875 -1.421875 
Q 18.265625 -1.421875 13.375 4.4375 
Q 8.5 10.296875 8.5 21.578125 
z
M 31.109375 56 
z
" id="DejaVuSans-117"/>
       <path d="M 18.3125 70.21875 
L 18.3125 54.6875 
L 36.8125 54.6875 
L 36.8125 47.703125 
L 18.3125 47.703125 
L 18.3125 18.015625 
Q 18.3125 11.328125 20.140625 9.421875 
Q 21.96875 7.515625 27.59375 7.515625 
L 36.8125 7.515625 
L 36.8125 0 
L 27.59375 0 
Q 17.1875 0 13.234375 3.875 
Q 9.28125 7.765625 9.28125 18.015625 
L 9.28125 47.703125 
L 2.6875 47.703125 
L 2.6875 54.6875 
L 9.28125 54.6875 
L 9.28125 70.21875 
z
" id="DejaVuSans-116"/>
      </defs>
      <use xlink:href="#DejaVuSans-105"/>
      <use x="27.783203" xlink:href="#DejaVuSans-110"/>
      <use x="91.162109" xlink:href="#DejaVuSans-112"/>
      <use x="154.638672" xlink:href="#DejaVuSans-117"/>
      <use x="218.017578" xlink:href="#DejaVuSans-116"/>
     </g>
    </g>
   </g>
   <g id="matplotlib.axis_2">
    <g id="ytick_1">
     <g id="line2d_6">
      <defs>
       <path d="M 0 0 
L -3.5 0 
" id="ma0f0a479f3" style="stroke:#000000;stroke-width:0.8;"/>
      </defs>
      <g>
       <use style="stroke:#000000;stroke-width:0.8;" x="72" xlink:href="#ma0f0a479f3" y="370.139448"/>
      </g>
     </g>
     <g id="text_7">
      <!-- −4 -->
      <g transform="translate(50.257812 373.938667)scale(0.1 -0.1)">
       <use xlink:href="#DejaVuSans-8722"/>
       <use x="83.789062" xlink:href="#DejaVuSans-52"/>
      </g>
     </g>
    </g>
    <g id="ytick_2">
     <g id="line2d_7">
      <g>
       <use style="stroke:#000000;stroke-width:0.8;" x="72" xlink:href="#ma0f0a479f3" y="315.944298"/>
      </g>
     </g>
     <g id="text_8">
      <!-- −2 -->
      <g transform="translate(50.257812 319.743516)scale(0.1 -0.1)">
       <use xlink:href="#DejaVuSans-8722"/>
       <use x="83.789062" xlink:href="#DejaVuSans-50"/>
      </g>
     </g>
    </g>
    <g id="ytick_3">
     <g id="line2d_8">
      <g>
       <use style="stroke:#000000;stroke-width:0.8;" x="72" xlink:href="#ma0f0a479f3" y="261.749147"/>
      </g>
     </g>
     <g id="text_9">
      <!-- 0 -->
      <g transform="translate(58.6375 265.548366)scale(0.1 -0.1)">
       <use xlink:href="#DejaVuSans-48"/>
      </g>
     </g>
    </g>
    <g id="ytick_4">
     <g id="line2d_9">
      <g>
       <use style="stroke:#000000;stroke-width:0.8;" x="72" xlink:href="#ma0f0a479f3" y="207.553996"/>
      </g>
     </g>
     <g id="text_10">
      <!-- 2 -->
      <g transform="translate(58.6375 211.353215)scale(0.1 -0.1)">
       <use xlink:href="#DejaVuSans-50"/>
      </g>
     </g>
    </g>
    <g id="ytick_5">
     <g id="line2d_10">
      <g>
       <use style="stroke:#000000;stroke-width:0.8;" x="72" xlink:href="#ma0f0a479f3" y="153.358846"/>
      </g>
     </g>
     <g id="text_11">
      <!-- 4 -->
      <g transform="translate(58.6375 157.158064)scale(0.1 -0.1)">
       <use xlink:href="#DejaVuSans-52"/>
      </g>
     </g>
    </g>
    <g id="ytick_6">
     <g id="line2d_11">
      <g>
       <use style="stroke:#000000;stroke-width:0.8;" x="72" xlink:href="#ma0f0a479f3" y="99.163695"/>
      </g>
     </g>
     <g id="text_12">
      <!-- 6 -->
      <g transform="translate(58.6375 102.962914)scale(0.1 -0.1)">
       <defs>
        <path d="M 33.015625 40.375 
Q 26.375 40.375 22.484375 35.828125 
Q 18.609375 31.296875 18.609375 23.390625 
Q 18.609375 15.53125 22.484375 10.953125 
Q 26.375 6.390625 33.015625 6.390625 
Q 39.65625 6.390625 43.53125 10.953125 
Q 47.40625 15.53125 47.40625 23.390625 
Q 47.40625 31.296875 43.53125 35.828125 
Q 39.65625 40.375 33.015625 40.375 
z
M 52.59375 71.296875 
L 52.59375 62.3125 
Q 48.875 64.0625 45.09375 64.984375 
Q 41.3125 65.921875 37.59375 65.921875 
Q 27.828125 65.921875 22.671875 59.328125 
Q 17.53125 52.734375 16.796875 39.40625 
Q 19.671875 43.65625 24.015625 45.921875 
Q 28.375 48.1875 33.59375 48.1875 
Q 44.578125 48.1875 50.953125 41.515625 
Q 57.328125 34.859375 57.328125 23.390625 
Q 57.328125 12.15625 50.6875 5.359375 
Q 44.046875 -1.421875 33.015625 -1.421875 
Q 20.359375 -1.421875 13.671875 8.265625 
Q 6.984375 17.96875 6.984375 36.375 
Q 6.984375 53.65625 15.1875 63.9375 
Q 23.390625 74.21875 37.203125 74.21875 
Q 40.921875 74.21875 44.703125 73.484375 
Q 48.484375 72.75 52.59375 71.296875 
z
" id="DejaVuSans-54"/>
       </defs>
       <use xlink:href="#DejaVuSans-54"/>
      </g>
     </g>
    </g>
    <g id="text_13">
     <!-- label -->
     <g transform="translate(44.178125 227.012969)rotate(-90)scale(0.1 -0.1)">
      <defs>
       <path d="M 9.421875 75.984375 
L 18.40625 75.984375 
L 18.40625 0 
L 9.421875 0 
z
" id="DejaVuSans-108"/>
       <path d="M 34.28125 27.484375 
Q 23.390625 27.484375 19.1875 25 
Q 14.984375 22.515625 14.984375 16.5 
Q 14.984375 11.71875 18.140625 8.90625 
Q 21.296875 6.109375 26.703125 6.109375 
Q 34.1875 6.109375 38.703125 11.40625 
Q 43.21875 16.703125 43.21875 25.484375 
L 43.21875 27.484375 
z
M 52.203125 31.203125 
L 52.203125 0 
L 43.21875 0 
L 43.21875 8.296875 
Q 40.140625 3.328125 35.546875 0.953125 
Q 30.953125 -1.421875 24.3125 -1.421875 
Q 15.921875 -1.421875 10.953125 3.296875 
Q 6 8.015625 6 15.921875 
Q 6 25.140625 12.171875 29.828125 
Q 18.359375 34.515625 30.609375 34.515625 
L 43.21875 34.515625 
L 43.21875 35.40625 
Q 43.21875 41.609375 39.140625 45 
Q 35.0625 48.390625 27.6875 48.390625 
Q 23 48.390625 18.546875 47.265625 
Q 14.109375 46.140625 10.015625 43.890625 
L 10.015625 52.203125 
Q 14.9375 54.109375 19.578125 55.046875 
Q 24.21875 56 28.609375 56 
Q 40.484375 56 46.34375 49.84375 
Q 52.203125 43.703125 52.203125 31.203125 
z
" id="DejaVuSans-97"/>
       <path d="M 48.6875 27.296875 
Q 48.6875 37.203125 44.609375 42.84375 
Q 40.53125 48.484375 33.40625 48.484375 
Q 26.265625 48.484375 22.1875 42.84375 
Q 18.109375 37.203125 18.109375 27.296875 
Q 18.109375 17.390625 22.1875 11.75 
Q 26.265625 6.109375 33.40625 6.109375 
Q 40.53125 6.109375 44.609375 11.75 
Q 48.6875 17.390625 48.6875 27.296875 
z
M 18.109375 46.390625 
Q 20.953125 51.265625 25.265625 53.625 
Q 29.59375 56 35.59375 56 
Q 45.5625 56 51.78125 48.09375 
Q 58.015625 40.1875 58.015625 27.296875 
Q 58.015625 14.40625 51.78125 6.484375 
Q 45.5625 -1.421875 35.59375 -1.421875 
Q 29.59375 -1.421875 25.265625 0.953125 
Q 20.953125 3.328125 18.109375 8.203125 
L 18.109375 0 
L 9.078125 0 
L 9.078125 75.984375 
L 18.109375 75.984375 
z
" id="DejaVuSans-98"/>
       <path d="M 56.203125 29.59375 
L 56.203125 25.203125 
L 14.890625 25.203125 
Q 15.484375 15.921875 20.484375 11.0625 
Q 25.484375 6.203125 34.421875 6.203125 
Q 39.59375 6.203125 44.453125 7.46875 
Q 49.3125 8.734375 54.109375 11.28125 
L 54.109375 2.78125 
Q 49.265625 0.734375 44.1875 -0.34375 
Q 39.109375 -1.421875 33.890625 -1.421875 
Q 20.796875 -1.421875 13.15625 6.1875 
Q 5.515625 13.8125 5.515625 26.8125 
Q 5.515625 40.234375 12.765625 48.109375 
Q 20.015625 56 32.328125 56 
Q 43.359375 56 49.78125 48.890625 
Q 56.203125 41.796875 56.203125 29.59375 
z
M 47.21875 32.234375 
Q 47.125 39.59375 43.09375 43.984375 
Q 39.0625 48.390625 32.421875 48.390625 
Q 24.90625 48.390625 20.390625 44.140625 
Q 15.875 39.890625 15.1875 32.171875 
z
" id="DejaVuSans-101"/>
      </defs>
      <use xlink:href="#DejaVuSans-108"/>
      <use x="27.783203" xlink:href="#DejaVuSans-97"/>
      <use x="89.0625" xlink:href="#DejaVuSans-98"/>
      <use x="152.539062" xlink:href="#DejaVuSans-101"/>
      <use x="214.0625" xlink:href="#DejaVuSans-108"/>
     </g>
    </g>
   </g>
   <g id="patch_3">
    <path d="M 72 378 
L 72 51.84 
" style="fill:none;stroke:#000000;stroke-linecap:square;stroke-linejoin:miter;stroke-width:0.8;"/>
   </g>
   <g id="patch_4">
    <path d="M 518.4 378 
L 518.4 51.84 
" style="fill:none;stroke:#000000;stroke-linecap:square;stroke-linejoin:miter;stroke-width:0.8;"/>
   </g>
   <g id="patch_5">
    <path d="M 72 378 
L 518.4 378 
" style="fill:none;stroke:#000000;stroke-linecap:square;stroke-linejoin:miter;stroke-width:0.8;"/>
   </g>
   <g id="patch_6">
    <path d="M 72 51.84 
L 518.4 51.84 
" style="fill:none;stroke:#000000;stroke-linecap:square;stroke-linejoin:miter;stroke-width:0.8;"/>
   </g>
   <g id="text_14">
    <!-- Data points -->
    <g transform="translate(260.539688 45.84)scale(0.12 -0.12)">
     <defs>
      <path d="M 19.671875 64.796875 
L 19.671875 8.109375 
L 31.59375 8.109375 
Q 46.6875 8.109375 53.6875 14.9375 
Q 60.6875 21.78125 60.6875 36.53125 
Q 60.6875 51.171875 53.6875 57.984375 
Q 46.6875 64.796875 31.59375 64.796875 
z
M 9.8125 72.90625 
L 30.078125 72.90625 
Q 51.265625 72.90625 61.171875 64.09375 
Q 71.09375 55.28125 71.09375 36.53125 
Q 71.09375 17.671875 61.125 8.828125 
Q 51.171875 0 30.078125 0 
L 9.8125 0 
z
" id="DejaVuSans-68"/>
      <path id="DejaVuSans-32"/>
      <path d="M 30.609375 48.390625 
Q 23.390625 48.390625 19.1875 42.75 
Q 14.984375 37.109375 14.984375 27.296875 
Q 14.984375 17.484375 19.15625 11.84375 
Q 23.34375 6.203125 30.609375 6.203125 
Q 37.796875 6.203125 41.984375 11.859375 
Q 46.1875 17.53125 46.1875 27.296875 
Q 46.1875 37.015625 41.984375 42.703125 
Q 37.796875 48.390625 30.609375 48.390625 
z
M 30.609375 56 
Q 42.328125 56 49.015625 48.375 
Q 55.71875 40.765625 55.71875 27.296875 
Q 55.71875 13.875 49.015625 6.21875 
Q 42.328125 -1.421875 30.609375 -1.421875 
Q 18.84375 -1.421875 12.171875 6.21875 
Q 5.515625 13.875 5.515625 27.296875 
Q 5.515625 40.765625 12.171875 48.375 
Q 18.84375 56 30.609375 56 
z
" id="DejaVuSans-111"/>
      <path d="M 44.28125 53.078125 
L 44.28125 44.578125 
Q 40.484375 46.53125 36.375 47.5 
Q 32.28125 48.484375 27.875 48.484375 
Q 21.1875 48.484375 17.84375 46.4375 
Q 14.5 44.390625 14.5 40.28125 
Q 14.5 37.15625 16.890625 35.375 
Q 19.28125 33.59375 26.515625 31.984375 
L 29.59375 31.296875 
Q 39.15625 29.25 43.1875 25.515625 
Q 47.21875 21.78125 47.21875 15.09375 
Q 47.21875 7.46875 41.1875 3.015625 
Q 35.15625 -1.421875 24.609375 -1.421875 
Q 20.21875 -1.421875 15.453125 -0.5625 
Q 10.6875 0.296875 5.421875 2 
L 5.421875 11.28125 
Q 10.40625 8.6875 15.234375 7.390625 
Q 20.0625 6.109375 24.8125 6.109375 
Q 31.15625 6.109375 34.5625 8.28125 
Q 37.984375 10.453125 37.984375 14.40625 
Q 37.984375 18.0625 35.515625 20.015625 
Q 33.0625 21.96875 24.703125 23.78125 
L 21.578125 24.515625 
Q 13.234375 26.265625 9.515625 29.90625 
Q 5.8125 33.546875 5.8125 39.890625 
Q 5.8125 47.609375 11.28125 51.796875 
Q 16.75 56 26.8125 56 
Q 31.78125 56 36.171875 55.265625 
Q 40.578125 54.546875 44.28125 53.078125 
z
" id="DejaVuSans-115"/>
     </defs>
     <use xlink:href="#DejaVuSans-68"/>
     <use x="77.001953" xlink:href="#DejaVuSans-97"/>
     <use x="138.28125" xlink:href="#DejaVuSans-116"/>
     <use x="177.490234" xlink:href="#DejaVuSans-97"/>
     <use x="238.769531" xlink:href="#DejaVuSans-32"/>
     <use x="270.556641" xlink:href="#DejaVuSans-112"/>
     <use x="334.033203" xlink:href="#DejaVuSans-111"/>
     <use x="395.214844" xlink:href="#DejaVuSans-105"/>
     <use x="422.998047" xlink:href="#DejaVuSans-110"/>
     <use x="486.376953" xlink:href="#DejaVuSans-116"/>
     <use x="525.585938" xlink:href="#DejaVuSans-115"/>
    </g>
   </g>
   <g id="legend_1">
    <g id="patch_7">
     <path d="M 79 89.19625 
L 184.342188 89.19625 
Q 186.342188 89.19625 186.342188 87.19625 
L 186.342188 58.84 
Q 186.342188 56.84 184.342188 56.84 
L 79 56.84 
Q 77 56.84 77 58.84 
L 77 87.19625 
Q 77 89.19625 79 89.19625 
z
" style="fill:#ffffff;opacity:0.8;stroke:#cccccc;stroke-linejoin:miter;"/>
    </g>
    <g id="PathCollection_3">
     <g>
      <use style="fill:#1f77b4;stroke:#1f77b4;" x="91" xlink:href="#m9cbb4a161f" y="65.813437"/>
     </g>
    </g>
    <g id="text_15">
     <!-- Training points -->
     <g transform="translate(109 68.438437)scale(0.1 -0.1)">
      <defs>
       <path d="M -0.296875 72.90625 
L 61.375 72.90625 
L 61.375 64.59375 
L 35.5 64.59375 
L 35.5 0 
L 25.59375 0 
L 25.59375 64.59375 
L -0.296875 64.59375 
z
" id="DejaVuSans-84"/>
       <path d="M 41.109375 46.296875 
Q 39.59375 47.171875 37.8125 47.578125 
Q 36.03125 48 33.890625 48 
Q 26.265625 48 22.1875 43.046875 
Q 18.109375 38.09375 18.109375 28.8125 
L 18.109375 0 
L 9.078125 0 
L 9.078125 54.6875 
L 18.109375 54.6875 
L 18.109375 46.1875 
Q 20.953125 51.171875 25.484375 53.578125 
Q 30.03125 56 36.53125 56 
Q 37.453125 56 38.578125 55.875 
Q 39.703125 55.765625 41.0625 55.515625 
z
" id="DejaVuSans-114"/>
       <path d="M 45.40625 27.984375 
Q 45.40625 37.75 41.375 43.109375 
Q 37.359375 48.484375 30.078125 48.484375 
Q 22.859375 48.484375 18.828125 43.109375 
Q 14.796875 37.75 14.796875 27.984375 
Q 14.796875 18.265625 18.828125 12.890625 
Q 22.859375 7.515625 30.078125 7.515625 
Q 37.359375 7.515625 41.375 12.890625 
Q 45.40625 18.265625 45.40625 27.984375 
z
M 54.390625 6.78125 
Q 54.390625 -7.171875 48.1875 -13.984375 
Q 42 -20.796875 29.203125 -20.796875 
Q 24.46875 -20.796875 20.265625 -20.09375 
Q 16.0625 -19.390625 12.109375 -17.921875 
L 12.109375 -9.1875 
Q 16.0625 -11.328125 19.921875 -12.34375 
Q 23.78125 -13.375 27.78125 -13.375 
Q 36.625 -13.375 41.015625 -8.765625 
Q 45.40625 -4.15625 45.40625 5.171875 
L 45.40625 9.625 
Q 42.625 4.78125 38.28125 2.390625 
Q 33.9375 0 27.875 0 
Q 17.828125 0 11.671875 7.65625 
Q 5.515625 15.328125 5.515625 27.984375 
Q 5.515625 40.671875 11.671875 48.328125 
Q 17.828125 56 27.875 56 
Q 33.9375 56 38.28125 53.609375 
Q 42.625 51.21875 45.40625 46.390625 
L 45.40625 54.6875 
L 54.390625 54.6875 
z
" id="DejaVuSans-103"/>
      </defs>
      <use xlink:href="#DejaVuSans-84"/>
      <use x="46.333984" xlink:href="#DejaVuSans-114"/>
      <use x="87.447266" xlink:href="#DejaVuSans-97"/>
      <use x="148.726562" xlink:href="#DejaVuSans-105"/>
      <use x="176.509766" xlink:href="#DejaVuSans-110"/>
      <use x="239.888672" xlink:href="#DejaVuSans-105"/>
      <use x="267.671875" xlink:href="#DejaVuSans-110"/>
      <use x="331.050781" xlink:href="#DejaVuSans-103"/>
      <use x="394.527344" xlink:href="#DejaVuSans-32"/>
      <use x="426.314453" xlink:href="#DejaVuSans-112"/>
      <use x="489.791016" xlink:href="#DejaVuSans-111"/>
      <use x="550.972656" xlink:href="#DejaVuSans-105"/>
      <use x="578.755859" xlink:href="#DejaVuSans-110"/>
      <use x="642.134766" xlink:href="#DejaVuSans-116"/>
      <use x="681.34375" xlink:href="#DejaVuSans-115"/>
     </g>
    </g>
    <g id="PathCollection_4">
     <g>
      <use style="fill:#ffd700;stroke:#ffd700;" x="91" xlink:href="#m6a95581372" y="80.491562"/>
     </g>
    </g>
    <g id="text_16">
     <!-- Testing points -->
     <g transform="translate(109 83.116562)scale(0.1 -0.1)">
      <use xlink:href="#DejaVuSans-84"/>
      <use x="44.083984" xlink:href="#DejaVuSans-101"/>
      <use x="105.607422" xlink:href="#DejaVuSans-115"/>
      <use x="157.707031" xlink:href="#DejaVuSans-116"/>
      <use x="196.916016" xlink:href="#DejaVuSans-105"/>
      <use x="224.699219" xlink:href="#DejaVuSans-110"/>
      <use x="288.078125" xlink:href="#DejaVuSans-103"/>
      <use x="351.554688" xlink:href="#DejaVuSans-32"/>
      <use x="383.341797" xlink:href="#DejaVuSans-112"/>
      <use x="446.818359" xlink:href="#DejaVuSans-111"/>
      <use x="508" xlink:href="#DejaVuSans-105"/>
      <use x="535.783203" xlink:href="#DejaVuSans-110"/>
      <use x="599.162109" xlink:href="#DejaVuSans-116"/>
      <use x="638.371094" xlink:href="#DejaVuSans-115"/>
     </g>
    </g>
   </g>
  </g>
 </g>
 <defs>
  <clipPath id="p029c1d620d">
   <rect height="326.16" width="446.4" x="72" y="51.84"/>
  </clipPath>
 </defs>
</svg>
