<?xml version="1.0" encoding="utf-8" standalone="no"?>
<!DOCTYPE svg PUBLIC "-//W3C//DTD SVG 1.1//EN"
  "http://www.w3.org/Graphics/SVG/1.1/DTD/svg11.dtd">
<!-- Created with matplotlib (https://matplotlib.org/) -->
<svg height="432pt" version="1.1" viewBox="0 0 648 432" width="648pt" xmlns="http://www.w3.org/2000/svg" xmlns:xlink="http://www.w3.org/1999/xlink">
 <metadata>
  <rdf:RDF xmlns:cc="http://creativecommons.org/ns#" xmlns:dc="http://purl.org/dc/elements/1.1/" xmlns:rdf="http://www.w3.org/1999/02/22-rdf-syntax-ns#">
   <cc:Work>
    <dc:type rdf:resource="http://purl.org/dc/dcmitype/StillImage"/>
    <dc:date>2022-02-01T12:47:28.897166</dc:date>
    <dc:format>image/svg+xml</dc:format>
    <dc:creator>
     <cc:Agent>
      <dc:title>Matplotlib v3.3.4, https://matplotlib.org/</dc:title>
     </cc:Agent>
    </dc:creator>
   </cc:Work>
  </rdf:RDF>
 </metadata>
 <defs>
  <style type="text/css">*{stroke-linecap:butt;stroke-linejoin:round;}</style>
 </defs>
 <g id="figure_1">
  <g id="patch_1">
   <path d="M 0 432 
L 648 432 
L 648 0 
L 0 0 
z
" style="fill:none;"/>
  </g>
  <g id="axes_1">
   <g id="patch_2">
    <path d="M 46.55 390.2 
L 637.2 390.2 
L 637.2 26.8 
L 46.55 26.8 
z
" style="fill:#ffffff;"/>
   </g>
   <g id="PathCollection_1">
    <defs>
     <path d="M 0 3 
C 0.795609 3 1.55874 2.683901 2.12132 2.12132 
C 2.683901 1.55874 3 0.795609 3 0 
C 3 -0.795609 2.683901 -1.55874 2.12132 -2.12132 
C 1.55874 -2.683901 0.795609 -3 0 -3 
C -0.795609 -3 -1.55874 -2.683901 -2.12132 -2.12132 
C -2.683901 -1.55874 -3 -0.795609 -3 0 
C -3 0.795609 -2.683901 1.55874 -2.12132 2.12132 
C -1.55874 2.683901 -0.795609 3 0 3 
z
" id="mab27cee789" style="stroke:#1f77b4;stroke-opacity:0.6;"/>
    </defs>
    <g clip-path="url(#p3db23ddd0b)">
     <use style="fill:#1f77b4;fill-opacity:0.6;stroke:#1f77b4;stroke-opacity:0.6;" x="84.788134" xlink:href="#mab27cee789" y="269.286818"/>
     <use style="fill:#1f77b4;fill-opacity:0.6;stroke:#1f77b4;stroke-opacity:0.6;" x="153.454588" xlink:href="#mab27cee789" y="149.631402"/>
     <use style="fill:#1f77b4;fill-opacity:0.6;stroke:#1f77b4;stroke-opacity:0.6;" x="134.858998" xlink:href="#mab27cee789" y="167.101784"/>
     <use style="fill:#1f77b4;fill-opacity:0.6;stroke:#1f77b4;stroke-opacity:0.6;" x="122.608665" xlink:href="#mab27cee789" y="209.041145"/>
     <use style="fill:#1f77b4;fill-opacity:0.6;stroke:#1f77b4;stroke-opacity:0.6;" x="114.711644" xlink:href="#mab27cee789" y="204.174768"/>
     <use style="fill:#1f77b4;fill-opacity:0.6;stroke:#1f77b4;stroke-opacity:0.6;" x="102.821688" xlink:href="#mab27cee789" y="239.957716"/>
     <use style="fill:#1f77b4;fill-opacity:0.6;stroke:#1f77b4;stroke-opacity:0.6;" x="145.130818" xlink:href="#mab27cee789" y="142.787011"/>
     <use style="fill:#1f77b4;fill-opacity:0.6;stroke:#1f77b4;stroke-opacity:0.6;" x="115.868148" xlink:href="#mab27cee789" y="184.194967"/>
     <use style="fill:#1f77b4;fill-opacity:0.6;stroke:#1f77b4;stroke-opacity:0.6;" x="103.636096" xlink:href="#mab27cee789" y="220.173682"/>
     <use style="fill:#1f77b4;fill-opacity:0.6;stroke:#1f77b4;stroke-opacity:0.6;" x="157.154013" xlink:href="#mab27cee789" y="160.594841"/>
     <use style="fill:#1f77b4;fill-opacity:0.6;stroke:#1f77b4;stroke-opacity:0.6;" x="137.734994" xlink:href="#mab27cee789" y="176.361147"/>
     <use style="fill:#1f77b4;fill-opacity:0.6;stroke:#1f77b4;stroke-opacity:0.6;" x="86.601048" xlink:href="#mab27cee789" y="278.642"/>
     <use style="fill:#1f77b4;fill-opacity:0.6;stroke:#1f77b4;stroke-opacity:0.6;" x="115.234437" xlink:href="#mab27cee789" y="193.264865"/>
     <use style="fill:#1f77b4;fill-opacity:0.6;stroke:#1f77b4;stroke-opacity:0.6;" x="178.102613" xlink:href="#mab27cee789" y="135.194949"/>
     <use style="fill:#1f77b4;fill-opacity:0.6;stroke:#1f77b4;stroke-opacity:0.6;" x="123.613598" xlink:href="#mab27cee789" y="221.591759"/>
     <use style="fill:#1f77b4;fill-opacity:0.6;stroke:#1f77b4;stroke-opacity:0.6;" x="88.450862" xlink:href="#mab27cee789" y="260.073084"/>
     <use style="fill:#1f77b4;fill-opacity:0.6;stroke:#1f77b4;stroke-opacity:0.6;" x="77.91551" xlink:href="#mab27cee789" y="336.541727"/>
     <use style="fill:#1f77b4;fill-opacity:0.6;stroke:#1f77b4;stroke-opacity:0.6;" x="151.577908" xlink:href="#mab27cee789" y="173.22741"/>
     <use style="fill:#1f77b4;fill-opacity:0.6;stroke:#1f77b4;stroke-opacity:0.6;" x="139.508163" xlink:href="#mab27cee789" y="187.941164"/>
     <use style="fill:#1f77b4;fill-opacity:0.6;stroke:#1f77b4;stroke-opacity:0.6;" x="170.342948" xlink:href="#mab27cee789" y="134.394316"/>
     <use style="fill:#1f77b4;fill-opacity:0.6;stroke:#1f77b4;stroke-opacity:0.6;" x="140.262896" xlink:href="#mab27cee789" y="146.333188"/>
     <use style="fill:#1f77b4;fill-opacity:0.6;stroke:#1f77b4;stroke-opacity:0.6;" x="101.332433" xlink:href="#mab27cee789" y="238.412244"/>
     <use style="fill:#1f77b4;fill-opacity:0.6;stroke:#1f77b4;stroke-opacity:0.6;" x="133.055275" xlink:href="#mab27cee789" y="195.686569"/>
     <use style="fill:#1f77b4;fill-opacity:0.6;stroke:#1f77b4;stroke-opacity:0.6;" x="116.889594" xlink:href="#mab27cee789" y="207.740968"/>
     <use style="fill:#1f77b4;fill-opacity:0.6;stroke:#1f77b4;stroke-opacity:0.6;" x="88.621019" xlink:href="#mab27cee789" y="265.337037"/>
     <use style="fill:#1f77b4;fill-opacity:0.6;stroke:#1f77b4;stroke-opacity:0.6;" x="135.442434" xlink:href="#mab27cee789" y="185.799144"/>
     <use style="fill:#1f77b4;fill-opacity:0.6;stroke:#1f77b4;stroke-opacity:0.6;" x="129.941322" xlink:href="#mab27cee789" y="178.289496"/>
     <use style="fill:#1f77b4;fill-opacity:0.6;stroke:#1f77b4;stroke-opacity:0.6;" x="174.191519" xlink:href="#mab27cee789" y="138.443408"/>
     <use style="fill:#1f77b4;fill-opacity:0.6;stroke:#1f77b4;stroke-opacity:0.6;" x="176.372592" xlink:href="#mab27cee789" y="145.303816"/>
     <use style="fill:#1f77b4;fill-opacity:0.6;stroke:#1f77b4;stroke-opacity:0.6;" x="179.116754" xlink:href="#mab27cee789" y="140.337431"/>
     <use style="fill:#1f77b4;fill-opacity:0.6;stroke:#1f77b4;stroke-opacity:0.6;" x="300.580839" xlink:href="#mab27cee789" y="147.930132"/>
     <use style="fill:#1f77b4;fill-opacity:0.6;stroke:#1f77b4;stroke-opacity:0.6;" x="293.39226" xlink:href="#mab27cee789" y="155.671239"/>
     <use style="fill:#1f77b4;fill-opacity:0.6;stroke:#1f77b4;stroke-opacity:0.6;" x="301.375132" xlink:href="#mab27cee789" y="158.316257"/>
     <use style="fill:#1f77b4;fill-opacity:0.6;stroke:#1f77b4;stroke-opacity:0.6;" x="325.270092" xlink:href="#mab27cee789" y="170.483729"/>
     <use style="fill:#1f77b4;fill-opacity:0.6;stroke:#1f77b4;stroke-opacity:0.6;" x="298.780741" xlink:href="#mab27cee789" y="140.474286"/>
     <use style="fill:#1f77b4;fill-opacity:0.6;stroke:#1f77b4;stroke-opacity:0.6;" x="332.721385" xlink:href="#mab27cee789" y="194.93211"/>
     <use style="fill:#1f77b4;fill-opacity:0.6;stroke:#1f77b4;stroke-opacity:0.6;" x="306.765006" xlink:href="#mab27cee789" y="170.667689"/>
     <use style="fill:#1f77b4;fill-opacity:0.6;stroke:#1f77b4;stroke-opacity:0.6;" x="315.779807" xlink:href="#mab27cee789" y="142.784834"/>
     <use style="fill:#1f77b4;fill-opacity:0.6;stroke:#1f77b4;stroke-opacity:0.6;" x="323.680724" xlink:href="#mab27cee789" y="152.861515"/>
     <use style="fill:#1f77b4;fill-opacity:0.6;stroke:#1f77b4;stroke-opacity:0.6;" x="338.310937" xlink:href="#mab27cee789" y="191.873984"/>
     <use style="fill:#1f77b4;fill-opacity:0.6;stroke:#1f77b4;stroke-opacity:0.6;" x="291.771807" xlink:href="#mab27cee789" y="130.527377"/>
     <use style="fill:#1f77b4;fill-opacity:0.6;stroke:#1f77b4;stroke-opacity:0.6;" x="328.284127" xlink:href="#mab27cee789" y="165.304394"/>
     <use style="fill:#1f77b4;fill-opacity:0.6;stroke:#1f77b4;stroke-opacity:0.6;" x="309.135948" xlink:href="#mab27cee789" y="180.73079"/>
     <use style="fill:#1f77b4;fill-opacity:0.6;stroke:#1f77b4;stroke-opacity:0.6;" x="316.947338" xlink:href="#mab27cee789" y="140.285878"/>
     <use style="fill:#1f77b4;fill-opacity:0.6;stroke:#1f77b4;stroke-opacity:0.6;" x="291.424319" xlink:href="#mab27cee789" y="153.392812"/>
     <use style="fill:#1f77b4;fill-opacity:0.6;stroke:#1f77b4;stroke-opacity:0.6;" x="336.0413" xlink:href="#mab27cee789" y="174.334469"/>
     <use style="fill:#1f77b4;fill-opacity:0.6;stroke:#1f77b4;stroke-opacity:0.6;" x="329.947829" xlink:href="#mab27cee789" y="178.562574"/>
     <use style="fill:#1f77b4;fill-opacity:0.6;stroke:#1f77b4;stroke-opacity:0.6;" x="324.161927" xlink:href="#mab27cee789" y="168.397056"/>
     <use style="fill:#1f77b4;fill-opacity:0.6;stroke:#1f77b4;stroke-opacity:0.6;" x="327.648534" xlink:href="#mab27cee789" y="182.516599"/>
     <use style="fill:#1f77b4;fill-opacity:0.6;stroke:#1f77b4;stroke-opacity:0.6;" x="323.817193" xlink:href="#mab27cee789" y="154.475984"/>
     <use style="fill:#1f77b4;fill-opacity:0.6;stroke:#1f77b4;stroke-opacity:0.6;" x="361.395043" xlink:href="#mab27cee789" y="208.546433"/>
     <use style="fill:#1f77b4;fill-opacity:0.6;stroke:#1f77b4;stroke-opacity:0.6;" x="434.553094" xlink:href="#mab27cee789" y="162.60586"/>
     <use style="fill:#1f77b4;fill-opacity:0.6;stroke:#1f77b4;stroke-opacity:0.6;" x="390.354366" xlink:href="#mab27cee789" y="204.002402"/>
     <use style="fill:#1f77b4;fill-opacity:0.6;stroke:#1f77b4;stroke-opacity:0.6;" x="411.650064" xlink:href="#mab27cee789" y="187.111349"/>
     <use style="fill:#1f77b4;fill-opacity:0.6;stroke:#1f77b4;stroke-opacity:0.6;" x="358.990105" xlink:href="#mab27cee789" y="193.988754"/>
     <use style="fill:#1f77b4;fill-opacity:0.6;stroke:#1f77b4;stroke-opacity:0.6;" x="385.473749" xlink:href="#mab27cee789" y="188.062886"/>
     <use style="fill:#1f77b4;fill-opacity:0.6;stroke:#1f77b4;stroke-opacity:0.6;" x="427.664398" xlink:href="#mab27cee789" y="179.928979"/>
     <use style="fill:#1f77b4;fill-opacity:0.6;stroke:#1f77b4;stroke-opacity:0.6;" x="420.179541" xlink:href="#mab27cee789" y="175.887903"/>
     <use style="fill:#1f77b4;fill-opacity:0.6;stroke:#1f77b4;stroke-opacity:0.6;" x="349.489464" xlink:href="#mab27cee789" y="164.871836"/>
     <use style="fill:#1f77b4;fill-opacity:0.6;stroke:#1f77b4;stroke-opacity:0.6;" x="424.535205" xlink:href="#mab27cee789" y="193.541871"/>
     <use style="fill:#1f77b4;fill-opacity:0.6;stroke:#1f77b4;stroke-opacity:0.6;" x="529.659587" xlink:href="#mab27cee789" y="191.002057"/>
     <use style="fill:#1f77b4;fill-opacity:0.6;stroke:#1f77b4;stroke-opacity:0.6;" x="544.141574" xlink:href="#mab27cee789" y="182.524952"/>
     <use style="fill:#1f77b4;fill-opacity:0.6;stroke:#1f77b4;stroke-opacity:0.6;" x="539.461307" xlink:href="#mab27cee789" y="196.304657"/>
     <use style="fill:#1f77b4;fill-opacity:0.6;stroke:#1f77b4;stroke-opacity:0.6;" x="509.955769" xlink:href="#mab27cee789" y="210.231806"/>
     <use style="fill:#1f77b4;fill-opacity:0.6;stroke:#1f77b4;stroke-opacity:0.6;" x="538.332904" xlink:href="#mab27cee789" y="201.723904"/>
     <use style="fill:#1f77b4;fill-opacity:0.6;stroke:#1f77b4;stroke-opacity:0.6;" x="516.134411" xlink:href="#mab27cee789" y="197.984565"/>
     <use style="fill:#1f77b4;fill-opacity:0.6;stroke:#1f77b4;stroke-opacity:0.6;" x="516.141003" xlink:href="#mab27cee789" y="204.288367"/>
     <use style="fill:#1f77b4;fill-opacity:0.6;stroke:#1f77b4;stroke-opacity:0.6;" x="547.955782" xlink:href="#mab27cee789" y="166.661821"/>
     <use style="fill:#1f77b4;fill-opacity:0.6;stroke:#1f77b4;stroke-opacity:0.6;" x="508.625726" xlink:href="#mab27cee789" y="201.473745"/>
     <use style="fill:#1f77b4;fill-opacity:0.6;stroke:#1f77b4;stroke-opacity:0.6;" x="541.967478" xlink:href="#mab27cee789" y="191.236815"/>
     <use style="fill:#1f77b4;fill-opacity:0.6;stroke:#1f77b4;stroke-opacity:0.6;" x="607.435835" xlink:href="#mab27cee789" y="45.22213"/>
     <use style="fill:#1f77b4;fill-opacity:0.6;stroke:#1f77b4;stroke-opacity:0.6;" x="595.406943" xlink:href="#mab27cee789" y="77.000811"/>
     <use style="fill:#1f77b4;fill-opacity:0.6;stroke:#1f77b4;stroke-opacity:0.6;" x="564.383503" xlink:href="#mab27cee789" y="162.739677"/>
     <use style="fill:#1f77b4;fill-opacity:0.6;stroke:#1f77b4;stroke-opacity:0.6;" x="599.240163" xlink:href="#mab27cee789" y="98.059091"/>
     <use style="fill:#1f77b4;fill-opacity:0.6;stroke:#1f77b4;stroke-opacity:0.6;" x="594.724396" xlink:href="#mab27cee789" y="82.455724"/>
     <use style="fill:#1f77b4;fill-opacity:0.6;stroke:#1f77b4;stroke-opacity:0.6;" x="608.874043" xlink:href="#mab27cee789" y="46.466994"/>
     <use style="fill:#1f77b4;fill-opacity:0.6;stroke:#1f77b4;stroke-opacity:0.6;" x="609.144966" xlink:href="#mab27cee789" y="51.797036"/>
     <use style="fill:#1f77b4;fill-opacity:0.6;stroke:#1f77b4;stroke-opacity:0.6;" x="583.504481" xlink:href="#mab27cee789" y="135.238273"/>
     <use style="fill:#1f77b4;fill-opacity:0.6;stroke:#1f77b4;stroke-opacity:0.6;" x="591.864522" xlink:href="#mab27cee789" y="93.713503"/>
     <use style="fill:#1f77b4;fill-opacity:0.6;stroke:#1f77b4;stroke-opacity:0.6;" x="571.088461" xlink:href="#mab27cee789" y="159.807361"/>
     <use style="fill:#1f77b4;fill-opacity:0.6;stroke:#1f77b4;stroke-opacity:0.6;" x="590.618632" xlink:href="#mab27cee789" y="113.096162"/>
     <use style="fill:#1f77b4;fill-opacity:0.6;stroke:#1f77b4;stroke-opacity:0.6;" x="602.406039" xlink:href="#mab27cee789" y="64.64096"/>
     <use style="fill:#1f77b4;fill-opacity:0.6;stroke:#1f77b4;stroke-opacity:0.6;" x="587.207513" xlink:href="#mab27cee789" y="120.558852"/>
     <use style="fill:#1f77b4;fill-opacity:0.6;stroke:#1f77b4;stroke-opacity:0.6;" x="557.912556" xlink:href="#mab27cee789" y="169.2253"/>
     <use style="fill:#1f77b4;fill-opacity:0.6;stroke:#1f77b4;stroke-opacity:0.6;" x="586.438806" xlink:href="#mab27cee789" y="104.889146"/>
     <use style="fill:#1f77b4;fill-opacity:0.6;stroke:#1f77b4;stroke-opacity:0.6;" x="576.448978" xlink:href="#mab27cee789" y="116.612644"/>
     <use style="fill:#1f77b4;fill-opacity:0.6;stroke:#1f77b4;stroke-opacity:0.6;" x="608.221176" xlink:href="#mab27cee789" y="64.880851"/>
     <use style="fill:#1f77b4;fill-opacity:0.6;stroke:#1f77b4;stroke-opacity:0.6;" x="577.66435" xlink:href="#mab27cee789" y="133.666625"/>
     <use style="fill:#1f77b4;fill-opacity:0.6;stroke:#1f77b4;stroke-opacity:0.6;" x="558.701154" xlink:href="#mab27cee789" y="148.092449"/>
     <use style="fill:#1f77b4;fill-opacity:0.6;stroke:#1f77b4;stroke-opacity:0.6;" x="604.559808" xlink:href="#mab27cee789" y="77.712364"/>
     <use style="fill:#1f77b4;fill-opacity:0.6;stroke:#1f77b4;stroke-opacity:0.6;" x="564.382313" xlink:href="#mab27cee789" y="147.511218"/>
     <use style="fill:#1f77b4;fill-opacity:0.6;stroke:#1f77b4;stroke-opacity:0.6;" x="590.946024" xlink:href="#mab27cee789" y="101.939879"/>
     <use style="fill:#1f77b4;fill-opacity:0.6;stroke:#1f77b4;stroke-opacity:0.6;" x="562.028376" xlink:href="#mab27cee789" y="156.360368"/>
     <use style="fill:#1f77b4;fill-opacity:0.6;stroke:#1f77b4;stroke-opacity:0.6;" x="604.481399" xlink:href="#mab27cee789" y="65.54785"/>
     <use style="fill:#1f77b4;fill-opacity:0.6;stroke:#1f77b4;stroke-opacity:0.6;" x="560.244241" xlink:href="#mab27cee789" y="186.557138"/>
     <use style="fill:#1f77b4;fill-opacity:0.6;stroke:#1f77b4;stroke-opacity:0.6;" x="596.706335" xlink:href="#mab27cee789" y="81.419364"/>
     <use style="fill:#1f77b4;fill-opacity:0.6;stroke:#1f77b4;stroke-opacity:0.6;" x="581.062663" xlink:href="#mab27cee789" y="141.44905"/>
     <use style="fill:#1f77b4;fill-opacity:0.6;stroke:#1f77b4;stroke-opacity:0.6;" x="586.041444" xlink:href="#mab27cee789" y="114.78408"/>
     <use style="fill:#1f77b4;fill-opacity:0.6;stroke:#1f77b4;stroke-opacity:0.6;" x="591.539973" xlink:href="#mab27cee789" y="98.835327"/>
     <use style="fill:#1f77b4;fill-opacity:0.6;stroke:#1f77b4;stroke-opacity:0.6;" x="598.637837" xlink:href="#mab27cee789" y="60.72735"/>
    </g>
   </g>
   <g id="PathCollection_2">
    <defs>
     <path d="M 0 3 
C 0.795609 3 1.55874 2.683901 2.12132 2.12132 
C 2.683901 1.55874 3 0.795609 3 0 
C 3 -0.795609 2.683901 -1.55874 2.12132 -2.12132 
C 1.55874 -2.683901 0.795609 -3 0 -3 
C -0.795609 -3 -1.55874 -2.683901 -2.12132 -2.12132 
C -2.683901 -1.55874 -3 -0.795609 -3 0 
C -3 0.795609 -2.683901 1.55874 -2.12132 2.12132 
C -1.55874 2.683901 -0.795609 3 0 3 
z
" id="m2a2bc1a234" style="stroke:#ffd700;stroke-opacity:0.6;"/>
    </defs>
    <g clip-path="url(#p3db23ddd0b)">
     <use style="fill:#ffd700;fill-opacity:0.6;stroke:#ffd700;stroke-opacity:0.6;" x="308.413736" xlink:href="#m2a2bc1a234" y="159.450069"/>
     <use style="fill:#ffd700;fill-opacity:0.6;stroke:#ffd700;stroke-opacity:0.6;" x="589.595402" xlink:href="#m2a2bc1a234" y="104.810049"/>
     <use style="fill:#ffd700;fill-opacity:0.6;stroke:#ffd700;stroke-opacity:0.6;" x="569.18474" xlink:href="#m2a2bc1a234" y="146.2881"/>
     <use style="fill:#ffd700;fill-opacity:0.6;stroke:#ffd700;stroke-opacity:0.6;" x="97.242845" xlink:href="#m2a2bc1a234" y="253.035771"/>
     <use style="fill:#ffd700;fill-opacity:0.6;stroke:#ffd700;stroke-opacity:0.6;" x="497.306387" xlink:href="#m2a2bc1a234" y="199.697968"/>
     <use style="fill:#ffd700;fill-opacity:0.6;stroke:#ffd700;stroke-opacity:0.6;" x="78.974717" xlink:href="#m2a2bc1a234" y="301.722743"/>
     <use style="fill:#ffd700;fill-opacity:0.6;stroke:#ffd700;stroke-opacity:0.6;" x="238.528714" xlink:href="#m2a2bc1a234" y="120.414039"/>
     <use style="fill:#ffd700;fill-opacity:0.6;stroke:#ffd700;stroke-opacity:0.6;" x="172.804361" xlink:href="#m2a2bc1a234" y="139.925301"/>
     <use style="fill:#ffd700;fill-opacity:0.6;stroke:#ffd700;stroke-opacity:0.6;" x="427.480395" xlink:href="#m2a2bc1a234" y="165.23914"/>
     <use style="fill:#ffd700;fill-opacity:0.6;stroke:#ffd700;stroke-opacity:0.6;" x="325.337698" xlink:href="#m2a2bc1a234" y="169.337854"/>
     <use style="fill:#ffd700;fill-opacity:0.6;stroke:#ffd700;stroke-opacity:0.6;" x="357.314881" xlink:href="#m2a2bc1a234" y="188.370236"/>
     <use style="fill:#ffd700;fill-opacity:0.6;stroke:#ffd700;stroke-opacity:0.6;" x="163.922154" xlink:href="#m2a2bc1a234" y="148.879654"/>
     <use style="fill:#ffd700;fill-opacity:0.6;stroke:#ffd700;stroke-opacity:0.6;" x="78.695066" xlink:href="#m2a2bc1a234" y="301.121438"/>
     <use style="fill:#ffd700;fill-opacity:0.6;stroke:#ffd700;stroke-opacity:0.6;" x="448.367469" xlink:href="#m2a2bc1a234" y="162.373076"/>
     <use style="fill:#ffd700;fill-opacity:0.6;stroke:#ffd700;stroke-opacity:0.6;" x="315.693743" xlink:href="#m2a2bc1a234" y="165.282646"/>
     <use style="fill:#ffd700;fill-opacity:0.6;stroke:#ffd700;stroke-opacity:0.6;" x="479.722645" xlink:href="#m2a2bc1a234" y="175.546473"/>
     <use style="fill:#ffd700;fill-opacity:0.6;stroke:#ffd700;stroke-opacity:0.6;" x="548.134517" xlink:href="#m2a2bc1a234" y="179.955514"/>
     <use style="fill:#ffd700;fill-opacity:0.6;stroke:#ffd700;stroke-opacity:0.6;" x="586.649215" xlink:href="#m2a2bc1a234" y="109.945238"/>
     <use style="fill:#ffd700;fill-opacity:0.6;stroke:#ffd700;stroke-opacity:0.6;" x="228.931697" xlink:href="#m2a2bc1a234" y="128.913443"/>
     <use style="fill:#ffd700;fill-opacity:0.6;stroke:#ffd700;stroke-opacity:0.6;" x="270.332017" xlink:href="#m2a2bc1a234" y="138.523406"/>
     <use style="fill:#ffd700;fill-opacity:0.6;stroke:#ffd700;stroke-opacity:0.6;" x="187.64724" xlink:href="#m2a2bc1a234" y="129.788395"/>
     <use style="fill:#ffd700;fill-opacity:0.6;stroke:#ffd700;stroke-opacity:0.6;" x="183.747216" xlink:href="#m2a2bc1a234" y="138.402549"/>
     <use style="fill:#ffd700;fill-opacity:0.6;stroke:#ffd700;stroke-opacity:0.6;" x="305.395254" xlink:href="#m2a2bc1a234" y="156.250949"/>
     <use style="fill:#ffd700;fill-opacity:0.6;stroke:#ffd700;stroke-opacity:0.6;" x="446.081673" xlink:href="#m2a2bc1a234" y="161.227151"/>
     <use style="fill:#ffd700;fill-opacity:0.6;stroke:#ffd700;stroke-opacity:0.6;" x="586.601821" xlink:href="#m2a2bc1a234" y="116.138175"/>
     <use style="fill:#ffd700;fill-opacity:0.6;stroke:#ffd700;stroke-opacity:0.6;" x="464.333517" xlink:href="#m2a2bc1a234" y="170.534093"/>
     <use style="fill:#ffd700;fill-opacity:0.6;stroke:#ffd700;stroke-opacity:0.6;" x="439.189367" xlink:href="#m2a2bc1a234" y="166.503974"/>
     <use style="fill:#ffd700;fill-opacity:0.6;stroke:#ffd700;stroke-opacity:0.6;" x="289.610288" xlink:href="#m2a2bc1a234" y="144.195014"/>
     <use style="fill:#ffd700;fill-opacity:0.6;stroke:#ffd700;stroke-opacity:0.6;" x="191.847743" xlink:href="#m2a2bc1a234" y="133.611735"/>
     <use style="fill:#ffd700;fill-opacity:0.6;stroke:#ffd700;stroke-opacity:0.6;" x="387.210254" xlink:href="#m2a2bc1a234" y="191.452822"/>
     <use style="fill:#ffd700;fill-opacity:0.6;stroke:#ffd700;stroke-opacity:0.6;" x="181.918975" xlink:href="#m2a2bc1a234" y="139.756054"/>
     <use style="fill:#ffd700;fill-opacity:0.6;stroke:#ffd700;stroke-opacity:0.6;" x="107.4663" xlink:href="#m2a2bc1a234" y="227.393438"/>
     <use style="fill:#ffd700;fill-opacity:0.6;stroke:#ffd700;stroke-opacity:0.6;" x="447.218729" xlink:href="#m2a2bc1a234" y="159.631195"/>
     <use style="fill:#ffd700;fill-opacity:0.6;stroke:#ffd700;stroke-opacity:0.6;" x="140.641978" xlink:href="#m2a2bc1a234" y="177.826957"/>
     <use style="fill:#ffd700;fill-opacity:0.6;stroke:#ffd700;stroke-opacity:0.6;" x="248.643852" xlink:href="#m2a2bc1a234" y="127.201201"/>
     <use style="fill:#ffd700;fill-opacity:0.6;stroke:#ffd700;stroke-opacity:0.6;" x="314.099069" xlink:href="#m2a2bc1a234" y="160.862025"/>
     <use style="fill:#ffd700;fill-opacity:0.6;stroke:#ffd700;stroke-opacity:0.6;" x="407.385362" xlink:href="#m2a2bc1a234" y="184.645064"/>
     <use style="fill:#ffd700;fill-opacity:0.6;stroke:#ffd700;stroke-opacity:0.6;" x="527.231177" xlink:href="#m2a2bc1a234" y="205.099529"/>
     <use style="fill:#ffd700;fill-opacity:0.6;stroke:#ffd700;stroke-opacity:0.6;" x="442.842234" xlink:href="#m2a2bc1a234" y="166.166999"/>
     <use style="fill:#ffd700;fill-opacity:0.6;stroke:#ffd700;stroke-opacity:0.6;" x="200.440221" xlink:href="#m2a2bc1a234" y="126.876468"/>
     <use style="fill:#ffd700;fill-opacity:0.6;stroke:#ffd700;stroke-opacity:0.6;" x="262.453839" xlink:href="#m2a2bc1a234" y="136.352432"/>
     <use style="fill:#ffd700;fill-opacity:0.6;stroke:#ffd700;stroke-opacity:0.6;" x="221.652307" xlink:href="#m2a2bc1a234" y="123.338397"/>
     <use style="fill:#ffd700;fill-opacity:0.6;stroke:#ffd700;stroke-opacity:0.6;" x="341.48103" xlink:href="#m2a2bc1a234" y="177.900032"/>
     <use style="fill:#ffd700;fill-opacity:0.6;stroke:#ffd700;stroke-opacity:0.6;" x="75.442106" xlink:href="#m2a2bc1a234" y="305.860177"/>
     <use style="fill:#ffd700;fill-opacity:0.6;stroke:#ffd700;stroke-opacity:0.6;" x="479.958285" xlink:href="#m2a2bc1a234" y="186.003717"/>
     <use style="fill:#ffd700;fill-opacity:0.6;stroke:#ffd700;stroke-opacity:0.6;" x="278.305034" xlink:href="#m2a2bc1a234" y="140.331238"/>
     <use style="fill:#ffd700;fill-opacity:0.6;stroke:#ffd700;stroke-opacity:0.6;" x="356.077937" xlink:href="#m2a2bc1a234" y="192.83416"/>
     <use style="fill:#ffd700;fill-opacity:0.6;stroke:#ffd700;stroke-opacity:0.6;" x="437.494431" xlink:href="#m2a2bc1a234" y="162.925152"/>
     <use style="fill:#ffd700;fill-opacity:0.6;stroke:#ffd700;stroke-opacity:0.6;" x="389.77712" xlink:href="#m2a2bc1a234" y="194.310641"/>
     <use style="fill:#ffd700;fill-opacity:0.6;stroke:#ffd700;stroke-opacity:0.6;" x="556.659474" xlink:href="#m2a2bc1a234" y="169.026076"/>
     <use style="fill:#ffd700;fill-opacity:0.6;stroke:#ffd700;stroke-opacity:0.6;" x="183.04209" xlink:href="#m2a2bc1a234" y="136.672611"/>
     <use style="fill:#ffd700;fill-opacity:0.6;stroke:#ffd700;stroke-opacity:0.6;" x="416.314601" xlink:href="#m2a2bc1a234" y="176.791819"/>
     <use style="fill:#ffd700;fill-opacity:0.6;stroke:#ffd700;stroke-opacity:0.6;" x="489.001831" xlink:href="#m2a2bc1a234" y="190.005824"/>
     <use style="fill:#ffd700;fill-opacity:0.6;stroke:#ffd700;stroke-opacity:0.6;" x="350.206472" xlink:href="#m2a2bc1a234" y="187.016976"/>
     <use style="fill:#ffd700;fill-opacity:0.6;stroke:#ffd700;stroke-opacity:0.6;" x="127.467384" xlink:href="#m2a2bc1a234" y="193.702023"/>
     <use style="fill:#ffd700;fill-opacity:0.6;stroke:#ffd700;stroke-opacity:0.6;" x="451.801468" xlink:href="#m2a2bc1a234" y="162.378782"/>
     <use style="fill:#ffd700;fill-opacity:0.6;stroke:#ffd700;stroke-opacity:0.6;" x="395.01028" xlink:href="#m2a2bc1a234" y="191.126916"/>
     <use style="fill:#ffd700;fill-opacity:0.6;stroke:#ffd700;stroke-opacity:0.6;" x="469.932189" xlink:href="#m2a2bc1a234" y="173.303002"/>
     <use style="fill:#ffd700;fill-opacity:0.6;stroke:#ffd700;stroke-opacity:0.6;" x="166.826736" xlink:href="#m2a2bc1a234" y="146.703399"/>
     <use style="fill:#ffd700;fill-opacity:0.6;stroke:#ffd700;stroke-opacity:0.6;" x="483.847745" xlink:href="#m2a2bc1a234" y="190.754156"/>
     <use style="fill:#ffd700;fill-opacity:0.6;stroke:#ffd700;stroke-opacity:0.6;" x="356.21278" xlink:href="#m2a2bc1a234" y="189.409933"/>
     <use style="fill:#ffd700;fill-opacity:0.6;stroke:#ffd700;stroke-opacity:0.6;" x="600.732862" xlink:href="#m2a2bc1a234" y="75.591582"/>
     <use style="fill:#ffd700;fill-opacity:0.6;stroke:#ffd700;stroke-opacity:0.6;" x="591.842234" xlink:href="#m2a2bc1a234" y="102.071064"/>
     <use style="fill:#ffd700;fill-opacity:0.6;stroke:#ffd700;stroke-opacity:0.6;" x="73.404832" xlink:href="#m2a2bc1a234" y="316.75792"/>
     <use style="fill:#ffd700;fill-opacity:0.6;stroke:#ffd700;stroke-opacity:0.6;" x="487.922445" xlink:href="#m2a2bc1a234" y="189.588694"/>
     <use style="fill:#ffd700;fill-opacity:0.6;stroke:#ffd700;stroke-opacity:0.6;" x="266.19968" xlink:href="#m2a2bc1a234" y="134.644303"/>
     <use style="fill:#ffd700;fill-opacity:0.6;stroke:#ffd700;stroke-opacity:0.6;" x="229.40723" xlink:href="#m2a2bc1a234" y="120.311984"/>
     <use style="fill:#ffd700;fill-opacity:0.6;stroke:#ffd700;stroke-opacity:0.6;" x="170.717426" xlink:href="#m2a2bc1a234" y="146.4217"/>
     <use style="fill:#ffd700;fill-opacity:0.6;stroke:#ffd700;stroke-opacity:0.6;" x="374.342542" xlink:href="#m2a2bc1a234" y="197.271625"/>
     <use style="fill:#ffd700;fill-opacity:0.6;stroke:#ffd700;stroke-opacity:0.6;" x="528.471946" xlink:href="#m2a2bc1a234" y="202.059013"/>
     <use style="fill:#ffd700;fill-opacity:0.6;stroke:#ffd700;stroke-opacity:0.6;" x="604.707523" xlink:href="#m2a2bc1a234" y="68.206264"/>
     <use style="fill:#ffd700;fill-opacity:0.6;stroke:#ffd700;stroke-opacity:0.6;" x="78.656586" xlink:href="#m2a2bc1a234" y="301.619711"/>
     <use style="fill:#ffd700;fill-opacity:0.6;stroke:#ffd700;stroke-opacity:0.6;" x="459.156104" xlink:href="#m2a2bc1a234" y="167.181584"/>
     <use style="fill:#ffd700;fill-opacity:0.6;stroke:#ffd700;stroke-opacity:0.6;" x="371.984622" xlink:href="#m2a2bc1a234" y="197.090789"/>
     <use style="fill:#ffd700;fill-opacity:0.6;stroke:#ffd700;stroke-opacity:0.6;" x="446.714999" xlink:href="#m2a2bc1a234" y="160.728688"/>
     <use style="fill:#ffd700;fill-opacity:0.6;stroke:#ffd700;stroke-opacity:0.6;" x="434.907391" xlink:href="#m2a2bc1a234" y="161.069886"/>
     <use style="fill:#ffd700;fill-opacity:0.6;stroke:#ffd700;stroke-opacity:0.6;" x="250.963109" xlink:href="#m2a2bc1a234" y="130.685126"/>
     <use style="fill:#ffd700;fill-opacity:0.6;stroke:#ffd700;stroke-opacity:0.6;" x="438.03887" xlink:href="#m2a2bc1a234" y="163.950067"/>
     <use style="fill:#ffd700;fill-opacity:0.6;stroke:#ffd700;stroke-opacity:0.6;" x="294.240493" xlink:href="#m2a2bc1a234" y="149.746543"/>
     <use style="fill:#ffd700;fill-opacity:0.6;stroke:#ffd700;stroke-opacity:0.6;" x="259.147848" xlink:href="#m2a2bc1a234" y="129.163198"/>
     <use style="fill:#ffd700;fill-opacity:0.6;stroke:#ffd700;stroke-opacity:0.6;" x="579.728963" xlink:href="#m2a2bc1a234" y="134.044374"/>
     <use style="fill:#ffd700;fill-opacity:0.6;stroke:#ffd700;stroke-opacity:0.6;" x="467.979157" xlink:href="#m2a2bc1a234" y="173.369831"/>
     <use style="fill:#ffd700;fill-opacity:0.6;stroke:#ffd700;stroke-opacity:0.6;" x="204.837582" xlink:href="#m2a2bc1a234" y="125.491095"/>
     <use style="fill:#ffd700;fill-opacity:0.6;stroke:#ffd700;stroke-opacity:0.6;" x="578.266875" xlink:href="#m2a2bc1a234" y="133.84667"/>
     <use style="fill:#ffd700;fill-opacity:0.6;stroke:#ffd700;stroke-opacity:0.6;" x="102.423751" xlink:href="#m2a2bc1a234" y="241.646579"/>
     <use style="fill:#ffd700;fill-opacity:0.6;stroke:#ffd700;stroke-opacity:0.6;" x="108.117878" xlink:href="#m2a2bc1a234" y="227.322722"/>
     <use style="fill:#ffd700;fill-opacity:0.6;stroke:#ffd700;stroke-opacity:0.6;" x="268.013398" xlink:href="#m2a2bc1a234" y="135.881759"/>
     <use style="fill:#ffd700;fill-opacity:0.6;stroke:#ffd700;stroke-opacity:0.6;" x="116.047943" xlink:href="#m2a2bc1a234" y="218.168127"/>
     <use style="fill:#ffd700;fill-opacity:0.6;stroke:#ffd700;stroke-opacity:0.6;" x="130.419198" xlink:href="#m2a2bc1a234" y="190.086031"/>
     <use style="fill:#ffd700;fill-opacity:0.6;stroke:#ffd700;stroke-opacity:0.6;" x="123.940383" xlink:href="#m2a2bc1a234" y="198.592512"/>
     <use style="fill:#ffd700;fill-opacity:0.6;stroke:#ffd700;stroke-opacity:0.6;" x="559.535499" xlink:href="#m2a2bc1a234" y="165.809484"/>
     <use style="fill:#ffd700;fill-opacity:0.6;stroke:#ffd700;stroke-opacity:0.6;" x="196.202123" xlink:href="#m2a2bc1a234" y="131.024423"/>
     <use style="fill:#ffd700;fill-opacity:0.6;stroke:#ffd700;stroke-opacity:0.6;" x="569.408769" xlink:href="#m2a2bc1a234" y="147.082231"/>
     <use style="fill:#ffd700;fill-opacity:0.6;stroke:#ffd700;stroke-opacity:0.6;" x="186.083926" xlink:href="#m2a2bc1a234" y="131.286347"/>
     <use style="fill:#ffd700;fill-opacity:0.6;stroke:#ffd700;stroke-opacity:0.6;" x="345.487729" xlink:href="#m2a2bc1a234" y="183.833009"/>
     <use style="fill:#ffd700;fill-opacity:0.6;stroke:#ffd700;stroke-opacity:0.6;" x="232.926201" xlink:href="#m2a2bc1a234" y="126.927795"/>
     <use style="fill:#ffd700;fill-opacity:0.6;stroke:#ffd700;stroke-opacity:0.6;" x="358.727606" xlink:href="#m2a2bc1a234" y="188.014012"/>
     <use style="fill:#ffd700;fill-opacity:0.6;stroke:#ffd700;stroke-opacity:0.6;" x="174.936365" xlink:href="#m2a2bc1a234" y="145.450711"/>
     <use style="fill:#ffd700;fill-opacity:0.6;stroke:#ffd700;stroke-opacity:0.6;" x="330.407972" xlink:href="#m2a2bc1a234" y="176.141274"/>
     <use style="fill:#ffd700;fill-opacity:0.6;stroke:#ffd700;stroke-opacity:0.6;" x="548.183002" xlink:href="#m2a2bc1a234" y="183.279919"/>
    </g>
   </g>
   <g id="matplotlib.axis_1">
    <g id="xtick_1">
     <g id="line2d_1">
      <path clip-path="url(#p3db23ddd0b)" d="M 127.093182 390.2 
L 127.093182 26.8 
" style="fill:none;stroke:#b0b0b0;stroke-linecap:square;stroke-width:0.8;"/>
     </g>
     <g id="line2d_2">
      <defs>
       <path d="M 0 0 
L 0 3.5 
" id="m26012dcb8d" style="stroke:#000000;stroke-width:0.8;"/>
      </defs>
      <g>
       <use style="stroke:#000000;stroke-width:0.8;" x="127.093182" xlink:href="#m26012dcb8d" y="390.2"/>
      </g>
     </g>
     <g id="text_1">
      <!-- −4 -->
      <g transform="translate(119.722088 404.798438)scale(0.1 -0.1)">
       <defs>
        <path d="M 10.59375 35.5 
L 73.1875 35.5 
L 73.1875 27.203125 
L 10.59375 27.203125 
z
" id="DejaVuSans-8722"/>
        <path d="M 37.796875 64.3125 
L 12.890625 25.390625 
L 37.796875 25.390625 
z
M 35.203125 72.90625 
L 47.609375 72.90625 
L 47.609375 25.390625 
L 58.015625 25.390625 
L 58.015625 17.1875 
L 47.609375 17.1875 
L 47.609375 0 
L 37.796875 0 
L 37.796875 17.1875 
L 4.890625 17.1875 
L 4.890625 26.703125 
z
" id="DejaVuSans-52"/>
       </defs>
       <use xlink:href="#DejaVuSans-8722"/>
       <use x="83.789062" xlink:href="#DejaVuSans-52"/>
      </g>
     </g>
    </g>
    <g id="xtick_2">
     <g id="line2d_3">
      <path clip-path="url(#p3db23ddd0b)" d="M 234.484091 390.2 
L 234.484091 26.8 
" style="fill:none;stroke:#b0b0b0;stroke-linecap:square;stroke-width:0.8;"/>
     </g>
     <g id="line2d_4">
      <g>
       <use style="stroke:#000000;stroke-width:0.8;" x="234.484091" xlink:href="#m26012dcb8d" y="390.2"/>
      </g>
     </g>
     <g id="text_2">
      <!-- −2 -->
      <g transform="translate(227.112997 404.798438)scale(0.1 -0.1)">
       <defs>
        <path d="M 19.1875 8.296875 
L 53.609375 8.296875 
L 53.609375 0 
L 7.328125 0 
L 7.328125 8.296875 
Q 12.9375 14.109375 22.625 23.890625 
Q 32.328125 33.6875 34.8125 36.53125 
Q 39.546875 41.84375 41.421875 45.53125 
Q 43.3125 49.21875 43.3125 52.78125 
Q 43.3125 58.59375 39.234375 62.25 
Q 35.15625 65.921875 28.609375 65.921875 
Q 23.96875 65.921875 18.8125 64.3125 
Q 13.671875 62.703125 7.8125 59.421875 
L 7.8125 69.390625 
Q 13.765625 71.78125 18.9375 73 
Q 24.125 74.21875 28.421875 74.21875 
Q 39.75 74.21875 46.484375 68.546875 
Q 53.21875 62.890625 53.21875 53.421875 
Q 53.21875 48.921875 51.53125 44.890625 
Q 49.859375 40.875 45.40625 35.40625 
Q 44.1875 33.984375 37.640625 27.21875 
Q 31.109375 20.453125 19.1875 8.296875 
z
" id="DejaVuSans-50"/>
       </defs>
       <use xlink:href="#DejaVuSans-8722"/>
       <use x="83.789062" xlink:href="#DejaVuSans-50"/>
      </g>
     </g>
    </g>
    <g id="xtick_3">
     <g id="line2d_5">
      <path clip-path="url(#p3db23ddd0b)" d="M 341.875 390.2 
L 341.875 26.8 
" style="fill:none;stroke:#b0b0b0;stroke-linecap:square;stroke-width:0.8;"/>
     </g>
     <g id="line2d_6">
      <g>
       <use style="stroke:#000000;stroke-width:0.8;" x="341.875" xlink:href="#m26012dcb8d" y="390.2"/>
      </g>
     </g>
     <g id="text_3">
      <!-- 0 -->
      <g transform="translate(338.69375 404.798438)scale(0.1 -0.1)">
       <defs>
        <path d="M 31.78125 66.40625 
Q 24.171875 66.40625 20.328125 58.90625 
Q 16.5 51.421875 16.5 36.375 
Q 16.5 21.390625 20.328125 13.890625 
Q 24.171875 6.390625 31.78125 6.390625 
Q 39.453125 6.390625 43.28125 13.890625 
Q 47.125 21.390625 47.125 36.375 
Q 47.125 51.421875 43.28125 58.90625 
Q 39.453125 66.40625 31.78125 66.40625 
z
M 31.78125 74.21875 
Q 44.046875 74.21875 50.515625 64.515625 
Q 56.984375 54.828125 56.984375 36.375 
Q 56.984375 17.96875 50.515625 8.265625 
Q 44.046875 -1.421875 31.78125 -1.421875 
Q 19.53125 -1.421875 13.0625 8.265625 
Q 6.59375 17.96875 6.59375 36.375 
Q 6.59375 54.828125 13.0625 64.515625 
Q 19.53125 74.21875 31.78125 74.21875 
z
" id="DejaVuSans-48"/>
       </defs>
       <use xlink:href="#DejaVuSans-48"/>
      </g>
     </g>
    </g>
    <g id="xtick_4">
     <g id="line2d_7">
      <path clip-path="url(#p3db23ddd0b)" d="M 449.265909 390.2 
L 449.265909 26.8 
" style="fill:none;stroke:#b0b0b0;stroke-linecap:square;stroke-width:0.8;"/>
     </g>
     <g id="line2d_8">
      <g>
       <use style="stroke:#000000;stroke-width:0.8;" x="449.265909" xlink:href="#m26012dcb8d" y="390.2"/>
      </g>
     </g>
     <g id="text_4">
      <!-- 2 -->
      <g transform="translate(446.084659 404.798438)scale(0.1 -0.1)">
       <use xlink:href="#DejaVuSans-50"/>
      </g>
     </g>
    </g>
    <g id="xtick_5">
     <g id="line2d_9">
      <path clip-path="url(#p3db23ddd0b)" d="M 556.656818 390.2 
L 556.656818 26.8 
" style="fill:none;stroke:#b0b0b0;stroke-linecap:square;stroke-width:0.8;"/>
     </g>
     <g id="line2d_10">
      <g>
       <use style="stroke:#000000;stroke-width:0.8;" x="556.656818" xlink:href="#m26012dcb8d" y="390.2"/>
      </g>
     </g>
     <g id="text_5">
      <!-- 4 -->
      <g transform="translate(553.475568 404.798438)scale(0.1 -0.1)">
       <use xlink:href="#DejaVuSans-52"/>
      </g>
     </g>
    </g>
    <g id="text_6">
     <!-- x -->
     <g transform="translate(338.915625 418.476562)scale(0.1 -0.1)">
      <defs>
       <path d="M 54.890625 54.6875 
L 35.109375 28.078125 
L 55.90625 0 
L 45.3125 0 
L 29.390625 21.484375 
L 13.484375 0 
L 2.875 0 
L 24.125 28.609375 
L 4.6875 54.6875 
L 15.28125 54.6875 
L 29.78125 35.203125 
L 44.28125 54.6875 
z
" id="DejaVuSans-120"/>
      </defs>
      <use xlink:href="#DejaVuSans-120"/>
     </g>
    </g>
   </g>
   <g id="matplotlib.axis_2">
    <g id="ytick_1">
     <g id="line2d_11">
      <path clip-path="url(#p3db23ddd0b)" d="M 46.55 343.384731 
L 637.2 343.384731 
" style="fill:none;stroke:#b0b0b0;stroke-linecap:square;stroke-width:0.8;"/>
     </g>
     <g id="line2d_12">
      <defs>
       <path d="M 0 0 
L -3.5 0 
" id="me4079a177e" style="stroke:#000000;stroke-width:0.8;"/>
      </defs>
      <g>
       <use style="stroke:#000000;stroke-width:0.8;" x="46.55" xlink:href="#me4079a177e" y="343.384731"/>
      </g>
     </g>
     <g id="text_7">
      <!-- −4 -->
      <g transform="translate(24.807813 347.183949)scale(0.1 -0.1)">
       <use xlink:href="#DejaVuSans-8722"/>
       <use x="83.789062" xlink:href="#DejaVuSans-52"/>
      </g>
     </g>
    </g>
    <g id="ytick_2">
     <g id="line2d_13">
      <path clip-path="url(#p3db23ddd0b)" d="M 46.55 290.138102 
L 637.2 290.138102 
" style="fill:none;stroke:#b0b0b0;stroke-linecap:square;stroke-width:0.8;"/>
     </g>
     <g id="line2d_14">
      <g>
       <use style="stroke:#000000;stroke-width:0.8;" x="46.55" xlink:href="#me4079a177e" y="290.138102"/>
      </g>
     </g>
     <g id="text_8">
      <!-- −2 -->
      <g transform="translate(24.807813 293.937321)scale(0.1 -0.1)">
       <use xlink:href="#DejaVuSans-8722"/>
       <use x="83.789062" xlink:href="#DejaVuSans-50"/>
      </g>
     </g>
    </g>
    <g id="ytick_3">
     <g id="line2d_15">
      <path clip-path="url(#p3db23ddd0b)" d="M 46.55 236.891473 
L 637.2 236.891473 
" style="fill:none;stroke:#b0b0b0;stroke-linecap:square;stroke-width:0.8;"/>
     </g>
     <g id="line2d_16">
      <g>
       <use style="stroke:#000000;stroke-width:0.8;" x="46.55" xlink:href="#me4079a177e" y="236.891473"/>
      </g>
     </g>
     <g id="text_9">
      <!-- 0 -->
      <g transform="translate(33.1875 240.690692)scale(0.1 -0.1)">
       <use xlink:href="#DejaVuSans-48"/>
      </g>
     </g>
    </g>
    <g id="ytick_4">
     <g id="line2d_17">
      <path clip-path="url(#p3db23ddd0b)" d="M 46.55 183.644845 
L 637.2 183.644845 
" style="fill:none;stroke:#b0b0b0;stroke-linecap:square;stroke-width:0.8;"/>
     </g>
     <g id="line2d_18">
      <g>
       <use style="stroke:#000000;stroke-width:0.8;" x="46.55" xlink:href="#me4079a177e" y="183.644845"/>
      </g>
     </g>
     <g id="text_10">
      <!-- 2 -->
      <g transform="translate(33.1875 187.444064)scale(0.1 -0.1)">
       <use xlink:href="#DejaVuSans-50"/>
      </g>
     </g>
    </g>
    <g id="ytick_5">
     <g id="line2d_19">
      <path clip-path="url(#p3db23ddd0b)" d="M 46.55 130.398216 
L 637.2 130.398216 
" style="fill:none;stroke:#b0b0b0;stroke-linecap:square;stroke-width:0.8;"/>
     </g>
     <g id="line2d_20">
      <g>
       <use style="stroke:#000000;stroke-width:0.8;" x="46.55" xlink:href="#me4079a177e" y="130.398216"/>
      </g>
     </g>
     <g id="text_11">
      <!-- 4 -->
      <g transform="translate(33.1875 134.197435)scale(0.1 -0.1)">
       <use xlink:href="#DejaVuSans-52"/>
      </g>
     </g>
    </g>
    <g id="ytick_6">
     <g id="line2d_21">
      <path clip-path="url(#p3db23ddd0b)" d="M 46.55 77.151588 
L 637.2 77.151588 
" style="fill:none;stroke:#b0b0b0;stroke-linecap:square;stroke-width:0.8;"/>
     </g>
     <g id="line2d_22">
      <g>
       <use style="stroke:#000000;stroke-width:0.8;" x="46.55" xlink:href="#me4079a177e" y="77.151588"/>
      </g>
     </g>
     <g id="text_12">
      <!-- 6 -->
      <g transform="translate(33.1875 80.950806)scale(0.1 -0.1)">
       <defs>
        <path d="M 33.015625 40.375 
Q 26.375 40.375 22.484375 35.828125 
Q 18.609375 31.296875 18.609375 23.390625 
Q 18.609375 15.53125 22.484375 10.953125 
Q 26.375 6.390625 33.015625 6.390625 
Q 39.65625 6.390625 43.53125 10.953125 
Q 47.40625 15.53125 47.40625 23.390625 
Q 47.40625 31.296875 43.53125 35.828125 
Q 39.65625 40.375 33.015625 40.375 
z
M 52.59375 71.296875 
L 52.59375 62.3125 
Q 48.875 64.0625 45.09375 64.984375 
Q 41.3125 65.921875 37.59375 65.921875 
Q 27.828125 65.921875 22.671875 59.328125 
Q 17.53125 52.734375 16.796875 39.40625 
Q 19.671875 43.65625 24.015625 45.921875 
Q 28.375 48.1875 33.59375 48.1875 
Q 44.578125 48.1875 50.953125 41.515625 
Q 57.328125 34.859375 57.328125 23.390625 
Q 57.328125 12.15625 50.6875 5.359375 
Q 44.046875 -1.421875 33.015625 -1.421875 
Q 20.359375 -1.421875 13.671875 8.265625 
Q 6.984375 17.96875 6.984375 36.375 
Q 6.984375 53.65625 15.1875 63.9375 
Q 23.390625 74.21875 37.203125 74.21875 
Q 40.921875 74.21875 44.703125 73.484375 
Q 48.484375 72.75 52.59375 71.296875 
z
" id="DejaVuSans-54"/>
       </defs>
       <use xlink:href="#DejaVuSans-54"/>
      </g>
     </g>
    </g>
    <g id="text_13">
     <!-- y -->
     <g transform="translate(18.728125 211.459375)rotate(-90)scale(0.1 -0.1)">
      <defs>
       <path d="M 32.171875 -5.078125 
Q 28.375 -14.84375 24.75 -17.8125 
Q 21.140625 -20.796875 15.09375 -20.796875 
L 7.90625 -20.796875 
L 7.90625 -13.28125 
L 13.1875 -13.28125 
Q 16.890625 -13.28125 18.9375 -11.515625 
Q 21 -9.765625 23.484375 -3.21875 
L 25.09375 0.875 
L 2.984375 54.6875 
L 12.5 54.6875 
L 29.59375 11.921875 
L 46.6875 54.6875 
L 56.203125 54.6875 
z
" id="DejaVuSans-121"/>
      </defs>
      <use xlink:href="#DejaVuSans-121"/>
     </g>
    </g>
   </g>
   <g id="line2d_23">
    <path clip-path="url(#p3db23ddd0b)" d="M 73.397727 373.681818 
L 75.010203 356.255441 
L 76.622679 340.633972 
L 78.235156 326.638091 
L 79.847632 314.102952 
L 81.460108 302.877261 
L 83.072584 292.822395 
L 85.222552 281.019668 
L 87.37252 270.803979 
L 89.522488 261.936821 
L 91.672457 254.20858 
L 93.822425 247.435831 
L 95.972393 241.458821 
L 98.122361 236.139151 
L 100.272329 231.357618 
L 102.959789 225.983572 
L 105.64725 221.126263 
L 108.872202 215.793797 
L 112.634646 210.037142 
L 117.472074 203.072467 
L 124.996963 192.694378 
L 134.67182 179.736013 
L 141.659216 170.733645 
L 147.034136 164.156948 
L 151.871565 158.590749 
L 156.171501 153.979406 
L 159.933945 150.234892 
L 163.69639 146.780629 
L 167.458834 143.628311 
L 171.221278 140.78335 
L 174.983722 138.245284 
L 178.746167 136.008391 
L 182.508611 134.062438 
L 186.271055 132.393528 
L 190.033499 130.984968 
L 193.795944 129.81815 
L 197.558388 128.873386 
L 201.858324 128.03994 
L 206.158261 127.441347 
L 210.995689 127.014868 
L 215.833117 126.816864 
L 221.208038 126.830263 
L 226.582958 127.060921 
L 232.49537 127.543036 
L 238.407783 128.253841 
L 244.320195 129.195425 
L 249.695116 130.26231 
L 255.070036 131.545516 
L 260.444956 133.062872 
L 265.282385 134.643715 
L 270.119813 136.440777 
L 274.957241 138.463157 
L 279.79467 140.715984 
L 284.632098 143.199371 
L 290.007018 146.221888 
L 295.381939 149.504507 
L 301.294351 153.382452 
L 308.281748 158.256526 
L 317.956604 165.322774 
L 330.856413 174.720029 
L 337.306318 179.125288 
L 342.681238 182.520941 
L 347.518666 185.300144 
L 351.818603 187.510414 
L 355.581047 189.219191 
L 359.343491 190.699858 
L 363.105935 191.938371 
L 366.86838 192.923994 
L 370.630824 193.649605 
L 373.855776 194.062026 
L 377.080728 194.281261 
L 380.843173 194.296398 
L 384.605617 194.060128 
L 388.368061 193.584646 
L 392.130506 192.886296 
L 396.430442 191.841554 
L 400.730378 190.56878 
L 406.105298 188.721902 
L 413.092695 186.041914 
L 427.067488 180.609265 
L 432.442408 178.815523 
L 436.742345 177.609672 
L 440.504789 176.762589 
L 444.267233 176.139211 
L 448.029677 175.763307 
L 451.25463 175.652445 
L 454.479582 175.745802 
L 457.704534 176.048562 
L 460.929486 176.562319 
L 464.154439 177.284873 
L 467.379391 178.210063 
L 471.141835 179.531671 
L 474.904279 181.091604 
L 479.204216 183.126044 
L 484.041644 185.665038 
L 491.566532 189.903401 
L 499.091421 194.079579 
L 503.391357 196.234243 
L 507.153802 197.876711 
L 510.378754 199.046862 
L 513.066214 199.820146 
L 515.753674 200.38301 
L 518.441134 200.711236 
L 521.128595 200.781944 
L 523.278563 200.638787 
L 525.428531 200.307278 
L 527.578499 199.778422 
L 529.728467 199.044276 
L 531.878435 198.098048 
L 534.028403 196.934197 
L 536.178372 195.548523 
L 538.32834 193.938244 
L 541.0158 191.607726 
L 543.70326 188.925245 
L 546.39072 185.895566 
L 549.07818 182.527375 
L 551.765641 178.833236 
L 554.990593 173.993213 
L 558.215545 168.742175 
L 561.977989 162.151308 
L 566.277926 154.095844 
L 571.115354 144.503972 
L 577.027766 132.234668 
L 584.015163 117.201277 
L 589.927575 104.00319 
L 594.227512 93.904147 
L 597.452464 85.83523 
L 600.139924 78.614297 
L 602.827384 70.759689 
L 604.977352 63.87418 
L 607.127321 56.307129 
L 609.277289 47.897147 
L 610.352273 43.318182 
L 610.352273 43.318182 
" style="fill:none;stroke:#ff0000;stroke-dasharray:5.55,2.4;stroke-dashoffset:0;stroke-width:1.5;"/>
   </g>
   <g id="patch_3">
    <path d="M 46.55 390.2 
L 46.55 26.8 
" style="fill:none;stroke:#000000;stroke-linecap:square;stroke-linejoin:miter;stroke-width:0.8;"/>
   </g>
   <g id="patch_4">
    <path d="M 637.2 390.2 
L 637.2 26.8 
" style="fill:none;stroke:#000000;stroke-linecap:square;stroke-linejoin:miter;stroke-width:0.8;"/>
   </g>
   <g id="patch_5">
    <path d="M 46.55 390.2 
L 637.2 390.2 
" style="fill:none;stroke:#000000;stroke-linecap:square;stroke-linejoin:miter;stroke-width:0.8;"/>
   </g>
   <g id="patch_6">
    <path d="M 46.55 26.8 
L 637.2 26.8 
" style="fill:none;stroke:#000000;stroke-linecap:square;stroke-linejoin:miter;stroke-width:0.8;"/>
   </g>
   <g id="text_14">
    <!-- Polynomial model: grade = 11, reg=0.45 -->
    <g transform="translate(218.774687 20.8)scale(0.12 -0.12)">
     <defs>
      <path d="M 19.671875 64.796875 
L 19.671875 37.40625 
L 32.078125 37.40625 
Q 38.96875 37.40625 42.71875 40.96875 
Q 46.484375 44.53125 46.484375 51.125 
Q 46.484375 57.671875 42.71875 61.234375 
Q 38.96875 64.796875 32.078125 64.796875 
z
M 9.8125 72.90625 
L 32.078125 72.90625 
Q 44.34375 72.90625 50.609375 67.359375 
Q 56.890625 61.8125 56.890625 51.125 
Q 56.890625 40.328125 50.609375 34.8125 
Q 44.34375 29.296875 32.078125 29.296875 
L 19.671875 29.296875 
L 19.671875 0 
L 9.8125 0 
z
" id="DejaVuSans-80"/>
      <path d="M 30.609375 48.390625 
Q 23.390625 48.390625 19.1875 42.75 
Q 14.984375 37.109375 14.984375 27.296875 
Q 14.984375 17.484375 19.15625 11.84375 
Q 23.34375 6.203125 30.609375 6.203125 
Q 37.796875 6.203125 41.984375 11.859375 
Q 46.1875 17.53125 46.1875 27.296875 
Q 46.1875 37.015625 41.984375 42.703125 
Q 37.796875 48.390625 30.609375 48.390625 
z
M 30.609375 56 
Q 42.328125 56 49.015625 48.375 
Q 55.71875 40.765625 55.71875 27.296875 
Q 55.71875 13.875 49.015625 6.21875 
Q 42.328125 -1.421875 30.609375 -1.421875 
Q 18.84375 -1.421875 12.171875 6.21875 
Q 5.515625 13.875 5.515625 27.296875 
Q 5.515625 40.765625 12.171875 48.375 
Q 18.84375 56 30.609375 56 
z
" id="DejaVuSans-111"/>
      <path d="M 9.421875 75.984375 
L 18.40625 75.984375 
L 18.40625 0 
L 9.421875 0 
z
" id="DejaVuSans-108"/>
      <path d="M 54.890625 33.015625 
L 54.890625 0 
L 45.90625 0 
L 45.90625 32.71875 
Q 45.90625 40.484375 42.875 44.328125 
Q 39.84375 48.1875 33.796875 48.1875 
Q 26.515625 48.1875 22.3125 43.546875 
Q 18.109375 38.921875 18.109375 30.90625 
L 18.109375 0 
L 9.078125 0 
L 9.078125 54.6875 
L 18.109375 54.6875 
L 18.109375 46.1875 
Q 21.34375 51.125 25.703125 53.5625 
Q 30.078125 56 35.796875 56 
Q 45.21875 56 50.046875 50.171875 
Q 54.890625 44.34375 54.890625 33.015625 
z
" id="DejaVuSans-110"/>
      <path d="M 52 44.1875 
Q 55.375 50.25 60.0625 53.125 
Q 64.75 56 71.09375 56 
Q 79.640625 56 84.28125 50.015625 
Q 88.921875 44.046875 88.921875 33.015625 
L 88.921875 0 
L 79.890625 0 
L 79.890625 32.71875 
Q 79.890625 40.578125 77.09375 44.375 
Q 74.3125 48.1875 68.609375 48.1875 
Q 61.625 48.1875 57.5625 43.546875 
Q 53.515625 38.921875 53.515625 30.90625 
L 53.515625 0 
L 44.484375 0 
L 44.484375 32.71875 
Q 44.484375 40.625 41.703125 44.40625 
Q 38.921875 48.1875 33.109375 48.1875 
Q 26.21875 48.1875 22.15625 43.53125 
Q 18.109375 38.875 18.109375 30.90625 
L 18.109375 0 
L 9.078125 0 
L 9.078125 54.6875 
L 18.109375 54.6875 
L 18.109375 46.1875 
Q 21.1875 51.21875 25.484375 53.609375 
Q 29.78125 56 35.6875 56 
Q 41.65625 56 45.828125 52.96875 
Q 50 49.953125 52 44.1875 
z
" id="DejaVuSans-109"/>
      <path d="M 9.421875 54.6875 
L 18.40625 54.6875 
L 18.40625 0 
L 9.421875 0 
z
M 9.421875 75.984375 
L 18.40625 75.984375 
L 18.40625 64.59375 
L 9.421875 64.59375 
z
" id="DejaVuSans-105"/>
      <path d="M 34.28125 27.484375 
Q 23.390625 27.484375 19.1875 25 
Q 14.984375 22.515625 14.984375 16.5 
Q 14.984375 11.71875 18.140625 8.90625 
Q 21.296875 6.109375 26.703125 6.109375 
Q 34.1875 6.109375 38.703125 11.40625 
Q 43.21875 16.703125 43.21875 25.484375 
L 43.21875 27.484375 
z
M 52.203125 31.203125 
L 52.203125 0 
L 43.21875 0 
L 43.21875 8.296875 
Q 40.140625 3.328125 35.546875 0.953125 
Q 30.953125 -1.421875 24.3125 -1.421875 
Q 15.921875 -1.421875 10.953125 3.296875 
Q 6 8.015625 6 15.921875 
Q 6 25.140625 12.171875 29.828125 
Q 18.359375 34.515625 30.609375 34.515625 
L 43.21875 34.515625 
L 43.21875 35.40625 
Q 43.21875 41.609375 39.140625 45 
Q 35.0625 48.390625 27.6875 48.390625 
Q 23 48.390625 18.546875 47.265625 
Q 14.109375 46.140625 10.015625 43.890625 
L 10.015625 52.203125 
Q 14.9375 54.109375 19.578125 55.046875 
Q 24.21875 56 28.609375 56 
Q 40.484375 56 46.34375 49.84375 
Q 52.203125 43.703125 52.203125 31.203125 
z
" id="DejaVuSans-97"/>
      <path id="DejaVuSans-32"/>
      <path d="M 45.40625 46.390625 
L 45.40625 75.984375 
L 54.390625 75.984375 
L 54.390625 0 
L 45.40625 0 
L 45.40625 8.203125 
Q 42.578125 3.328125 38.25 0.953125 
Q 33.9375 -1.421875 27.875 -1.421875 
Q 17.96875 -1.421875 11.734375 6.484375 
Q 5.515625 14.40625 5.515625 27.296875 
Q 5.515625 40.1875 11.734375 48.09375 
Q 17.96875 56 27.875 56 
Q 33.9375 56 38.25 53.625 
Q 42.578125 51.265625 45.40625 46.390625 
z
M 14.796875 27.296875 
Q 14.796875 17.390625 18.875 11.75 
Q 22.953125 6.109375 30.078125 6.109375 
Q 37.203125 6.109375 41.296875 11.75 
Q 45.40625 17.390625 45.40625 27.296875 
Q 45.40625 37.203125 41.296875 42.84375 
Q 37.203125 48.484375 30.078125 48.484375 
Q 22.953125 48.484375 18.875 42.84375 
Q 14.796875 37.203125 14.796875 27.296875 
z
" id="DejaVuSans-100"/>
      <path d="M 56.203125 29.59375 
L 56.203125 25.203125 
L 14.890625 25.203125 
Q 15.484375 15.921875 20.484375 11.0625 
Q 25.484375 6.203125 34.421875 6.203125 
Q 39.59375 6.203125 44.453125 7.46875 
Q 49.3125 8.734375 54.109375 11.28125 
L 54.109375 2.78125 
Q 49.265625 0.734375 44.1875 -0.34375 
Q 39.109375 -1.421875 33.890625 -1.421875 
Q 20.796875 -1.421875 13.15625 6.1875 
Q 5.515625 13.8125 5.515625 26.8125 
Q 5.515625 40.234375 12.765625 48.109375 
Q 20.015625 56 32.328125 56 
Q 43.359375 56 49.78125 48.890625 
Q 56.203125 41.796875 56.203125 29.59375 
z
M 47.21875 32.234375 
Q 47.125 39.59375 43.09375 43.984375 
Q 39.0625 48.390625 32.421875 48.390625 
Q 24.90625 48.390625 20.390625 44.140625 
Q 15.875 39.890625 15.1875 32.171875 
z
" id="DejaVuSans-101"/>
      <path d="M 11.71875 12.40625 
L 22.015625 12.40625 
L 22.015625 0 
L 11.71875 0 
z
M 11.71875 51.703125 
L 22.015625 51.703125 
L 22.015625 39.3125 
L 11.71875 39.3125 
z
" id="DejaVuSans-58"/>
      <path d="M 45.40625 27.984375 
Q 45.40625 37.75 41.375 43.109375 
Q 37.359375 48.484375 30.078125 48.484375 
Q 22.859375 48.484375 18.828125 43.109375 
Q 14.796875 37.75 14.796875 27.984375 
Q 14.796875 18.265625 18.828125 12.890625 
Q 22.859375 7.515625 30.078125 7.515625 
Q 37.359375 7.515625 41.375 12.890625 
Q 45.40625 18.265625 45.40625 27.984375 
z
M 54.390625 6.78125 
Q 54.390625 -7.171875 48.1875 -13.984375 
Q 42 -20.796875 29.203125 -20.796875 
Q 24.46875 -20.796875 20.265625 -20.09375 
Q 16.0625 -19.390625 12.109375 -17.921875 
L 12.109375 -9.1875 
Q 16.0625 -11.328125 19.921875 -12.34375 
Q 23.78125 -13.375 27.78125 -13.375 
Q 36.625 -13.375 41.015625 -8.765625 
Q 45.40625 -4.15625 45.40625 5.171875 
L 45.40625 9.625 
Q 42.625 4.78125 38.28125 2.390625 
Q 33.9375 0 27.875 0 
Q 17.828125 0 11.671875 7.65625 
Q 5.515625 15.328125 5.515625 27.984375 
Q 5.515625 40.671875 11.671875 48.328125 
Q 17.828125 56 27.875 56 
Q 33.9375 56 38.28125 53.609375 
Q 42.625 51.21875 45.40625 46.390625 
L 45.40625 54.6875 
L 54.390625 54.6875 
z
" id="DejaVuSans-103"/>
      <path d="M 41.109375 46.296875 
Q 39.59375 47.171875 37.8125 47.578125 
Q 36.03125 48 33.890625 48 
Q 26.265625 48 22.1875 43.046875 
Q 18.109375 38.09375 18.109375 28.8125 
L 18.109375 0 
L 9.078125 0 
L 9.078125 54.6875 
L 18.109375 54.6875 
L 18.109375 46.1875 
Q 20.953125 51.171875 25.484375 53.578125 
Q 30.03125 56 36.53125 56 
Q 37.453125 56 38.578125 55.875 
Q 39.703125 55.765625 41.0625 55.515625 
z
" id="DejaVuSans-114"/>
      <path d="M 10.59375 45.40625 
L 73.1875 45.40625 
L 73.1875 37.203125 
L 10.59375 37.203125 
z
M 10.59375 25.484375 
L 73.1875 25.484375 
L 73.1875 17.1875 
L 10.59375 17.1875 
z
" id="DejaVuSans-61"/>
      <path d="M 12.40625 8.296875 
L 28.515625 8.296875 
L 28.515625 63.921875 
L 10.984375 60.40625 
L 10.984375 69.390625 
L 28.421875 72.90625 
L 38.28125 72.90625 
L 38.28125 8.296875 
L 54.390625 8.296875 
L 54.390625 0 
L 12.40625 0 
z
" id="DejaVuSans-49"/>
      <path d="M 11.71875 12.40625 
L 22.015625 12.40625 
L 22.015625 4 
L 14.015625 -11.625 
L 7.71875 -11.625 
L 11.71875 4 
z
" id="DejaVuSans-44"/>
      <path d="M 10.6875 12.40625 
L 21 12.40625 
L 21 0 
L 10.6875 0 
z
" id="DejaVuSans-46"/>
      <path d="M 10.796875 72.90625 
L 49.515625 72.90625 
L 49.515625 64.59375 
L 19.828125 64.59375 
L 19.828125 46.734375 
Q 21.96875 47.46875 24.109375 47.828125 
Q 26.265625 48.1875 28.421875 48.1875 
Q 40.625 48.1875 47.75 41.5 
Q 54.890625 34.8125 54.890625 23.390625 
Q 54.890625 11.625 47.5625 5.09375 
Q 40.234375 -1.421875 26.90625 -1.421875 
Q 22.3125 -1.421875 17.546875 -0.640625 
Q 12.796875 0.140625 7.71875 1.703125 
L 7.71875 11.625 
Q 12.109375 9.234375 16.796875 8.0625 
Q 21.484375 6.890625 26.703125 6.890625 
Q 35.15625 6.890625 40.078125 11.328125 
Q 45.015625 15.765625 45.015625 23.390625 
Q 45.015625 31 40.078125 35.4375 
Q 35.15625 39.890625 26.703125 39.890625 
Q 22.75 39.890625 18.8125 39.015625 
Q 14.890625 38.140625 10.796875 36.28125 
z
" id="DejaVuSans-53"/>
     </defs>
     <use xlink:href="#DejaVuSans-80"/>
     <use x="56.677734" xlink:href="#DejaVuSans-111"/>
     <use x="117.859375" xlink:href="#DejaVuSans-108"/>
     <use x="145.642578" xlink:href="#DejaVuSans-121"/>
     <use x="204.822266" xlink:href="#DejaVuSans-110"/>
     <use x="268.201172" xlink:href="#DejaVuSans-111"/>
     <use x="329.382812" xlink:href="#DejaVuSans-109"/>
     <use x="426.794922" xlink:href="#DejaVuSans-105"/>
     <use x="454.578125" xlink:href="#DejaVuSans-97"/>
     <use x="515.857422" xlink:href="#DejaVuSans-108"/>
     <use x="543.640625" xlink:href="#DejaVuSans-32"/>
     <use x="575.427734" xlink:href="#DejaVuSans-109"/>
     <use x="672.839844" xlink:href="#DejaVuSans-111"/>
     <use x="734.021484" xlink:href="#DejaVuSans-100"/>
     <use x="797.498047" xlink:href="#DejaVuSans-101"/>
     <use x="859.021484" xlink:href="#DejaVuSans-108"/>
     <use x="886.804688" xlink:href="#DejaVuSans-58"/>
     <use x="920.496094" xlink:href="#DejaVuSans-32"/>
     <use x="952.283203" xlink:href="#DejaVuSans-103"/>
     <use x="1015.759766" xlink:href="#DejaVuSans-114"/>
     <use x="1056.873047" xlink:href="#DejaVuSans-97"/>
     <use x="1118.152344" xlink:href="#DejaVuSans-100"/>
     <use x="1181.628906" xlink:href="#DejaVuSans-101"/>
     <use x="1243.152344" xlink:href="#DejaVuSans-32"/>
     <use x="1274.939453" xlink:href="#DejaVuSans-61"/>
     <use x="1358.728516" xlink:href="#DejaVuSans-32"/>
     <use x="1390.515625" xlink:href="#DejaVuSans-49"/>
     <use x="1454.138672" xlink:href="#DejaVuSans-49"/>
     <use x="1517.761719" xlink:href="#DejaVuSans-44"/>
     <use x="1549.548828" xlink:href="#DejaVuSans-32"/>
     <use x="1581.335938" xlink:href="#DejaVuSans-114"/>
     <use x="1620.199219" xlink:href="#DejaVuSans-101"/>
     <use x="1681.722656" xlink:href="#DejaVuSans-103"/>
     <use x="1745.199219" xlink:href="#DejaVuSans-61"/>
     <use x="1828.988281" xlink:href="#DejaVuSans-48"/>
     <use x="1892.611328" xlink:href="#DejaVuSans-46"/>
     <use x="1924.398438" xlink:href="#DejaVuSans-52"/>
     <use x="1988.021484" xlink:href="#DejaVuSans-53"/>
    </g>
   </g>
   <g id="legend_1">
    <g id="patch_7">
     <path d="M 53.55 78.834375 
L 183.915625 78.834375 
Q 185.915625 78.834375 185.915625 76.834375 
L 185.915625 33.8 
Q 185.915625 31.8 183.915625 31.8 
L 53.55 31.8 
Q 51.55 31.8 51.55 33.8 
L 51.55 76.834375 
Q 51.55 78.834375 53.55 78.834375 
z
" style="fill:#ffffff;opacity:0.8;stroke:#cccccc;stroke-linejoin:miter;"/>
    </g>
    <g id="line2d_24">
     <path d="M 55.55 39.898438 
L 75.55 39.898438 
" style="fill:none;stroke:#ff0000;stroke-dasharray:5.55,2.4;stroke-dashoffset:0;stroke-width:1.5;"/>
    </g>
    <g id="line2d_25"/>
    <g id="text_15">
     <!-- Least square model -->
     <g transform="translate(83.55 43.398438)scale(0.1 -0.1)">
      <defs>
       <path d="M 9.8125 72.90625 
L 19.671875 72.90625 
L 19.671875 8.296875 
L 55.171875 8.296875 
L 55.171875 0 
L 9.8125 0 
z
" id="DejaVuSans-76"/>
       <path d="M 44.28125 53.078125 
L 44.28125 44.578125 
Q 40.484375 46.53125 36.375 47.5 
Q 32.28125 48.484375 27.875 48.484375 
Q 21.1875 48.484375 17.84375 46.4375 
Q 14.5 44.390625 14.5 40.28125 
Q 14.5 37.15625 16.890625 35.375 
Q 19.28125 33.59375 26.515625 31.984375 
L 29.59375 31.296875 
Q 39.15625 29.25 43.1875 25.515625 
Q 47.21875 21.78125 47.21875 15.09375 
Q 47.21875 7.46875 41.1875 3.015625 
Q 35.15625 -1.421875 24.609375 -1.421875 
Q 20.21875 -1.421875 15.453125 -0.5625 
Q 10.6875 0.296875 5.421875 2 
L 5.421875 11.28125 
Q 10.40625 8.6875 15.234375 7.390625 
Q 20.0625 6.109375 24.8125 6.109375 
Q 31.15625 6.109375 34.5625 8.28125 
Q 37.984375 10.453125 37.984375 14.40625 
Q 37.984375 18.0625 35.515625 20.015625 
Q 33.0625 21.96875 24.703125 23.78125 
L 21.578125 24.515625 
Q 13.234375 26.265625 9.515625 29.90625 
Q 5.8125 33.546875 5.8125 39.890625 
Q 5.8125 47.609375 11.28125 51.796875 
Q 16.75 56 26.8125 56 
Q 31.78125 56 36.171875 55.265625 
Q 40.578125 54.546875 44.28125 53.078125 
z
" id="DejaVuSans-115"/>
       <path d="M 18.3125 70.21875 
L 18.3125 54.6875 
L 36.8125 54.6875 
L 36.8125 47.703125 
L 18.3125 47.703125 
L 18.3125 18.015625 
Q 18.3125 11.328125 20.140625 9.421875 
Q 21.96875 7.515625 27.59375 7.515625 
L 36.8125 7.515625 
L 36.8125 0 
L 27.59375 0 
Q 17.1875 0 13.234375 3.875 
Q 9.28125 7.765625 9.28125 18.015625 
L 9.28125 47.703125 
L 2.6875 47.703125 
L 2.6875 54.6875 
L 9.28125 54.6875 
L 9.28125 70.21875 
z
" id="DejaVuSans-116"/>
       <path d="M 14.796875 27.296875 
Q 14.796875 17.390625 18.875 11.75 
Q 22.953125 6.109375 30.078125 6.109375 
Q 37.203125 6.109375 41.296875 11.75 
Q 45.40625 17.390625 45.40625 27.296875 
Q 45.40625 37.203125 41.296875 42.84375 
Q 37.203125 48.484375 30.078125 48.484375 
Q 22.953125 48.484375 18.875 42.84375 
Q 14.796875 37.203125 14.796875 27.296875 
z
M 45.40625 8.203125 
Q 42.578125 3.328125 38.25 0.953125 
Q 33.9375 -1.421875 27.875 -1.421875 
Q 17.96875 -1.421875 11.734375 6.484375 
Q 5.515625 14.40625 5.515625 27.296875 
Q 5.515625 40.1875 11.734375 48.09375 
Q 17.96875 56 27.875 56 
Q 33.9375 56 38.25 53.625 
Q 42.578125 51.265625 45.40625 46.390625 
L 45.40625 54.6875 
L 54.390625 54.6875 
L 54.390625 -20.796875 
L 45.40625 -20.796875 
z
" id="DejaVuSans-113"/>
       <path d="M 8.5 21.578125 
L 8.5 54.6875 
L 17.484375 54.6875 
L 17.484375 21.921875 
Q 17.484375 14.15625 20.5 10.265625 
Q 23.53125 6.390625 29.59375 6.390625 
Q 36.859375 6.390625 41.078125 11.03125 
Q 45.3125 15.671875 45.3125 23.6875 
L 45.3125 54.6875 
L 54.296875 54.6875 
L 54.296875 0 
L 45.3125 0 
L 45.3125 8.40625 
Q 42.046875 3.421875 37.71875 1 
Q 33.40625 -1.421875 27.6875 -1.421875 
Q 18.265625 -1.421875 13.375 4.4375 
Q 8.5 10.296875 8.5 21.578125 
z
M 31.109375 56 
z
" id="DejaVuSans-117"/>
      </defs>
      <use xlink:href="#DejaVuSans-76"/>
      <use x="53.962891" xlink:href="#DejaVuSans-101"/>
      <use x="115.486328" xlink:href="#DejaVuSans-97"/>
      <use x="176.765625" xlink:href="#DejaVuSans-115"/>
      <use x="228.865234" xlink:href="#DejaVuSans-116"/>
      <use x="268.074219" xlink:href="#DejaVuSans-32"/>
      <use x="299.861328" xlink:href="#DejaVuSans-115"/>
      <use x="351.960938" xlink:href="#DejaVuSans-113"/>
      <use x="415.4375" xlink:href="#DejaVuSans-117"/>
      <use x="478.816406" xlink:href="#DejaVuSans-97"/>
      <use x="540.095703" xlink:href="#DejaVuSans-114"/>
      <use x="578.958984" xlink:href="#DejaVuSans-101"/>
      <use x="640.482422" xlink:href="#DejaVuSans-32"/>
      <use x="672.269531" xlink:href="#DejaVuSans-109"/>
      <use x="769.681641" xlink:href="#DejaVuSans-111"/>
      <use x="830.863281" xlink:href="#DejaVuSans-100"/>
      <use x="894.339844" xlink:href="#DejaVuSans-101"/>
      <use x="955.863281" xlink:href="#DejaVuSans-108"/>
     </g>
    </g>
    <g id="PathCollection_3">
     <g>
      <use style="fill:#1f77b4;fill-opacity:0.6;stroke:#1f77b4;stroke-opacity:0.6;" x="65.55" xlink:href="#mab27cee789" y="55.451563"/>
     </g>
    </g>
    <g id="text_16">
     <!-- Training points -->
     <g transform="translate(83.55 58.076563)scale(0.1 -0.1)">
      <defs>
       <path d="M -0.296875 72.90625 
L 61.375 72.90625 
L 61.375 64.59375 
L 35.5 64.59375 
L 35.5 0 
L 25.59375 0 
L 25.59375 64.59375 
L -0.296875 64.59375 
z
" id="DejaVuSans-84"/>
       <path d="M 18.109375 8.203125 
L 18.109375 -20.796875 
L 9.078125 -20.796875 
L 9.078125 54.6875 
L 18.109375 54.6875 
L 18.109375 46.390625 
Q 20.953125 51.265625 25.265625 53.625 
Q 29.59375 56 35.59375 56 
Q 45.5625 56 51.78125 48.09375 
Q 58.015625 40.1875 58.015625 27.296875 
Q 58.015625 14.40625 51.78125 6.484375 
Q 45.5625 -1.421875 35.59375 -1.421875 
Q 29.59375 -1.421875 25.265625 0.953125 
Q 20.953125 3.328125 18.109375 8.203125 
z
M 48.6875 27.296875 
Q 48.6875 37.203125 44.609375 42.84375 
Q 40.53125 48.484375 33.40625 48.484375 
Q 26.265625 48.484375 22.1875 42.84375 
Q 18.109375 37.203125 18.109375 27.296875 
Q 18.109375 17.390625 22.1875 11.75 
Q 26.265625 6.109375 33.40625 6.109375 
Q 40.53125 6.109375 44.609375 11.75 
Q 48.6875 17.390625 48.6875 27.296875 
z
" id="DejaVuSans-112"/>
      </defs>
      <use xlink:href="#DejaVuSans-84"/>
      <use x="46.333984" xlink:href="#DejaVuSans-114"/>
      <use x="87.447266" xlink:href="#DejaVuSans-97"/>
      <use x="148.726562" xlink:href="#DejaVuSans-105"/>
      <use x="176.509766" xlink:href="#DejaVuSans-110"/>
      <use x="239.888672" xlink:href="#DejaVuSans-105"/>
      <use x="267.671875" xlink:href="#DejaVuSans-110"/>
      <use x="331.050781" xlink:href="#DejaVuSans-103"/>
      <use x="394.527344" xlink:href="#DejaVuSans-32"/>
      <use x="426.314453" xlink:href="#DejaVuSans-112"/>
      <use x="489.791016" xlink:href="#DejaVuSans-111"/>
      <use x="550.972656" xlink:href="#DejaVuSans-105"/>
      <use x="578.755859" xlink:href="#DejaVuSans-110"/>
      <use x="642.134766" xlink:href="#DejaVuSans-116"/>
      <use x="681.34375" xlink:href="#DejaVuSans-115"/>
     </g>
    </g>
    <g id="PathCollection_4">
     <g>
      <use style="fill:#ffd700;fill-opacity:0.6;stroke:#ffd700;stroke-opacity:0.6;" x="65.55" xlink:href="#m2a2bc1a234" y="70.129687"/>
     </g>
    </g>
    <g id="text_17">
     <!-- Testing points -->
     <g transform="translate(83.55 72.754687)scale(0.1 -0.1)">
      <use xlink:href="#DejaVuSans-84"/>
      <use x="44.083984" xlink:href="#DejaVuSans-101"/>
      <use x="105.607422" xlink:href="#DejaVuSans-115"/>
      <use x="157.707031" xlink:href="#DejaVuSans-116"/>
      <use x="196.916016" xlink:href="#DejaVuSans-105"/>
      <use x="224.699219" xlink:href="#DejaVuSans-110"/>
      <use x="288.078125" xlink:href="#DejaVuSans-103"/>
      <use x="351.554688" xlink:href="#DejaVuSans-32"/>
      <use x="383.341797" xlink:href="#DejaVuSans-112"/>
      <use x="446.818359" xlink:href="#DejaVuSans-111"/>
      <use x="508" xlink:href="#DejaVuSans-105"/>
      <use x="535.783203" xlink:href="#DejaVuSans-110"/>
      <use x="599.162109" xlink:href="#DejaVuSans-116"/>
      <use x="638.371094" xlink:href="#DejaVuSans-115"/>
     </g>
    </g>
   </g>
  </g>
 </g>
 <defs>
  <clipPath id="p3db23ddd0b">
   <rect height="363.4" width="590.65" x="46.55" y="26.8"/>
  </clipPath>
 </defs>
</svg>
