<?xml version="1.0" encoding="utf-8" standalone="no"?>
<!DOCTYPE svg PUBLIC "-//W3C//DTD SVG 1.1//EN"
  "http://www.w3.org/Graphics/SVG/1.1/DTD/svg11.dtd">
<svg height="432pt" version="1.1" viewBox="0 0 288 432" width="288pt" xmlns="http://www.w3.org/2000/svg" xmlns:xlink="http://www.w3.org/1999/xlink">
 <metadata>
  <rdf:RDF xmlns:cc="http://creativecommons.org/ns#" xmlns:dc="http://purl.org/dc/elements/1.1/" xmlns:rdf="http://www.w3.org/1999/02/22-rdf-syntax-ns#">
   <cc:Work>
    <dc:type rdf:resource="http://purl.org/dc/dcmitype/StillImage"/>
    <dc:date>2022-02-04T00:03:56.430512</dc:date>
    <dc:format>image/svg+xml</dc:format>
    <dc:creator>
     <cc:Agent>
      <dc:title>Matplotlib v3.4.3, https://matplotlib.org/</dc:title>
     </cc:Agent>
    </dc:creator>
   </cc:Work>
  </rdf:RDF>
 </metadata>
 <defs>
  <style type="text/css">*{stroke-linecap:butt;stroke-linejoin:round;}</style>
 </defs>
 <g id="figure_1">
  <g id="patch_1">
   <path d="M 0 432 
L 288 432 
L 288 0 
L 0 0 
z
" style="fill:none;"/>
  </g>
  <g id="axes_1">
   <g id="patch_2">
    <path d="M 50.925 179.6 
L 275.733368 179.6 
L 275.733368 26.8 
L 50.925 26.8 
z
" style="fill:#ffffff;"/>
   </g>
   <g id="matplotlib.axis_1">
    <g id="xtick_1">
     <g id="line2d_1">
      <defs>
       <path d="M 0 0 
L 0 3.5 
" id="m8ffc447ac9" style="stroke:#000000;stroke-width:0.8;"/>
      </defs>
      <g>
       <use style="stroke:#000000;stroke-width:0.8;" x="61.143562" xlink:href="#m8ffc447ac9" y="179.6"/>
      </g>
     </g>
     <g id="text_1">
      <!-- 0 -->
      <g transform="translate(57.962312 194.198438)scale(0.1 -0.1)">
       <defs>
        <path d="M 2034 4250 
Q 1547 4250 1301 3770 
Q 1056 3291 1056 2328 
Q 1056 1369 1301 889 
Q 1547 409 2034 409 
Q 2525 409 2770 889 
Q 3016 1369 3016 2328 
Q 3016 3291 2770 3770 
Q 2525 4250 2034 4250 
z
M 2034 4750 
Q 2819 4750 3233 4129 
Q 3647 3509 3647 2328 
Q 3647 1150 3233 529 
Q 2819 -91 2034 -91 
Q 1250 -91 836 529 
Q 422 1150 422 2328 
Q 422 3509 836 4129 
Q 1250 4750 2034 4750 
z
" id="DejaVuSans-30" transform="scale(0.015625)"/>
       </defs>
       <use xlink:href="#DejaVuSans-30"/>
      </g>
     </g>
    </g>
    <g id="xtick_2">
     <g id="line2d_2">
      <g>
       <use style="stroke:#000000;stroke-width:0.8;" x="102.430682" xlink:href="#m8ffc447ac9" y="179.6"/>
      </g>
     </g>
     <g id="text_2">
      <!-- 20 -->
      <g transform="translate(96.068182 194.198438)scale(0.1 -0.1)">
       <defs>
        <path d="M 1228 531 
L 3431 531 
L 3431 0 
L 469 0 
L 469 531 
Q 828 903 1448 1529 
Q 2069 2156 2228 2338 
Q 2531 2678 2651 2914 
Q 2772 3150 2772 3378 
Q 2772 3750 2511 3984 
Q 2250 4219 1831 4219 
Q 1534 4219 1204 4116 
Q 875 4013 500 3803 
L 500 4441 
Q 881 4594 1212 4672 
Q 1544 4750 1819 4750 
Q 2544 4750 2975 4387 
Q 3406 4025 3406 3419 
Q 3406 3131 3298 2873 
Q 3191 2616 2906 2266 
Q 2828 2175 2409 1742 
Q 1991 1309 1228 531 
z
" id="DejaVuSans-32" transform="scale(0.015625)"/>
       </defs>
       <use xlink:href="#DejaVuSans-32"/>
       <use x="63.623047" xlink:href="#DejaVuSans-30"/>
      </g>
     </g>
    </g>
    <g id="xtick_3">
     <g id="line2d_3">
      <g>
       <use style="stroke:#000000;stroke-width:0.8;" x="143.717802" xlink:href="#m8ffc447ac9" y="179.6"/>
      </g>
     </g>
     <g id="text_3">
      <!-- 40 -->
      <g transform="translate(137.355302 194.198438)scale(0.1 -0.1)">
       <defs>
        <path d="M 2419 4116 
L 825 1625 
L 2419 1625 
L 2419 4116 
z
M 2253 4666 
L 3047 4666 
L 3047 1625 
L 3713 1625 
L 3713 1100 
L 3047 1100 
L 3047 0 
L 2419 0 
L 2419 1100 
L 313 1100 
L 313 1709 
L 2253 4666 
z
" id="DejaVuSans-34" transform="scale(0.015625)"/>
       </defs>
       <use xlink:href="#DejaVuSans-34"/>
       <use x="63.623047" xlink:href="#DejaVuSans-30"/>
      </g>
     </g>
    </g>
    <g id="xtick_4">
     <g id="line2d_4">
      <g>
       <use style="stroke:#000000;stroke-width:0.8;" x="185.004922" xlink:href="#m8ffc447ac9" y="179.6"/>
      </g>
     </g>
     <g id="text_4">
      <!-- 60 -->
      <g transform="translate(178.642422 194.198438)scale(0.1 -0.1)">
       <defs>
        <path d="M 2113 2584 
Q 1688 2584 1439 2293 
Q 1191 2003 1191 1497 
Q 1191 994 1439 701 
Q 1688 409 2113 409 
Q 2538 409 2786 701 
Q 3034 994 3034 1497 
Q 3034 2003 2786 2293 
Q 2538 2584 2113 2584 
z
M 3366 4563 
L 3366 3988 
Q 3128 4100 2886 4159 
Q 2644 4219 2406 4219 
Q 1781 4219 1451 3797 
Q 1122 3375 1075 2522 
Q 1259 2794 1537 2939 
Q 1816 3084 2150 3084 
Q 2853 3084 3261 2657 
Q 3669 2231 3669 1497 
Q 3669 778 3244 343 
Q 2819 -91 2113 -91 
Q 1303 -91 875 529 
Q 447 1150 447 2328 
Q 447 3434 972 4092 
Q 1497 4750 2381 4750 
Q 2619 4750 2861 4703 
Q 3103 4656 3366 4563 
z
" id="DejaVuSans-36" transform="scale(0.015625)"/>
       </defs>
       <use xlink:href="#DejaVuSans-36"/>
       <use x="63.623047" xlink:href="#DejaVuSans-30"/>
      </g>
     </g>
    </g>
    <g id="xtick_5">
     <g id="line2d_5">
      <g>
       <use style="stroke:#000000;stroke-width:0.8;" x="226.292042" xlink:href="#m8ffc447ac9" y="179.6"/>
      </g>
     </g>
     <g id="text_5">
      <!-- 80 -->
      <g transform="translate(219.929542 194.198438)scale(0.1 -0.1)">
       <defs>
        <path d="M 2034 2216 
Q 1584 2216 1326 1975 
Q 1069 1734 1069 1313 
Q 1069 891 1326 650 
Q 1584 409 2034 409 
Q 2484 409 2743 651 
Q 3003 894 3003 1313 
Q 3003 1734 2745 1975 
Q 2488 2216 2034 2216 
z
M 1403 2484 
Q 997 2584 770 2862 
Q 544 3141 544 3541 
Q 544 4100 942 4425 
Q 1341 4750 2034 4750 
Q 2731 4750 3128 4425 
Q 3525 4100 3525 3541 
Q 3525 3141 3298 2862 
Q 3072 2584 2669 2484 
Q 3125 2378 3379 2068 
Q 3634 1759 3634 1313 
Q 3634 634 3220 271 
Q 2806 -91 2034 -91 
Q 1263 -91 848 271 
Q 434 634 434 1313 
Q 434 1759 690 2068 
Q 947 2378 1403 2484 
z
M 1172 3481 
Q 1172 3119 1398 2916 
Q 1625 2713 2034 2713 
Q 2441 2713 2670 2916 
Q 2900 3119 2900 3481 
Q 2900 3844 2670 4047 
Q 2441 4250 2034 4250 
Q 1625 4250 1398 4047 
Q 1172 3844 1172 3481 
z
" id="DejaVuSans-38" transform="scale(0.015625)"/>
       </defs>
       <use xlink:href="#DejaVuSans-38"/>
       <use x="63.623047" xlink:href="#DejaVuSans-30"/>
      </g>
     </g>
    </g>
    <g id="xtick_6">
     <g id="line2d_6">
      <g>
       <use style="stroke:#000000;stroke-width:0.8;" x="267.579162" xlink:href="#m8ffc447ac9" y="179.6"/>
      </g>
     </g>
     <g id="text_6">
      <!-- 100 -->
      <g transform="translate(258.035412 194.198438)scale(0.1 -0.1)">
       <defs>
        <path d="M 794 531 
L 1825 531 
L 1825 4091 
L 703 3866 
L 703 4441 
L 1819 4666 
L 2450 4666 
L 2450 531 
L 3481 531 
L 3481 0 
L 794 0 
L 794 531 
z
" id="DejaVuSans-31" transform="scale(0.015625)"/>
       </defs>
       <use xlink:href="#DejaVuSans-31"/>
       <use x="63.623047" xlink:href="#DejaVuSans-30"/>
       <use x="127.246094" xlink:href="#DejaVuSans-30"/>
      </g>
     </g>
    </g>
    <g id="text_7">
     <!-- epoch -->
     <g transform="translate(148.101059 207.876563)scale(0.1 -0.1)">
      <defs>
       <path d="M 3597 1894 
L 3597 1613 
L 953 1613 
Q 991 1019 1311 708 
Q 1631 397 2203 397 
Q 2534 397 2845 478 
Q 3156 559 3463 722 
L 3463 178 
Q 3153 47 2828 -22 
Q 2503 -91 2169 -91 
Q 1331 -91 842 396 
Q 353 884 353 1716 
Q 353 2575 817 3079 
Q 1281 3584 2069 3584 
Q 2775 3584 3186 3129 
Q 3597 2675 3597 1894 
z
M 3022 2063 
Q 3016 2534 2758 2815 
Q 2500 3097 2075 3097 
Q 1594 3097 1305 2825 
Q 1016 2553 972 2059 
L 3022 2063 
z
" id="DejaVuSans-65" transform="scale(0.015625)"/>
       <path d="M 1159 525 
L 1159 -1331 
L 581 -1331 
L 581 3500 
L 1159 3500 
L 1159 2969 
Q 1341 3281 1617 3432 
Q 1894 3584 2278 3584 
Q 2916 3584 3314 3078 
Q 3713 2572 3713 1747 
Q 3713 922 3314 415 
Q 2916 -91 2278 -91 
Q 1894 -91 1617 61 
Q 1341 213 1159 525 
z
M 3116 1747 
Q 3116 2381 2855 2742 
Q 2594 3103 2138 3103 
Q 1681 3103 1420 2742 
Q 1159 2381 1159 1747 
Q 1159 1113 1420 752 
Q 1681 391 2138 391 
Q 2594 391 2855 752 
Q 3116 1113 3116 1747 
z
" id="DejaVuSans-70" transform="scale(0.015625)"/>
       <path d="M 1959 3097 
Q 1497 3097 1228 2736 
Q 959 2375 959 1747 
Q 959 1119 1226 758 
Q 1494 397 1959 397 
Q 2419 397 2687 759 
Q 2956 1122 2956 1747 
Q 2956 2369 2687 2733 
Q 2419 3097 1959 3097 
z
M 1959 3584 
Q 2709 3584 3137 3096 
Q 3566 2609 3566 1747 
Q 3566 888 3137 398 
Q 2709 -91 1959 -91 
Q 1206 -91 779 398 
Q 353 888 353 1747 
Q 353 2609 779 3096 
Q 1206 3584 1959 3584 
z
" id="DejaVuSans-6f" transform="scale(0.015625)"/>
       <path d="M 3122 3366 
L 3122 2828 
Q 2878 2963 2633 3030 
Q 2388 3097 2138 3097 
Q 1578 3097 1268 2742 
Q 959 2388 959 1747 
Q 959 1106 1268 751 
Q 1578 397 2138 397 
Q 2388 397 2633 464 
Q 2878 531 3122 666 
L 3122 134 
Q 2881 22 2623 -34 
Q 2366 -91 2075 -91 
Q 1284 -91 818 406 
Q 353 903 353 1747 
Q 353 2603 823 3093 
Q 1294 3584 2113 3584 
Q 2378 3584 2631 3529 
Q 2884 3475 3122 3366 
z
" id="DejaVuSans-63" transform="scale(0.015625)"/>
       <path d="M 3513 2113 
L 3513 0 
L 2938 0 
L 2938 2094 
Q 2938 2591 2744 2837 
Q 2550 3084 2163 3084 
Q 1697 3084 1428 2787 
Q 1159 2491 1159 1978 
L 1159 0 
L 581 0 
L 581 4863 
L 1159 4863 
L 1159 2956 
Q 1366 3272 1645 3428 
Q 1925 3584 2291 3584 
Q 2894 3584 3203 3211 
Q 3513 2838 3513 2113 
z
" id="DejaVuSans-68" transform="scale(0.015625)"/>
      </defs>
      <use xlink:href="#DejaVuSans-65"/>
      <use x="61.523438" xlink:href="#DejaVuSans-70"/>
      <use x="125" xlink:href="#DejaVuSans-6f"/>
      <use x="186.181641" xlink:href="#DejaVuSans-63"/>
      <use x="241.162109" xlink:href="#DejaVuSans-68"/>
     </g>
    </g>
   </g>
   <g id="matplotlib.axis_2">
    <g id="ytick_1">
     <g id="line2d_7">
      <defs>
       <path d="M 0 0 
L -3.5 0 
" id="mff7f95f742" style="stroke:#000000;stroke-width:0.8;"/>
      </defs>
      <g>
       <use style="stroke:#000000;stroke-width:0.8;" x="50.925" xlink:href="#mff7f95f742" y="158.788327"/>
      </g>
     </g>
     <g id="text_8">
      <!-- 0.2 -->
      <g transform="translate(28.021875 162.587546)scale(0.1 -0.1)">
       <defs>
        <path d="M 684 794 
L 1344 794 
L 1344 0 
L 684 0 
L 684 794 
z
" id="DejaVuSans-2e" transform="scale(0.015625)"/>
       </defs>
       <use xlink:href="#DejaVuSans-30"/>
       <use x="63.623047" xlink:href="#DejaVuSans-2e"/>
       <use x="95.410156" xlink:href="#DejaVuSans-32"/>
      </g>
     </g>
    </g>
    <g id="ytick_2">
     <g id="line2d_8">
      <g>
       <use style="stroke:#000000;stroke-width:0.8;" x="50.925" xlink:href="#mff7f95f742" y="132.486286"/>
      </g>
     </g>
     <g id="text_9">
      <!-- 0.3 -->
      <g transform="translate(28.021875 136.285504)scale(0.1 -0.1)">
       <defs>
        <path d="M 2597 2516 
Q 3050 2419 3304 2112 
Q 3559 1806 3559 1356 
Q 3559 666 3084 287 
Q 2609 -91 1734 -91 
Q 1441 -91 1130 -33 
Q 819 25 488 141 
L 488 750 
Q 750 597 1062 519 
Q 1375 441 1716 441 
Q 2309 441 2620 675 
Q 2931 909 2931 1356 
Q 2931 1769 2642 2001 
Q 2353 2234 1838 2234 
L 1294 2234 
L 1294 2753 
L 1863 2753 
Q 2328 2753 2575 2939 
Q 2822 3125 2822 3475 
Q 2822 3834 2567 4026 
Q 2313 4219 1838 4219 
Q 1578 4219 1281 4162 
Q 984 4106 628 3988 
L 628 4550 
Q 988 4650 1302 4700 
Q 1616 4750 1894 4750 
Q 2613 4750 3031 4423 
Q 3450 4097 3450 3541 
Q 3450 3153 3228 2886 
Q 3006 2619 2597 2516 
z
" id="DejaVuSans-33" transform="scale(0.015625)"/>
       </defs>
       <use xlink:href="#DejaVuSans-30"/>
       <use x="63.623047" xlink:href="#DejaVuSans-2e"/>
       <use x="95.410156" xlink:href="#DejaVuSans-33"/>
      </g>
     </g>
    </g>
    <g id="ytick_3">
     <g id="line2d_9">
      <g>
       <use style="stroke:#000000;stroke-width:0.8;" x="50.925" xlink:href="#mff7f95f742" y="106.184244"/>
      </g>
     </g>
     <g id="text_10">
      <!-- 0.4 -->
      <g transform="translate(28.021875 109.983463)scale(0.1 -0.1)">
       <use xlink:href="#DejaVuSans-30"/>
       <use x="63.623047" xlink:href="#DejaVuSans-2e"/>
       <use x="95.410156" xlink:href="#DejaVuSans-34"/>
      </g>
     </g>
    </g>
    <g id="ytick_4">
     <g id="line2d_10">
      <g>
       <use style="stroke:#000000;stroke-width:0.8;" x="50.925" xlink:href="#mff7f95f742" y="79.882203"/>
      </g>
     </g>
     <g id="text_11">
      <!-- 0.5 -->
      <g transform="translate(28.021875 83.681422)scale(0.1 -0.1)">
       <defs>
        <path d="M 691 4666 
L 3169 4666 
L 3169 4134 
L 1269 4134 
L 1269 2991 
Q 1406 3038 1543 3061 
Q 1681 3084 1819 3084 
Q 2600 3084 3056 2656 
Q 3513 2228 3513 1497 
Q 3513 744 3044 326 
Q 2575 -91 1722 -91 
Q 1428 -91 1123 -41 
Q 819 9 494 109 
L 494 744 
Q 775 591 1075 516 
Q 1375 441 1709 441 
Q 2250 441 2565 725 
Q 2881 1009 2881 1497 
Q 2881 1984 2565 2268 
Q 2250 2553 1709 2553 
Q 1456 2553 1204 2497 
Q 953 2441 691 2322 
L 691 4666 
z
" id="DejaVuSans-35" transform="scale(0.015625)"/>
       </defs>
       <use xlink:href="#DejaVuSans-30"/>
       <use x="63.623047" xlink:href="#DejaVuSans-2e"/>
       <use x="95.410156" xlink:href="#DejaVuSans-35"/>
      </g>
     </g>
    </g>
    <g id="ytick_5">
     <g id="line2d_11">
      <g>
       <use style="stroke:#000000;stroke-width:0.8;" x="50.925" xlink:href="#mff7f95f742" y="53.580162"/>
      </g>
     </g>
     <g id="text_12">
      <!-- 0.6 -->
      <g transform="translate(28.021875 57.37938)scale(0.1 -0.1)">
       <use xlink:href="#DejaVuSans-30"/>
       <use x="63.623047" xlink:href="#DejaVuSans-2e"/>
       <use x="95.410156" xlink:href="#DejaVuSans-36"/>
      </g>
     </g>
    </g>
    <g id="ytick_6">
     <g id="line2d_12">
      <g>
       <use style="stroke:#000000;stroke-width:0.8;" x="50.925" xlink:href="#mff7f95f742" y="27.27812"/>
      </g>
     </g>
     <g id="text_13">
      <!-- 0.7 -->
      <g transform="translate(28.021875 31.077339)scale(0.1 -0.1)">
       <defs>
        <path d="M 525 4666 
L 3525 4666 
L 3525 4397 
L 1831 0 
L 1172 0 
L 2766 4134 
L 525 4134 
L 525 4666 
z
" id="DejaVuSans-37" transform="scale(0.015625)"/>
       </defs>
       <use xlink:href="#DejaVuSans-30"/>
       <use x="63.623047" xlink:href="#DejaVuSans-2e"/>
       <use x="95.410156" xlink:href="#DejaVuSans-37"/>
      </g>
     </g>
    </g>
   </g>
   <g id="line2d_13">
    <path clip-path="url(#p5f9c93cae1)" d="M 61.143562 88.016103 
L 63.207918 108.216804 
L 65.272274 113.848492 
L 67.33663 121.055969 
L 69.400986 127.112744 
L 71.465342 132.618904 
L 73.529698 133.560291 
L 75.594054 137.353548 
L 77.65841 137.6836 
L 79.722766 137.878265 
L 81.787122 142.680736 
L 83.851478 145.13518 
L 85.915834 146.758393 
L 87.98019 148.783175 
L 90.044546 148.348975 
L 92.108902 151.160977 
L 94.173258 151.106542 
L 96.237614 150.326846 
L 98.30197 153.482686 
L 100.366326 153.721176 
L 102.430682 151.969111 
L 104.495038 155.361509 
L 106.559394 154.931588 
L 108.62375 157.455514 
L 110.688106 157.083317 
L 112.752462 157.85341 
L 114.816818 158.422349 
L 116.881174 156.455647 
L 118.94553 156.858815 
L 121.009886 159.498031 
L 123.074242 161.274548 
L 125.138598 160.921469 
L 127.202954 158.328082 
L 129.26731 159.802573 
L 131.331666 157.953309 
L 133.396022 162.049564 
L 135.460378 159.126171 
L 137.524734 163.170949 
L 139.58909 162.813273 
L 141.653446 163.742357 
L 143.717802 164.814743 
L 145.782158 164.262249 
L 147.846514 164.671845 
L 149.91087 165.590253 
L 151.975226 164.658409 
L 154.039582 162.369391 
L 156.103938 163.144074 
L 158.168294 164.04191 
L 160.23265 164.478634 
L 162.297006 164.84685 
L 164.361362 164.23684 
L 166.425718 165.318339 
L 168.490074 166.036772 
L 170.55443 167.386958 
L 172.618786 166.710744 
L 174.683142 167.294027 
L 176.747498 165.118693 
L 178.811854 161.723634 
L 180.87621 167.42795 
L 182.940566 168.462295 
L 185.004922 167.163514 
L 187.069278 167.70289 
L 189.133634 166.854234 
L 191.19799 166.651147 
L 193.262346 168.687205 
L 195.326702 165.000871 
L 197.391058 169.690854 
L 199.455414 169.047338 
L 201.51977 169.330399 
L 203.584126 170.140304 
L 205.648482 167.725551 
L 207.712838 168.566561 
L 209.777194 169.614827 
L 211.84155 170.23933 
L 213.905906 168.940141 
L 215.970262 169.941302 
L 218.034618 170.41941 
L 220.098974 170.267216 
L 222.16333 170.864291 
L 224.227686 170.644806 
L 226.292042 168.027503 
L 228.356398 170.354173 
L 230.420754 171.721268 
L 232.48511 166.884785 
L 234.549466 167.033574 
L 236.613822 170.351555 
L 238.678178 170.846117 
L 240.742534 168.015811 
L 242.80689 168.749287 
L 244.871246 170.943187 
L 246.935602 169.997324 
L 248.999958 171.129209 
L 251.064314 169.475405 
L 253.12867 170.970763 
L 255.193026 172.654545 
L 257.257382 171.653687 
L 259.321738 169.972244 
L 261.386094 171.470906 
L 263.45045 171.188387 
L 265.514806 170.06864 
" style="fill:none;stroke:#008000;stroke-linecap:square;stroke-width:1.5;"/>
   </g>
   <g id="line2d_14">
    <path clip-path="url(#p5f9c93cae1)" d="M 61.143562 33.745455 
L 63.207918 97.060976 
L 65.272274 110.344245 
L 67.33663 117.730701 
L 69.400986 122.992468 
L 71.465342 126.551005 
L 73.529698 130.284994 
L 75.594054 132.704643 
L 77.65841 135.370338 
L 79.722766 137.644925 
L 81.787122 139.819899 
L 83.851478 141.295001 
L 85.915834 143.100329 
L 87.98019 144.566073 
L 90.044546 145.633575 
L 92.108902 146.784731 
L 94.173258 148.178869 
L 96.237614 149.034987 
L 98.30197 150.103677 
L 100.366326 150.83892 
L 102.430682 151.715332 
L 104.495038 152.459593 
L 106.559394 153.207711 
L 108.62375 153.718629 
L 110.688106 154.278032 
L 112.752462 155.00076 
L 114.816818 155.669206 
L 116.881174 156.217937 
L 118.94553 156.084242 
L 121.009886 156.878055 
L 123.074242 157.035654 
L 125.138598 157.723058 
L 127.202954 158.336731 
L 129.26731 158.309222 
L 131.331666 159.065198 
L 133.396022 158.971985 
L 135.460378 159.592384 
L 137.524734 159.573838 
L 139.58909 159.98524 
L 141.653446 160.533403 
L 143.717802 161.20112 
L 145.782158 161.270977 
L 147.846514 160.896076 
L 149.91087 161.546278 
L 151.975226 162.105034 
L 154.039582 162.057747 
L 156.103938 162.550754 
L 158.168294 162.423004 
L 160.23265 162.690508 
L 162.297006 162.815162 
L 164.361362 163.157271 
L 166.425718 163.334757 
L 168.490074 163.196805 
L 170.55443 163.592428 
L 172.618786 164.119406 
L 174.683142 164.19196 
L 176.747498 164.168041 
L 178.811854 163.984339 
L 180.87621 164.812034 
L 182.940566 164.843749 
L 185.004922 164.714189 
L 187.069278 164.768597 
L 189.133634 165.216025 
L 191.19799 165.544922 
L 193.262346 165.573964 
L 195.326702 165.906012 
L 197.391058 165.934897 
L 199.455414 165.272287 
L 201.51977 166.456545 
L 203.584126 166.5388 
L 205.648482 166.084172 
L 207.712838 166.652432 
L 209.777194 167.00849 
L 211.84155 166.637994 
L 213.905906 166.953561 
L 215.970262 166.792148 
L 218.034618 167.208343 
L 220.098974 167.263284 
L 222.16333 167.377473 
L 224.227686 167.551922 
L 226.292042 167.655364 
L 228.356398 167.039257 
L 230.420754 167.909794 
L 232.48511 167.615952 
L 234.549466 168.142558 
L 236.613822 168.082569 
L 238.678178 168.239098 
L 240.742534 168.151788 
L 242.80689 168.472568 
L 244.871246 168.37792 
L 246.935602 168.519748 
L 248.999958 168.327197 
L 251.064314 168.757023 
L 253.12867 168.879063 
L 255.193026 168.996995 
L 257.257382 168.845341 
L 259.321738 168.817518 
L 261.386094 169.030066 
L 263.45045 169.186756 
L 265.514806 169.148766 
" style="fill:none;stroke:#0000ff;stroke-linecap:square;stroke-width:1.5;"/>
   </g>
   <g id="patch_3">
    <path d="M 50.925 179.6 
L 50.925 26.8 
" style="fill:none;stroke:#000000;stroke-linecap:square;stroke-linejoin:miter;stroke-width:0.8;"/>
   </g>
   <g id="patch_4">
    <path d="M 275.733368 179.6 
L 275.733368 26.8 
" style="fill:none;stroke:#000000;stroke-linecap:square;stroke-linejoin:miter;stroke-width:0.8;"/>
   </g>
   <g id="patch_5">
    <path d="M 50.925 179.6 
L 275.733368 179.6 
" style="fill:none;stroke:#000000;stroke-linecap:square;stroke-linejoin:miter;stroke-width:0.8;"/>
   </g>
   <g id="patch_6">
    <path d="M 50.925 26.8 
L 275.733368 26.8 
" style="fill:none;stroke:#000000;stroke-linecap:square;stroke-linejoin:miter;stroke-width:0.8;"/>
   </g>
   <g id="text_14">
    <!-- Loss curves -->
    <g transform="translate(128.324809 20.8)scale(0.12 -0.12)">
     <defs>
      <path d="M 628 4666 
L 1259 4666 
L 1259 531 
L 3531 531 
L 3531 0 
L 628 0 
L 628 4666 
z
" id="DejaVuSans-4c" transform="scale(0.015625)"/>
      <path d="M 2834 3397 
L 2834 2853 
Q 2591 2978 2328 3040 
Q 2066 3103 1784 3103 
Q 1356 3103 1142 2972 
Q 928 2841 928 2578 
Q 928 2378 1081 2264 
Q 1234 2150 1697 2047 
L 1894 2003 
Q 2506 1872 2764 1633 
Q 3022 1394 3022 966 
Q 3022 478 2636 193 
Q 2250 -91 1575 -91 
Q 1294 -91 989 -36 
Q 684 19 347 128 
L 347 722 
Q 666 556 975 473 
Q 1284 391 1588 391 
Q 1994 391 2212 530 
Q 2431 669 2431 922 
Q 2431 1156 2273 1281 
Q 2116 1406 1581 1522 
L 1381 1569 
Q 847 1681 609 1914 
Q 372 2147 372 2553 
Q 372 3047 722 3315 
Q 1072 3584 1716 3584 
Q 2034 3584 2315 3537 
Q 2597 3491 2834 3397 
z
" id="DejaVuSans-73" transform="scale(0.015625)"/>
      <path id="DejaVuSans-20" transform="scale(0.015625)"/>
      <path d="M 544 1381 
L 544 3500 
L 1119 3500 
L 1119 1403 
Q 1119 906 1312 657 
Q 1506 409 1894 409 
Q 2359 409 2629 706 
Q 2900 1003 2900 1516 
L 2900 3500 
L 3475 3500 
L 3475 0 
L 2900 0 
L 2900 538 
Q 2691 219 2414 64 
Q 2138 -91 1772 -91 
Q 1169 -91 856 284 
Q 544 659 544 1381 
z
M 1991 3584 
L 1991 3584 
z
" id="DejaVuSans-75" transform="scale(0.015625)"/>
      <path d="M 2631 2963 
Q 2534 3019 2420 3045 
Q 2306 3072 2169 3072 
Q 1681 3072 1420 2755 
Q 1159 2438 1159 1844 
L 1159 0 
L 581 0 
L 581 3500 
L 1159 3500 
L 1159 2956 
Q 1341 3275 1631 3429 
Q 1922 3584 2338 3584 
Q 2397 3584 2469 3576 
Q 2541 3569 2628 3553 
L 2631 2963 
z
" id="DejaVuSans-72" transform="scale(0.015625)"/>
      <path d="M 191 3500 
L 800 3500 
L 1894 563 
L 2988 3500 
L 3597 3500 
L 2284 0 
L 1503 0 
L 191 3500 
z
" id="DejaVuSans-76" transform="scale(0.015625)"/>
     </defs>
     <use xlink:href="#DejaVuSans-4c"/>
     <use x="53.962891" xlink:href="#DejaVuSans-6f"/>
     <use x="115.144531" xlink:href="#DejaVuSans-73"/>
     <use x="167.244141" xlink:href="#DejaVuSans-73"/>
     <use x="219.34375" xlink:href="#DejaVuSans-20"/>
     <use x="251.130859" xlink:href="#DejaVuSans-63"/>
     <use x="306.111328" xlink:href="#DejaVuSans-75"/>
     <use x="369.490234" xlink:href="#DejaVuSans-72"/>
     <use x="410.603516" xlink:href="#DejaVuSans-76"/>
     <use x="469.783203" xlink:href="#DejaVuSans-65"/>
     <use x="531.306641" xlink:href="#DejaVuSans-73"/>
    </g>
   </g>
   <g id="legend_1">
    <g id="patch_7">
     <path d="M 159.969305 64.15625 
L 268.733368 64.15625 
Q 270.733368 64.15625 270.733368 62.15625 
L 270.733368 33.8 
Q 270.733368 31.8 268.733368 31.8 
L 159.969305 31.8 
Q 157.969305 31.8 157.969305 33.8 
L 157.969305 62.15625 
Q 157.969305 64.15625 159.969305 64.15625 
z
" style="fill:#ffffff;opacity:0.8;stroke:#cccccc;stroke-linejoin:miter;"/>
    </g>
    <g id="line2d_15">
     <path d="M 161.969305 39.898438 
L 181.969305 39.898438 
" style="fill:none;stroke:#008000;stroke-linecap:square;stroke-width:1.5;"/>
    </g>
    <g id="line2d_16"/>
    <g id="text_15">
     <!-- Validation error -->
     <g transform="translate(189.969305 43.398438)scale(0.1 -0.1)">
      <defs>
       <path d="M 1831 0 
L 50 4666 
L 709 4666 
L 2188 738 
L 3669 4666 
L 4325 4666 
L 2547 0 
L 1831 0 
z
" id="DejaVuSans-56" transform="scale(0.015625)"/>
       <path d="M 2194 1759 
Q 1497 1759 1228 1600 
Q 959 1441 959 1056 
Q 959 750 1161 570 
Q 1363 391 1709 391 
Q 2188 391 2477 730 
Q 2766 1069 2766 1631 
L 2766 1759 
L 2194 1759 
z
M 3341 1997 
L 3341 0 
L 2766 0 
L 2766 531 
Q 2569 213 2275 61 
Q 1981 -91 1556 -91 
Q 1019 -91 701 211 
Q 384 513 384 1019 
Q 384 1609 779 1909 
Q 1175 2209 1959 2209 
L 2766 2209 
L 2766 2266 
Q 2766 2663 2505 2880 
Q 2244 3097 1772 3097 
Q 1472 3097 1187 3025 
Q 903 2953 641 2809 
L 641 3341 
Q 956 3463 1253 3523 
Q 1550 3584 1831 3584 
Q 2591 3584 2966 3190 
Q 3341 2797 3341 1997 
z
" id="DejaVuSans-61" transform="scale(0.015625)"/>
       <path d="M 603 4863 
L 1178 4863 
L 1178 0 
L 603 0 
L 603 4863 
z
" id="DejaVuSans-6c" transform="scale(0.015625)"/>
       <path d="M 603 3500 
L 1178 3500 
L 1178 0 
L 603 0 
L 603 3500 
z
M 603 4863 
L 1178 4863 
L 1178 4134 
L 603 4134 
L 603 4863 
z
" id="DejaVuSans-69" transform="scale(0.015625)"/>
       <path d="M 2906 2969 
L 2906 4863 
L 3481 4863 
L 3481 0 
L 2906 0 
L 2906 525 
Q 2725 213 2448 61 
Q 2172 -91 1784 -91 
Q 1150 -91 751 415 
Q 353 922 353 1747 
Q 353 2572 751 3078 
Q 1150 3584 1784 3584 
Q 2172 3584 2448 3432 
Q 2725 3281 2906 2969 
z
M 947 1747 
Q 947 1113 1208 752 
Q 1469 391 1925 391 
Q 2381 391 2643 752 
Q 2906 1113 2906 1747 
Q 2906 2381 2643 2742 
Q 2381 3103 1925 3103 
Q 1469 3103 1208 2742 
Q 947 2381 947 1747 
z
" id="DejaVuSans-64" transform="scale(0.015625)"/>
       <path d="M 1172 4494 
L 1172 3500 
L 2356 3500 
L 2356 3053 
L 1172 3053 
L 1172 1153 
Q 1172 725 1289 603 
Q 1406 481 1766 481 
L 2356 481 
L 2356 0 
L 1766 0 
Q 1100 0 847 248 
Q 594 497 594 1153 
L 594 3053 
L 172 3053 
L 172 3500 
L 594 3500 
L 594 4494 
L 1172 4494 
z
" id="DejaVuSans-74" transform="scale(0.015625)"/>
       <path d="M 3513 2113 
L 3513 0 
L 2938 0 
L 2938 2094 
Q 2938 2591 2744 2837 
Q 2550 3084 2163 3084 
Q 1697 3084 1428 2787 
Q 1159 2491 1159 1978 
L 1159 0 
L 581 0 
L 581 3500 
L 1159 3500 
L 1159 2956 
Q 1366 3272 1645 3428 
Q 1925 3584 2291 3584 
Q 2894 3584 3203 3211 
Q 3513 2838 3513 2113 
z
" id="DejaVuSans-6e" transform="scale(0.015625)"/>
      </defs>
      <use xlink:href="#DejaVuSans-56"/>
      <use x="60.658203" xlink:href="#DejaVuSans-61"/>
      <use x="121.9375" xlink:href="#DejaVuSans-6c"/>
      <use x="149.720703" xlink:href="#DejaVuSans-69"/>
      <use x="177.503906" xlink:href="#DejaVuSans-64"/>
      <use x="240.980469" xlink:href="#DejaVuSans-61"/>
      <use x="302.259766" xlink:href="#DejaVuSans-74"/>
      <use x="341.46875" xlink:href="#DejaVuSans-69"/>
      <use x="369.251953" xlink:href="#DejaVuSans-6f"/>
      <use x="430.433594" xlink:href="#DejaVuSans-6e"/>
      <use x="493.8125" xlink:href="#DejaVuSans-20"/>
      <use x="525.599609" xlink:href="#DejaVuSans-65"/>
      <use x="587.123047" xlink:href="#DejaVuSans-72"/>
      <use x="626.486328" xlink:href="#DejaVuSans-72"/>
      <use x="665.349609" xlink:href="#DejaVuSans-6f"/>
      <use x="726.53125" xlink:href="#DejaVuSans-72"/>
     </g>
    </g>
    <g id="line2d_17">
     <path d="M 161.969305 54.576563 
L 181.969305 54.576563 
" style="fill:none;stroke:#0000ff;stroke-linecap:square;stroke-width:1.5;"/>
    </g>
    <g id="line2d_18"/>
    <g id="text_16">
     <!-- Train error -->
     <g transform="translate(189.969305 58.076563)scale(0.1 -0.1)">
      <defs>
       <path d="M -19 4666 
L 3928 4666 
L 3928 4134 
L 2272 4134 
L 2272 0 
L 1638 0 
L 1638 4134 
L -19 4134 
L -19 4666 
z
" id="DejaVuSans-54" transform="scale(0.015625)"/>
      </defs>
      <use xlink:href="#DejaVuSans-54"/>
      <use x="46.333984" xlink:href="#DejaVuSans-72"/>
      <use x="87.447266" xlink:href="#DejaVuSans-61"/>
      <use x="148.726562" xlink:href="#DejaVuSans-69"/>
      <use x="176.509766" xlink:href="#DejaVuSans-6e"/>
      <use x="239.888672" xlink:href="#DejaVuSans-20"/>
      <use x="271.675781" xlink:href="#DejaVuSans-65"/>
      <use x="333.199219" xlink:href="#DejaVuSans-72"/>
      <use x="372.5625" xlink:href="#DejaVuSans-72"/>
      <use x="411.425781" xlink:href="#DejaVuSans-6f"/>
      <use x="472.607422" xlink:href="#DejaVuSans-72"/>
     </g>
    </g>
   </g>
  </g>
  <g id="axes_2">
   <g id="patch_8">
    <path d="M 50.925 390.2 
L 275.733368 390.2 
L 275.733368 237.4 
L 50.925 237.4 
z
" style="fill:#ffffff;"/>
   </g>
   <g id="matplotlib.axis_3">
    <g id="xtick_7">
     <g id="line2d_19">
      <g>
       <use style="stroke:#000000;stroke-width:0.8;" x="61.143562" xlink:href="#m8ffc447ac9" y="390.2"/>
      </g>
     </g>
     <g id="text_17">
      <!-- 0 -->
      <g transform="translate(57.962312 404.798438)scale(0.1 -0.1)">
       <use xlink:href="#DejaVuSans-30"/>
      </g>
     </g>
    </g>
    <g id="xtick_8">
     <g id="line2d_20">
      <g>
       <use style="stroke:#000000;stroke-width:0.8;" x="102.430682" xlink:href="#m8ffc447ac9" y="390.2"/>
      </g>
     </g>
     <g id="text_18">
      <!-- 20 -->
      <g transform="translate(96.068182 404.798438)scale(0.1 -0.1)">
       <use xlink:href="#DejaVuSans-32"/>
       <use x="63.623047" xlink:href="#DejaVuSans-30"/>
      </g>
     </g>
    </g>
    <g id="xtick_9">
     <g id="line2d_21">
      <g>
       <use style="stroke:#000000;stroke-width:0.8;" x="143.717802" xlink:href="#m8ffc447ac9" y="390.2"/>
      </g>
     </g>
     <g id="text_19">
      <!-- 40 -->
      <g transform="translate(137.355302 404.798438)scale(0.1 -0.1)">
       <use xlink:href="#DejaVuSans-34"/>
       <use x="63.623047" xlink:href="#DejaVuSans-30"/>
      </g>
     </g>
    </g>
    <g id="xtick_10">
     <g id="line2d_22">
      <g>
       <use style="stroke:#000000;stroke-width:0.8;" x="185.004922" xlink:href="#m8ffc447ac9" y="390.2"/>
      </g>
     </g>
     <g id="text_20">
      <!-- 60 -->
      <g transform="translate(178.642422 404.798438)scale(0.1 -0.1)">
       <use xlink:href="#DejaVuSans-36"/>
       <use x="63.623047" xlink:href="#DejaVuSans-30"/>
      </g>
     </g>
    </g>
    <g id="xtick_11">
     <g id="line2d_23">
      <g>
       <use style="stroke:#000000;stroke-width:0.8;" x="226.292042" xlink:href="#m8ffc447ac9" y="390.2"/>
      </g>
     </g>
     <g id="text_21">
      <!-- 80 -->
      <g transform="translate(219.929542 404.798438)scale(0.1 -0.1)">
       <use xlink:href="#DejaVuSans-38"/>
       <use x="63.623047" xlink:href="#DejaVuSans-30"/>
      </g>
     </g>
    </g>
    <g id="xtick_12">
     <g id="line2d_24">
      <g>
       <use style="stroke:#000000;stroke-width:0.8;" x="267.579162" xlink:href="#m8ffc447ac9" y="390.2"/>
      </g>
     </g>
     <g id="text_22">
      <!-- 100 -->
      <g transform="translate(258.035412 404.798438)scale(0.1 -0.1)">
       <use xlink:href="#DejaVuSans-31"/>
       <use x="63.623047" xlink:href="#DejaVuSans-30"/>
       <use x="127.246094" xlink:href="#DejaVuSans-30"/>
      </g>
     </g>
    </g>
    <g id="text_23">
     <!-- epoch -->
     <g transform="translate(148.101059 418.476562)scale(0.1 -0.1)">
      <use xlink:href="#DejaVuSans-65"/>
      <use x="61.523438" xlink:href="#DejaVuSans-70"/>
      <use x="125" xlink:href="#DejaVuSans-6f"/>
      <use x="186.181641" xlink:href="#DejaVuSans-63"/>
      <use x="241.162109" xlink:href="#DejaVuSans-68"/>
     </g>
    </g>
   </g>
   <g id="matplotlib.axis_4">
    <g id="ytick_7">
     <g id="line2d_25">
      <g>
       <use style="stroke:#000000;stroke-width:0.8;" x="50.925" xlink:href="#mff7f95f742" y="388.701961"/>
      </g>
     </g>
     <g id="text_24">
      <!-- 0 -->
      <g transform="translate(37.5625 392.50118)scale(0.1 -0.1)">
       <use xlink:href="#DejaVuSans-30"/>
      </g>
     </g>
    </g>
    <g id="ytick_8">
     <g id="line2d_26">
      <g>
       <use style="stroke:#000000;stroke-width:0.8;" x="50.925" xlink:href="#mff7f95f742" y="358.741176"/>
      </g>
     </g>
     <g id="text_25">
      <!-- 20 -->
      <g transform="translate(31.2 362.540395)scale(0.1 -0.1)">
       <use xlink:href="#DejaVuSans-32"/>
       <use x="63.623047" xlink:href="#DejaVuSans-30"/>
      </g>
     </g>
    </g>
    <g id="ytick_9">
     <g id="line2d_27">
      <g>
       <use style="stroke:#000000;stroke-width:0.8;" x="50.925" xlink:href="#mff7f95f742" y="328.780392"/>
      </g>
     </g>
     <g id="text_26">
      <!-- 40 -->
      <g transform="translate(31.2 332.579611)scale(0.1 -0.1)">
       <use xlink:href="#DejaVuSans-34"/>
       <use x="63.623047" xlink:href="#DejaVuSans-30"/>
      </g>
     </g>
    </g>
    <g id="ytick_10">
     <g id="line2d_28">
      <g>
       <use style="stroke:#000000;stroke-width:0.8;" x="50.925" xlink:href="#mff7f95f742" y="298.819608"/>
      </g>
     </g>
     <g id="text_27">
      <!-- 60 -->
      <g transform="translate(31.2 302.618827)scale(0.1 -0.1)">
       <use xlink:href="#DejaVuSans-36"/>
       <use x="63.623047" xlink:href="#DejaVuSans-30"/>
      </g>
     </g>
    </g>
    <g id="ytick_11">
     <g id="line2d_29">
      <g>
       <use style="stroke:#000000;stroke-width:0.8;" x="50.925" xlink:href="#mff7f95f742" y="268.858824"/>
      </g>
     </g>
     <g id="text_28">
      <!-- 80 -->
      <g transform="translate(31.2 272.658042)scale(0.1 -0.1)">
       <use xlink:href="#DejaVuSans-38"/>
       <use x="63.623047" xlink:href="#DejaVuSans-30"/>
      </g>
     </g>
    </g>
    <g id="ytick_12">
     <g id="line2d_30">
      <g>
       <use style="stroke:#000000;stroke-width:0.8;" x="50.925" xlink:href="#mff7f95f742" y="238.898039"/>
      </g>
     </g>
     <g id="text_29">
      <!-- 100 -->
      <g transform="translate(24.8375 242.697258)scale(0.1 -0.1)">
       <use xlink:href="#DejaVuSans-31"/>
       <use x="63.623047" xlink:href="#DejaVuSans-30"/>
       <use x="127.246094" xlink:href="#DejaVuSans-30"/>
      </g>
     </g>
    </g>
    <g id="text_30">
     <!-- % -->
     <g transform="translate(18.757812 318.550781)rotate(-90)scale(0.1 -0.1)">
      <defs>
       <path d="M 4653 2053 
Q 4381 2053 4226 1822 
Q 4072 1591 4072 1178 
Q 4072 772 4226 539 
Q 4381 306 4653 306 
Q 4919 306 5073 539 
Q 5228 772 5228 1178 
Q 5228 1588 5073 1820 
Q 4919 2053 4653 2053 
z
M 4653 2450 
Q 5147 2450 5437 2106 
Q 5728 1763 5728 1178 
Q 5728 594 5436 251 
Q 5144 -91 4653 -91 
Q 4153 -91 3862 251 
Q 3572 594 3572 1178 
Q 3572 1766 3864 2108 
Q 4156 2450 4653 2450 
z
M 1428 4353 
Q 1159 4353 1004 4120 
Q 850 3888 850 3481 
Q 850 3069 1003 2837 
Q 1156 2606 1428 2606 
Q 1700 2606 1854 2837 
Q 2009 3069 2009 3481 
Q 2009 3884 1853 4118 
Q 1697 4353 1428 4353 
z
M 4250 4750 
L 4750 4750 
L 1831 -91 
L 1331 -91 
L 4250 4750 
z
M 1428 4750 
Q 1922 4750 2215 4408 
Q 2509 4066 2509 3481 
Q 2509 2891 2217 2550 
Q 1925 2209 1428 2209 
Q 931 2209 642 2551 
Q 353 2894 353 3481 
Q 353 4063 643 4406 
Q 934 4750 1428 4750 
z
" id="DejaVuSans-25" transform="scale(0.015625)"/>
      </defs>
      <use xlink:href="#DejaVuSans-25"/>
     </g>
    </g>
   </g>
   <g id="line2d_31">
    <path clip-path="url(#p2c9d9ae7c1)" d="M 61.143562 265.787843 
L 63.207918 261.398588 
L 65.272274 260.409882 
L 67.33663 258.956784 
L 69.400986 257.713412 
L 71.465342 257.009333 
L 73.529698 257.488706 
L 75.594054 256.440078 
L 77.65841 256.619843 
L 79.722766 256.395137 
L 81.787122 255.706039 
L 83.851478 255.046902 
L 85.915834 254.837176 
L 87.98019 254.552549 
L 90.044546 254.822196 
L 92.108902 254.477647 
L 94.173258 254.927059 
L 96.237614 254.837176 
L 98.30197 254.103137 
L 100.366326 254.447686 
L 102.430682 254.612471 
L 104.495038 254.103137 
L 106.559394 253.893412 
L 108.62375 253.863451 
L 110.688106 253.908392 
L 112.752462 254.163059 
L 114.816818 254.163059 
L 116.881174 254.732314 
L 118.94553 254.567529 
L 121.009886 253.893412 
L 123.074242 253.968314 
L 125.138598 253.384078 
L 127.202954 254.208 
L 129.26731 254.282902 
L 131.331666 254.208 
L 133.396022 253.728627 
L 135.460378 254.208 
L 137.524734 253.878431 
L 139.58909 253.354118 
L 141.653446 253.803529 
L 143.717802 253.354118 
L 145.782158 253.713647 
L 147.846514 252.994588 
L 149.91087 253.384078 
L 151.975226 253.324157 
L 154.039582 254.163059 
L 156.103938 253.384078 
L 158.168294 253.743608 
L 160.23265 253.923373 
L 162.297006 253.81851 
L 164.361362 253.713647 
L 166.425718 253.533882 
L 168.490074 253.83349 
L 170.55443 253.638745 
L 172.618786 253.294196 
L 174.683142 252.904706 
L 176.747498 253.758588 
L 178.811854 254.507608 
L 180.87621 253.45898 
L 182.940566 253.249255 
L 185.004922 253.623765 
L 187.069278 253.638745 
L 189.133634 253.45898 
L 191.19799 253.638745 
L 193.262346 253.384078 
L 195.326702 253.893412 
L 197.391058 253.039529 
L 199.455414 253.384078 
L 201.51977 253.189333 
L 203.584126 252.859765 
L 205.648482 253.548863 
L 207.712838 253.264235 
L 209.777194 253.324157 
L 211.84155 253.05451 
L 213.905906 253.653725 
L 215.970262 253.369098 
L 218.034618 253.324157 
L 220.098974 253.309176 
L 222.16333 253.249255 
L 224.227686 253.249255 
L 226.292042 254.327843 
L 228.356398 253.354118 
L 230.420754 252.844784 
L 232.48511 253.548863 
L 234.549466 253.488941 
L 236.613822 253.219294 
L 238.678178 253.189333 
L 240.742534 253.638745 
L 242.80689 253.309176 
L 244.871246 253.234275 
L 246.935602 253.488941 
L 248.999958 253.488941 
L 251.064314 253.81851 
L 253.12867 253.05451 
L 255.193026 253.204314 
L 257.257382 252.964627 
L 259.321738 253.593804 
L 261.386094 253.488941 
L 263.45045 253.578824 
L 265.514806 253.713647 
" style="fill:none;stroke:#ffd700;stroke-linecap:square;stroke-width:1.5;"/>
   </g>
   <g id="patch_9">
    <path d="M 50.925 390.2 
L 50.925 237.4 
" style="fill:none;stroke:#000000;stroke-linecap:square;stroke-linejoin:miter;stroke-width:0.8;"/>
   </g>
   <g id="patch_10">
    <path d="M 275.733368 390.2 
L 275.733368 237.4 
" style="fill:none;stroke:#000000;stroke-linecap:square;stroke-linejoin:miter;stroke-width:0.8;"/>
   </g>
   <g id="patch_11">
    <path d="M 50.925 390.2 
L 275.733368 390.2 
" style="fill:none;stroke:#000000;stroke-linecap:square;stroke-linejoin:miter;stroke-width:0.8;"/>
   </g>
   <g id="patch_12">
    <path d="M 50.925 237.4 
L 275.733368 237.4 
" style="fill:none;stroke:#000000;stroke-linecap:square;stroke-linejoin:miter;stroke-width:0.8;"/>
   </g>
   <g id="text_31">
    <!-- Accuracy on test set -->
    <g transform="translate(102.049496 231.4)scale(0.12 -0.12)">
     <defs>
      <path d="M 2188 4044 
L 1331 1722 
L 3047 1722 
L 2188 4044 
z
M 1831 4666 
L 2547 4666 
L 4325 0 
L 3669 0 
L 3244 1197 
L 1141 1197 
L 716 0 
L 50 0 
L 1831 4666 
z
" id="DejaVuSans-41" transform="scale(0.015625)"/>
      <path d="M 2059 -325 
Q 1816 -950 1584 -1140 
Q 1353 -1331 966 -1331 
L 506 -1331 
L 506 -850 
L 844 -850 
Q 1081 -850 1212 -737 
Q 1344 -625 1503 -206 
L 1606 56 
L 191 3500 
L 800 3500 
L 1894 763 
L 2988 3500 
L 3597 3500 
L 2059 -325 
z
" id="DejaVuSans-79" transform="scale(0.015625)"/>
     </defs>
     <use xlink:href="#DejaVuSans-41"/>
     <use x="66.658203" xlink:href="#DejaVuSans-63"/>
     <use x="121.638672" xlink:href="#DejaVuSans-63"/>
     <use x="176.619141" xlink:href="#DejaVuSans-75"/>
     <use x="239.998047" xlink:href="#DejaVuSans-72"/>
     <use x="281.111328" xlink:href="#DejaVuSans-61"/>
     <use x="342.390625" xlink:href="#DejaVuSans-63"/>
     <use x="397.371094" xlink:href="#DejaVuSans-79"/>
     <use x="456.550781" xlink:href="#DejaVuSans-20"/>
     <use x="488.337891" xlink:href="#DejaVuSans-6f"/>
     <use x="549.519531" xlink:href="#DejaVuSans-6e"/>
     <use x="612.898438" xlink:href="#DejaVuSans-20"/>
     <use x="644.685547" xlink:href="#DejaVuSans-74"/>
     <use x="683.894531" xlink:href="#DejaVuSans-65"/>
     <use x="745.417969" xlink:href="#DejaVuSans-73"/>
     <use x="797.517578" xlink:href="#DejaVuSans-74"/>
     <use x="836.726562" xlink:href="#DejaVuSans-20"/>
     <use x="868.513672" xlink:href="#DejaVuSans-73"/>
     <use x="920.613281" xlink:href="#DejaVuSans-65"/>
     <use x="982.136719" xlink:href="#DejaVuSans-74"/>
    </g>
   </g>
  </g>
 </g>
 <defs>
  <clipPath id="p5f9c93cae1">
   <rect height="152.8" width="224.808368" x="50.925" y="26.8"/>
  </clipPath>
  <clipPath id="p2c9d9ae7c1">
   <rect height="152.8" width="224.808368" x="50.925" y="237.4"/>
  </clipPath>
 </defs>
</svg>
